<?xml version="1.0" encoding="utf-8"?>
<!-- Generator: Adobe Illustrator 23.0.1, SVG Export Plug-In . SVG Version: 6.00 Build 0)  -->
<svg version="1.1" id="Layer_1" xmlns="http://www.w3.org/2000/svg" xmlns:xlink="http://www.w3.org/1999/xlink" x="0px" y="0px"
	 viewBox="0 0 1440 79" style="enable-background:new 0 0 1440 79;" xml:space="preserve">
<style type="text/css">
	.st0{fill:none;stroke:#B6B6B9;}
	.st1{fill:none;stroke:#67CEBB;}
</style>
<title>Group 37</title>
<desc>Created with Sketch.</desc>
<g id="design-desck">
	<g id="Moving-design-new-customer-Copy-2" transform="translate(0.000000, -700.000000)">
		<g id="Group-37" transform="translate(-103.000000, 661.000000)">
			
				<g id="Group-24-Copy-8" transform="translate(836.908448, 70.418202) rotate(-357.000000) translate(-836.908448, -70.418202) translate(458.408448, 19.918202)">
				<path class="st0" d="M-353,115.8c25.7,17.5,45,12.8,56.8,4.9c15.1-10.2,32.9-53.8,75.2-43.8s66.7,26.9,87.5,19.1
					s20.8-25.6,58.3-30.1C-37.7,61.2-4.3,98.1,42.2,96c17.2-0.8,63.6-6.7,89.1-32.5l0,0c26.7-27,52.3-26.6,77.4,0.6
					c37.5,41,65.3,36.1,80.3,25.9c15.1-10.2,32.9-53.8,75.2-43.8s66.7,26.9,87.5,19.1c20.8-7.8,20.8-25.6,58.3-30.1
					s113.8,16.8,138.8,5.1c10.7-5.1,17.9-9.6,21.6-13.4"/>
				<path class="st1" d="M-355.3,71c15.9,3.3,28.7,13,38.4,29c21,34.7,56.3,34.5,67,26.1c10.7-8.4,48.6-41.9,89-37.1
					s57.9,13.5,78.6,5.8C-61.5,87-40.7,47.4,0.6,54.7l0,0c27.7,5.2,82.9,65.9,176.3-3.3c10.8-8,19.9-10.6,29.8-11.7
					c10-1.1,40.5-5.1,61.5,29.6c21,34.7,56.3,34.5,67,26.1s48.6-41.9,89-37.1s57.9,13.5,78.6,5.8C517,58.9,531.1,39,551.5,29
					c9.8-4.8,27.3-11.4,51.8-5.5c55.9,13.8,126.4-19.7,153.3-23"/>
			</g>
			
				<g id="Group-24-Copy-9" transform="translate(1385.056615, 74.340445) rotate(-357.000000) translate(-1385.056615, -74.340445) translate(1128.056615, 30.340445)">
				<path class="st0" d="M0.8,45.5c30.4-30,59.7-29.6,87.9,1.2C130.9,93,162,87.4,179,75.9c16.9-11.5,37-60.7,84.5-49.4
					s75,30.3,98.3,21.5c20.5-7.7,23-24.2,51.9-31.5"/>
				<path class="st1" d="M87.4,18.7c30.2-3.5,53.2,7.8,69,33.9c23.7,39.2,63.3,39,75.3,29.5s54.7-47.3,100-41.9
					c42.2,5,62.2,13.9,83.5,8.1"/>
			</g>
		</g>
	</g>
</g>
</svg>
