<?xml version="1.0" encoding="UTF-8"?>
<svg width="16px" height="16px" viewBox="0 0 16 16" version="1.1" xmlns="http://www.w3.org/2000/svg" xmlns:xlink="http://www.w3.org/1999/xlink">
    <!-- Generator: sketchtool 52.5 (67469) - http://www.bohemiancoding.com/sketch -->
    <title>60EB38D5-E06E-4AE2-AC05-EC74AA1661F6</title>
    <desc>Created with sketchtool.</desc>
    <defs>
        <polygon id="path-1" points="0 0.00016 16 0.00016 16 16 0 16"></polygon>
    </defs>
    <g id="Page-1" stroke="none" stroke-width="1" fill="none" fill-rule="evenodd">
        <g id="AU-New" transform="translate(-1307.000000, -3580.000000)">
            <g id="Group-12" transform="translate(1144.000000, 3568.000000)">
                <g id="Group-8" transform="translate(163.000000, 12.000000)">
                    <g id="Group-23">
                        <g id="Group-3">
                            <mask id="mask-2" fill="white">
                                <use xlink:href="#path-1"></use>
                            </mask>
                            <g id="Clip-2"></g>
                            <path d="M4,0.00016 L12,0.00016 C14.2096,0.00016 16,1.79056 16,4.00016 L16,12.00016 C16,14.20896 14.2096,16.00016 12,16.00016 L4,16.00016 C1.7912,16.00016 0,14.20896 0,12.00016 L0,4.00016 C0,1.79056 1.7912,0.00016 4,0.00016" id="Fill-1" fill="#9EB0BA" mask="url(#mask-2)"></path>
                        </g>
                        <path d="M11.3910463,7.49681522 C11.6687138,9.3702282 10.3755031,11.1133764 8.50296125,11.391046 C6.63041944,11.6687157 4.88728442,10.3754951 4.60875989,8.50293911 C4.33194937,6.62952613 5.62430316,4.88637792 7.49770196,4.60870829 C7.8310744,4.559002 8.16958882,4.559002 8.50296125,4.60870829 C9.9967097,4.83067259 11.1690837,6.00305546 11.3910463,7.49681522" id="Fill-4" fill="#FFFFFF"></path>
                        <path d="M13.7017773,3.26084317 C13.7943332,3.88531416 13.3632629,4.46636357 12.7390823,4.55892011 C12.1149017,4.65147665 11.5338567,4.22040312 11.4410152,3.5962178 C11.348745,2.97174681 11.7795296,2.3906974 12.4039959,2.29814086 C12.51512,2.28157209 12.6279582,2.28157209 12.7390823,2.29814086 C13.2369985,2.37212896 13.6277898,2.76292325 13.7017773,3.26084317" id="Fill-4" fill="#FFFFFF"></path>
                    </g>
                </g>
            </g>
        </g>
    </g>
</svg>