<?xml version="1.0" encoding="UTF-8"?>
<svg width="21px" height="16px" viewBox="0 0 21 16" version="1.1" xmlns="http://www.w3.org/2000/svg" xmlns:xlink="http://www.w3.org/1999/xlink">
    <!-- Generator: sketchtool 52.5 (67469) - http://www.bohemiancoding.com/sketch -->
    <title>F217E635-2C49-4D7C-9C31-306374A666F6</title>
    <desc>Created with sketchtool.</desc>
    <defs>
        <polygon id="path-1" points="4.55845206e-05 0.504093333 20.0878696 0.504093333 20.0878696 14.9333333 4.55845206e-05 14.9333333"></polygon>
    </defs>
    <g id="Page-1" stroke="none" stroke-width="1" fill="none" fill-rule="evenodd">
        <g id="AU-New" transform="translate(-1254.000000, -3580.000000)">
            <g id="Group-12" transform="translate(1144.000000, 3568.000000)">
                <g id="Group-21" transform="translate(110.000000, 12.000000)">
                    <g id="Group-6">
                        <g id="Group-3" transform="translate(0.000000, 0.429333)">
                            <mask id="mask-2" fill="white">
                                <use xlink:href="#path-1"></use>
                            </mask>
                            <g id="Clip-2"></g>
                            <path d="M19.6675043,2.76276 C19.4465478,1.86116 18.7718087,1.14902667 17.8962,0.896093333 C16.3257652,0.504093333 10.0440261,0.504093333 10.0440261,0.504093333 C10.0440261,0.504093333 3.76228696,0.504093333 2.19185217,0.933426667 C1.31715652,1.18636 0.641504348,1.89849333 0.420547826,2.80009333 C0.13293913,4.42969333 -0.00766956522,6.08169333 0.000547826087,7.73742667 C-0.00949565217,9.40529333 0.131113043,11.07036 0.420547826,12.7120933 C0.664330435,13.58476 1.33541739,14.26516 2.19185217,14.5040933 C3.76228696,14.9334267 10.0440261,14.9334267 10.0440261,14.9334267 C10.0440261,14.9334267 16.3257652,14.9334267 17.8962,14.5040933 C18.7718087,14.25116 19.4465478,13.5390267 19.6675043,12.6374267 C19.9523739,11.01996 20.0929826,9.38009333 20.0875043,7.73742667 C20.0975478,6.06956 19.9569391,4.40449333 19.6675043,2.76276" id="Fill-1" fill="#9EB0BA" mask="url(#mask-2)"></path>
                        </g>
                        <polygon id="Fill-4" fill="#FFFFFF" points="7.98967826 11.2188533 13.2396783 8.16685333 7.98967826 5.11485333"></polygon>
                    </g>
                </g>
            </g>
        </g>
    </g>
</svg>