<?xml version="1.0" encoding="UTF-8"?>
<svg width="48px" height="44px" viewBox="0 0 48 44" version="1.1" xmlns="http://www.w3.org/2000/svg" xmlns:xlink="http://www.w3.org/1999/xlink">
    <!-- Generator: sketchtool 52.5 (67469) - http://www.bohemiancoding.com/sketch -->
    <title>88ADFCD7-6758-4C35-9E5D-BA32235A2408</title>
    <desc>Created with sketchtool.</desc>
    <defs>
        <polygon id="path-1" points="0.0002 0.0002 36 0.0002 36 22.0002 0.0002 22.0002"></polygon>
    </defs>
    <g id="Symbols" stroke="none" stroke-width="1" fill="none" fill-rule="evenodd">
        <g id="footer" transform="translate(-870.000000, -119.000000)">
            <g id="Group-18" transform="translate(870.000000, 119.000000)">
                <path d="M31.0002,43.9997 L3.0002,43.9997 C1.3432,43.9997 0.0002,42.6567 0.0002,40.9997 L0.0002,16.9997 C0.0002,15.3427 1.3432,13.9997 3.0002,13.9997 L31.0002,13.9997 C32.6562,13.9997 34.0002,15.3427 34.0002,16.9997 L34.0002,21.9997 C34.0002,22.5527 33.5522,22.9997 33.0002,22.9997 C32.4472,22.9997 32.0002,22.5527 32.0002,21.9997 L32.0002,16.9997 C32.0002,16.4477 31.5522,15.9997 31.0002,15.9997 L3.0002,15.9997 C2.4472,15.9997 2.0002,16.4477 2.0002,16.9997 L2.0002,40.9997 C2.0002,41.5527 2.4472,41.9997 3.0002,41.9997 L31.0002,41.9997 C31.5522,41.9997 32.0002,41.5527 32.0002,40.9997 L32.0002,35.9997 C32.0002,35.4477 32.4472,34.9997 33.0002,34.9997 C33.5522,34.9997 34.0002,35.4477 34.0002,35.9997 L34.0002,40.9997 C34.0002,42.6567 32.6562,43.9997 31.0002,43.9997" id="Fill-1" fill="#9EB0BA"></path>
                <path d="M28.0002,27.0002 C27.4472,27.0002 27.0002,27.4482 27.0002,28.0002 L27.0002,30.0002 C27.0002,30.5522 27.4472,31.0002 28.0002,31.0002 L34.0002,31.0002 C34.5522,31.0002 35.0002,30.5522 35.0002,30.0002 L35.0002,28.0002 C35.0002,27.4482 34.5522,27.0002 34.0002,27.0002 L28.0002,27.0002 Z M34.0002,33.0002 L28.0002,33.0002 C26.3432,33.0002 25.0002,31.6572 25.0002,30.0002 L25.0002,28.0002 C25.0002,26.3432 26.3432,25.0002 28.0002,25.0002 L34.0002,25.0002 C35.6562,25.0002 37.0002,26.3432 37.0002,28.0002 L37.0002,30.0002 C37.0002,31.6572 35.6562,33.0002 34.0002,33.0002 Z" id="Fill-3" fill="#9EB0BA"></path>
                <g id="Group-7" transform="translate(12.000000, 0.000000)">
                    <mask id="mask-2" fill="white">
                        <use xlink:href="#path-1"></use>
                    </mask>
                    <g id="Clip-6"></g>
                    <path d="M35.0002,22.0002 L25.0002,22.0002 C24.4472,22.0002 24.0002,21.5522 24.0002,21.0002 C24.0002,20.4482 24.4472,20.0002 25.0002,20.0002 L34.0002,20.0002 L34.0002,2.0002 L2.0002,2.0002 L2.0002,11.0002 C2.0002,11.5522 1.5522,12.0002 1.0002,12.0002 C0.4472,12.0002 0.0002,11.5522 0.0002,11.0002 L0.0002,1.0002 C0.0002,0.4482 0.4472,0.0002 1.0002,0.0002 L35.0002,0.0002 C35.5522,0.0002 36.0002,0.4482 36.0002,1.0002 L36.0002,21.0002 C36.0002,21.5522 35.5522,22.0002 35.0002,22.0002" id="Fill-5" fill="#9EB0BA" mask="url(#mask-2)"></path>
                </g>
                <path d="M39.0002,18.0002 L37.0002,18.0002 C36.4472,18.0002 36.0002,17.5522 36.0002,17.0002 C36.0002,16.4482 36.4472,16.0002 37.0002,16.0002 L38.1002,16.0002 C38.5002,14.0362 40.0352,12.5002 42.0002,12.1002 L42.0002,9.9002 C40.0352,9.4992 38.5002,7.9642 38.1002,6.0002 L36.0002,6.0002 C35.4472,6.0002 35.0002,5.5522 35.0002,5.0002 C35.0002,4.4482 35.4472,4.0002 36.0002,4.0002 L39.0002,4.0002 C39.5522,4.0002 40.0002,4.4482 40.0002,5.0002 C40.0002,6.6572 41.3432,8.0002 43.0002,8.0002 C43.5522,8.0002 44.0002,8.4482 44.0002,9.0002 L44.0002,13.0002 C44.0002,13.5522 43.5522,14.0002 43.0002,14.0002 C41.3432,14.0002 40.0002,15.3432 40.0002,17.0002 C40.0002,17.5522 39.5522,18.0002 39.0002,18.0002" id="Fill-8" fill="#9EB0BA"></path>
                <path d="M17.0002,12.0002 C16.4472,12.0002 16.0002,11.5522 16.0002,11.0002 L16.0002,9.0002 C16.0002,8.4482 16.4472,8.0002 17.0002,8.0002 C18.6562,8.0002 20.0002,6.6572 20.0002,5.0002 C20.0002,4.4482 20.4472,4.0002 21.0002,4.0002 L24.0002,4.0002 C24.5522,4.0002 25.0002,4.4482 25.0002,5.0002 C25.0002,5.5522 24.5522,6.0002 24.0002,6.0002 L21.8992,6.0002 C21.4992,7.9642 19.9642,9.4992 18.0002,9.9002 L18.0002,11.0002 C18.0002,11.5522 17.5522,12.0002 17.0002,12.0002" id="Fill-10" fill="#9EB0BA"></path>
                <path d="M35.0002,12.0002 C34.4472,12.0002 34.0002,11.5522 34.0002,11.0002 C34.0002,8.7912 32.2092,7.0002 30.0002,7.0002 C27.7912,7.0002 26.0002,8.7912 26.0002,11.0002 C26.0002,11.5522 25.5522,12.0002 25.0002,12.0002 C24.4472,12.0002 24.0002,11.5522 24.0002,11.0002 C24.0002,7.6862 26.6872,5.0002 30.0002,5.0002 C33.3132,5.0002 36.0002,7.6862 36.0002,11.0002 C36.0002,11.5522 35.5522,12.0002 35.0002,12.0002" id="Fill-12" fill="#9EB0BA"></path>
                <path d="M29.0002,23.0002 C28.4472,23.0002 28.0002,22.5522 28.0002,22.0002 L28.0002,21.0002 L1.0002,21.0002 C0.4472,21.0002 0.0002,20.5522 0.0002,20.0002 C0.0002,19.4482 0.4472,19.0002 1.0002,19.0002 L29.0002,19.0002 C29.5522,19.0002 30.0002,19.4482 30.0002,20.0002 L30.0002,22.0002 C30.0002,22.5522 29.5522,23.0002 29.0002,23.0002" id="Fill-14" fill="#9EB0BA"></path>
                <path d="M29.0002,38.9997 L1.0002,38.9997 C0.4472,38.9997 0.0002,38.5527 0.0002,37.9997 C0.0002,37.4477 0.4472,36.9997 1.0002,36.9997 L28.0002,36.9997 L28.0002,35.9997 C28.0002,35.4477 28.4472,34.9997 29.0002,34.9997 C29.5522,34.9997 30.0002,35.4477 30.0002,35.9997 L30.0002,37.9997 C30.0002,38.5527 29.5522,38.9997 29.0002,38.9997" id="Fill-16" fill="#9EB0BA"></path>
            </g>
        </g>
    </g>
</svg>