<?xml version="1.0" encoding="UTF-8"?>
<svg width="41px" height="44px" viewBox="0 0 41 44" version="1.1" xmlns="http://www.w3.org/2000/svg" xmlns:xlink="http://www.w3.org/1999/xlink">
    <!-- Generator: sketchtool 52.5 (67469) - http://www.bohemiancoding.com/sketch -->
    <title>CFA472E2-8903-4412-8ADD-A294F6F9CE7A</title>
    <desc>Created with sketchtool.</desc>
    <defs>
        <polygon id="path-1" points="0 0.000157613661 34.545 0.000157613661 34.545 44 0 44"></polygon>
        <polygon id="path-3" points="0 0.000183333333 9.09045455 0.000183333333 9.09045455 9.16685 0 9.16685"></polygon>
    </defs>
    <g id="Symbols" stroke="none" stroke-width="1" fill="none" fill-rule="evenodd">
        <g id="footer" transform="translate(-1173.000000, -119.000000)">
            <g id="Group-19" transform="translate(1173.000000, 119.000000)">
                <g id="Group-17">
                    <g id="Group-3">
                        <mask id="mask-2" fill="white">
                            <use xlink:href="#path-1"></use>
                        </mask>
                        <g id="Clip-2"></g>
                        <path d="M22.7268182,44.0001833 L2.72681818,44.0001833 C1.22136364,44.0001833 -0.000454545455,42.7681833 -0.000454545455,41.2501833 L-0.000454545455,8.25018333 C-0.00136363636,8.00635 0.0940909091,7.7726 0.263181818,7.59935 L7.53590909,0.266016667 C7.70772727,0.0946 7.93954545,-0.00165 8.18136364,0.000183333333 L31.8177273,0.000183333333 C33.3240909,0.000183333333 34.545,1.23126667 34.545,2.75018333 L34.545,8.25018333 C34.545,8.75618333 34.1386364,9.16685 33.6359091,9.16685 C33.1340909,9.16685 32.7268182,8.75618333 32.7268182,8.25018333 L32.7268182,2.75018333 C32.7268182,2.24418333 32.3204545,1.83351667 31.8177273,1.83351667 L8.55409091,1.83351667 L1.81772727,8.62601667 L1.81772727,41.2501833 C1.81772727,41.7561833 2.225,42.16685 2.72681818,42.16685 L22.7268182,42.16685 C23.2295455,42.16685 23.6359091,42.5766 23.6359091,43.0835167 C23.6359091,43.5895167 23.2295455,44.0001833 22.7268182,44.0001833" id="Fill-1" fill="#9EB0BA" mask="url(#mask-2)"></path>
                    </g>
                    <g id="Group-6">
                        <mask id="mask-4" fill="white">
                            <use xlink:href="#path-3"></use>
                        </mask>
                        <g id="Clip-5"></g>
                        <path d="M8.18136364,9.16685 L0.908636364,9.16685 C0.406818182,9.16685 -0.000454545454,8.75618333 -0.000454545454,8.25018333 C-0.000454545454,7.74418333 0.406818182,7.33351667 0.908636364,7.33351667 L7.27227273,7.33351667 L7.27227273,0.91685 C7.27227273,0.41085 7.67954545,0.000183333333 8.18136364,0.000183333333 C8.68409091,0.000183333333 9.09045455,0.41085 9.09045455,0.91685 L9.09045455,8.25018333 C9.09045455,8.75618333 8.68409091,9.16685 8.18136364,9.16685" id="Fill-4" fill="#9EB0BA" mask="url(#mask-4)"></path>
                    </g>
                    <g id="Group-2" transform="translate(13.000000, 12.000000)" fill="#9EB0BA">
                        <g id="Group">
                            <path d="M7.27951049,1.77335128 L7.27951049,8.62338974 C7.27951049,12.4062615 10.3203497,15.4734282 14.0729371,15.4734282 C17.8245455,15.4734282 20.8663636,12.4062615 20.8663636,8.62338974 L20.8663636,1.77335128 L7.27951049,1.77335128 Z M14.0729371,17.1861846 C9.38244755,17.1861846 5.58188811,13.3529667 5.58188811,8.62338974 L5.58188811,0.917466667 C5.58188811,0.444607692 5.96076923,0.0615820513 6.4306993,0.0615820513 L21.7161538,0.0615820513 C22.1851049,0.0615820513 22.564965,0.444607692 22.564965,0.917466667 L22.564965,8.62338974 C22.564965,13.3529667 18.7624476,17.1861846 14.0729371,17.1861846 Z" id="Fill-7"></path>
                            <path d="M6.57481119,25.7485846 L21.5714545,25.7485846 C21.2111748,24.7219179 20.2487972,24.0358282 19.167958,24.0368154 L8.97732867,24.0368154 C7.89844755,24.0358282 6.93411189,24.7219179 6.57481119,25.7485846 M22.5651608,27.461341 L5.5811049,27.461341 C5.11215385,27.461341 4.73131469,27.0783154 4.73131469,26.6054564 C4.73131469,24.2411615 6.63355245,22.324059 8.97732867,22.324059 L19.167958,22.324059 C21.5136923,22.324059 23.413972,24.2411615 23.413972,26.6054564 C23.413972,27.0783154 23.0341119,27.461341 22.5651608,27.461341" id="Fill-9"></path>
                            <path d="M14.0733287,24.0365192 C13.6043776,24.0365192 13.2245175,23.6525064 13.2245175,23.1806346 L13.2245175,16.329609 C13.2245175,15.85675 13.6043776,15.4737244 14.0733287,15.4737244 C14.5422797,15.4737244 14.9221399,15.85675 14.9221399,16.329609 L14.9221399,23.1806346 C14.9221399,23.6525064 14.5422797,24.0365192 14.0733287,24.0365192" id="Fill-11"></path>
                            <path d="M21.7162517,10.3364423 C21.2473007,10.3364423 20.8664615,9.95242949 20.8664615,9.47957051 C20.8664615,9.00671154 21.2473007,8.6236859 21.7162517,8.6236859 C24.061007,8.6236859 25.9622657,6.70658333 25.9622657,4.34228846 L25.9622657,1.77364744 L21.7162517,1.77364744 C21.2473007,1.77364744 20.8664615,1.38963462 20.8664615,0.916775641 C20.8664615,0.443916667 21.2473007,0.0608910256 21.7162517,0.0608910256 L26.8110769,0.0608910256 C27.280028,0.0608910256 27.6598881,0.443916667 27.6598881,0.916775641 L27.6598881,4.34228846 C27.6598881,7.65230128 24.9989091,10.3364423 21.7162517,10.3364423" id="Fill-13"></path>
                            <path d="M6.4305035,10.3364423 C3.14686713,10.3364423 0.485888112,7.65230128 0.485888112,4.34228846 L0.485888112,0.916775641 C0.485888112,0.443916667 0.865748252,0.0608910256 1.33567832,0.0608910256 L6.4305035,0.0608910256 C6.89945455,0.0608910256 7.27931469,0.443916667 7.27931469,0.916775641 C7.27931469,1.38963462 6.89945455,1.77364744 6.4305035,1.77364744 L2.18448951,1.77364744 L2.18448951,4.34228846 C2.18448951,6.70658333 4.08476923,8.6236859 6.4305035,8.6236859 C6.89945455,8.6236859 7.27931469,9.00671154 7.27931469,9.47957051 C7.27931469,9.95242949 6.89945455,10.3364423 6.4305035,10.3364423" id="Fill-15"></path>
                        </g>
                    </g>
                </g>
            </g>
        </g>
    </g>
</svg>