<?xml version="1.0" encoding="UTF-8"?>
<svg width="43px" height="43px" viewBox="0 0 43 43" version="1.1" xmlns="http://www.w3.org/2000/svg" xmlns:xlink="http://www.w3.org/1999/xlink">
    <!-- Generator: sketchtool 52.5 (67469) - http://www.bohemiancoding.com/sketch -->
    <title>1AAF8144-2F28-4F5F-A862-40D650D1766D</title>
    <desc>Created with sketchtool.</desc>
    <defs>
        <polygon id="path-1" points="3.359375e-05 0.0495104989 43 0.0495104989 43 42.4612654 3.359375e-05 42.4612654"></polygon>
        <polygon id="path-3" points="3.35937511e-05 0.0495104989 43 0.0495104989 43 42.4612654 3.35937511e-05 42.4612654"></polygon>
    </defs>
    <g id="design" stroke="none" stroke-width="1" fill="none" fill-rule="evenodd">
        <g id="AU-about-design" transform="translate(-559.000000, -1239.000000)">
            <g id="Group-33" transform="translate(559.000000, 1239.000000)">
                <g id="Group-32">
                    <path d="M18.1185623,0.913182588 L4.19596855,0.911358081 C2.34276934,0.911109284 0.840372852,2.39385335 0.840120898,4.22375144 C0.839784961,7.00994025 0.83919707,10.9645603 0.838861133,13.6943552 C0.83860918,15.4165244 2.2521502,16.8124385 3.99616973,16.8129361 L5.36998613,16.8137654 L9.90102715,21.2891164 L9.90161504,16.8143459 L18.1166307,16.8146777 C19.9696619,16.8147606 21.4718904,15.3315189 21.4721424,13.5017038 L21.4734021,4.22698579 C21.4736541,2.39708771 19.9715936,0.913431385 18.1185623,0.913182588" id="Fill-1" fill="#C5D2F0"></path>
                    <path d="M35.5881354,32.9718028 L35.5881354,17.3132161 C35.5881354,12.555481 31.682358,8.69863805 26.8642584,8.69863805 C22.0460748,8.69863805 18.1402975,12.555481 18.1402975,17.3132161 L18.1402975,32.9718028" id="Fill-3" fill="#F5C86E"></path>
                    <path d="M20.4735262,19.3989101 L18.9707937,19.3989101 C17.4883016,19.3989101 16.2865691,20.5856693 16.2865691,22.0495048 C16.2865691,23.5135062 17.4883016,24.7001825 18.9707937,24.7001825 L20.4735262,24.7001825 L20.4735262,19.3989101 Z" id="Fill-5" fill="#C5D2F0"></path>
                    <path d="M33.2550242,24.7003732 L34.7577566,24.7003732 C36.2401648,24.7003732 37.4419812,23.513614 37.4419812,22.0496956 C37.4419812,20.5857771 36.2401648,19.3991008 34.7577566,19.3991008 L33.2550242,19.3991008 L33.2550242,24.7003732 Z" id="Fill-7" fill="#C5D2F0"></path>
                    <path d="M33.2549402,19.3989101 L30.283573,19.3989101 L29.2710574,19.3989101 C26.6329402,19.3989101 24.0592391,18.6706828 21.8328973,17.3132492 L20.3335242,17.3132492 L20.3335242,22.5506639 C20.3335242,26.139636 23.2798641,29.048979 26.9142039,29.048979 C30.5486277,29.048979 33.4948836,26.139636 33.4948836,22.5506639 L33.4948836,19.3989101 L33.2549402,19.3989101 Z" id="Fill-9" fill="#FFCDAC"></path>
                    <path d="M15.4461543,41.6661533 L12.0035508,41.6661533 L12.0035508,37.5903694 C12.0035508,35.450388 13.6971797,34.2343537 16.189668,33.7156131 L21.4859746,32.5257025 C22.725752,32.1158517 23.5514023,31.6088875 23.5514023,30.4779416 L23.5514023,28.5784634 L30.6147402,28.5026634 L30.6147402,30.4778587 C30.6147402,31.6088045 31.4403066,32.1157688 32.680168,32.5256195 L37.9765586,33.7155302 C40.4689629,34.2341879 42.161416,35.4503051 42.161416,37.5902865 L42.161416,41.6661533 L23.5176406,41.6660704 L15.4461543,41.6660704 L15.4461543,41.6661533 Z" id="Fill-11" fill="#FFCDAC"></path>
                    <path d="M37.976357,33.7156048 L33.8654898,32.7919893 L26.9141871,36.1433608 L20.0703004,32.843739 L16.1896344,33.7156048 C13.6972301,34.2342625 12.0036012,35.4503797 12.0036012,37.5903611 L12.0036012,41.666145 L15.4462047,41.666145 L23.517775,41.666145 L42.1612145,41.666145 L42.1612145,37.5903611 C42.1611305,35.4503797 40.4688453,34.2342625 37.976357,33.7156048" id="Fill-13" fill="#67CEBB"></path>
                    <path d="M16.5218346,7.53786979 C17.2626607,7.53786979 17.863233,8.13091766 17.863233,8.86246223 C17.863233,9.59400681 17.2626607,10.1869717 16.5218346,10.1869717 C15.7810084,10.1869717 15.1804361,9.59400681 15.1804361,8.86246223 C15.1804361,8.13091766 15.7810084,7.53786979 16.5218346,7.53786979" id="Fill-15" fill="#FFFFFF"></path>
                    <path d="M11.1557369,7.53702388 C11.8965631,7.53702388 12.4971354,8.13007175 12.4971354,8.86161632 C12.4971354,9.5931609 11.8965631,10.1862088 11.1557369,10.1862088 C10.4149107,10.1862088 9.81433848,9.5931609 9.81433848,8.86161632 C9.81433848,8.13007175 10.4149107,7.53702388 11.1557369,7.53702388" id="Fill-17" fill="#FFFFFF"></path>
                    <path d="M5.79053789,7.53621115 C6.53136406,7.53621115 7.13193633,8.12925901 7.13193633,8.86080359 C7.13193633,9.59234816 6.53136406,10.185396 5.79053789,10.185396 C5.04971172,10.185396 4.44913945,9.59234816 4.44913945,8.86080359 C4.44913945,8.12925901 5.04971172,7.53621115 5.79053789,7.53621115" id="Fill-19" fill="#FFFFFF"></path>
                    <path d="M16.8771305,9.21339796 C16.7822281,9.3071113 16.6559156,9.3586951 16.5217926,9.3586951 L16.5217086,9.3586951 C16.3874176,9.3586951 16.261357,9.30702836 16.1663707,9.21323209 C16.0715523,9.11943582 16.0193141,8.99487172 16.0193141,8.86234613 L16.0193141,8.86226319 C16.0193141,8.7297376 16.0715523,8.6051735 16.1665387,8.51146016 C16.261441,8.41774682 16.3875016,8.36616302 16.5217086,8.36616302 L16.5219605,8.36616302 C16.6561676,8.36616302 16.7823121,8.41782975 16.8772145,8.51154309 C16.9721168,8.60533937 17.0243551,8.7299864 17.0243551,8.86251199 C17.0243551,8.99495465 16.9720328,9.11960168 16.8771305,9.21339796 M16.5221285,6.70942728 L16.5216246,6.70942728 C15.9394449,6.70942728 15.3920348,6.93326118 14.9803434,7.33971169 C14.568484,7.74624513 14.3417262,8.28696281 14.3416422,8.86193147 L14.3416422,8.8620144 C14.3414742,9.43706599 14.568148,9.97778366 14.9798395,10.384483 C15.3916988,10.7911823 15.939193,11.015182 16.5215406,11.015265 L16.5218766,11.015265 C17.1039723,11.015265 17.6514664,10.7913481 18.0633258,10.3848976 C18.4751012,9.97836419 18.701943,9.43764651 18.702027,8.86259492 C18.7021109,8.28754333 18.4753531,7.74682566 18.0636617,7.34020928 C17.6519703,6.93350997 17.1043922,6.70951021 16.5221285,6.70942728" id="Fill-23" fill="#003D74"></path>
                    <path d="M10.8008525,8.51066401 C10.8956709,8.41695067 11.0218994,8.36536687 11.1561064,8.36536687 L11.1562744,8.36536687 C11.2904814,8.36536687 11.416626,8.41695067 11.5115283,8.51074695 C11.6064307,8.60446029 11.658585,8.72910732 11.658585,8.86171584 C11.658585,8.99432436 11.6063467,9.11880554 11.5113604,9.21260181 C11.416458,9.30623221 11.2903135,9.35781602 11.1561064,9.35781602 L11.1560225,9.35781602 C11.0218154,9.35781602 10.8955869,9.30614928 10.8006846,9.21251887 C10.7057822,9.1187226 10.6535439,8.99407557 10.6535439,8.86154998 C10.6535439,8.72902439 10.7058662,8.60437735 10.8008525,8.51066401 M9.6142373,10.3838527 C10.0259287,10.790552 10.5735068,11.0145518 11.1558545,11.0146347 L11.1561064,11.0146347 C11.7383701,11.0146347 12.2858643,10.7907179 12.6975557,10.3842673 C13.109415,9.97765097 13.3361729,9.4369333 13.3363408,8.86204757 C13.3365088,8.28699598 13.109751,7.74619537 12.6980596,7.339579 C12.2862842,6.93287969 11.7387061,6.70887993 11.1565264,6.708797 L11.1560225,6.708797 C10.5738428,6.708797 10.0264326,6.93263089 9.61457324,7.3390814 C9.20279785,7.74569778 8.97595605,8.28633252 8.97587207,8.86146705 C8.97578809,9.43651864 9.2025459,9.97715338 9.6142373,10.3838527" id="Fill-25" fill="#003D74"></path>
                    <path d="M6.14586738,9.21190518 C6.05088105,9.30561852 5.92465254,9.35720232 5.79052949,9.35720232 L5.79044551,9.35720232 C5.65615449,9.35720232 5.53000996,9.30553558 5.43510762,9.21173931 C5.34012129,9.1181089 5.28796699,8.99337894 5.28796699,8.86093628 L5.28796699,8.86085335 C5.28796699,8.72824483 5.34020527,8.60376366 5.4351916,8.50996738 C5.53009395,8.41633698 5.65632246,8.36467024 5.79052949,8.36467024 L5.79061348,8.36467024 C5.92490449,8.36467024 6.05096504,8.41633698 6.14595137,8.51005032 C6.24076973,8.60384659 6.29309199,8.72849362 6.29309199,8.86101921 C6.29309199,8.9935448 6.24060176,9.11819184 6.14586738,9.21190518 M5.79069746,6.70801743 L5.79044551,6.70801743 C5.20818184,6.70801743 4.6606877,6.93193426 4.24899629,7.33838477 C3.83713691,7.74491822 3.61029512,8.28563589 3.61021113,8.86060455 L3.61021113,8.86068748 C3.61012715,9.43573907 3.83680098,9.97637382 4.24857637,10.3830731 C4.66026777,10.7897724 5.2078459,11.0137722 5.79019355,11.0138551 L5.79044551,11.0138551 C6.3726252,11.0138551 6.92011934,10.7899383 7.33189473,10.3834878 C7.7437541,9.97695434 7.9705959,9.43623667 7.97067988,8.86118508 C7.97076387,8.28613349 7.74400605,7.74541581 7.33231465,7.33879944 C6.92062324,6.93210013 6.3731291,6.70810037 5.79069746,6.70801743" id="Fill-27" fill="#003D74"></path>
                    <g id="Group-31" transform="translate(0.000000, 0.033422)">
                        <mask id="mask-2" fill="white">
                            <use xlink:href="#path-1"></use>
                        </mask>
                        <g id="Clip-30"></g>
                        <mask id="mask-4" fill="white">
                            <use xlink:href="#path-3"></use>
                        </mask>
                        <g id="Clip-30"></g>
                        <path d="M34.757723,23.8386003 L34.0177367,23.8386003 C34.0670355,23.5024762 34.0939105,23.15922 34.0939105,22.809661 L34.0939105,20.1939807 L34.757723,20.1939807 C35.7752777,20.1939807 36.6031957,21.011443 36.6031957,22.016249 C36.6031957,23.0212209 35.7751938,23.8386003 34.757723,23.8386003 Z M34.7493246,32.1077659 L32.9077152,31.6940173 C31.5637133,31.2431981 31.4535258,30.8612126 31.4535258,30.4445614 L31.4535258,28.4693662 C31.4535258,28.4222607 31.4485707,28.3763992 31.4409281,28.33145 C32.3678637,27.580914 33.1018871,26.6074563 33.5610297,25.495336 L34.7493246,25.495336 L34.7493246,32.1077659 Z M26.9141703,35.188198 L22.4336879,33.0279811 C23.2975512,32.6619185 24.3901879,31.9524339 24.3901879,30.4445614 L24.3901879,29.5177945 C25.1623402,29.7964466 25.9956332,29.94871 26.8642836,29.94871 C27.8998949,29.94871 28.8843598,29.7309302 29.7758539,29.3418954 L29.7758539,30.4444785 C29.7758539,31.8515055 30.7273129,32.563561 31.5564906,32.9500249 L26.9141703,35.188198 Z M18.9791586,32.2060405 L18.9791586,25.4951702 L20.1674535,25.4951702 C20.6945395,26.7720766 21.5852777,27.8649566 22.712432,28.6487484 L22.712432,30.4445614 C22.712432,30.8612126 22.6023285,31.2431981 21.2582426,31.6940173 L18.9791586,32.2060405 Z M18.5805688,23.7970513 C18.471557,23.7303738 18.3460844,23.6875808 18.2113734,23.6763021 C17.5717484,23.3897714 17.1253715,22.7535989 17.1253715,22.0160002 C17.1253715,21.0111942 17.9532055,20.1937319 18.9707602,20.1937319 L19.6346566,20.1937319 L19.6346566,22.8095781 C19.6346566,23.1589712 19.6614477,23.5022275 19.7107465,23.8383518 L18.9707602,23.8383515 C18.836973,23.8384344 18.7064613,23.8239213 18.5805688,23.7970513 Z M29.9549086,26.7503484 L30.7181586,26.7503484 C29.7188285,27.7036536 28.3602133,28.2919743 26.8642836,28.2919743 C23.8029691,28.2919743 21.3123285,25.832704 21.3123285,22.8095781 L21.3123285,17.9351575 C23.6871547,19.4001541 26.4582191,20.1937319 29.2710238,20.1937319 L32.4160707,20.1937319 L32.4160707,22.8095781 C32.4160707,23.6251329 32.2334887,24.3987241 31.9087211,25.0949396 C31.8998188,25.0946908 31.8910844,25.0936126 31.8820141,25.0936126 L29.9548246,25.0936126 C29.4916508,25.0936126 29.1159887,25.4644853 29.1159887,25.9219391 C29.1159887,26.3793928 29.4916508,26.7503484 29.9549086,26.7503484 Z M18.9791586,17.2798276 C18.9791586,12.9864297 22.5163285,9.49349303 26.8642836,9.49349303 C31.2120707,9.49349303 34.7493246,12.9864297 34.7493246,17.2798276 L34.7493246,18.5374108 L33.258266,18.5373279 C33.2570902,18.5373279 33.2560824,18.537162 33.2549066,18.537162 L29.2710238,18.537162 C26.2809281,18.537162 23.3441625,17.5275459 21.0003266,15.6942476 C20.9328871,15.6405076 20.8570492,15.5968853 20.7748285,15.5657028 C20.7747445,15.5656198 20.7746605,15.5656198 20.7746605,15.5656198 C20.7744086,15.5655369 20.7740727,15.565371 20.7737367,15.5652881 C20.7734008,15.5651222 20.7729809,15.5649564 20.7726449,15.5647905 C20.6655648,15.5244855 20.5515141,15.5069868 20.4410746,15.5111334 C20.3198852,15.5157776 20.2054145,15.5456332 20.1027016,15.5956413 C20.0046918,15.6433273 19.9147445,15.7105853 19.8391586,15.7967518 C19.7719711,15.8733811 19.718809,15.9622014 19.6836195,16.0594808 C19.6836195,16.0594808 19.6834516,16.0594808 19.6834516,16.0596467 C19.6833676,16.0599784 19.6831996,16.0602272 19.6831156,16.060559 C19.6830316,16.0607248 19.6830316,16.0607248 19.6830316,16.0608907 C19.6828637,16.0611395 19.6827797,16.0615542 19.6826957,16.0618029 C19.6826117,16.0619688 19.6826117,16.0620517 19.6825277,16.0622176 C19.6825277,16.0624664 19.6824437,16.0626323 19.6823598,16.0628811 C19.6822758,16.0631299 19.6821918,16.0633787 19.6821078,16.0636275 C19.6820238,16.0637104 19.6820238,16.0638763 19.6819398,16.0639592 C19.6817719,16.0642909 19.6816879,16.0646226 19.6815199,16.0648714 C19.6815199,16.0649544 19.6815199,16.0651202 19.6814359,16.0652032 C19.681352,16.065452 19.681184,16.0658666 19.6811,16.0661984 L19.6811,16.0662813 C19.649018,16.157092 19.6337328,16.2518835 19.6344887,16.3460944 L19.6344887,18.5374108 L18.9789906,18.5374108 L18.9789906,17.2798276 L18.9791586,17.2798276 Z M1.72885195,3.69520821 C1.82560195,3.22025573 2.06134609,2.78386671 2.41618008,2.43372714 C2.89144766,1.96457991 3.52317813,1.70624624 4.19538906,1.70624624 L4.19580898,1.70624624 L18.1184027,1.70807075 C19.5059926,1.70823661 20.6347426,2.82317655 20.6345746,4.19304996 L20.6332309,6.27630579 C20.6329789,6.73375958 21.0067934,7.10496392 21.4701352,7.10521272 L21.4720668,7.10521272 C21.9350727,7.10521272 22.3105668,6.7345889 22.3109027,6.27738391 L22.3123305,4.19371341 C22.3124145,3.08739841 21.8762836,2.04726328 21.084143,1.26496422 C20.2920863,0.482582233 19.2389223,0.051666735 18.1185707,0.0515008707 L4.19597695,0.0495104989 L4.19538906,0.0495104989 C3.07528945,0.0495104989 2.02229336,0.480094268 1.23015273,1.26197866 C0.437844141,2.04386306 0.00146132813,3.08383233 0.00129335937,4.19031319 L3.359375e-05,13.6609169 C-0.00030234375,15.836808 1.79226016,17.6074096 3.99559023,17.6078243 L5.02221523,17.6084877 L9.30768594,21.841511 C9.46818008,22.0000773 9.68284414,22.0842534 9.90111953,22.0842534 C10.0091234,22.0842534 10.1181352,22.0636033 10.2217719,22.021225 C10.5352016,21.8930118 10.7397035,21.5909729 10.7397875,21.2560099 L10.7403754,17.6094829 L17.3014027,17.6097317 L17.3014027,18.9534815 C16.1986879,19.5418851 15.4476996,20.6940616 15.4476996,22.016249 C15.4476996,23.3386023 16.1986039,24.4906959 17.3014027,25.0791825 L17.3014027,32.5830501 L16.010059,32.8731467 C12.8855043,33.5252423 11.1646645,35.1884468 11.1646645,37.5570722 L11.1646645,41.632856 C11.1646645,42.0903098 11.5402426,42.4612654 12.0035004,42.4612654 L15.4461039,42.4612654 C15.9092777,42.4612654 16.2849398,42.0903098 16.2849398,41.632856 C16.2849398,41.1755681 15.9092777,40.8046126 15.4461039,40.8046126 L12.8423363,40.8046126 L12.8423363,37.5570722 C12.8423363,36.0098898 14.026684,34.9789601 16.3626254,34.4928947 C16.3669086,34.4919825 16.3713598,34.4910702 16.375643,34.4900751 L19.9678227,33.6830622 L26.5460668,36.8544709 C26.6622172,36.910533 26.7881098,36.9385641 26.9140863,36.9385641 C27.0400629,36.9385641 27.1660395,36.910533 27.2821898,36.8544709 L33.8606859,33.6828963 C33.8940277,33.6668904 33.9253539,33.6483136 33.9554203,33.6285758 L37.7901469,34.4900751 C37.794682,34.4910702 37.7989652,34.4919825 37.8033324,34.4928947 C40.13835,34.9787943 41.3222777,36.0098069 41.3222777,37.5570722 L41.3222777,40.8046126 L23.5175902,40.8046126 C23.0543324,40.8046126 22.6787543,41.1755681 22.6787543,41.632856 C22.6787543,42.0903098 23.0543324,42.4612654 23.5175902,42.4612654 L42.1611137,42.4612654 C42.6243715,42.4612654 43.0000336,42.0903098 43.0000336,41.632856 L43.0000336,37.5570722 C43.0000336,35.188198 41.2796977,33.5249935 38.1560668,32.8730638 L36.4269965,32.4846925 L36.4269965,25.0790995 C37.5298793,24.4906959 38.2808676,23.3386023 38.2808676,22.016249 C38.2808676,20.6940616 37.5298793,19.5418851 36.4269965,18.9534815 L36.4269965,17.2799105 C36.4269965,12.0730978 32.1370746,7.83692315 26.8642836,7.83692315 C22.0473598,7.83692315 18.0515512,11.3722382 17.3963051,15.952996 L9.90170742,15.9526642 L9.90162344,15.9526642 C9.43836563,15.9526642 9.06287148,16.3235368 9.0627875,16.7809077 L9.06245156,19.255935 L5.96326016,16.1948261 C5.80604141,16.0395771 5.59288906,15.9522496 5.37058242,15.9520837 L3.99634609,15.9511714 C2.7176,15.9508397 1.6775375,14.9235591 1.67770547,13.6610828 L1.67888125,5.35186101 L1.72885195,3.69520821 Z" id="Fill-29" fill="#003D74" mask="url(#mask-4)"></path>
                    </g>
                </g>
            </g>
        </g>
    </g>
</svg>