<?xml version="1.0" encoding="UTF-8"?>
<svg width="40px" height="50px" viewBox="0 0 40 50" version="1.1" xmlns="http://www.w3.org/2000/svg" xmlns:xlink="http://www.w3.org/1999/xlink">
    <!-- Generator: sketchtool 52.5 (67469) - http://www.bohemiancoding.com/sketch -->
    <title>91E51ACC-1453-47F3-B474-5F65E1EE1481</title>
    <desc>Created with sketchtool.</desc>
    <defs>
        <polygon id="path-1" points="0 0.0431255266 39.9850785 0.0431255266 39.9850785 41.8694335 0 41.8694335"></polygon>
        <polygon id="path-3" points="0.0698092464 9.73707983e-05 14.2583226 9.73707983e-05 14.2583226 4.87865674 0.0698092464 4.87865674"></polygon>
    </defs>
    <g id="design" stroke="none" stroke-width="1" fill="none" fill-rule="evenodd">
        <g id="AU-about-design" transform="translate(-838.000000, -956.000000)">
            <g id="Group-38" transform="translate(838.000000, 956.000000)">
                <g id="Group-37">
                    <path d="M36.7313137,8.8550854 L3.25405882,8.8550854 C1.86298039,8.8550854 0.735235294,9.97514169 0.735235294,11.3567359 L0.735235294,37.5669101 C0.735235294,38.9484069 1.86288235,40.0684632 3.25405882,40.0684632 L36.7314118,40.0684632 C38.1223922,40.0684632 39.2501373,38.9484069 39.2501373,37.5669101 L39.2501373,11.3567359 C39.2500392,9.97514169 38.1223922,8.8550854 36.7313137,8.8550854" id="Fill-1" fill="#E6EAEC"></path>
                    <path d="M26.2997059,27.8339685 L25.8452941,27.8339685 L25.8452941,24.8901571 C25.8452941,22.0421587 23.5206863,19.733497 20.6532353,19.733497 L19.345098,19.733497 C16.477549,19.733497 14.1530392,22.042256 14.1530392,24.8901571 L14.1530392,27.8339685 L13.6986275,27.8339685 C12.9445098,27.8339685 12.3331373,28.4410754 12.3331373,29.190149 L12.3331373,29.8315304 C12.3331373,30.5805066 12.9445098,31.1876135 13.6986275,31.1876135 L14.1614706,31.1876135 C14.3207843,34.2533331 16.8735294,36.6900373 19.9992157,36.6900373 C21.5620588,36.6900373 22.9813725,36.0810804 24.0302941,35.0886772 C25.0792157,34.0961766 25.7566667,32.7200351 25.8368627,31.1876135 L26.2997059,31.1876135 C27.0538235,31.1876135 27.6651961,30.5805066 27.6651961,29.8315304 L27.6651961,29.190149 C27.6651961,28.4410754 27.0538235,27.8339685 26.2997059,27.8339685" id="Fill-5" fill="#FFCCAA"></path>
                    <path d="M20.7399216,17.8378239 C23.5595294,17.8378239 25.8452157,20.1079267 25.8452157,22.9083109 L25.8452157,24.8900987 L15.6944314,24.8900987 C13.830902,24.8900987 12.3202157,23.3897121 12.3202157,21.538888 L12.3201176,17.8378239 L20.7399216,17.8378239 Z" id="Fill-7" fill="#F9DC6A"></path>
                    <polygon id="Fill-9" fill="#E6EAEC" points="16.9236078 40.0684632 15.7292941 46.2159686 24.2560588 46.2159686 23.0616471 40.0684632"></polygon>
                    <path d="M28.1086471,49.2209385 L11.8767843,49.2209385 L11.8767843,48.7071128 C11.8767843,47.3312634 12.9998235,46.2158809 14.3851176,46.2158809 L25.6003137,46.2158809 C26.9856078,46.2158809 28.1086471,47.3312634 28.1086471,48.7071128 L28.1086471,49.2209385 Z" id="Fill-13" fill="#C5D2F0"></path>
                    <path d="M3.25405882,8.8550854 C1.86298039,8.8550854 0.735235294,9.97514169 0.735235294,11.3567359 L0.735235294,14.0705575 L39.2500392,14.0705575 L39.2500392,11.3567359 C39.2500392,9.97514169 38.1223922,8.8550854 36.7313137,8.8550854 L3.25405882,8.8550854 Z" id="Fill-15" fill="#C5D2F0"></path>
                    <path d="M21.5115392,31.0828815 C21.2608529,31.6968044 20.6671275,32.0932983 19.9989902,32.0932983 C19.5633039,32.0932983 19.1529118,31.9245547 18.8442843,31.6186156 C18.688598,31.4638934 18.5683039,31.2840496 18.4868333,31.0841473 C18.3349706,30.7100487 17.9065392,30.5291338 17.5297745,30.6803506 C17.1532059,30.8313727 16.9712451,31.2568831 17.1233039,31.6308843 C17.2789902,32.0139411 17.5082059,32.3573679 17.8049706,32.6521093 C18.3919314,33.2337051 19.1711471,33.5539576 19.9989902,33.5539576 C21.2687941,33.5539576 22.3975196,32.7995287 22.8742843,31.6320528 C23.0269314,31.2582463 22.8457549,30.8323464 22.4693824,30.6806427 C22.0930098,30.5293285 21.6642843,30.7091724 21.5115392,31.0828815 Z" id="Fill-19" fill="#003D74"></path>
                    <path d="M17.8077353,27.9294308 C17.8077353,27.526121 17.4786176,27.1991498 17.0724412,27.1991498 C16.6662647,27.1991498 16.3371471,27.526121 16.3371471,27.9294308 L16.3371471,28.2099561 C16.3371471,28.6134607 16.6662647,28.9402371 17.0724412,28.9402371 C17.4786176,28.9402371 17.8077353,28.6133633 17.8077353,28.2099561 L17.8077353,27.9294308 Z" id="Fill-21" fill="#003D74"></path>
                    <path d="M22.1902941,27.9294406 L22.1902941,28.2099658 C22.1902941,28.613373 22.5194118,28.9402468 22.9255882,28.9402468 C23.3317647,28.9402468 23.6608824,28.613373 23.6608824,28.2099658 L23.6608824,27.9294406 C23.6608824,27.5260333 23.3317647,27.1991596 22.9255882,27.1991596 C22.5194118,27.1991596 22.1902941,27.5260333 22.1902941,27.9294406 Z" id="Fill-23" fill="#003D74"></path>
                    <path d="M26.9298824,29.1898471 L26.9298824,29.8315207 C26.9298824,30.1767002 26.6470392,30.4576149 26.2994902,30.4576149 L25.8368431,30.4576149 C25.4455686,30.4576149 25.1228235,30.7618987 25.1024314,31.1498239 C25.0342941,32.4497241 24.4732157,33.6607247 23.5225294,34.5598466 C22.569,35.4626687 21.3178235,35.959844 19.9994902,35.959844 C17.2781176,35.959844 15.0361569,33.8471898 14.8954706,31.150116 C14.8751765,30.761996 14.5525294,30.4576149 14.1611569,30.4576149 L13.6984118,30.4576149 C13.3508627,30.4576149 13.0680196,30.1767002 13.0680196,29.8315207 L13.0680196,29.1898471 C13.0680196,28.8451545 13.3508627,28.5647266 13.6984118,28.5647266 L14.1523333,28.5647266 C14.5586078,28.5647266 14.8876275,28.2378528 14.8876275,27.8344456 L14.8876275,25.5409738 C15.1486078,25.5928725 15.4182157,25.6204284 15.6942941,25.6204284 L25.1102745,25.6204284 L25.1102745,27.8343482 C25.1102745,28.2377555 25.4393922,28.5646292 25.8455686,28.5646292 L26.2994902,28.5646292 C26.6470392,28.5647266 26.9298824,28.8451545 26.9298824,29.1898471 M13.0553725,21.5389366 L13.0553725,18.5681536 L20.7398824,18.5681536 C23.1494902,18.5681536 25.1099804,20.5151801 25.1099804,22.9083595 L25.1099804,24.1599638 L15.6942941,24.1599638 C14.2391961,24.1599638 13.0553725,22.9842114 13.0553725,21.5389366 M20.7398824,17.1075916 L12.3200784,17.1075916 C11.913902,17.1075916 11.5847843,17.434368 11.5847843,17.8378726 L11.5847843,21.5389366 C11.5847843,22.9534422 12.3133137,24.2019306 13.4170392,24.9345485 L13.4170392,27.1227624 C12.3910588,27.2597632 11.5974314,28.1345424 11.5974314,29.1899445 L11.5974314,29.831618 C11.5974314,30.9151603 12.4333137,31.8085374 13.4983137,31.9088293 C13.9951765,35.0496218 16.7284118,37.4205033 19.9994902,37.4205033 C21.6973333,37.4205033 23.308902,36.780193 24.5368431,35.6173909 C25.5926275,34.6188533 26.2751765,33.3211927 26.4992941,31.9088293 C27.5643922,31.8085374 28.4004706,30.9151603 28.4004706,29.8315207 L28.4004706,29.1898471 C28.4004706,28.134445 27.6068431,27.2597632 26.5808627,27.1227624 L26.5808627,24.8899527 C26.5808627,24.8873237 26.5805686,24.8849868 26.5805686,24.8824551 L26.5805686,22.9084569 C26.5805686,19.7098262 23.9604706,17.1075916 20.7398824,17.1075916" id="Fill-25" fill="#003D74"></path>
                    <g id="Group-29" transform="translate(0.000000, 8.081679)">
                        <mask id="mask-2" fill="white">
                            <use xlink:href="#path-1"></use>
                        </mask>
                        <g id="Clip-28"></g>
                        <path d="M38.5147843,5.25859759 L1.47047059,5.25859759 L1.47047059,3.27505706 C1.47047059,2.42053094 2.08301961,1.70524505 2.89498039,1.53981207 C3.01096078,1.51615096 3.13105882,1.50378487 3.25390196,1.50378487 L36.7313529,1.50378487 C36.8542941,1.50378487 36.9741961,1.51615096 37.0901765,1.53981207 C37.9020392,1.70524505 38.5146863,2.42053094 38.5146863,3.27505706 L38.5147843,5.25859759 Z M24.2529216,38.8645707 C24.2537059,38.8645707 24.2543922,38.8646681 24.2550784,38.8646681 C24.2558627,38.8646681 24.256451,38.8645707 24.2571373,38.8645707 L25.6001765,38.8645707 C26.504,38.8645707 27.2521373,39.5398372 27.3599804,40.4089689 L12.6253725,40.4089689 C12.7332157,39.5397398 13.4812549,38.8645707 14.3850784,38.8645707 L15.7325294,38.8645707 L15.7427255,38.8645707 L19.5096863,38.8645707 C19.9158627,38.8645707 20.2449804,38.5376969 20.2449804,38.1342897 C20.2449804,37.7308825 19.9158627,37.4040087 19.5096863,37.4040087 L16.6200784,37.4040087 L17.5306667,32.7170653 L22.4547843,32.7170653 L23.3653725,37.4040087 L22.4509608,37.4040087 C22.0447843,37.4040087 21.7156667,37.7308825 21.7156667,38.1342897 C21.7156667,38.5376969 22.0447843,38.8645707 22.4509608,38.8645707 L24.2529216,38.8645707 Z M36.7313529,0.0431255266 L3.254,0.0431255266 C1.45968627,0.0431255266 -1.96078431e-05,1.49297671 -1.96078431e-05,3.27495969 L-1.96078431e-05,5.98878121 L-1.96078431e-05,10.190818 C-1.96078431e-05,10.5942252 0.329098039,10.921099 0.73527451,10.921099 C1.14145098,10.921099 1.47056863,10.5942252 1.47056863,10.190818 L1.47056863,6.7190622 L38.5148824,6.7190622 L38.5148824,29.4852312 C38.5148824,30.4617629 37.7147843,31.256406 36.731549,31.256406 L23.0616471,31.256406 L16.9237059,31.256406 L3.254,31.256406 C2.27066667,31.256406 1.47056863,30.4617629 1.47056863,29.4852312 L1.47056863,13.1121367 C1.47056863,12.7087295 1.14145098,12.3818557 0.73527451,12.3818557 C0.329098039,12.3818557 -1.96078431e-05,12.7087295 -1.96078431e-05,13.1121367 L-1.96078431e-05,29.4852312 C-1.96078431e-05,31.2672141 1.45978431,32.716968 3.254,32.716968 L16.0329216,32.716968 L15.1223333,37.4039113 L14.3849804,37.4039113 C12.596451,37.4039113 11.1413529,38.8491861 11.1413529,40.6254242 L11.1413529,41.1391525 C11.1413529,41.5425597 11.4704706,41.8694335 11.8766471,41.8694335 L28.1084118,41.8694335 C28.5145882,41.8694335 28.8437059,41.5425597 28.8437059,41.1391525 L28.8437059,40.6254242 C28.8437059,38.8491861 27.3887059,37.4039113 25.6001765,37.4039113 L24.8627255,37.4039113 L23.9521373,32.716968 L36.7311569,32.716968 C38.5253725,32.716968 39.9850784,31.2671168 39.9850784,29.4852312 L39.9850784,5.98887858 L39.9850784,3.27505706 C39.9853725,1.49297671 38.5255686,0.0431255266 36.7313529,0.0431255266 Z" id="Fill-27" fill="#003D74" mask="url(#mask-2)"></path>
                    </g>
                    <path d="M21.0277059,10.7326086 L18.9576078,10.7326086 C18.5514314,10.7326086 18.2223137,11.0594824 18.2223137,11.4628896 C18.2223137,11.8662968 18.5514314,12.1931706 18.9576078,12.1931706 L21.0277059,12.1931706 C21.4339804,12.1931706 21.763,11.8662968 21.763,11.4628896 C21.763,11.0594824 21.4338824,10.7326086 21.0277059,10.7326086" id="Fill-30" fill="#003D74"></path>
                    <path d="M20.0071569,3.60085975 C18.3801961,3.60085975 16.8770588,4.40855053 15.9861765,5.7614204 C15.7638235,6.09900495 15.8592157,6.55158442 16.1990196,6.77232402 C16.5389216,6.99335574 16.9946078,6.89851658 17.2168627,6.56093202 C17.8351961,5.62188804 18.8782353,5.06142173 20.0071569,5.06142173 C21.1359804,5.06142173 22.1790196,5.62198541 22.7973529,6.56093202 C22.9383333,6.77514778 23.1735294,6.89160325 23.4133333,6.89160325 C23.5513725,6.89160325 23.6909804,6.85304442 23.8151961,6.77232402 C24.155,6.55158442 24.2502941,6.09900495 24.0280392,5.7614204 C23.1371569,4.40855053 21.6340196,3.60085975 20.0071569,3.60085975" id="Fill-32" fill="#003D74"></path>
                    <g id="Group-36" transform="translate(12.843137, 0.097273)">
                        <mask id="mask-4" fill="white">
                            <use xlink:href="#path-3"></use>
                        </mask>
                        <g id="Clip-35"></g>
                        <path d="M0.402656863,4.75937751 C0.742362745,4.98001974 1.19804902,4.88557007 1.42059804,4.54808288 C2.69412745,2.61488305 4.84128431,1.46064961 7.16402941,1.46064961 C9.48677451,1.46064961 11.6340294,2.61488305 12.9075588,4.54808288 C13.0486373,4.76229864 13.2837353,4.87865674 13.5235392,4.87865674 C13.6615784,4.87865674 13.8012843,4.8400979 13.9255,4.75937751 C14.2653039,4.53844317 14.360598,4.0858637 14.1382451,3.74837651 C12.5919706,1.40135079 9.98481373,8.76337184e-05 7.16402941,8.76337184e-05 C4.3432451,8.76337184e-05 1.73618627,1.40135079 0.189813725,3.74837651 C-0.0324411765,4.0858637 0.0628529412,4.53844317 0.402656863,4.75937751" id="Fill-34" fill="#003D74" mask="url(#mask-4)"></path>
                    </g>
                </g>
            </g>
        </g>
    </g>
</svg>