<svg xmlns="http://www.w3.org/2000/svg" xmlns:xlink="http://www.w3.org/1999/xlink" width="150" height="105" viewBox="0 0 150 105">
    <defs>
        <path id="a" d="M.114.165h113.548V105H.114z"/>
        <path id="c" d="M0 .056h17.84v13.709H0z"/>
    </defs>
    <g fill="none" fill-rule="evenodd">
        <g opacity=".545">
            <g transform="translate(14)">
                <mask id="b" fill="#fff">
                    <use xlink:href="#a"/>
                </mask>
                <path fill="#E8F1FE" d="M106.718 77.153h-2.007a52.294 52.294 0 0 0 6.092-24.57c0-28.95-23.407-52.418-52.281-52.418-13.258 0-25.36 4.95-34.576 13.105H7.058c-3.835 0-6.944 3.117-6.944 6.961 0 3.845 3.109 6.962 6.944 6.962h5.718C8.614 34.715 6.24 43.37 6.24 52.583 6.24 81.533 29.648 105 58.522 105c13.696 0 26.16-5.283 35.48-13.923h12.716c3.835 0 6.944-3.117 6.944-6.962 0-3.845-3.109-6.962-6.944-6.962" mask="url(#b)"/>
            </g>
            <path fill="#E8F1FE" d="M143.2 76h-4.4c-3.756 0-6.8 3.134-6.8 7s3.044 7 6.8 7h4.4c3.756 0 6.8-3.134 6.8-7s-3.044-7-6.8-7M122.8 21h4.4c3.756 0 6.8-3.134 6.8-7s-3.044-7-6.8-7h-4.4c-3.755 0-6.8 3.134-6.8 7s3.045 7 6.8 7"/>
            <g transform="translate(0 69)">
                <mask id="d" fill="#fff">
                    <use xlink:href="#c"/>
                </mask>
                <path fill="#E8F1FE" d="M11.1.056H6.74C3.016.056 0 3.125 0 6.911c0 3.785 3.017 6.854 6.74 6.854h4.36c3.722 0 6.74-3.069 6.74-6.854 0-3.786-3.018-6.855-6.74-6.855" mask="url(#d)"/>
            </g>
        </g>
        <path fill="#67CEBB" d="M78.637 76.04l6.168-2.559-.076-1.487a6.92 6.92 0 0 1 7.265-7.265l1.487.076 2.558-6.168-1.104-.997a6.925 6.925 0 0 1 0-10.28l1.104-.997-2.558-6.168-1.487.076a6.921 6.921 0 0 1-7.265-7.265l.076-1.487-6.168-2.558-.997 1.104a6.925 6.925 0 0 1-10.28 0l-.997-1.104-6.168 2.558.076 1.487a6.92 6.92 0 0 1-7.265 7.265l-1.487-.076-2.558 6.168 1.104.997a6.925 6.925 0 0 1 0 10.28l-1.104.997 2.558 6.168 1.487-.076a6.92 6.92 0 0 1 7.265 7.265l-.076 1.487 6.168 2.558.997-1.104a6.925 6.925 0 0 1 10.28 0l.997 1.104z"/>
        <path fill="#FFF" d="M72.5 35.686c8.755 0 15.853 7.313 15.853 16.334 0 9.02-7.098 16.333-15.853 16.333-8.755 0-15.853-7.313-15.853-16.333 0-9.021 7.098-16.334 15.853-16.334"/>
        <path fill="#8CEBD9" d="M74.666 57.258l-6.983-6.983 1.54-2.5a2.723 2.723 0 0 0-.393-3.353l-3.625-3.625a2.723 2.723 0 0 0-3.85 0 8.04 8.04 0 0 0 0 11.37l11.419 11.42a8.04 8.04 0 0 0 11.37 0 2.723 2.723 0 0 0 0-3.851l-3.625-3.624a2.723 2.723 0 0 0-3.352-.394l-2.501 1.54z"/>
        <path fill="#E6EAEC" d="M80.557 56.117a2.724 2.724 0 0 0-3.354-.394l-2.501 1.54-6.985-6.985 1.54-2.501a2.723 2.723 0 0 0-.393-3.354l-3.626-3.625a2.723 2.723 0 0 0-3.852 0A8.04 8.04 0 0 0 60 42.657L82.324 64.98a8.04 8.04 0 0 0 1.859-1.386 2.723 2.723 0 0 0 0-3.852l-3.626-3.625z"/>
        <path fill="#003D74" d="M72.625 35.275a18.47 18.47 0 0 0-7.723 1.228c-.501.195-.737.738-.527 1.212.21.474.788.7 1.29.505a16.417 16.417 0 0 1 6.863-1.09c8.68.454 15.393 7.478 14.964 15.657a14.044 14.044 0 0 1-1.22 5.045c-.212.47.023 1.017.524 1.22.11.044.223.068.335.074a.985.985 0 0 0 .956-.56 15.8 15.8 0 0 0 1.373-5.676c.482-9.2-7.07-17.103-16.835-17.615"/>
        <path fill="#003D74" d="M92.86 63.817l-.814-.042a7.895 7.895 0 0 0-5.974 2.297 7.892 7.892 0 0 0-2.297 5.974l.042.813-4.921 2.041-.544-.603a7.896 7.896 0 0 0-5.852-2.6c-2.227 0-4.36.947-5.852 2.6l-.544.603-4.92-2.041.041-.813a7.891 7.891 0 0 0-2.297-5.974 7.89 7.89 0 0 0-5.974-2.297l-.813.042-2.041-4.921.603-.545a7.896 7.896 0 0 0 2.6-5.851c0-2.227-.947-4.36-2.6-5.852l-.603-.544 2.041-4.92.813.04a7.891 7.891 0 0 0 5.974-2.297 7.891 7.891 0 0 0 2.297-5.973l-.042-.813 4.921-2.041.544.603a7.896 7.896 0 0 0 5.852 2.6c2.227 0 4.36-.947 5.852-2.6l.544-.603 4.92 2.04-.04.814a7.891 7.891 0 0 0 2.297 5.973 7.891 7.891 0 0 0 5.973 2.298l.813-.042 2.041 4.921-.603.544a7.896 7.896 0 0 0-2.6 5.852c0 2.227.948 4.36 2.6 5.851l.603.545-2.04 4.92zm3.824-5.889l-1.104-.997a5.979 5.979 0 0 1-1.97-4.431 5.98 5.98 0 0 1 1.97-4.43l1.104-.998a.957.957 0 0 0 .243-1.077l-2.559-6.168a.956.956 0 0 0-.932-.59l-1.488.076a5.971 5.971 0 0 1-4.522-1.739 5.974 5.974 0 0 1-1.74-4.522l.077-1.488a.957.957 0 0 0-.59-.932l-6.168-2.559a.958.958 0 0 0-1.077.243l-.997 1.104a5.979 5.979 0 0 1-4.431 1.97 5.979 5.979 0 0 1-4.43-1.97l-.998-1.104a.957.957 0 0 0-1.077-.243l-6.168 2.559a.957.957 0 0 0-.59.932l.076 1.488a5.975 5.975 0 0 1-1.739 4.522 5.972 5.972 0 0 1-4.522 1.74l-1.487-.077a.957.957 0 0 0-.933.59l-2.559 6.168a.957.957 0 0 0 .243 1.077l1.104.997a5.978 5.978 0 0 1 1.97 4.431 5.98 5.98 0 0 1-1.97 4.431l-1.104.997a.957.957 0 0 0-.243 1.077l2.559 6.168c.155.374.528.61.932.59l1.488-.076a5.971 5.971 0 0 1 4.522 1.739 5.975 5.975 0 0 1 1.74 4.522l-.076 1.488a.957.957 0 0 0 .589.932l6.168 2.559a.958.958 0 0 0 1.077-.243l.997-1.104a5.979 5.979 0 0 1 4.43-1.97c1.687 0 3.302.718 4.432 1.97l.997 1.104a.957.957 0 0 0 1.077.243l6.168-2.559a.957.957 0 0 0 .59-.932l-.077-1.488a5.974 5.974 0 0 1 1.74-4.522 5.971 5.971 0 0 1 4.522-1.74l1.487.077a.954.954 0 0 0 .933-.59l2.559-6.168a.957.957 0 0 0-.243-1.077z"/>
        <path fill="#003D74" d="M82.509 63.007a6.877 6.877 0 0 1-.92.769L78.216 60.4a.953.953 0 0 0-1.347 1.347l2.922 2.922a6.813 6.813 0 0 1-2.087.327 6.752 6.752 0 0 1-4.806-1.99L61.892 52.003a6.8 6.8 0 0 1-1.66-6.889l3.252 3.253a.95.95 0 0 0 1.347 0 .952.952 0 0 0 0-1.347l-3.708-3.708c.226-.323.48-.631.769-.92a1.667 1.667 0 0 1 1.182-.488c.428 0 .856.163 1.182.489l3.493 3.492c.55.55.649 1.396.241 2.058l-1.484 2.41a.952.952 0 0 0 .138 1.173l6.73 6.73a.953.953 0 0 0 1.173.137l2.41-1.484a1.666 1.666 0 0 1 2.059.241l3.493 3.493a1.673 1.673 0 0 1 0 2.364zm-2.146-7.204a3.565 3.565 0 0 0-4.405-.516l-1.769 1.09-5.666-5.666 1.09-1.769a3.563 3.563 0 0 0-.517-4.403l-3.493-3.493a3.581 3.581 0 0 0-5.058 0c-3.393 3.392-3.393 8.912 0 12.304L71.55 64.354a8.646 8.646 0 0 0 6.153 2.548c2.324 0 4.51-.905 6.153-2.548a3.58 3.58 0 0 0 0-5.058l-3.493-3.493z"/>
    </g>
</svg>
