<?xml version="1.0" encoding="UTF-8"?>
<svg width="40px" height="44px" viewBox="0 0 40 44" version="1.1" xmlns="http://www.w3.org/2000/svg" xmlns:xlink="http://www.w3.org/1999/xlink">
    <!-- Generator: sketchtool 52.5 (67469) - http://www.bohemiancoding.com/sketch -->
    <title>2B3B71B0-8B3A-4367-B85D-53912E094101</title>
    <desc>Created with sketchtool.</desc>
    <defs>
        <polygon id="path-1" points="1.7130621e-05 0 39.3473405 0 39.3473405 43.9999914 1.7130621e-05 43.9999914"></polygon>
    </defs>
    <g id="design" stroke="none" stroke-width="1" fill="none" fill-rule="evenodd">
        <g id="AU-about-design" transform="translate(-561.000000, -959.000000)">
            <g id="Group-25" transform="translate(561.000000, 959.000000)">
                <g id="Group-24">
                    <path d="M38.7044283,12.6826563 C38.7044283,19.331125 33.3326081,24.7207813 26.7061413,24.7207813 C20.0796745,24.7207813 14.7078544,19.331125 14.7078544,12.6826563 C14.7078544,6.0341875 20.0796745,0.64453125 26.7061413,0.64453125 C33.3326081,0.64453125 38.7044283,6.0341875 38.7044283,12.6826563 Z" id="Fill-1" fill="#67CEBB"></path>
                    <path d="M1.15763597,43.3554688 C0.993010707,43.3554688 0.865044968,43.2114375 0.884059957,43.0472969 L1.6797773,36.1419609 C2.04388865,32.9816094 4.71112634,30.5975312 7.88260385,30.5975312 L15.7872719,30.5975312 C18.9587495,30.5975312 21.6259015,32.9816094 21.9900128,36.1419609 L22.7857302,43.0472969 C22.8045739,43.2114375 22.6766938,43.3554688 22.5119829,43.3554688 L1.15763597,43.3554688 Z" id="Fill-3" fill="#4DBBA6"></path>
                    <path d="M1.96891649,19.1886234 L21.7007366,19.1886234 L21.7007366,9.50888125 C21.7007366,7.5505375 20.1184668,5.96301406 18.1666039,5.96301406 L16.7318287,5.96301406 L16.6232206,5.73863125 C16.0384668,4.53043594 14.8173961,3.76335781 13.4787238,3.76335781 L8.47229979,3.76335781 C4.88052248,3.76335781 1.96891649,6.68463125 1.96891649,10.2881625 L1.96891649,19.1886234 Z" id="Fill-5" fill="#F9DC6A"></path>
                    <path d="M8.96206424,25.7908148 L8.96206424,31.6005336 C8.96206424,33.1923539 10.2482313,34.4827914 11.8347837,34.4827914 C13.4213362,34.4827914 14.7075032,33.1923539 14.7075032,31.6005336 L14.7075032,25.7908148 L8.96206424,25.7908148 Z" id="Fill-7" fill="#FFCCAA"></path>
                    <path d="M23.027152,18.8539227 L23.027152,19.7024695 C23.027152,20.6930711 22.2268094,21.4960711 21.2394861,21.4960711 L19.4788009,21.4960711 C19.3742184,23.5231648 18.4871092,25.3438367 17.1134904,26.6568758 C15.7398715,27.9690555 13.8813704,28.7745477 11.8347752,28.7745477 C7.74167024,28.7745477 4.39905782,25.5519773 4.19083512,21.4960711 L2.43014989,21.4960711 C1.44282655,21.4960711 0.64248394,20.6930711 0.64248394,19.7024695 L0.64248394,18.8539227 C0.64248394,17.8633211 1.44282655,17.0603211 2.43014989,17.0603211 L4.17987152,17.0603211 L4.17987152,13.8538211 L10.606167,13.8538211 C13.6633833,13.8538211 16.2038544,11.6362039 16.7157173,8.71621953 C16.7601713,8.46278984 17.0614133,8.35811797 17.2516488,8.53076641 C18.6262955,9.77832109 19.4896788,11.5823211 19.4896788,13.5889617 L19.4896788,17.0602352 L21.2394004,17.0602352 C22.2267238,17.0603211 23.027152,17.8633211 23.027152,18.8539227" id="Fill-9" fill="#FFCCAA"></path>
                    <g id="Group-13">
                        <mask id="mask-2" fill="white">
                            <use xlink:href="#path-1"></use>
                        </mask>
                        <g id="Clip-12"></g>
                        <path d="M4.83247966,21.4632258 C4.81483512,21.1206789 4.5328651,20.8519523 4.1909379,20.8519523 L2.42991006,20.8519523 C1.79847537,20.8519523 1.28472805,20.3360695 1.28472805,19.7020227 L1.28472805,18.8539055 C1.28472805,18.2202883 1.79847537,17.7048352 2.42991006,17.7048352 L4.179803,17.7048352 C4.53466381,17.7048352 4.82220128,17.416343 4.82220128,17.0603039 L4.82220128,14.498507 L10.6063555,14.498507 C13.7374904,14.498507 16.4311949,12.3905461 17.2213448,9.40791328 C18.2604026,10.5416008 18.846955,12.0364836 18.846955,13.5892883 L18.846955,17.0603039 C18.846955,17.416343 19.1344925,17.7048352 19.4893533,17.7048352 L21.2392463,17.7048352 C21.8706809,17.7048352 22.3844283,18.2202883 22.3844283,18.8539055 L22.3844283,19.7020227 C22.3844283,20.3360695 21.8706809,20.8519523 21.2392463,20.8519523 L19.4790749,20.8519523 C19.1373191,20.8519523 18.855349,21.1204211 18.8375332,21.462882 C18.7438287,23.2652492 17.9741499,24.9441242 16.670424,26.1900461 C16.0264839,26.8049289 15.2848137,27.2855773 14.4663983,27.6184133 C13.5246424,28.0008352 12.5186467,28.1705617 11.4945782,28.1218352 C10.8171478,28.0896086 10.1549636,27.9608742 9.51864668,27.7377805 C6.86845396,26.8081945 4.979803,24.3275227 4.83247966,21.4632258 Z M26.0635717,1.34456953 L26.0635717,5.72256953 L21.4856702,5.72256953 C22.6050707,3.24954609 24.2678544,1.65437422 26.0635717,1.34456953 Z M35.6902955,5.72256953 L33.3255846,5.72256953 C33.0532934,5.05328828 32.7402313,4.42156172 32.3877687,3.83692891 C32.0215161,3.22952266 31.6234004,2.68949141 31.1993319,2.21984297 C32.9764625,2.99096016 34.5197602,4.20499922 35.6902955,5.72256953 Z M33.7829722,18.3536633 C34.2622013,16.8024055 34.541773,15.0981789 34.5961627,13.3271789 L38.0431863,13.3271789 C37.943743,15.1096086 37.432394,16.8257805 36.5571906,18.3536633 L33.7829722,18.3536633 Z M31.2884111,20.8614914 C30.1965054,22.6723664 28.8165482,23.7724523 27.3483683,24.021757 L27.3483683,19.6427258 L31.9261842,19.6427258 C31.7322655,20.0694914 31.5200171,20.4774367 31.2884111,20.8614914 Z M21.2393319,22.1410148 C21.2988608,22.1410148 21.3576188,22.1381789 21.4159486,22.133882 C21.6728223,22.5049602 21.9428009,22.8467336 22.2245139,23.1570539 C21.5825439,22.8795617 20.9653276,22.5392492 20.3769764,22.1410148 L21.2393319,22.1410148 Z M23.6693105,19.7020227 L23.6693105,19.6428117 L26.0635717,19.6428117 L26.0635717,24.0210695 C24.8335075,23.8106945 23.6592034,22.9990148 22.6683683,21.6729133 C23.2745353,21.2288742 23.6693105,20.5110383 23.6693105,19.7020227 Z M22.3433148,13.3271789 L26.0636574,13.3271789 L26.0636574,18.3536633 L23.6176617,18.3536633 C23.4655418,17.6241398 22.9871692,17.0138977 22.3433148,16.6830383 L22.3433148,13.3271789 Z M26.0635717,12.0381164 L22.3432291,12.0381164 L22.3432291,9.50897578 C22.3432291,8.57388984 22.0362484,7.70953047 21.5183041,7.01154609 L26.0634861,7.01154609 L26.0634861,12.0381164 L26.0635717,12.0381164 Z M33.3103383,13.3271789 C33.2520086,15.1175148 32.9502527,16.8274992 32.4335931,18.3536633 L27.348454,18.3536633 L27.348454,13.3271789 L33.3103383,13.3271789 Z M38.0435289,12.0381164 L34.5962484,12.0381164 C34.541773,10.2672023 34.2622013,8.56288984 33.7829722,7.01163203 L36.5528223,7.01163203 C37.4119229,8.50737422 37.941773,10.2163273 38.0435289,12.0381164 Z M32.4334218,7.01163203 C32.950167,8.53779609 33.2520086,10.2478664 33.3103383,12.0381164 L27.348454,12.0381164 L27.348454,7.01163203 L32.4334218,7.01163203 Z M31.2884111,4.50414766 C31.5199315,4.88811641 31.7320942,5.29597578 31.9260128,5.72256953 L27.3483683,5.72256953 L27.3483683,1.34353828 C28.8165482,1.59292891 30.1965054,2.69310078 31.2884111,4.50414766 Z M14.0650278,31.6009289 C14.0650278,32.1984523 13.8331649,32.7602258 13.4120086,33.1827805 C12.9910236,33.6052492 12.4308522,33.837882 11.834621,33.837882 C10.6048137,33.837882 9.60421413,32.8343898 9.60421413,31.6009289 L9.60421413,29.1151008 C10.207469,29.2835383 10.8457559,29.3839133 11.4760771,29.4105539 C11.5952206,29.4155383 11.7147066,29.4189758 11.834621,29.4189758 C12.6125225,29.4189758 13.3827152,29.3060539 14.0650278,29.1151867 L14.0650278,31.6009289 Z M22.8711092,38.1759211 C22.8303383,37.8222023 22.5107666,37.568257 22.1592463,37.609593 C21.8067837,37.6504992 21.5541071,37.9701867 21.5947923,38.3238195 L22.0998887,42.7109289 L19.3789465,42.7109289 L19.3789465,37.8674914 C19.3789465,37.5114523 19.091409,37.2229602 18.7365482,37.2229602 C18.3816874,37.2229602 18.0941499,37.5114523 18.0941499,37.8674914 L18.0941499,42.7109289 L5.57526338,42.7109289 L5.57526338,37.8674914 C5.57526338,37.5114523 5.28772591,37.2229602 4.9328651,37.2229602 C4.57800428,37.2229602 4.29046681,37.5114523 4.29046681,37.8674914 L4.29046681,42.7109289 L1.56926767,42.7109289 L2.31761884,36.2158586 C2.64429979,33.380093 5.03667666,31.2417102 7.88258672,31.2417102 L8.31941756,31.2417102 L8.31941756,31.6009289 C8.31941756,33.5451789 9.89629122,35.1269445 11.834621,35.1269445 C12.7740642,35.1269445 13.6568908,34.7602492 14.320531,34.0942336 C14.984257,33.428218 15.3498244,32.542718 15.3498244,31.600843 L15.3498244,31.2416242 L15.7875118,31.2416242 C18.4893533,31.2416242 20.8056702,33.1741867 21.295349,35.8367883 C21.3524797,36.1473664 21.6224582,36.3645305 21.9263555,36.3645305 C21.9648994,36.3645305 22.0042141,36.361007 22.0435289,36.3537883 C22.3925653,36.2892492 22.6232291,35.9530617 22.5589036,35.6030383 C21.956848,32.3289914 19.1091392,29.9526477 15.7875118,29.9526477 L15.3498244,29.9526477 L15.3498244,28.6366008 C16.1606167,28.2559836 16.9016874,27.7489523 17.5565054,27.1235852 C18.6552634,26.0734289 19.4317088,24.762882 19.8286253,23.3252336 C21.8718801,24.6613039 24.2267409,25.363757 26.6977473,25.365218 C26.7005739,25.365218 26.7032291,25.3656477 26.7060557,25.3656477 C26.7096531,25.3656477 26.7130792,25.365218 26.716591,25.365132 C29.2209165,25.3630695 31.6407024,24.6280461 33.7150493,23.2390383 C34.0100385,23.041382 34.0897816,22.6411711 33.8926938,22.3452023 C33.6957773,22.0490617 33.2968051,21.9693117 33.0019015,22.166882 C32.4265696,22.5521398 31.8214304,22.8809367 31.1937645,23.1520695 C31.6199743,22.6809602 32.0199743,22.1387805 32.3877687,21.5287102 C32.7403169,20.9439914 33.053379,20.3121789 33.3257559,19.6428117 L35.6974904,19.6428117 C35.4887537,19.9137727 35.2674261,20.1766555 35.0330792,20.4300852 C34.7917088,20.6909914 34.806955,21.0987648 35.0670835,21.3409367 C35.1906809,21.456093 35.3474261,21.5129836 35.5038287,21.5129836 C35.676334,21.5129836 35.8482398,21.443632 35.9749208,21.3068195 C38.1468266,18.9578039 39.3440857,15.8992883 39.3468266,12.6935617 C39.3469122,12.6899523 39.3473405,12.6864289 39.3473405,12.6828195 C39.3473405,12.6790383 39.3468266,12.6754289 39.3467409,12.6716477 C39.3446852,10.2627336 38.6696531,8.00902266 37.5005739,6.08960859 C37.4792463,6.04500703 37.4534647,6.00306953 37.4229722,5.96491328 C35.1858844,2.38527266 31.2186895,-8.59375e-06 26.70597,-8.59375e-06 L26.7057987,-8.59375e-06 L26.7057131,-8.59375e-06 L26.7055418,-8.59375e-06 C23.5751777,7.734375e-05 20.571666,1.15679609 18.2479829,3.25710859 C17.9843426,3.49532734 17.9631863,3.90292891 18.2006167,4.16735859 C18.4379615,4.43187422 18.8442998,4.45301484 19.1078544,4.21488203 C20.0424154,3.37020234 21.0997173,2.69602266 22.2345353,2.20824141 C21.3911092,3.13138203 20.6589465,4.31955391 20.0885824,5.72256953 L19.9541071,5.72256953 C19.4119229,5.46389766 18.8060985,5.31866328 18.166955,5.31866328 L17.1308951,5.31866328 C16.4171478,3.97717891 15.0003597,3.11866328 13.4782184,3.11866328 L8.47188009,3.11866328 C6.81697645,3.11866328 5.20344325,3.69960078 3.92866809,4.75439766 C3.65492077,4.98092891 3.61603426,5.38706953 3.84173019,5.66172578 C4.06759743,5.93655391 4.47256531,5.97539766 4.74605567,5.74895234 C5.79136617,4.88399141 7.11453533,4.40772578 8.47196574,4.40772578 L13.4783041,4.40772578 C14.5636146,4.40772578 15.571409,5.04074141 16.0450707,6.01913984 L16.1529936,6.24335078 C16.2601456,6.46610078 16.484985,6.60763984 16.7314946,6.60763984 L18.1670407,6.60763984 C19.7614732,6.60763984 21.0586039,7.90924922 21.0586039,9.50897578 L21.0586039,16.4156867 L20.1320086,16.4156867 L20.1320086,13.5892023 C20.1320086,11.4827883 19.2390749,9.46488984 17.6825011,8.05302266 C17.4216017,7.81600703 17.053379,7.73986641 16.7216445,7.85390547 C16.3892248,7.96828828 16.1446852,8.25609297 16.0834433,8.60474141 C15.6152634,11.272843 13.3119657,13.2093586 10.6065268,13.2093586 L4.1799743,13.2093586 C3.82511349,13.2093586 3.53757602,13.4978508 3.53757602,13.8538898 L3.53757602,16.4156867 L2.61166595,16.4156867 L2.61166595,10.288343 C2.61166595,9.32687422 2.84746895,8.37356953 3.29363597,7.53155391 C3.46014561,7.21728047 3.3412591,6.82703828 3.02794004,6.65988984 C2.71453533,6.49274141 2.32567024,6.61202266 2.1591606,6.92646797 C1.61466381,7.95410859 1.32678373,9.11658516 1.32678373,10.288343 L1.32678373,16.6825227 C0.540059957,17.0866008 1.7130621e-05,17.9078195 1.7130621e-05,18.8538195 L1.7130621e-05,19.7019367 C1.7130621e-05,21.0467727 1.0901242,22.1409289 2.42999572,22.1409289 L3.60370021,22.1409289 C3.95967452,24.9570148 5.74794004,27.4255695 8.31950321,28.6359992 L8.31950321,29.9526477 L7.88267238,29.9526477 C4.38417131,29.9526477 1.44301499,32.5816477 1.04147323,36.0677883 L0.245841542,42.9730383 C0.215777302,43.2337727 0.298346895,43.4957961 0.472479657,43.6917336 C0.646441113,43.8875852 0.896376874,43.9999914 1.15804711,43.9999914 L22.5123084,43.9999914 C22.7735503,43.9999914 23.0230578,43.8876711 23.1969336,43.6919055 C23.3709807,43.495882 23.4535503,43.2338586 23.4235717,42.9730383 L22.8711092,38.1759211 Z" id="Fill-11" fill="#003D74" mask="url(#mask-2)"></path>
                    </g>
                    <path d="M15.3028608,21.9630297 C15.4362227,21.6331156 15.2777645,21.257225 14.9490278,21.1234203 C14.6201199,20.9897875 14.2455589,21.1486 14.112197,21.4784281 C13.7347238,22.412225 12.8407623,23.0157641 11.8347666,23.0157641 C11.1788351,23.0157641 10.5611049,22.7590687 10.0960942,22.2936312 C9.86140471,22.0582484 9.68033405,21.7843656 9.55776445,21.4795453 C9.42500214,21.1496312 9.05061242,20.9897016 8.7217045,21.1230766 C8.39262527,21.2562797 8.23356745,21.6318266 8.36632976,21.9619984 C8.55382441,22.4283812 8.83014133,22.8465531 9.18817131,23.2057719 C9.89643683,23.9144984 10.8362227,24.3048266 11.8347666,24.3048266 C13.3664154,24.3048266 14.7277002,23.3855531 15.3028608,21.9630297" id="Fill-14" fill="#003D74"></path>
                    <path d="M8.64504497,17.5574781 L8.64504497,17.1864859 C8.64504497,16.8304469 8.35750749,16.5419547 8.00264668,16.5419547 C7.64778587,16.5419547 7.36024839,16.8304469 7.36024839,17.1864859 L7.36024839,17.5574781 C7.36024839,17.9135172 7.64778587,18.2020094 8.00264668,18.2020094 C8.35750749,18.2020094 8.64504497,17.9134312 8.64504497,17.5574781" id="Fill-16" fill="#003D74"></path>
                    <path d="M15.6669722,18.2020094 C16.021833,18.2020094 16.3093704,17.9135172 16.3093704,17.5574781 L16.3093704,17.1864859 C16.3093704,16.8304469 16.021833,16.5419547 15.6669722,16.5419547 C15.3121113,16.5419547 15.0245739,16.8304469 15.0245739,17.1864859 L15.0245739,17.5574781 C15.0245739,17.9134312 15.3121113,18.2020094 15.6669722,18.2020094" id="Fill-18" fill="#003D74"></path>
                    <path d="M30.2681028,38.5919789 L29.0921713,39.2731195 C28.233242,39.7710414 27.13594,39.4761039 26.6398373,38.613807 L26.302364,38.0273695 C25.8074604,37.1672211 26.1021927,36.0634398 26.9594946,35.566807 L30.3964968,33.575807 C30.8587666,33.3081977 31.4247623,33.3219477 31.8734133,33.611643 L33.6319572,34.7471352 C33.9302013,34.9397211 34.327803,34.853268 34.5198373,34.5539477 C34.7118715,34.2545414 34.6256188,33.8557914 34.3272891,33.6631195 L32.5687452,32.5277133 C31.7134989,31.975393 30.6350407,31.949182 29.7540985,32.4594789 L26.3170964,34.4504789 C25.6046338,34.8631508 25.0949122,35.5295961 24.8819786,36.3269242 C24.669045,37.1242523 24.7783383,37.9569867 25.1897302,38.6719008 L25.5271178,39.2583383 C26.1045054,40.2617445 27.1451906,40.8048695 28.1995803,40.8048695 C28.7331991,40.8048695 29.2599657,40.6642758 29.7345696,40.3894477 L30.9105011,39.7082211 C31.2177388,39.5303305 31.3229208,39.1361352 31.1456188,38.8278773 C30.9683169,38.5195336 30.5752548,38.4140883 30.2681028,38.5919789" id="Fill-20" fill="#003D74"></path>
                    <path d="M39.5164625,31.1547758 L39.1791606,30.5683383 C38.7676831,29.8534242 38.1034433,29.3420102 37.3089251,29.1284555 C36.5139786,28.9149008 35.6840857,29.024557 34.9716231,29.4372289 L33.7956916,30.1182836 C33.488454,30.2963461 33.3832719,30.6905414 33.5605739,30.9987992 C33.7378758,31.3069711 34.1309379,31.4125883 34.4380899,31.2346977 L35.6140214,30.553557 C36.0293533,30.312932 36.513379,30.2489945 36.9762484,30.373518 C37.4394604,30.4979555 37.8266124,30.7961586 38.0664411,31.2128695 L38.4039143,31.799307 C38.643743,32.216018 38.7073833,32.701393 38.5831863,33.166057 C38.4591606,33.630807 38.16203,34.0193305 37.7466981,34.2598695 L34.3096959,36.2508695 C33.8475118,36.5186508 33.2816017,36.5048148 32.8327794,36.2151195 L31.0742355,35.0795414 C30.7759914,34.8867836 30.3784754,34.9733227 30.1864411,35.2727289 C29.9944069,35.5718773 30.0806595,35.9708852 30.3789893,36.1633852 L32.1376188,37.2990492 C32.5841285,37.5874555 33.0915375,37.7323461 33.5999743,37.7323461 C34.0651563,37.7323461 34.5312805,37.6110023 34.9520942,37.3671977 L38.3890964,35.3761977 C39.1015589,34.9634398 39.6112805,34.2969945 39.8242141,33.4997523 C40.0371478,32.7024242 39.92794,31.8696039 39.5164625,31.1547758" id="Fill-22" fill="#003D74"></path>
                </g>
            </g>
        </g>
    </g>
</svg>