<?xml version="1.0" encoding="UTF-8"?>
<svg width="150px" height="106px" viewBox="0 0 150 106" version="1.1" xmlns="http://www.w3.org/2000/svg" xmlns:xlink="http://www.w3.org/1999/xlink">
    <!-- Generator: sketchtool 52.5 (67469) - http://www.bohemiancoding.com/sketch -->
    <title>C88CF25A-548A-4749-9444-DEA6F76BD58B</title>
    <desc>Created with sketchtool.</desc>
    <defs>
        <polygon id="path-1" points="0 0.0560538462 17.8394294 0.0560538462 17.8394294 13.7647462 0 13.7647462"></polygon>
        <polygon id="path-3" points="0 0.0446129032 35.9106562 0.0446129032 35.9106562 42 0 42"></polygon>
    </defs>
    <g id="design" stroke="none" stroke-width="1" fill="none" fill-rule="evenodd">
        <g id="AU-about-design" transform="translate(-1011.000000, -1760.000000)">
            <g id="Group-6" transform="translate(943.000000, 1760.000000)">
                <g id="Group-2" transform="translate(0.000000, 0.645455)">
                    <g id="Group-17" transform="translate(68.000000, 0.000000)">
                        <g id="Group-11-Copy" opacity="0.54484747">
                            <g id="Group-3" transform="translate(14.000000, 0.000000)" fill="#E8F1FE">
                                <path d="M106.718345,77.1532344 L104.711073,77.1532344 C108.597436,69.8240156 110.802709,61.4622969 110.802709,52.5826875 C110.802709,23.6333125 87.3956182,0.165265625 58.5219818,0.165265625 C45.2636182,0.165265625 33.1616182,5.11557813 23.9456182,13.2700313 L7.0578,13.2700313 C3.22270909,13.2700313 0.113618182,16.3866719 0.113618182,20.2312031 C0.113618182,24.0762813 3.22270909,27.1929219 7.0578,27.1929219 L12.7758,27.1929219 C8.61398182,34.7151875 6.24070909,43.3705781 6.24070909,52.5826875 C6.24070909,81.5320625 29.6478,105.000109 58.5219818,105.000109 C72.2178,105.000109 84.6814364,99.7172969 94.0027091,91.0766719 L106.718345,91.0766719 C110.553436,91.0766719 113.661982,87.9600313 113.661982,84.1149531 C113.661982,80.2704219 110.553436,77.1532344 106.718345,77.1532344" id="Fill-1"></path>
                            </g>
                            <path d="M143.199988,72 L138.800012,72 C135.044247,72 132,75.1343284 132,79 C132,82.8662215 135.044247,86 138.800012,86 L143.199988,86 C146.955753,86 150,82.8662215 150,79 C150,75.1343284 146.955753,72 143.199988,72" id="Fill-4" fill="#E8F1FE"></path>
                            <path d="M122.800012,17 L127.199988,17 C130.955753,17 134,13.8656716 134,10 C134,6.13432836 130.955753,3 127.199988,3 L122.800012,3 C119.044781,3 116,6.13432836 116,10 C116,13.8656716 119.044781,17 122.800012,17" id="Fill-6" fill="#E8F1FE"></path>
                            <g id="Group-10" transform="translate(0.000000, 65.000000)">
                                <mask id="mask-2" fill="white">
                                    <use xlink:href="#path-1"></use>
                                </mask>
                                <g id="Clip-9"></g>
                                <path d="M11.1000176,0.0560538462 L6.73925294,0.0560538462 C3.01748824,0.0560538462 -0.000158823532,3.12474615 -0.000158823532,6.91066923 C-0.000158823532,10.6960538 3.01748824,13.7647462 6.73925294,13.7647462 L11.1000176,13.7647462 C14.8223118,13.7647462 17.8394294,10.6960538 17.8394294,6.91066923 C17.8394294,3.12474615 14.8223118,0.0560538462 11.1000176,0.0560538462" id="Fill-8" fill="#E8F1FE" mask="url(#mask-2)"></path>
                            </g>
                        </g>
                        <g id="Group-10" transform="translate(54.000000, 30.354545)">
                            <polygon id="Fill-1" fill="#8CEBD9" points="12 10 12 19.0800487 13.3929961 19.0800487 13.3929961 41 22.6071012 41 22.6071012 19.0800487 24 19.0800487 24 10"></polygon>
                            <g id="Group-9">
                                <path d="M12.4692719,10.4593645 L1.7557811,10.4593645 C1.38451864,10.4539452 1.04073911,10.6535903 0.862342782,10.9780742 L0.776883465,11.1483968 L0.776883465,19.4167839 L1.36732966,19.4167839 C1.48483622,19.4571387 1.60816955,19.4779452 1.73247402,19.4787194 L3.8534189,19.4787194 C3.33405932,19.5033968 2.92472861,19.9283323 2.92113543,20.4464613 L2.92113543,40.2503323 C2.92113543,40.7890742 3.35940577,41.2257194 3.90003307,41.2257194 L13.8599281,41.2257194 L13.8599281,19.4942032 L12.4692719,19.4942032 L12.4692719,10.4593645 Z" id="Fill-2" fill="#67CEBB"></path>
                                <path d="M36.1337533,10.521271 L35.5510761,10.521271 C35.435706,10.4842065 35.3148976,10.4659161 35.1937008,10.4670774 L24.4491339,10.4670774 L24.4491339,19.4941742 L23.0584777,19.4941742 L23.0584777,41.2490129 L33.0416798,41.2490129 C33.58221,41.2363355 34.0099921,40.7894323 33.9972703,40.2508839 L33.9972703,40.2504 L33.9972703,20.4464323 C33.984937,19.9256903 33.5642441,19.5064645 33.0416798,19.4941742 L35.1626247,19.4941742 C35.5246614,19.5029806 35.8631969,19.3164968 36.048294,19.0064323 L36.1415223,18.8361097 L36.1337533,10.521271 Z" id="Fill-4" fill="#67CEBB"></path>
                                <g id="Group-8">
                                    <mask id="mask-4" fill="white">
                                        <use xlink:href="#path-3"></use>
                                    </mask>
                                    <g id="Clip-7"></g>
                                    <path d="M35.160944,18.62 C35.2097458,18.6181335 35.2547225,18.5942044 35.2646194,18.6116129 L35.3137447,11.3738335 C35.2683282,11.3469953 35.2163254,11.3330405 35.1626245,11.3335484 L25.3260367,11.3335309 L25.3260367,18.62 L35.160944,18.62 Z M23.9353806,20.3683871 L23.9353806,40.3516129 L33.0183727,40.3516129 C33.0747488,40.3516129 33.1203675,40.3061684 33.1203675,40.2503226 L33.1203675,40.2502048 L33.1436745,20.4696774 C33.1436745,20.4137907 33.098112,20.3683871 33.0416798,20.3683871 L23.9353806,20.3683871 Z M19.4856126,9.43605807 C20.052734,9.53243337 20.6268288,9.58230641 21.2021762,9.58516252 L21.2097027,9.58548364 C22.2645256,9.67038449 23.3129326,9.35724027 24.1390719,8.7149282 C24.8855546,7.99892289 25.3817907,7.06308791 25.5554099,6.04166246 C25.7083762,5.30279925 25.49792,4.53563659 24.9946088,3.98273948 C24.5627956,3.57919906 23.9875964,3.36325901 23.3976429,3.38245066 C22.2002981,3.44355866 21.0725658,3.96204894 20.2460311,4.83283851 C19.3289707,5.72830086 19.1602582,7.54811558 19.4856126,9.43605808 Z M13.3461942,18.62 L23.572231,18.62 L23.572231,11.3335484 L13.3461942,11.3335484 L13.3461942,18.62 Z M22.1816132,40.3748387 L22.1893054,20.3683871 L14.7368504,20.3683871 L14.7368504,40.3748387 L22.1816132,40.3748387 Z M12.975314,40.3748387 L12.9830062,20.3451613 L3.87674541,20.3451613 C3.82031315,20.3451613 3.77475066,20.3905649 3.77475066,20.4464516 L3.77475066,40.2735484 C3.77475066,40.3294351 3.82031315,40.3748387 3.87674541,40.3748387 L12.975314,40.3748387 Z M1.75674196,18.62 L11.5923885,18.62 L11.5923885,11.333546 L1.7488915,11.3333094 C1.70284483,11.3301204 1.65767755,11.3474307 1.65380577,11.3109677 L1.60842229,18.5742968 C1.65257599,18.6030849 1.70397458,18.6189251 1.75674196,18.62 Z M17.3868064,9.41327083 C17.8168766,7.06537969 17.6766827,4.7652445 16.4755195,3.56821714 C15.4464213,2.48457741 14.0374179,1.83841214 12.5422656,1.76440486 C11.78395,1.72860303 11.0429875,1.99808802 10.491147,2.50718308 C9.82572498,3.21542153 9.54558483,4.20089483 9.73935057,5.15164307 L9.74003598,5.15536473 C9.95036035,6.43261273 10.5695947,7.60797937 11.506303,8.50693816 C12.2900576,9.28150475 13.5965716,9.61612903 15.1185302,9.61612903 L15.1877189,9.61613172 C15.925439,9.61072759 16.6611902,9.54286233 17.3868064,9.41327083 Z M35.1607705,9.58516129 C36.1433751,9.54921497 36.9704657,10.3117957 37.0106562,11.2954839 L37.0106562,18.6580645 C37.0105707,18.6629691 37.0105707,18.6629691 37.010482,18.6645273 C37.0104978,18.6644207 37.0104978,18.6644207 37.0104687,18.6652172 C36.9686903,19.6474834 36.1359487,20.4099143 35.1548556,20.3683871 L34.8764158,20.3683871 C34.8762585,20.3951026 34.8755073,20.4212707 34.8741732,20.4464516 L34.8741732,40.2503124 C34.8742759,41.2624317 34.0582418,42.0865933 33.0416798,42.1 L3.90005249,42.1 C2.87523015,42.1 2.04425197,41.2719197 2.04425197,40.2503226 L2.0444193,20.4754599 C2.04235277,20.4397821 2.0413259,20.4040774 2.0413387,20.3683728 L1.75906604,20.3683338 C1.75526436,20.3684679 1.75526436,20.3684679 1.75091369,20.3686439 C1.74630569,20.3688308 1.74630569,20.3688308 1.74106025,20.3690156 C0.755329624,20.3998692 -0.0689767445,19.6284057 -0.1,18.6425806 L-0.0998968683,11.2444918 C-0.0553400849,10.2641746 0.776584078,9.50482301 1.75580052,9.54645161 L10.1287943,9.54645161 C9.00332633,8.40663641 8.25774588,6.94675075 7.99702365,5.36801424 C7.71805722,3.87246416 8.17555349,2.3342411 9.2299292,1.22883939 C10.1121315,0.373757226 11.3041961,-0.0888305004 12.5354233,-0.0534691656 C14.5006282,0.0248021229 16.3560154,0.870320427 17.6992927,2.29898321 C18.1412321,2.74923231 18.492979,3.27857278 18.7364306,3.8587054 C18.8103285,3.76906229 18.8882203,3.68284671 18.9694636,3.60072485 C20.1140894,2.39843759 21.6884052,1.69459103 23.3507686,1.64197848 C24.4104198,1.61089467 25.4374291,2.00935368 26.1994641,2.74889606 C27.1039794,3.69331593 27.4981047,5.0133551 27.2592064,6.29489517 C27.0581654,7.52062346 26.5097699,8.66176169 25.6809066,9.58516129 L35.1607705,9.58516129 Z" id="Fill-6" stroke="#003D74" stroke-width="0.2" fill="#003D74" mask="url(#mask-4)"></path>
                                </g>
                            </g>
                        </g>
                    </g>
                </g>
            </g>
        </g>
    </g>
</svg>