<?xml version="1.0" encoding="UTF-8"?>
<svg width="34px" height="48px" viewBox="0 0 34 48" version="1.1" xmlns="http://www.w3.org/2000/svg" xmlns:xlink="http://www.w3.org/1999/xlink">
    <!-- Generator: sketchtool 52.5 (67469) - http://www.bohemiancoding.com/sketch -->
    <title>C6DA3675-1092-4AFF-A2CB-B5CA5A2A959E</title>
    <desc>Created with sketchtool.</desc>
    <defs>
        <polygon id="path-1" points="6.35082797e-06 0.0932918288 31.7389792 0.0932918288 31.7389792 47.9065121 6.35082797e-06 47.9065121"></polygon>
    </defs>
    <g id="design" stroke="none" stroke-width="1" fill="none" fill-rule="evenodd">
        <g id="AU-about-design" transform="translate(-841.000000, -1237.000000)">
            <g id="Group-41" transform="translate(841.000000, 1237.000000)">
                <g id="Group-40">
                    <path d="M30.7479472,47.2062257 L3.17621389,47.2062257 L3.64088056,43.8907704 L5.54025278,30.3373074 L5.75634167,28.7926226 C6.12344722,26.172607 8.38898056,24.2212296 11.0641194,24.2212296 L22.8600417,24.2212296 C25.5351806,24.2212296 27.8007139,26.172607 28.1678194,28.7926226 L28.3839083,30.3373074 L30.2831861,43.8907704 L30.7479472,47.2062257 Z" id="Fill-1" fill="#FF5A59"></path>
                    <path d="M32.9258833,41.1813292 C32.4774611,42.4693914 31.5236667,43.4213603 30.2833278,43.8908078 C29.7209111,44.1035393 29.0989,44.2170957 28.4380722,44.2170957 L25.58585,44.2170957 L25.58585,40.3732669 L28.4380722,40.3732669 C29.0954056,40.3732669 29.2002389,40.0728467 29.2508611,39.9280062 C29.4470222,39.3648934 29.3087556,38.1651735 28.3287056,36.49087 C27.6669333,35.3601619 26.4337722,33.6965977 24.1645556,31.6406288 L24.1645556,47.206263 L9.75960556,47.206263 L9.75960556,31.6406288 C7.49048333,33.6965977 6.25732222,35.3601619 5.59555,36.49087 C4.61559444,38.1651735 4.47723333,39.3648934 4.67339444,39.9280062 C4.72401667,40.0728467 4.82885,40.3732669 5.48608889,40.3732669 L8.33840556,40.3732669 L8.33840556,44.2170957 L5.48608889,44.2170957 C4.82526111,44.2170957 4.20325,44.1035393 3.64092778,43.8908078 C2.40058889,43.4214537 1.44679444,42.4694848 0.998372222,41.1813292 C0.5491,39.8921463 0.398083333,37.698621 2.23058889,34.5663875 C3.04063889,33.1816716 4.14715,31.7682864 5.5403,30.3372514 C6.46330556,29.3869634 7.51381111,28.4294848 8.68548889,27.4677105 C9.36709444,26.9090802 10.2251222,26.6015626 11.1101611,26.6015626 L22.814,26.6015626 C23.6990389,26.6015626 24.5569722,26.9090802 25.2385778,27.4677105 C26.41035,28.4295782 27.4608556,29.3869634 28.3838611,30.3372514 C29.7770111,31.7682864 30.8835222,33.1816716 31.6935722,34.5663875 C33.5260778,37.698621 33.3751556,39.8921463 32.9258833,41.1813292" id="Fill-3" fill="#C5D2F0"></path>
                    <path d="M9.17970722,26.6019268 L10.6715517,28.4452576 C10.989735,28.8384093 11.4713072,29.0672031 11.9805517,29.0672031 L16.9621183,29.0672031 L21.943685,29.0672031 C22.4530239,29.0672031 22.9345017,28.838316 23.252685,28.4452576 L24.7445294,26.6019268 L24.7445294,25.7525883 L9.17970722,25.7525883 L9.17970722,26.6019268 Z" id="Fill-9" fill="#FF5A59"></path>
                    <path d="M14.1419128,21.4188233 L14.1419128,26.867477 C14.1419128,28.407586 15.4045406,29.6561463 16.9621183,29.6561463 C18.5196961,29.6561463 19.7823239,28.407586 19.7823239,26.867477 L19.7823239,21.4188233 L14.1419128,21.4188233 Z" id="Fill-11" fill="#F2A077"></path>
                    <path d="M7.48404222,6.97129027 L7.48404222,15.3979984 L26.4401756,15.3979984 L26.4401756,6.23354708 C26.4401756,4.37947704 24.9200922,2.87644202 23.0449922,2.87644202 L21.6665756,2.87644202 L21.5622144,2.66399066 C21.0004589,1.52002179 19.8273644,0.793764981 18.5413144,0.793764981 L13.7316367,0.793764981 C10.2812033,0.793764981 7.48404222,3.55955486 7.48404222,6.97129027" id="Fill-13" fill="#F9DC6A"></path>
                    <path d="M27.7144767,15.081077 L27.7144767,15.88447 C27.7144767,16.8223377 26.94551,17.5825868 25.9970044,17.5825868 L24.3055044,17.5825868 C24.20511,19.5018397 23.3528433,21.225544 22.0332656,22.4686879 C20.7134989,23.7110848 18.9282156,24.4735751 16.9619767,24.4735751 C13.0298767,24.4735751 9.81867111,21.4225868 9.61854333,17.5824934 L7.92704333,17.5824934 C6.97853778,17.5824934 6.20976,16.8222444 6.20976,15.8843767 L6.20976,15.0809837 C6.20976,14.143116 6.97853778,13.3828669 7.92704333,13.3828669 L9.60806,13.3828669 L9.60806,10.3471004 L15.7817044,10.3471004 C18.7188322,10.3471004 21.1593711,8.24752062 21.6512378,5.48303813 C21.6939267,5.24303813 21.9833044,5.14395642 22.1661489,5.30747393 C23.4866711,6.48861012 24.3161767,8.19662568 24.3161767,10.0964545 L24.3161767,13.3829603 L25.9970044,13.3829603 C26.94551,13.3829603 27.7144767,14.1432093 27.7144767,15.081077" id="Fill-17" fill="#FFCCAA"></path>
                    <polygon id="Fill-21" fill="#F9DC6A" points="19.3426756 33.3884078 17.0825256 33.3884078 16.8416922 33.3884078 14.5815422 33.3884078 13.3761478 34.7888125 15.9677978 39.043723 17.95642 39.043723 20.54807 34.7888125"></polygon>
                    <path d="M24.6199383,39.5573043 L23.7342383,39.5573043 C23.0700106,39.5573043 22.5315828,40.0897868 22.5315828,40.746565 L22.5315828,43.8255689 C22.5315828,44.4823471 23.0700106,45.0148296 23.7342383,45.0148296 L24.6199383,45.0148296 C25.1535494,45.0148296 25.5860106,44.5871253 25.5860106,44.0595922 L25.5860106,40.512635 C25.5860106,39.9850086 25.153455,39.5573043 24.6199383,39.5573043" id="Fill-23" fill="#FFCCAA"></path>
                    <path d="M9.30426056,39.5573043 L10.1899606,39.5573043 C10.8541883,39.5573043 11.3927106,40.0897868 11.3927106,40.746565 L11.3927106,43.8255689 C11.3927106,44.4823471 10.8541883,45.0148296 10.1899606,45.0148296 L9.30426056,45.0148296 C8.77064944,45.0148296 8.33818833,44.5871253 8.33818833,44.0595922 L8.33818833,40.512635 C8.33818833,39.9850086 8.77074389,39.5573043 9.30426056,39.5573043" id="Fill-25" fill="#FFCCAA"></path>
                    <path d="M23.2397933,43.8255782 L23.2397933,40.7465743 C23.2397933,40.4770646 23.4616433,40.2577027 23.73421,40.2577027 L24.61991,40.2577027 C24.7620489,40.2577027 24.8777433,40.372193 24.8777433,40.512551 L24.8777433,44.0595082 C24.8777433,44.2000529 24.7619544,44.3143564 24.61991,44.3143564 L24.1716767,44.3143564 L24.1571322,44.3143564 L23.73421,44.3143564 C23.4616433,44.3144498 23.2397933,44.0951813 23.2397933,43.8255782 M27.7155156,36.8421385 C28.6033878,38.3589012 28.68036,39.3262786 28.5929989,39.6617183 C28.5600378,39.6676016 28.5100767,39.6728311 28.4379211,39.6728311 L26.0603767,39.6728311 C25.8097211,39.2539051 25.3784878,38.9541385 24.8726433,38.8779362 L24.8726433,33.2895782 C26.3820544,34.811477 27.2409322,36.0303409 27.7155156,36.8421385 M33.1052711,35.7830568 C32.9517989,35.4273525 32.5358656,35.2621541 32.1757489,35.4137183 C31.81601,35.5655626 31.6486544,35.9770179 31.8022211,36.3329089 C32.7460989,38.5202708 32.5701489,40.0527222 32.25631,40.9531424 C31.8837267,42.023337 31.0931322,42.8344809 30.0313878,43.2365977 C29.5378211,43.4225276 29.0017544,43.5166599 28.4380156,43.5166599 L26.29441,43.5166599 L26.29441,41.0737027 L28.4379211,41.0737027 C29.3964378,41.0737027 29.7728933,40.5762397 29.9210767,40.1552591 C30.0745489,39.7133603 30.2861989,38.4373447 28.9415933,36.1407222 C28.3051322,35.051944 27.0425989,33.2979829 24.6427656,31.124442 C24.4355544,30.9367377 24.1359767,30.8878973 23.8789933,30.9998661 C23.6219156,31.1116482 23.4558822,31.363228 23.4558822,31.6408623 L23.4558822,38.879337 C22.5338211,39.0132514 21.8229378,39.7983409 21.8229378,40.7466677 L21.8229378,43.8256716 C21.8229378,44.7739984 22.5338211,45.5591813 23.4558822,45.6930023 L23.4558822,47.2062163 C23.4558822,47.5931113 23.7730267,47.9066054 24.1642156,47.9066054 C24.5554989,47.9066054 24.8725489,47.5931113 24.8725489,47.2062163 L24.8725489,45.6943097 C25.3710267,45.6191346 25.7969711,45.3268389 26.0492322,44.9173447 L28.4378267,44.9173447 C28.8685878,44.9173447 29.28811,44.8732669 29.6940322,44.7884732 L30.04631,47.3023097 C30.09561,47.6528778 30.39906,47.9066988 30.7470878,47.9066988 C30.7794822,47.9066988 30.8123489,47.904551 30.8452156,47.8999751 C31.2328156,47.8470257 31.5033044,47.4932825 31.44966,47.110123 L31.0579044,44.3158506 C32.2562156,43.7123019 33.14711,42.6972981 33.5955322,41.4093292 C33.9905933,40.2763798 34.2260433,38.3805665 33.1052711,35.7830568" id="Fill-27" fill="#003D74"></path>
                    <path d="M13.5454111,18.0573198 C13.7303333,18.5103315 14.0025222,18.9164638 14.3551778,19.2650708 C15.05265,19.9530397 15.9784889,20.3319969 16.9621278,20.3319969 C18.4708778,20.3319969 19.8118,19.4396078 20.3783722,18.0585339 C20.5254222,17.700028 20.3507,17.2915611 19.9882222,17.1461603 C19.6258389,17.0009463 19.2126444,17.1735222 19.0655944,17.5319346 C18.717,18.3820202 17.8912722,18.9311253 16.9622222,18.9311253 C16.3563611,18.9311253 15.7858222,18.6974755 15.3563833,18.2738802 C15.1398222,18.0597479 14.9725611,17.8105027 14.8593222,17.5330553 C14.7128389,17.1741759 14.3001167,17.0009463 13.9373556,17.1456934 C13.5744056,17.2905339 13.3990222,17.6986272 13.5454111,18.0573198" id="Fill-29" fill="#003D74"></path>
                    <path d="M13.280655,14.5540016 C13.6718439,14.5540016 13.9889883,14.2405074 13.9889883,13.8536125 L13.9889883,13.5023907 C13.9889883,13.1154957 13.6718439,12.8020016 13.280655,12.8020016 C12.8894661,12.8020016 12.5723217,13.1154957 12.5723217,13.5023907 L12.5723217,13.8536125 C12.5723217,14.240414 12.8894661,14.5540016 13.280655,14.5540016" id="Fill-31" fill="#003D74"></path>
                    <path d="M20.6435911,14.5540016 C21.03478,14.5540016 21.3519244,14.2405074 21.3519244,13.8536125 L21.3519244,13.5023907 C21.3519244,13.1154957 21.03478,12.8020016 20.6435911,12.8020016 C20.2523078,12.8020016 19.9352578,13.1154957 19.9352578,13.5023907 L19.9352578,13.8536125 C19.9352578,14.240414 20.2523078,14.5540016 20.6435911,14.5540016" id="Fill-33" fill="#003D74"></path>
                    <path d="M17.556155,38.3433899 L16.3680439,38.3433899 L14.2457828,34.8590008 L14.9087828,34.0887595 L19.0153217,34.0887595 L19.6783217,34.8590008 L17.556155,38.3433899 Z M19.8820383,32.9344249 C19.747455,32.7780981 19.550255,32.6879813 19.3426661,32.6879813 L14.5815328,32.6879813 C14.3738494,32.6879813 14.1766494,32.7780981 14.0421606,32.9344249 L12.8367661,34.3348296 C12.6394717,34.5640903 12.6123661,34.8923393 12.7694272,35.1501759 L15.3609828,39.404993 C15.4891439,39.6153899 15.7193994,39.7440747 15.9677883,39.7440747 L17.956505,39.7440747 C18.2048939,39.7440747 18.4352439,39.6153899 18.5633106,39.404993 L21.1548661,35.1501759 C21.3120217,34.8922459 21.2847272,34.5640903 21.0876217,34.3348296 L19.8820383,32.9344249 Z" id="Fill-35" fill="#003D74"></path>
                    <g id="Group-39" transform="translate(0.000000, 0.000093)">
                        <mask id="mask-2" fill="white">
                            <use xlink:href="#path-1"></use>
                        </mask>
                        <g id="Clip-38"></g>
                        <path d="M10.6844056,43.8254848 C10.6844056,44.0950879 10.46265,44.3143564 10.1899889,44.3143564 L9.76716111,44.3143564 L9.75252222,44.3143564 L9.30428889,44.3143564 C9.16215,44.3143564 9.04645556,44.1999595 9.04645556,44.0595082 L9.04645556,40.512551 C9.04645556,40.3720996 9.16215,40.2577027 9.30428889,40.2577027 L10.1899889,40.2577027 C10.46265,40.2577027 10.6844056,40.477158 10.6844056,40.7465743 L10.6844056,43.8254848 Z M5.33148333,39.6617183 C5.24412222,39.3224498 5.32251111,38.3559128 6.20906111,36.8416716 C6.68336111,36.0302475 7.54233333,34.811477 9.05155556,33.2894848 L9.05155556,38.8778428 C8.54580556,38.9540451 8.11457222,39.2538117 7.86382222,39.6727377 L5.48627778,39.6727377 C5.41431111,39.6727377 5.36425556,39.6674148 5.33148333,39.6617183 Z M11.0640722,24.9216093 L13.4336833,24.9216093 L13.4336833,26.8677572 C13.4336833,27.3967844 13.5526833,27.9061074 13.7740611,28.3665899 L11.9801833,28.3665899 C11.6845722,28.3665899 11.4089833,28.2357572 11.2243444,28.0075237 L9.73306667,26.164193 C9.48864444,25.8620918 9.04286667,25.8129712 8.73743333,26.0547455 C8.52389444,26.223586 8.43587222,26.4897339 8.48545556,26.7378584 C8.39988889,26.798372 8.31555,26.861407 8.23357222,26.9283642 C7.64896111,27.408084 7.09098333,27.8901385 6.56285,28.3712591 C7.08663889,26.3721619 8.93510556,24.9216093 11.0640722,24.9216093 Z M10.3264611,17.5466054 C10.3071944,17.1742786 9.99618889,16.8820763 9.61907222,16.8820763 L7.92757222,16.8820763 C7.37082222,16.8820763 6.91796111,16.4346677 6.91796111,15.8847222 L6.91796111,15.0807689 C6.91796111,14.5308233 7.37082222,14.0834148 7.92757222,14.0834148 L9.60773889,14.0834148 C9.99892778,14.0834148 10.3160722,13.7699206 10.3160722,13.3830257 L10.3160722,11.0473681 L15.7815722,11.0473681 C18.7744222,11.0473681 21.3570056,9.09879222 22.1798056,6.32002179 C23.0943111,7.36182724 23.6081833,8.70461323 23.6081833,10.0967066 L23.6081833,13.3829323 C23.6081833,13.7698272 23.9253278,14.0833214 24.3165167,14.0833214 L25.9966833,14.0833214 C26.5533389,14.0833214 27.0062944,14.53073 27.0062944,15.0806755 L27.0062944,15.8846288 C27.0062944,16.4345743 26.5533389,16.8819829 25.9966833,16.8819829 L24.3051833,16.8819829 C23.9281611,16.8819829 23.61725,17.1739984 23.5977,17.5462319 C23.5099611,19.2293136 22.7807556,20.7972514 21.5440056,21.9613914 C20.9508944,22.5205821 20.2666444,22.9618272 19.5103333,23.2728 C18.7028333,23.6046911 17.8454667,23.7728778 16.9621278,23.7728778 C16.0623556,23.7728778 15.1900667,23.591337 14.4139222,23.2728 C12.0608389,22.3056093 10.4565111,20.0579206 10.3264611,17.5466054 Z M27.3615,28.3713525 C26.8329889,27.8900451 26.2747278,27.4075237 25.6892667,26.9271502 C25.6078556,26.8607533 25.5240833,26.7980918 25.4388944,26.7378584 C25.4883833,26.4897339 25.4002667,26.2236794 25.1869167,26.0548389 C24.8813889,25.813158 24.4357056,25.8622786 24.1912833,26.1642864 L22.7001,28.0074304 C22.5152722,28.2357572 22.2397778,28.3666833 21.9441667,28.3666833 L20.1502889,28.3666833 C20.3729889,27.9045198 20.4906667,27.3953837 20.4906667,26.8678506 L20.4906667,24.9217027 L22.8602778,24.9217027 C24.9892444,24.9216093 26.8377111,26.3722553 27.3615,28.3713525 Z M14.85035,26.8677572 L14.85035,24.9216093 C15.0349889,24.9226366 15.7953611,25.1737494 16.9621278,25.1737494 C17.6453389,25.1737494 18.3141,25.090263 18.9735111,24.9229167 C18.9753056,24.9224498 18.9770056,24.9220763 18.9788,24.9216093 L19.0738111,24.9216093 L19.0738111,26.8677572 C19.0738111,28.0231191 18.1265333,28.9558506 16.9620333,28.9558506 C15.8169889,28.9558506 14.85035,28.0414226 14.85035,26.8677572 Z M10.4681278,38.8791502 L10.4681278,31.6406755 C10.4681278,31.3629479 10.3021889,31.1114615 10.0451111,30.9996794 C9.78803333,30.8878039 9.48836111,30.9366444 9.28133889,31.1242553 C6.88150556,33.2977027 5.61897222,35.0517572 4.9827,36.1401619 C3.63790556,38.4372514 3.84955556,39.7131735 4.00435,40.158621 C4.15130556,40.5760529 4.52776111,41.073516 5.48618333,41.073516 L7.62978889,41.073516 L7.62978889,43.5164732 L5.48618333,43.5164732 C4.92253889,43.5164732 4.38637778,43.4223409 3.89413333,43.2368778 C2.83106667,42.8342008 2.04047222,42.0231502 1.66798333,40.953049 C1.26716111,39.8016093 1.14589444,37.8197883 2.84381667,34.9171891 C3.62166111,33.5878506 4.69974444,32.2110724 6.04822222,30.8249556 C6.0486,30.8245821 6.04897778,30.8241152 6.04935556,30.8237416 C6.04973333,30.8234615 6.05011111,30.8229946 6.05058333,30.8225276 C6.95318889,29.8944654 7.99198333,28.946979 9.13693333,28.0074304 C9.19208889,27.9624187 9.24875556,27.919835 9.30627222,27.8790257 L10.1182111,28.88273 C10.5733389,29.4450023 11.2520167,29.7674615 11.9801833,29.7674615 L15.0015556,29.7674615 C15.5812556,30.153516 16.2537944,30.3568156 16.9621278,30.3568156 C17.6715,30.3568156 18.3450778,30.1528623 18.9228889,29.7674615 L21.9440722,29.7674615 C22.6722389,29.7674615 23.3509167,29.4450023 23.8062333,28.8825432 L24.6180778,27.8790257 C24.6751222,27.9196482 24.7312222,27.961765 24.7859056,28.0064031 C25.9322722,28.946979 26.9711611,29.8945588 27.8736722,30.822621 C27.8743333,30.8233681 27.8749,30.8239284 27.8753722,30.8245821 C27.8753722,30.8245821 27.8755611,30.8245821 27.8755611,30.8246755 C28.8905556,31.868442 29.7547222,32.908193 30.4439778,33.9150724 C30.5809222,34.1151969 30.804,34.2229634 31.0312333,34.2229634 C31.1678,34.2229634 31.3059722,34.1839284 31.4276167,34.1024965 C31.7515611,33.8857494 31.8364667,33.4502942 31.6171667,33.1298895 C30.9196944,32.1109634 30.0571333,31.0653292 29.0547944,30.0193214 L28.8694944,28.6963331 C28.4558278,25.7458272 25.8723,23.5209245 22.8601833,23.5209245 L21.8760722,23.5209245 C22.0995278,23.3505899 22.3154278,23.1697027 22.5212222,22.9756482 C23.8572333,21.7179362 24.70525,20.0710879 24.9499556,18.2828545 L25.9966833,18.2828545 C27.3345833,18.2828545 28.4229611,17.2070568 28.4229611,15.8847222 L28.4229611,15.0807689 C28.4229611,14.170263 27.9069167,13.3768623 27.1489056,12.9708233 L27.1489056,6.23336031 C27.1489056,3.99594397 25.3080889,2.17577276 23.0452944,2.17577276 L22.1040611,2.17577276 C21.3945,0.904239689 20.0182556,0.0932824903 18.5411444,0.0932824903 L13.7321278,0.0932824903 C12.1193,0.0932824903 10.54765,0.651445914 9.30683889,1.66476887 C9.00527778,1.91111907 8.96268333,2.35255097 9.21182778,2.65082335 C9.46087778,2.94900233 9.90731667,2.99121245 10.2090667,2.74476887 C11.1965778,1.93829416 12.4477778,1.4940607 13.7321278,1.4940607 L18.5411444,1.4940607 C20.4162444,1.4940607 20.9995333,3.14809961 21.029,3.1816249 C21.1474333,3.42311907 21.3949722,3.57655097 21.6664056,3.57655097 L23.0452944,3.57655097 C24.5268444,3.57655097 25.7322389,4.76842646 25.7322389,6.23336031 L25.7322389,12.6826366 L25.02485,12.6826366 L25.02485,10.0968 C25.02485,8.07818521 24.1560556,6.14305681 22.6418278,4.78813074 C22.3665222,4.54131362 21.9776,4.46193619 21.6270222,4.58081556 C21.2758778,4.69988171 21.0178556,4.99908794 20.9537278,5.36114241 C20.5119167,7.84434864 18.3367667,9.64658988 15.7816667,9.64658988 L9.60783333,9.64658988 C9.21664444,9.64658988 8.8995,9.96008405 8.8995,10.346979 L8.8995,12.6826366 L8.19211111,12.6826366 L8.19211111,6.9711035 C8.19211111,6.19451206 8.35285556,5.44472218 8.66990556,4.74274553 C8.82932778,4.38956265 8.66905556,3.97530584 8.31186667,3.8176716 C7.95467778,3.66003735 7.53581667,3.81860545 7.3763,4.17169494 C6.97765,5.05455875 6.77553889,5.99644202 6.77553889,6.97119689 L6.77553889,12.9708233 C6.01743333,13.3768623 5.50148333,14.1703564 5.50148333,15.0807689 L5.50148333,15.8847222 C5.50148333,17.2070568 6.58986111,18.2828545 7.92776111,18.2828545 L8.97505556,18.2828545 C9.26405556,20.366372 10.3880389,22.2508856 12.0502611,23.5209245 L11.0642611,23.5209245 C8.05205,23.5209245 5.46852222,25.7458272 5.05485556,28.6965198 L4.86983889,30.018014 C3.51569444,31.4305588 2.42165,32.8419829 1.61773889,34.2159595 C-0.34765,37.5756794 -0.168111111,39.9819362 0.328666667,41.4089556 C0.776994444,42.6968311 1.6677,43.7116482 2.86638889,44.3155704 L2.47472778,47.1099362 C2.42108333,47.4930957 2.69157222,47.8468389 3.07907778,47.8997883 C3.11213333,47.9043642 3.14481111,47.9065121 3.17720556,47.9065121 C3.52523333,47.9065121 3.82877778,47.6526911 3.87798333,47.302123 L4.23035556,44.7883798 C4.63599444,44.8731735 5.0558,44.917158 5.48646667,44.917158 L7.87506111,44.917158 C8.12732222,45.3266521 8.55326667,45.6189479 9.05174444,45.694123 L9.05174444,47.2060296 C9.05174444,47.5929245 9.36888889,47.9064187 9.76007778,47.9064187 C10.1512667,47.9064187 10.4684111,47.5929245 10.4684111,47.2060296 L10.4684111,45.6927222 C11.3904722,45.5589012 12.1013556,44.7737183 12.1013556,43.8253914 L12.1013556,40.7463875 C12.1010722,39.7981541 11.3901889,39.0130646 10.4681278,38.8791502 Z" id="Fill-37" fill="#003D74" mask="url(#mask-2)"></path>
                    </g>
                </g>
            </g>
        </g>
    </g>
</svg>