<?xml version="1.0" encoding="UTF-8"?>
<svg width="150px" height="105px" viewBox="0 0 150 105" version="1.1" xmlns="http://www.w3.org/2000/svg" xmlns:xlink="http://www.w3.org/1999/xlink">
    <!-- Generator: sketchtool 52.5 (67469) - http://www.bohemiancoding.com/sketch -->
    <title>44C963D1-B049-493D-8735-1638D5C8FBAD</title>
    <desc>Created with sketchtool.</desc>
    <defs>
        <polygon id="path-1" points="0.113618182 0.165265625 113.661982 0.165265625 113.661982 105 0.113618182 105"></polygon>
        <polygon id="path-3" points="0 0.0560538462 17.8394294 0.0560538462 17.8394294 13.7647462 0 13.7647462"></polygon>
    </defs>
    <g id="design" stroke="none" stroke-width="1" fill="none" fill-rule="evenodd">
        <g id="AU-about-design" transform="translate(-296.000000, -1766.000000)">
            <g id="Group-12" transform="translate(245.000000, 1766.000000)">
                <g id="Group-16" transform="translate(51.000000, 0.000000)">
                    <g id="Group-11" opacity="0.54484747">
                        <g id="Group-3" transform="translate(14.000000, 0.000000)">
                            <mask id="mask-2" fill="white">
                                <use xlink:href="#path-1"></use>
                            </mask>
                            <g id="Clip-2"></g>
                            <path d="M106.718345,77.1532344 L104.711073,77.1532344 C108.597436,69.8240156 110.802709,61.4622969 110.802709,52.5826875 C110.802709,23.6333125 87.3956182,0.165265625 58.5219818,0.165265625 C45.2636182,0.165265625 33.1616182,5.11557813 23.9456182,13.2700313 L7.0578,13.2700313 C3.22270909,13.2700313 0.113618182,16.3866719 0.113618182,20.2312031 C0.113618182,24.0762813 3.22270909,27.1929219 7.0578,27.1929219 L12.7758,27.1929219 C8.61398182,34.7151875 6.24070909,43.3705781 6.24070909,52.5826875 C6.24070909,81.5320625 29.6478,105.000109 58.5219818,105.000109 C72.2178,105.000109 84.6814364,99.7172969 94.0027091,91.0766719 L106.718345,91.0766719 C110.553436,91.0766719 113.661982,87.9600313 113.661982,84.1149531 C113.661982,80.2704219 110.553436,77.1532344 106.718345,77.1532344" id="Fill-1" fill="#E8F1FE" mask="url(#mask-2)"></path>
                        </g>
                        <path d="M143.199988,76 L138.800012,76 C135.044247,76 132,79.1343284 132,83 C132,86.8662215 135.044247,90 138.800012,90 L143.199988,90 C146.955753,90 150,86.8662215 150,83 C150,79.1343284 146.955753,76 143.199988,76" id="Fill-4" fill="#E8F1FE"></path>
                        <path d="M122.800012,21 L127.199988,21 C130.955753,21 134,17.8656716 134,14 C134,10.1343284 130.955753,7 127.199988,7 L122.800012,7 C119.044781,7 116,10.1343284 116,14 C116,17.8656716 119.044781,21 122.800012,21" id="Fill-6" fill="#E8F1FE"></path>
                        <g id="Group-10" transform="translate(0.000000, 69.000000)">
                            <mask id="mask-4" fill="white">
                                <use xlink:href="#path-3"></use>
                            </mask>
                            <g id="Clip-9"></g>
                            <path d="M11.1000176,0.0560538462 L6.73925294,0.0560538462 C3.01748824,0.0560538462 -0.000158823532,3.12474615 -0.000158823532,6.91066923 C-0.000158823532,10.6960538 3.01748824,13.7647462 6.73925294,13.7647462 L11.1000176,13.7647462 C14.8223118,13.7647462 17.8394294,10.6960538 17.8394294,6.91066923 C17.8394294,3.12474615 14.8223118,0.0560538462 11.1000176,0.0560538462" id="Fill-8" fill="#E8F1FE" mask="url(#mask-4)"></path>
                        </g>
                    </g>
                    <g id="Group-21" transform="translate(53.000000, 32.000000)">
                        <path d="M40,18.8519723 L40,18.3366939 C40,16.6288293 38.6005559,15.2445289 36.8740081,15.2445289 L29.5876961,15.2445289 C29.7317418,14.6755705 30.1603778,13.2400638 31.0191503,12.275061 C32.1107467,11.0478425 33.4504218,7.61207617 32.7061856,4.61811833 C31.9619495,1.6241605 30.0763511,0.397189424 28.9847548,1.28055912 C27.8931584,2.16417619 27.9426741,6.58151942 25.5611684,8.79006735 C23.1791626,10.9988627 20.5495782,15.4654332 19.4082161,16.1034086 L14,16.1034086 L14,33.7730289 L18.5174334,33.7730289 C18.5174334,33.7730289 19.6090298,35 23.3799763,35 C23.4612521,35 23.1724105,34.9831786 34.8576183,34.9831786 C37.6650091,34.9831786 38.6115594,31.4487103 37.0365597,30.3921794 C38.578549,29.4956989 39.2079987,27.3403362 37.6972693,26.2281463 C40.4806525,24.5220134 39.8196928,21.8216875 38.500024,21.1619432 C39.3055296,20.7846991 40,19.7719532 40,18.8519723 Z" id="Stroke-1" fill="#FFFFFF"></path>
                        <g id="Group-9">
                            <path d="M40,18.3770303 L40,17.8465966 C40,16.0885008 38.6005559,14.6634856 36.8740081,14.6634856 L29.5876961,14.6634856 C29.7317418,14.0777932 30.1603778,12.6000657 31.0191503,11.6066804 C32.1107467,10.3433673 33.4504218,6.806549 32.7061856,3.72453358 C31.9619495,0.642518158 30.0763511,-0.620540298 28.9847548,0.28881086 C27.8931584,1.19841667 27.9426741,5.74568176 25.5611684,8.01918698 C23.1791626,10.2929468 20.5495782,14.8908871 19.4082161,15.5476265 L14,15.5476265 L14,33.7369415 L18.5174334,33.7369415 C18.5174334,33.7369415 19.6090298,35 23.3799763,35 C23.4612521,35 23.1724105,34.9826839 34.8576183,34.9826839 C37.6650091,34.9826839 38.6115594,31.3442606 37.0365597,30.2566553 C38.578549,29.3338077 39.2079987,27.115052 37.6972693,25.9701506 C40.4806525,24.2138373 39.8196928,21.4340901 38.500024,20.7549415 C39.3055296,20.366602 40,19.3240695 40,18.3770303 Z" id="Stroke-1" stroke="#003D74" stroke-width="2.5"></path>
                            <path d="M0,25 L0,34.278854 C0,35.2294026 0.812095933,36 1.81383385,36 L9.18616615,36 C10.1879041,36 11,35.2294026 11,34.278854 L11,25 L0,25 Z" id="Fill-5" fill="#4DBBA6"></path>
                            <path d="M0,14 L0,23.278854 C0,24.2294026 0.812095933,25 1.81383385,25 L9.18616615,25 C10.1879041,25 11,24.2294026 11,23.278854 L11,14 L0,14 Z" id="Fill-5-Copy" fill="#8CEBD9"></path>
                            <path d="M0,34.2046467 C0,35.1964305 0.812095933,36 1.81383385,36 L9.18616615,36 C10.1879041,36 11,35.1964305 11,34.2046467 L11,14.7953533 C11,13.8038218 10.1879041,13 9.18616615,13 L1.81383385,13 C0.812095933,13 0,13.8038218 0,14.7953533 L0,34.2046467 Z" id="Stroke-7" stroke="#003D74" stroke-width="2.5"></path>
                            <path d="M9,30.5001259 C9,31.3286062 8.32841081,32 7.5,32 C6.67158919,32 6,31.3286062 6,30.5001259 C6,29.6713938 6.67158919,29 7.5,29 C8.32841081,29 9,29.6713938 9,30.5001259" id="Fill-9" fill="#ECEFF0"></path>
                        </g>
                    </g>
                </g>
            </g>
        </g>
    </g>
</svg>