<?xml version="1.0" encoding="UTF-8"?>
<svg width="66px" height="75px" viewBox="0 0 66 75" version="1.1" xmlns="http://www.w3.org/2000/svg" xmlns:xlink="http://www.w3.org/1999/xlink">
    <!-- Generator: sketchtool 52.5 (67469) - http://www.bohemiancoding.com/sketch -->
    <title>91B1B860-656A-4415-BD07-1986823E9D56</title>
    <desc>Created with sketchtool.</desc>
    <g id="design" stroke="none" stroke-width="1" fill="none" fill-rule="evenodd">
        <g id="AU-about-design" transform="translate(-985.000000, -141.000000)">
            <g id="Group-47" transform="translate(985.000000, 141.000000)">
                <g id="Group-46">
                    <g id="Group-45" transform="translate(0.000000, 0.092774)">
                        <polyline id="Stroke-1" stroke="#003D74" stroke-linecap="round" points="61.0760312 68.272911 59.652125 68.272911 0.50821875 68.272911"></polyline>
                        <path d="M56.4625547,68.272911 C55.4438828,57.7390068 53.6127109,48.0465411 47.9150547,45.7348973 C40.0124766,42.5253082 34.8206016,40.4294178 34.8206016,40.4294178 L29.2691953,40.9564726 L23.7177891,40.4294178 C23.7177891,40.4294178 18.4954453,42.4492808 10.6233359,45.7348973 C4.76927344,48.1770205 2.10224219,57.8592123 2.07685156,68.272911 L56.4625547,68.272911 Z" id="Fill-3" fill="#4DBBA6"></path>
                        <path d="M56.4625547,68.272911 C55.4438828,57.7390068 53.6127109,48.0465411 47.9150547,45.7348973 C40.0124766,42.5253082 34.8206016,40.4294178 34.8206016,40.4294178 L29.2691953,40.9564726 L23.7177891,40.4294178 C23.7177891,40.4294178 18.4954453,42.4492808 10.6233359,45.7348973 C4.76927344,48.1770205 2.10224219,57.8592123 2.07685156,68.272911 L56.4625547,68.272911 Z" id="Stroke-5" stroke="#003D74"></path>
                        <path d="M36.2279531,31.2053425 L29.3887344,30.5139041 L22.5495156,31.2053425 C22.5495156,31.2053425 23.6890469,37.7776027 21.866,42.8508904 C21.866,42.8508904 24.1460781,45.7347945 29.3887344,45.7347945 C34.6324063,45.7347945 36.9114688,42.8508904 36.9114688,42.8508904 C35.0884219,37.7776027 36.2279531,31.2053425 36.2279531,31.2053425" id="Fill-7" fill="#F6F9FF"></path>
                        <path d="M36.2279531,31.2053425 L29.3887344,30.5139041 L22.5495156,31.2053425 C22.5495156,31.2053425 23.6890469,37.7776027 21.866,42.8508904 C21.866,42.8508904 24.1460781,45.7347945 29.3887344,45.7347945 C34.6324063,45.7347945 36.9114688,42.8508904 36.9114688,42.8508904 C35.0884219,37.7776027 36.2279531,31.2053425 36.2279531,31.2053425 Z" id="Stroke-9" stroke="#003D74"></path>
                        <path d="M36.2279531,31.2053425 L29.3887344,30.5139041 L22.5495156,31.2053425 C22.5495156,31.2053425 22.9049844,33.2570548 22.9009219,35.9519178 C23.6971719,37.1457534 24.5970156,38.1957534 25.5892813,39.014589 C26.9877969,40.1673288 29.6111562,40.4303425 30.3007656,40.4303425 C30.990375,40.4303425 33.6137344,40.1673288 35.01225,39.014589 C35.3392812,38.7443836 35.6571719,38.4464384 35.9638906,38.1289726 C35.6673281,34.4436986 36.2279531,31.2053425 36.2279531,31.2053425" id="Fill-11" fill="#D4D6DB"></path>
                        <path d="M29.0466719,5.89510274 C22.1221406,5.89510274 17.5914375,11.5735274 17.5914375,18.5793493 C17.5914375,23.8324315 20.1396406,31.4053767 24.3351875,34.8635959 C25.7337031,36.0153082 28.3570625,36.2793493 29.0466719,36.2793493 C29.7362812,36.2793493 32.3596406,36.0153082 33.7581562,34.8635959 C37.9547187,31.4053767 40.5029219,23.8324315 40.5029219,18.5793493 C40.5029219,11.5735274 35.9712031,5.89510274 29.0466719,5.89510274" id="Fill-13" fill="#F6F9FF"></path>
                        <path d="M29.0466719,5.89510274 C22.1221406,5.89510274 17.5914375,11.5735274 17.5914375,18.5793493 C17.5914375,23.8324315 20.1396406,31.4053767 24.3351875,34.8635959 C25.7337031,36.0153082 28.3570625,36.2793493 29.0466719,36.2793493 C29.7362812,36.2793493 32.3596406,36.0153082 33.7581562,34.8635959 C37.9547187,31.4053767 40.5029219,23.8324315 40.5029219,18.5793493 C40.5029219,11.5735274 35.9712031,5.89510274 29.0466719,5.89510274 Z" id="Stroke-15" stroke="#003D74"></path>
                        <path d="M46.0771797,43.1523288 L12.9139766,43.1523288 C8.84335156,43.1523288 5.54358594,46.4903425 5.54358594,50.6071233 L5.54358594,66.6920548 C5.54358594,70.4286986 8.53866406,73.4595205 12.2335078,73.4595205 L46.7576484,73.4595205 C50.4524922,73.4595205 53.4465547,70.4286986 53.4465547,66.6920548 L53.4465547,50.6071233 C53.4465547,46.4903425 50.1467891,43.1523288 46.0771797,43.1523288" id="Fill-17" fill="#DCDDDF"></path>
                        <path d="M8.30171875,70.5078082 L8.30171875,46.2139726 C8.30171875,44.5228767 9.6565625,43.1523288 11.3292969,43.1523288 L8.57085937,43.1523288 C6.89914062,43.1523288 5.54429687,44.5228767 5.54429687,46.2139726 L5.54429687,70.5078082 C5.54429687,72.1372603 6.849375,73.4595205 8.46117187,73.4595205 L11.2196094,73.4595205 C9.6078125,73.4595205 8.30171875,72.1372603 8.30171875,70.5078082" id="Fill-19" fill="#F0F1F2"></path>
                        <path d="M50.4198906,43.1523288 L43.3714531,43.1523288 C45.0431719,43.1523288 46.3990313,44.5228767 46.3990313,46.2139726 L46.3990313,70.5078082 C46.3990313,72.1372603 45.0919219,73.4595205 43.4811406,73.4595205 L50.5295781,73.4595205 C52.1403594,73.4595205 53.4464531,72.1372603 53.4464531,70.5078082 L53.4464531,46.2139726 C53.4464531,44.5228767 52.0916094,43.1523288 50.4198906,43.1523288" id="Fill-21" fill="#C2C2C4"></path>
                        <path d="M49.9265,43.1523288 L9.27407812,43.1523288 C7.27228125,43.1523288 5.6493125,44.7941096 5.6493125,46.8191096 L5.6493125,70.4800685 C5.6493125,72.1249315 6.96759375,73.4595205 8.59360937,73.4595205 L50.6069687,73.4595205 C52.2329844,73.4595205 53.5522812,72.1249315 53.5522812,70.4800685 L53.5522812,46.8191096 C53.5522812,44.7941096 51.9293125,43.1523288 49.9265,43.1523288 Z" id="Stroke-23" stroke="#003D74"></path>
                        <path d="M40.4753984,20.3574658 C40.4753984,20.3574658 41.5641484,21.3817808 40.4753984,22.8499315" id="Stroke-25" stroke="#003D74" stroke-linecap="round"></path>
                        <path d="M62.3142813,68.272911 L64.8340469,68.272911" id="Stroke-27" stroke="#003D74" stroke-linecap="round"></path>
                        <path d="M21.8657969,4.37866438 C27.4161875,-1.54941781 38.9039219,-0.00113013699 41.6461094,3.70058219 C40.5390781,7.42284247 41.3495469,17.3834589 40.5370469,22.6694178 C40.5370469,22.6611986 40.5370469,22.6540068 40.5370469,22.6457877 C40.5279062,22.6992123 40.5167344,22.7536644 40.5015,22.8101712 C40.4903281,22.8533219 40.3918125,22.9755822 40.3735312,23.0084589 C40.3440781,23.0588014 40.1318125,23.0043493 40.0607187,22.9714726 C40.0353281,22.9591438 40.0231406,22.9272945 40.022125,22.9005822 C39.989625,22.4341438 40.0190781,21.5094863 40.0200937,21.4992123 C40.0840781,20.7718151 40.249625,20.0711301 40.3603281,19.3601712 C39.8098594,16.0272945 38.1807969,15.327637 37.3266562,11.3084589 C37.145875,11.0392808 36.9529062,10.7793493 36.7507969,10.5255822 C36.5172031,10.2338014 36.2754844,9.95332192 35.9931406,9.70366438 C35.845875,9.61736301 35.7026719,9.52284247 35.5645469,9.42113014 C32.3998594,8.30743151 32.5044687,9.1344863 29.5165,10.3057192 C28.3739219,10.7536644 25.1584531,11.6762671 23.9041562,11.5221575 C23.3110312,11.4492123 22.3756406,11.3238699 21.4737656,10.8790068 C19.1063438,14.3896233 18.864625,16.8985274 18.1699375,19.9149658 C18.2654063,20.437911 18.3669688,20.9618836 18.4147031,21.4992123 C18.4167344,21.5094863 18.4451719,22.4341438 18.4126719,22.9005822 C18.4116563,22.9272945 18.3994688,22.9591438 18.3740781,22.9714726 C18.304,23.0043493 18.0907188,23.0588014 18.0612656,23.0084589 C18.0429844,22.9755822 17.9454844,22.8533219 17.9332969,22.8101712 C17.8794688,22.6088014 17.8682969,22.4392808 17.8581406,22.2368836 C17.8225938,21.9738699 17.7738438,21.6913356 17.7372813,21.4067466 C16.8303281,18.1427055 14.0972813,4.73825342 21.8657969,4.37866438" id="Fill-29" fill="#97D1C6"></path>
                        <path d="M21.8657969,4.37866438 C27.4161875,-1.54941781 38.9039219,-0.00113013699 41.6461094,3.70058219 C40.5390781,7.42284247 41.3495469,17.3834589 40.5370469,22.6694178 C40.5370469,22.6611986 40.5370469,22.6540068 40.5370469,22.6457877 C40.5279062,22.6992123 40.5167344,22.7536644 40.5015,22.8101712 C40.4903281,22.8533219 40.3918125,22.9755822 40.3735312,23.0084589 C40.3440781,23.0588014 40.1318125,23.0043493 40.0607187,22.9714726 C40.0353281,22.9591438 40.0231406,22.9272945 40.022125,22.9005822 C39.989625,22.4341438 40.0190781,21.5094863 40.0200937,21.4992123 C40.0840781,20.7718151 40.249625,20.0711301 40.3603281,19.3601712 C39.8098594,16.0272945 38.1807969,15.327637 37.3266562,11.3084589 C37.145875,11.0392808 36.9529062,10.7793493 36.7507969,10.5255822 C36.5172031,10.2338014 36.2754844,9.95332192 35.9931406,9.70366438 C35.845875,9.61736301 35.7026719,9.52284247 35.5645469,9.42113014 C32.3998594,8.30743151 32.5044687,9.1344863 29.5165,10.3057192 C28.3739219,10.7536644 25.1584531,11.6762671 23.9041562,11.5221575 C23.3110312,11.4492123 22.3756406,11.3238699 21.4737656,10.8790068 C19.1063438,14.3896233 18.864625,16.8985274 18.1699375,19.9149658 C18.2654063,20.437911 18.3669688,20.9618836 18.4147031,21.4992123 C18.4167344,21.5094863 18.4451719,22.4341438 18.4126719,22.9005822 C18.4116563,22.9272945 18.3994688,22.9591438 18.3740781,22.9714726 C18.304,23.0043493 18.0907188,23.0588014 18.0612656,23.0084589 C18.0429844,22.9755822 17.9454844,22.8533219 17.9332969,22.8101712 C17.8794688,22.6088014 17.8682969,22.4392808 17.8581406,22.2368836 C17.8225938,21.9738699 17.7738438,21.6913356 17.7372813,21.4067466 C16.8303281,18.1427055 14.0972813,4.73825342 21.8657969,4.37866438 Z" id="Stroke-31" stroke="#003D74" stroke-linecap="round" stroke-linejoin="round"></path>
                        <g id="Group-36" transform="translate(38.593750, 15.410959)">
                            <path d="M0.270460938,0.00565068493 L1.39577344,2.42619863 C1.39577344,2.42619863 3.39147656,2.58544521 3.65757031,5.35119863 C3.92366406,8.11592466 1.13272656,8.56181507 1.13272656,8.56181507 L0.479679688,10.9782534" id="Fill-33" fill="#F6F9FF"></path>
                            <path d="M0.270460938,0.00565068493 L1.39577344,2.42619863 C1.39577344,2.42619863 3.39147656,2.58544521 3.65757031,5.35119863 C3.92366406,8.11592466 1.13272656,8.56181507 1.13272656,8.56181507 L0.479679688,10.9782534" id="Stroke-35" stroke="#003D74"></path>
                        </g>
                        <g id="Group-40" transform="translate(15.234375, 15.410959)">
                            <path d="M3.91239063,0.329794521 L3.358875,2.64246575 C3.358875,2.64246575 0.721296875,2.56232877 0.465359375,5.32808219 C0.209421875,8.09280822 3.02067188,8.53047945 3.02067188,8.53047945 L3.54879688,10.1917808" id="Fill-37" fill="#F6F9FF"></path>
                            <path d="M3.91239063,0.329794521 L3.358875,2.64246575 C3.358875,2.64246575 0.721296875,2.56232877 0.465359375,5.32808219 C0.209421875,8.09280822 3.02067188,8.53047945 3.02067188,8.53047945 L3.54879688,10.1917808" id="Stroke-39" stroke="#003D74"></path>
                        </g>
                        <path d="M18.2804375,19.8442808 C18.2804375,19.8442808 17.1916875,20.8685959 18.2804375,22.337774" id="Stroke-41" stroke="#003D74" stroke-linecap="round"></path>
                        <path d="M39.6104922,19.8407877 C39.6104922,19.8407877 40.7002578,20.8651027 39.6104922,22.3332534" id="Stroke-43" stroke="#003D74" stroke-linecap="round"></path>
                    </g>
                    <text id="nbn™" font-family="Baloo-Regular, Baloo" font-size="9" font-weight="normal" fill="#FFFFFF">
                        <tspan x="20" y="61">nbn™</tspan>
                    </text>
                </g>
            </g>
        </g>
    </g>
</svg>