<?xml version="1.0" encoding="UTF-8"?>
<svg width="35px" height="52px" viewBox="0 0 35 52" version="1.1" xmlns="http://www.w3.org/2000/svg" xmlns:xlink="http://www.w3.org/1999/xlink">
    <!-- Generator: sketchtool 52.5 (67469) - http://www.bohemiancoding.com/sketch -->
    <title>0388F6B6-655A-45A0-BD90-58E87F2581AE</title>
    <desc>Created with sketchtool.</desc>
    <g id="Page-1" stroke="none" stroke-width="1" fill="none" fill-rule="evenodd">
        <g id="AU-New" transform="translate(-698.000000, -2367.000000)" fill="#81D0D4">
            <g id="connecting-is-easy" transform="translate(-402.000000, 1053.000000)">
                <g id="Group-24" transform="translate(991.000000, 1314.000000)">
                    <g id="Group-31">
                        <g id="Group-7-Copy-2" transform="translate(109.000000, 0.000000)">
                            <path d="M6.71,36.8847 C6.948,36.8147 7.22,36.8447 7.452,36.9677 C7.686,37.0887 7.85,37.2807 7.915,37.5107 C7.983,37.7497 7.953,38.0207 7.832,38.2527 C7.711,38.4867 7.519,38.6507 7.279,38.7187 C5.662,39.2297 1.899,40.7077 1.899,43.4007 C1.899,46.8777 8.521,49.5007 17.3,49.5007 C26.079,49.5007 32.7,46.8777 32.7,43.4007 C32.7,40.7067 28.938,39.2297 27.319,38.7187 L27.162,38.6997 C26.955,38.6267 26.782,38.4697 26.684,38.2627 C26.576,38.0347 26.57,37.7847 26.685,37.5107 C26.75,37.2817 26.915,37.0897 27.139,36.9847 C27.365,36.8747 27.614,36.8697 27.873,36.9807 C33.35,38.8057 34.499,41.5327 34.499,43.4997 C34.499,48.9967 25.531,51.4997 17.199,51.4997 C8.652,51.4997 -2.06057393e-13,48.7177 -2.06057393e-13,43.4007 C-2.06057393e-13,41.4337 1.149,38.7047 6.6,36.9007 L6.71,36.8847 Z M21.7002,23.3008 L21.7002,14.4258 L17.3002,10.3558 L12.8992,14.4258 L12.8992,23.3008 L21.7002,23.3008 Z M26.4922,16.3568 C26.6762,16.5758 26.7712,16.8308 26.7622,17.0718 C26.7542,17.3118 26.6432,17.5268 26.4432,17.6928 C26.2232,17.8758 25.9922,17.9718 25.7262,17.9628 C25.4882,17.9538 25.2732,17.8438 25.0652,17.6018 L23.4992,16.2088 L23.4992,24.1998 C23.4992,24.4838 23.3982,24.7308 23.2152,24.8948 C23.0242,25.0658 22.7622,25.1418 22.3992,25.0998 L11.8002,25.0998 C11.3202,25.0998 10.9002,24.6798 10.9002,24.1998 L10.9002,16.2098 L9.3162,17.6168 L9.1782,17.7678 C8.7292,18.0668 8.1662,17.9748 7.8332,17.5778 C7.5332,17.1298 7.6252,16.5668 8.0742,16.1918 L16.5832,8.1838 C16.9292,7.8378 17.4722,7.8388 17.8252,8.1918 L26.3162,16.1838 L26.4922,16.3568 Z M17.2504109,34.7467724 C20.7555223,31.1648001 28.9154147,21.980168 29,14.0625292 C29,7.82851143 24.0457179,2.53040908 17.693189,2 L16.1395814,2 L16.1110986,2.001711 C9.70850901,2.52955359 4.8301811,7.83193343 5.0045304,14.0659512 C5.09084194,21.9810235 13.2507344,31.1648001 16.7549827,34.7467724 L17.0026968,35 L17.2504109,34.7467724 Z M17.9027129,-4.54747351e-13 C25.2471924,0.491615368 31,6.45892592 31,13.5818298 C30.9090221,23.0923371 20.1100315,33.6523031 17.9424606,35.6748037 C17.7375394,35.8734876 17.3842271,36 17.044164,36 C16.7023344,36 16.4214511,35.8743367 16.0540063,35.6722564 C13.8899685,33.6523031 3.0918612,23.0923371 3,13.5852261 C3,6.4232647 8.63179811,0.582466568 16.0725552,0.000849076629 L17.9027129,-4.54747351e-13 Z" id="Combined-Shape"></path>
                        </g>
                    </g>
                </g>
            </g>
        </g>
    </g>
</svg>