<?xml version="1.0" encoding="UTF-8"?>
<svg width="38px" height="57px" viewBox="0 0 38 57" version="1.1" xmlns="http://www.w3.org/2000/svg" xmlns:xlink="http://www.w3.org/1999/xlink">
    <!-- Generator: sketchtool 52.5 (67469) - http://www.bohemiancoding.com/sketch -->
    <title>9687DCCD-0B40-45D3-9B1A-0A2EFF7AFD7F</title>
    <desc>Created with sketchtool.</desc>
    <g id="Page-1" stroke="none" stroke-width="1" fill="none" fill-rule="evenodd">
        <g id="AU-New" transform="translate(-698.000000, -2280.000000)" fill="#3464AA">
            <g id="Group-4" transform="translate(-403.000000, 1017.000000)">
                <g id="Group-7-Copy-2" transform="translate(1101.000000, 1263.000000)">
                    <path d="M7.39093887,40.8240805 C7.65309139,40.7466043 7.95269428,40.7798084 8.20823792,40.9159451 C8.46598452,41.0498683 8.64662744,41.2623743 8.71822372,41.5169389 C8.79312444,41.7814647 8.76008,42.0814082 8.62680078,42.3381864 C8.49352155,42.5971782 8.28203716,42.7786939 8.01768167,42.8539564 C6.23658657,43.4195325 2.0917128,45.0553867 2.0917128,48.036006 C2.0917128,51.8843585 9.38572133,54.7875017 19.0556248,54.7875017 C28.7255283,54.7875017 36.0184353,51.8843585 36.0184353,48.036006 C36.0184353,45.0542799 31.874663,43.4195325 30.091365,42.8539564 L29.9184324,42.8329272 C29.6904258,42.7521306 29.4998696,42.5783626 29.3919244,42.3492545 C29.2729644,42.0969035 29.2663555,41.8202028 29.3930259,41.5169389 C29.4646222,41.2634811 29.6463666,41.0509751 29.8930984,40.9347608 C30.1420331,40.8130125 30.4163019,40.8074785 30.7015856,40.9303336 C36.7343981,42.9502483 38,45.9684988 38,48.1455795 C38,54.2296732 28.1219166,57 18.9443752,57 C9.53001536,57 -1.03028697e-13,53.9208753 -1.03028697e-13,48.036006 C-1.03028697e-13,45.8589254 1.2656019,42.8384612 7.26977594,40.8417894 L7.39093887,40.8240805 Z M23.9023624,25.7893852 L23.9023624,15.9665124 L19.0558451,11.461826 L14.2082263,15.9665124 L14.2082263,25.7893852 L23.9023624,25.7893852 Z M29.1806603,18.1037482 C29.3833329,18.3461379 29.4879736,18.6283726 29.4780602,18.895112 C29.4692484,19.1607446 29.346984,19.3987072 29.1266877,19.5824364 C28.8843619,19.7849813 28.6299197,19.8912343 28.3369257,19.8812731 C28.0747732,19.8713119 27.8379547,19.7495636 27.6088466,19.4817174 L25.8839271,17.9399414 L25.8839271,26.7844007 C25.8839271,27.0987326 25.7726775,27.3721128 25.5711064,27.5536285 C25.3607235,27.7428917 25.0721354,27.8270087 24.6722977,27.780523 L12.9976985,27.780523 C12.4689875,27.780523 12.0063654,27.3156659 12.0063654,26.7844007 L12.0063654,17.9410482 L10.2616192,19.4983194 L10.1096148,19.6654466 C9.61504971,19.9963806 8.99491579,19.8945547 8.62812255,19.4551541 C8.29767819,18.9593066 8.39901446,18.3361767 8.89357952,17.9211258 L18.2660831,9.05785082 C18.6471956,8.67489714 19.2452999,8.67600394 19.6341227,9.06670524 L28.9867996,17.9122713 L29.1806603,18.1037482 Z M19.0010033,38.4578168 C22.8618176,34.4932807 31.8497857,24.3277063 31.9429549,15.5644433 C31.9429549,8.66461653 26.4859063,2.80066326 19.4887151,2.21360513 L17.7774455,2.21360513 L17.7460723,2.21549886 C10.6937402,2.79971639 5.32035369,8.668404 5.51239616,15.5682308 C5.6074667,24.3286532 14.5954348,34.4932807 18.4552984,38.4578168 L18.7281509,38.7380897 L19.0010033,38.4578168 Z M19.7195018,-2.27373675e-13 C27.8093079,0.54412115 34.1459173,7.14875577 34.1459173,15.032404 C34.0457068,25.5586579 22.1508217,37.2464554 19.763283,39.4849641 C19.5375663,39.704868 19.1483994,39.8448923 18.7738263,39.8448923 C18.3973074,39.8448923 18.0879197,39.7058078 17.6831862,39.4821449 C15.2995392,37.2464554 3.40562699,25.5586579 3.30444361,15.036163 C3.30444361,7.10928584 9.50776336,0.64467549 17.7036174,0.00093976019 L19.7195018,-2.27373675e-13 Z" id="Combined-Shape"></path>
                </g>
            </g>
        </g>
    </g>
</svg>