<?xml version="1.0" encoding="UTF-8"?>
<svg width="180px" height="126px" viewBox="0 0 180 126" version="1.1" xmlns="http://www.w3.org/2000/svg" xmlns:xlink="http://www.w3.org/1999/xlink">
    <!-- Generator: sketchtool 52.5 (67469) - http://www.bohemiancoding.com/sketch -->
    <title>BB478953-2E2E-4C91-AECE-2B7F557F20F9</title>
    <desc>Created with sketchtool.</desc>
    <defs>
        <polygon id="path-1" points="0.136541148 0.19831875 136.593785 0.19831875 136.593785 126 0.136541148 126"></polygon>
        <polygon id="path-3" points="0 0.0680653846 21.8037471 0.0680653846 21.8037471 16.7143346 0 16.7143346"></polygon>
    </defs>
    <g id="Page-1" stroke="none" stroke-width="1" fill="none" fill-rule="evenodd">
        <g id="AU-New" transform="translate(-630.000000, -840.000000)">
            <g id="Group-21" transform="translate(630.000000, 840.000000)">
                <g id="Group-11-Copy" opacity="0.54484747">
                    <g id="Group-3" transform="translate(17.000000, 0.000000)">
                        <mask id="mask-2" fill="white">
                            <use xlink:href="#path-1"></use>
                        </mask>
                        <g id="Clip-2"></g>
                        <path d="M128.24924,92.5838812 L125.836991,92.5838812 C130.507445,83.7888187 133.157642,73.7547562 133.157642,63.099225 C133.157642,28.359975 105.028067,0.19831875 70.3290483,0.19831875 C54.3957517,0.19831875 39.8521201,6.13869375 28.7767517,15.9240375 L8.48174211,15.9240375 C3.87290478,15.9240375 0.136541148,19.6640062 0.136541148,24.2774438 C0.136541148,28.8915375 3.87290478,32.6315062 8.48174211,32.6315062 L15.3533737,32.6315062 C10.3518904,41.658225 7.49979952,52.0446937 7.49979952,63.099225 C7.49979952,97.838475 35.6293737,126.000131 70.3290483,126.000131 C86.7880579,126.000131 101.766288,119.660756 112.968168,109.292006 L128.24924,109.292006 C132.858077,109.292006 136.593785,105.552037 136.593785,100.937944 C136.593785,96.3245062 132.858077,92.5838812 128.24924,92.5838812" id="Fill-1" fill="#E8F1FE" mask="url(#mask-2)"></path>
                    </g>
                    <path d="M171.688874,92 L166.311126,92 C161.720747,92 158,95.8059701 158,100.5 C158,105.194698 161.720747,109 166.311126,109 L171.688874,109 C176.279253,109 180,105.194698 180,100.5 C180,95.8059701 176.279253,92 171.688874,92" id="Fill-4" fill="#E8F1FE"></path>
                    <path d="M147.311126,25 L152.688874,25 C157.279253,25 161,21.1940299 161,16.5 C161,11.8059701 157.279253,8 152.688874,8 L147.311126,8 C142.7214,8 139,11.8059701 139,16.5 C139,21.1940299 142.7214,25 147.311126,25" id="Fill-6" fill="#E8F1FE"></path>
                    <g id="Group-10" transform="translate(0.000000, 83.000000)">
                        <mask id="mask-4" fill="white">
                            <use xlink:href="#path-3"></use>
                        </mask>
                        <g id="Clip-9"></g>
                        <path d="M13.5666882,0.0680653846 L8.23686471,0.0680653846 C3.68804118,0.0680653846 -0.000194117647,3.79433462 -0.000194117647,8.39152692 C-0.000194117647,12.9880654 3.68804118,16.7143346 8.23686471,16.7143346 L13.5666882,16.7143346 C18.1161588,16.7143346 21.8037471,12.9880654 21.8037471,8.39152692 C21.8037471,3.79433462 18.1161588,0.0680653846 13.5666882,0.0680653846" id="Fill-8" fill="#E8F1FE" mask="url(#mask-4)"></path>
                    </g>
                </g>
                <path d="M107,58.8519723 L107,58.3366939 C107,56.6288293 105.600556,55.2445289 103.874008,55.2445289 L96.5876961,55.2445289 C96.7317418,54.6755705 97.1603778,53.2400638 98.0191503,52.275061 C99.1107467,51.0478425 100.450422,47.6120762 99.7061856,44.6181183 C98.9619495,41.6241605 97.0763511,40.3971894 95.9847548,41.2805591 C94.8931584,42.1641762 94.9426741,46.5815194 92.5611684,48.7900674 C90.1791626,50.9988627 87.5495782,55.4654332 86.4082161,56.1034086 L81,56.1034086 L81,73.7730289 L85.5174334,73.7730289 C85.5174334,73.7730289 86.6090298,75 90.3799763,75 C90.4612521,75 90.1724105,74.9831786 101.857618,74.9831786 C104.665009,74.9831786 105.611559,71.4487103 104.03656,70.3921794 C105.578549,69.4956989 106.207999,67.3403362 104.697269,66.2281463 C107.480653,64.5220134 106.819693,61.8216875 105.500024,61.1619432 C106.30553,60.7846991 107,59.7719532 107,58.8519723 Z" id="Stroke-1" fill="#FFFFFF"></path>
                <g id="Group-9" transform="translate(67.000000, 40.000000)">
                    <path d="M40,18.3770303 L40,17.8465966 C40,16.0885008 38.6005559,14.6634856 36.8740081,14.6634856 L29.5876961,14.6634856 C29.7317418,14.0777932 30.1603778,12.6000657 31.0191503,11.6066804 C32.1107467,10.3433673 33.4504218,6.806549 32.7061856,3.72453358 C31.9619495,0.642518158 30.0763511,-0.620540298 28.9847548,0.28881086 C27.8931584,1.19841667 27.9426741,5.74568176 25.5611684,8.01918698 C23.1791626,10.2929468 20.5495782,14.8908871 19.4082161,15.5476265 L14,15.5476265 L14,33.7369415 L18.5174334,33.7369415 C18.5174334,33.7369415 19.6090298,35 23.3799763,35 C23.4612521,35 23.1724105,34.9826839 34.8576183,34.9826839 C37.6650091,34.9826839 38.6115594,31.3442606 37.0365597,30.2566553 C38.578549,29.3338077 39.2079987,27.115052 37.6972693,25.9701506 C40.4806525,24.2138373 39.8196928,21.4340901 38.500024,20.7549415 C39.3055296,20.366602 40,19.3240695 40,18.3770303 Z" id="Stroke-1" stroke="#003D74" stroke-width="2.5"></path>
                    <path d="M0,25 L0,34.278854 C0,35.2294026 0.812095933,36 1.81383385,36 L9.18616615,36 C10.1879041,36 11,35.2294026 11,34.278854 L11,25 L0,25 Z" id="Fill-5" fill="#4DBBA6"></path>
                    <path d="M0,14 L0,23.278854 C0,24.2294026 0.812095933,25 1.81383385,25 L9.18616615,25 C10.1879041,25 11,24.2294026 11,23.278854 L11,14 L0,14 Z" id="Fill-5-Copy" fill="#8CEBD9"></path>
                    <path d="M0,34.2046467 C0,35.1964305 0.812095933,36 1.81383385,36 L9.18616615,36 C10.1879041,36 11,35.1964305 11,34.2046467 L11,14.7953533 C11,13.8038218 10.1879041,13 9.18616615,13 L1.81383385,13 C0.812095933,13 0,13.8038218 0,14.7953533 L0,34.2046467 Z" id="Stroke-7" stroke="#003D74" stroke-width="2.5"></path>
                    <path d="M9,30.5001259 C9,31.3286062 8.32841081,32 7.5,32 C6.67158919,32 6,31.3286062 6,30.5001259 C6,29.6713938 6.67158919,29 7.5,29 C8.32841081,29 9,29.6713938 9,30.5001259" id="Fill-9" fill="#ECEFF0"></path>
                </g>
            </g>
        </g>
    </g>
</svg>