<?xml version="1.0" encoding="UTF-8"?>
<svg width="180px" height="126px" viewBox="0 0 180 126" version="1.1" xmlns="http://www.w3.org/2000/svg" xmlns:xlink="http://www.w3.org/1999/xlink">
    <!-- Generator: sketchtool 52.5 (67469) - http://www.bohemiancoding.com/sketch -->
    <title>C87858F5-0E7F-4C74-AE1F-CFC02984BDAC</title>
    <desc>Created with sketchtool.</desc>
    <defs>
        <polygon id="path-1" points="0.136541148 0.19831875 136.593785 0.19831875 136.593785 126 0.136541148 126"></polygon>
        <polygon id="path-3" points="0 0.0680653846 21.8037471 0.0680653846 21.8037471 16.7143346 0 16.7143346"></polygon>
        <polygon id="path-5" points="0 39.9915903 56 39.9915903 56 0 0 0"></polygon>
    </defs>
    <g id="Page-1" stroke="none" stroke-width="1" fill="none" fill-rule="evenodd">
        <g id="AU-New" transform="translate(-1048.000000, -840.000000)">
            <g id="Group-24" transform="translate(1048.000000, 840.000000)">
                <g id="Group-11-Copy-2" opacity="0.54484747">
                    <g id="Group-3" transform="translate(17.000000, 0.000000)">
                        <mask id="mask-2" fill="white">
                            <use xlink:href="#path-1"></use>
                        </mask>
                        <g id="Clip-2"></g>
                        <path d="M128.24924,92.5838812 L125.836991,92.5838812 C130.507445,83.7888187 133.157642,73.7547562 133.157642,63.099225 C133.157642,28.359975 105.028067,0.19831875 70.3290483,0.19831875 C54.3957517,0.19831875 39.8521201,6.13869375 28.7767517,15.9240375 L8.48174211,15.9240375 C3.87290478,15.9240375 0.136541148,19.6640062 0.136541148,24.2774438 C0.136541148,28.8915375 3.87290478,32.6315062 8.48174211,32.6315062 L15.3533737,32.6315062 C10.3518904,41.658225 7.49979952,52.0446937 7.49979952,63.099225 C7.49979952,97.838475 35.6293737,126.000131 70.3290483,126.000131 C86.7880579,126.000131 101.766288,119.660756 112.968168,109.292006 L128.24924,109.292006 C132.858077,109.292006 136.593785,105.552037 136.593785,100.937944 C136.593785,96.3245062 132.858077,92.5838812 128.24924,92.5838812" id="Fill-1" fill="#E8F1FE" mask="url(#mask-2)"></path>
                    </g>
                    <path d="M171.688874,92 L166.311126,92 C161.720747,92 158,95.8059701 158,100.5 C158,105.194698 161.720747,109 166.311126,109 L171.688874,109 C176.279253,109 180,105.194698 180,100.5 C180,95.8059701 176.279253,92 171.688874,92" id="Fill-4" fill="#E8F1FE"></path>
                    <path d="M147.311126,25 L152.688874,25 C157.279253,25 161,21.1940299 161,16.5 C161,11.8059701 157.279253,8 152.688874,8 L147.311126,8 C142.7214,8 139,11.8059701 139,16.5 C139,21.1940299 142.7214,25 147.311126,25" id="Fill-6" fill="#E8F1FE"></path>
                    <g id="Group-10" transform="translate(0.000000, 83.000000)">
                        <mask id="mask-4" fill="white">
                            <use xlink:href="#path-3"></use>
                        </mask>
                        <g id="Clip-9"></g>
                        <path d="M13.5666882,0.0680653846 L8.23686471,0.0680653846 C3.68804118,0.0680653846 -0.000194117647,3.79433462 -0.000194117647,8.39152692 C-0.000194117647,12.9880654 3.68804118,16.7143346 8.23686471,16.7143346 L13.5666882,16.7143346 C18.1161588,16.7143346 21.8037471,12.9880654 21.8037471,8.39152692 C21.8037471,3.79433462 18.1161588,0.0680653846 13.5666882,0.0680653846" id="Fill-8" fill="#E8F1FE" mask="url(#mask-4)"></path>
                    </g>
                </g>
                <g id="Group-23" transform="translate(62.000000, 44.000000)">
                    <g id="Group-22">
                        <path d="M15.1416344,38.9125822 L15.9311031,31.2761402 L25.5587281,31.2761402 L25.5587281,35.455655 C25.5587281,37.275062 26.9844313,38.7672453 28.7946969,38.9041725 C28.8621813,38.9092399 28.9301031,38.9117197 28.9989,38.9125822 L15.1416344,38.9125822 Z" id="Fill-1" fill="#C2D9FC"></path>
                        <path d="M25.5587172,24.7675364 L25.5587172,31.2761078 L4.34467031,31.2761078 C2.55879531,31.2761078 1.11088906,29.8488302 1.11088906,28.0888302 L1.11088906,24.7675364 L25.5587172,24.7675364 Z" id="Fill-3" fill="#C2D9FC"></path>
                        <path d="M42.6310391,7.51984906 L29.0667891,7.51984906 C27.1300859,7.51984906 25.5586953,9.06755795 25.5586953,10.9779623 L25.5586953,24.767504 L1.09369531,24.767504 L1.09369531,4.26550943 C1.09369531,2.50378437 2.54127344,1.07780054 4.32846094,1.07780054 L39.3963828,1.07780054 C41.1822578,1.07780054 42.6310391,2.50378437 42.6310391,4.26550943 L42.6310391,7.51984906 Z" id="Fill-5" fill="#F7F7F7"></path>
                        <path d="M47.6221266,13.8872668 L25.5586734,13.8872668 L25.5586734,10.9779407 C25.5586734,9.06753639 27.1301734,7.51982749 29.0668766,7.51982749 L44.1131578,7.51982749 C46.0507359,7.51982749 47.6221266,9.06753639 47.6221266,10.9779407 L47.6221266,13.8872668 Z" id="Fill-7" fill="#0098DB"></path>
                        <path d="M44.8817797,38.8717305 L29.4722641,38.912593 L28.9988891,38.912593 C28.9300922,38.9117305 28.8621703,38.9092507 28.7946859,38.9041833 C26.9844203,38.7672561 25.5587172,37.2750728 25.5587172,35.4556658 L25.5587172,33.9344798 L40.4614984,33.9344798 L40.4614984,35.4136173 C40.4614984,37.3235903 42.0320141,38.8717305 43.9695922,38.8717305 L44.8817797,38.8717305 Z" id="Fill-9" fill="#0098DB"></path>
                        <path d="M43.9696031,13.88731 C42.032025,13.88731 40.4615094,15.4363127 40.4615094,17.346717 L40.4615094,33.9344259 L25.5587281,33.9344259 L25.5587281,13.88731 L43.9696031,13.88731 Z" id="Fill-11" fill="#F7F7F7"></path>
                        <path d="M54.90625,33.9344798 L54.90625,35.4136173 C54.90625,37.3235903 53.3361719,38.8717305 51.3981563,38.8717305 L43.969625,38.8717305 C42.0320469,38.8717305 40.4615313,37.3235903 40.4615313,35.4136173 L40.4615313,33.9344798 L54.90625,33.9344798 Z" id="Fill-13" fill="#92DEFF"></path>
                        <mask id="mask-6" fill="white">
                            <use xlink:href="#path-5"></use>
                        </mask>
                        <g id="Clip-16"></g>
                        <polygon id="Fill-15" fill="#F7F7F7" mask="url(#mask-6)" points="40.4615313 33.9344474 54.90625 33.9344474 54.90625 17.7316442 40.4615313 17.7316442"></polygon>
                        <path d="M54.90625,17.346717 L54.90625,17.7316226 L40.4615313,17.7316226 L40.4615313,17.346717 C40.4615313,15.4363127 42.0320469,13.88731 43.969625,13.88731 L51.3981563,13.88731 C53.3361719,13.88731 54.90625,15.4363127 54.90625,17.346717" id="Fill-17" fill="#92DEFF" mask="url(#mask-6)"></path>
                        <path d="M37.1973219,35.3832668 C37.1383688,35.3445606 37.0747125,35.3112453 37.0081031,35.2842911 C36.9426969,35.2573369 36.8734625,35.2367439 36.8037906,35.2228356 C36.4483219,35.1516765 36.0710875,35.2670404 35.8173375,35.5171752 C35.7669156,35.5664474 35.7211969,35.6216496 35.6806187,35.6810566 C35.6412437,35.7391698 35.6084312,35.8014879 35.5810875,35.8671482 C35.5537437,35.9320539 35.5318687,35.9998706 35.5186344,36.0688733 C35.504525,36.1379838 35.4968687,36.2091429 35.4968687,36.2791159 C35.4968687,36.3489811 35.504525,36.4201402 35.5186344,36.4905445 C35.5318687,36.5595472 35.5537437,36.6260701 35.5810875,36.6918383 C35.6084312,36.7566361 35.6421187,36.8189542 35.6819312,36.8774987 C35.7211969,36.9364744 35.7669156,36.9916765 35.8173375,37.0413801 C35.8677594,37.0906523 35.9233219,37.1361509 35.9834781,37.1761509 C36.0424312,37.2148571 36.1060875,37.2481725 36.1714937,37.2751267 C36.2381031,37.3020809 36.3073375,37.3226739 36.3770094,37.3365822 C36.4471188,37.3504906 36.5193063,37.357283 36.5906188,37.357283 C36.6616031,37.357283 36.7337906,37.3504906 36.8037906,37.3365822 C36.8734625,37.3226739 36.9426969,37.3020809 37.0081031,37.2751267 C37.0747125,37.2481725 37.1383688,37.2148571 37.1973219,37.1761509 C37.2575875,37.1361509 37.31315,37.0906523 37.3635719,37.0413801 C37.4138844,36.9916765 37.4596031,36.9364744 37.4994156,36.8774987 C37.5386813,36.8189542 37.5724781,36.7566361 37.5998219,36.6918383 C37.6271656,36.6260701 37.6489313,36.5595472 37.6621656,36.4905445 C37.676275,36.4201402 37.6839313,36.3489811 37.6839313,36.2791159 C37.6839313,35.9956658 37.5669,35.7177143 37.3635719,35.5171752 C37.31315,35.4674717 37.2575875,35.421973 37.1973219,35.3832668" id="Fill-18" fill="#003D74" mask="url(#mask-6)"></path>
                        <path d="M38.5363125,9.67571968 L34.6445313,9.67571968 C34.0404531,9.67571968 33.5507813,10.1584151 33.5507813,10.7538868 C33.5507813,11.349035 34.0404531,11.8316226 34.6445313,11.8316226 L38.5363125,11.8316226 C39.1403906,11.8316226 39.6300625,11.349035 39.6300625,10.7538868 C39.6300625,10.1584151 39.1403906,9.67571968 38.5363125,9.67571968" id="Fill-19" fill="#003D74" mask="url(#mask-6)"></path>
                        <path d="M48.6940891,35.8671806 C48.6667453,35.8015202 48.6326203,35.7392022 48.5932453,35.6809811 C48.5539797,35.6216819 48.5082609,35.5664798 48.4578391,35.5172075 C48.4074172,35.467504 48.3505422,35.4220054 48.2915891,35.3832992 C48.2314328,35.3444852 48.1677766,35.3112776 48.1023703,35.2843235 C48.0365266,35.2573693 47.9677297,35.2366685 47.8977297,35.2227601 C47.7567453,35.1946199 47.6114953,35.1946199 47.4704016,35.2227601 C47.4004016,35.2366685 47.3311672,35.2573693 47.2657609,35.2843235 C47.2000266,35.3112776 47.1368078,35.3444852 47.0765422,35.3832992 C47.0175891,35.4220054 46.9615891,35.467504 46.9102922,35.5172075 C46.7069641,35.7176388 46.5899328,35.9955903 46.5899328,36.2790404 C46.5899328,36.3490135 46.5975891,36.4201725 46.6116984,36.490469 C46.6262453,36.5595795 46.6466984,36.6261024 46.6740422,36.6917628 C46.7013859,36.7566685 46.7351828,36.8189865 46.7748859,36.877531 C46.8150266,36.9365067 46.8598703,36.9917089 46.9102922,37.0414124 C46.9615891,37.0906846 47.0175891,37.1361833 47.0765422,37.1761833 C47.1368078,37.2148895 47.2000266,37.2482049 47.2657609,37.275159 C47.3311672,37.3021132 47.4004016,37.3227062 47.4704016,37.3366146 C47.5413859,37.3505229 47.6122609,37.3572075 47.6845578,37.3572075 C47.7558703,37.3572075 47.8267453,37.3505229 47.8977297,37.3366146 C47.9677297,37.3227062 48.0365266,37.3021132 48.1023703,37.275159 C48.1677766,37.2482049 48.2314328,37.2148895 48.2915891,37.1761833 C48.3505422,37.1361833 48.4061047,37.0906846 48.4578391,37.0414124 C48.5082609,36.9917089 48.5526672,36.9365067 48.5932453,36.877531 C48.6326203,36.8189865 48.6667453,36.7566685 48.6940891,36.6917628 C48.7214328,36.6261024 48.7418859,36.5595795 48.7564328,36.490469 C48.7705422,36.4201725 48.7769953,36.3490135 48.7769953,36.2790404 C48.7769953,36.2091752 48.7705422,36.1380162 48.7564328,36.0689057 C48.7418859,35.9997951 48.7214328,35.9320863 48.6940891,35.8671806" id="Fill-20" fill="#003D74" mask="url(#mask-6)"></path>
                        <path d="M3.77899375,23.6893693 L2.18704063,23.6893693 L2.18704063,4.26554178 C2.18704063,3.10230728 3.14757188,2.15589218 4.32838438,2.15589218 L39.3964156,2.15589218 C40.5772281,2.15589218 41.5377594,3.10230728 41.5377594,4.26554178 L41.5377594,6.44160647 L29.0668219,6.44160647 C26.5294313,6.44160647 24.4649781,8.4766469 24.4649781,10.9779946 L24.4649781,23.6893693 L3.77768125,23.6893693 L3.77899375,23.6893693 Z M3.77768125,25.8452722 L24.4649781,25.8452722 L24.4649781,30.198372 L15.9401813,30.198372 L15.9354781,30.198372 L4.32718125,30.198372 C3.14713438,30.198372 2.18704063,29.2520647 2.18704063,28.0888302 L2.18704063,25.8452722 L3.77899375,25.8452722 L3.77768125,25.8452722 Z M46.5287594,10.9779946 L46.5287594,12.8095849 L43.9696031,12.8095849 L43.9615094,12.8095849 L26.6520406,12.8095849 L26.6520406,10.9779946 C26.6520406,9.6656496 27.7355094,8.5979407 29.0668219,8.5979407 L44.1132125,8.5979407 C45.4448531,8.5979407 46.5287594,9.6656496 46.5287594,10.9779946 Z M53.7082438,16.6534663 L41.6599313,16.6534663 C41.9607125,15.6802049 42.8780406,14.9692615 43.9615094,14.9654879 L47.6221813,14.9654879 L47.6260094,14.9654879 L51.3981344,14.9654879 C52.4849938,14.9654879 53.4065875,15.6776173 53.7082438,16.6534663 Z M51.3981344,37.7935202 L44.2208375,37.7935202 L44.2178844,37.7935202 L43.9696031,37.7935202 C42.6382906,37.7935202 41.5552594,36.7259191 41.5552594,35.4135741 L41.5552594,35.0122803 L53.8129156,35.0122803 L53.8129156,35.4135741 C53.8129156,36.7259191 52.7298844,37.7935202 51.3981344,37.7935202 Z M29.0668219,37.8356765 C29.0010875,37.8356765 28.9365563,37.8335202 28.8780406,37.8293154 C27.6299625,37.7346523 26.6520406,36.6922803 26.6520406,35.4552992 L26.6520406,35.0122803 L39.3681969,35.0122803 L39.3681969,35.4135741 C39.3681969,36.2908787 39.6228219,37.1103935 40.0619625,37.8053801 L29.0668219,37.8356765 Z M39.3681969,17.3467278 L39.3681969,32.8562695 L26.6520406,32.8562695 L26.6520406,14.9654879 L40.0547438,14.9654879 C39.6197594,15.6583181 39.3681969,16.4740593 39.3681969,17.3467278 Z M41.5552594,32.8562695 L53.8129156,32.8562695 L53.8129156,18.8093693 L41.5552594,18.8093693 L41.5552594,32.8562695 Z M16.9245563,32.3542749 L24.4649781,32.3542749 L24.4649781,35.4557305 C24.4649781,36.319558 24.7162125,37.1328194 25.1510875,37.8264043 L16.3537281,37.8276981 L16.9245563,32.3542749 Z M4.32718125,32.3542749 L14.7259,32.3542749 L14.1550719,37.8276981 L11.66165,37.8281294 C11.0575719,37.8281294 10.5683375,38.3111482 10.5683375,38.9062965 C10.5683375,39.5017682 11.0580094,39.9844636 11.6620875,39.9840323 L15.1326656,39.9836011 C15.1360563,39.9836011 15.1398844,39.9844636 15.143275,39.9844636 C15.1475406,39.9844636 15.1514781,39.9836011 15.1553063,39.9836011 L28.7686656,39.981876 C28.8664469,39.9882372 28.9668531,39.9915795 29.069775,39.9915795 L44.2237906,39.9494232 L51.3981344,39.9494232 C53.935525,39.9494232 55.9999781,37.914814 55.9999781,35.4135741 L55.9999781,17.7312022 L55.9999781,17.3467278 C55.9999781,14.8450566 53.935525,12.8095849 51.3981344,12.8095849 L48.7159313,12.8095849 L48.7159313,10.9779946 C48.7159313,8.4766469 46.6510406,6.44203774 44.112775,6.44203774 L43.7248219,6.44203774 L43.7248219,4.26554178 C43.7248219,1.91330458 41.7829781,-1.07816712e-05 39.3964156,-1.07816712e-05 L4.32838438,-1.07816712e-05 C1.94138438,-1.07816712e-05 -2.1875e-05,1.91330458 -2.1875e-05,4.26554178 L-2.1875e-05,28.0888302 C-2.1875e-05,30.4405283 1.94094688,32.3542749 4.32718125,32.3542749 Z" id="Fill-21" fill="#003D74" mask="url(#mask-6)"></path>
                    </g>
                </g>
            </g>
        </g>
    </g>
</svg>