<?xml version="1.0" encoding="UTF-8"?>
<svg width="180px" height="126px" viewBox="0 0 180 126" version="1.1" xmlns="http://www.w3.org/2000/svg" xmlns:xlink="http://www.w3.org/1999/xlink">
    <!-- Generator: sketchtool 52.5 (67469) - http://www.bohemiancoding.com/sketch -->
    <title>28C4F43A-3EE0-4546-84B1-1E8F9F1833CF</title>
    <desc>Created with sketchtool.</desc>
    <defs>
        <polygon id="path-1" points="0.136541148 0.19831875 136.593785 0.19831875 136.593785 126 0.136541148 126"></polygon>
        <polygon id="path-3" points="0 0.0680653846 21.8037471 0.0680653846 21.8037471 16.7143346 0 16.7143346"></polygon>
        <polygon id="path-5" points="0.363287026 0.0701539452 34.1210353 0.0701539452 34.1210353 40.6689538 0.363287026 40.6689538"></polygon>
        <polygon id="path-7" points="0.495037446 0.0346957012 15.7083175 0.0346957012 15.7083175 15.4291656 0.495037446 15.4291656"></polygon>
    </defs>
    <g id="Page-1" stroke="none" stroke-width="1" fill="none" fill-rule="evenodd">
        <g id="AU-New" transform="translate(-228.000000, -840.000000)">
            <g id="Group-20" transform="translate(228.000000, 840.000000)">
                <g id="Group-11" opacity="0.54484747">
                    <g id="Group-3" transform="translate(17.000000, 0.000000)">
                        <mask id="mask-2" fill="white">
                            <use xlink:href="#path-1"></use>
                        </mask>
                        <g id="Clip-2"></g>
                        <path d="M128.24924,92.5838812 L125.836991,92.5838812 C130.507445,83.7888187 133.157642,73.7547562 133.157642,63.099225 C133.157642,28.359975 105.028067,0.19831875 70.3290483,0.19831875 C54.3957517,0.19831875 39.8521201,6.13869375 28.7767517,15.9240375 L8.48174211,15.9240375 C3.87290478,15.9240375 0.136541148,19.6640062 0.136541148,24.2774438 C0.136541148,28.8915375 3.87290478,32.6315062 8.48174211,32.6315062 L15.3533737,32.6315062 C10.3518904,41.658225 7.49979952,52.0446937 7.49979952,63.099225 C7.49979952,97.838475 35.6293737,126.000131 70.3290483,126.000131 C86.7880579,126.000131 101.766288,119.660756 112.968168,109.292006 L128.24924,109.292006 C132.858077,109.292006 136.593785,105.552037 136.593785,100.937944 C136.593785,96.3245062 132.858077,92.5838812 128.24924,92.5838812" id="Fill-1" fill="#E8F1FE" mask="url(#mask-2)"></path>
                    </g>
                    <path d="M171.688874,92 L166.311126,92 C161.720747,92 158,95.8059701 158,100.5 C158,105.194698 161.720747,109 166.311126,109 L171.688874,109 C176.279253,109 180,105.194698 180,100.5 C180,95.8059701 176.279253,92 171.688874,92" id="Fill-4" fill="#E8F1FE"></path>
                    <path d="M147.311126,25 L152.688874,25 C157.279253,25 161,21.1940299 161,16.5 C161,11.8059701 157.279253,8 152.688874,8 L147.311126,8 C142.7214,8 139,11.8059701 139,16.5 C139,21.1940299 142.7214,25 147.311126,25" id="Fill-6" fill="#E8F1FE"></path>
                    <g id="Group-10" transform="translate(0.000000, 83.000000)">
                        <mask id="mask-4" fill="white">
                            <use xlink:href="#path-3"></use>
                        </mask>
                        <g id="Clip-9"></g>
                        <path d="M13.5666882,0.0680653846 L8.23686471,0.0680653846 C3.68804118,0.0680653846 -0.000194117647,3.79433462 -0.000194117647,8.39152692 C-0.000194117647,12.9880654 3.68804118,16.7143346 8.23686471,16.7143346 L13.5666882,16.7143346 C18.1161588,16.7143346 21.8037471,12.9880654 21.8037471,8.39152692 C21.8037471,3.79433462 18.1161588,0.0680653846 13.5666882,0.0680653846" id="Fill-8" fill="#E8F1FE" mask="url(#mask-4)"></path>
                    </g>
                </g>
                <g id="Group-31" transform="translate(61.000000, 41.000000)">
                    <g id="Group-29">
                        <g id="Group-3" transform="translate(7.535772, 3.068536)">
                            <mask id="mask-6" fill="white">
                                <use xlink:href="#path-5"></use>
                            </mask>
                            <g id="Clip-2"></g>
                            <path d="M19.8175113,38.5245561 L29.7050727,38.5245561 C31.0426723,38.145191 32.0015993,36.8787344 32.0015993,35.4686655 L31.9940635,2.21289945 L2.48209502,2.21417035 L2.482723,32.1592294 L19.8175113,38.5245561 Z M29.9650568,40.6692079 L19.4444906,40.6692079 L0.363287026,33.6620743 L0.363287026,2.21289945 C0.363287026,1.03095798 1.31342232,0.0701539452 2.48209502,0.0701539452 L31.9953195,0.0701539452 C33.1627362,0.0701539452 34.1128715,1.03095798 34.1128715,2.21289945 L34.1210353,35.4686655 C34.1210353,37.9367626 32.4625374,40.0629864 30.0868851,40.6393417 L29.9650568,40.6692079 Z" id="Fill-1" fill="#003D74" mask="url(#mask-6)"></path>
                        </g>
                        <path d="M27.3532837,41.5930922 L37.240845,41.5930922 C38.5784446,41.2137271 39.5373716,39.9472705 39.5373716,38.5372016 L39.5298359,5.28143555 L10.0178674,5.28270646 L10.0184954,35.2277655 L27.3532837,41.5930922 Z" id="Fill-4" fill="#FFFFFF"></path>
                        <g id="Group-8" transform="translate(35.166938, 17.683941)">
                            <mask id="mask-8" fill="white">
                                <use xlink:href="#path-7"></use>
                            </mask>
                            <g id="Clip-7"></g>
                            <path d="M8.10177166,0.0346957012 C3.90057857,0.0346957012 0.495037446,3.48075408 0.495037446,7.73193065 C0.495037446,11.9831072 3.90057857,15.4291656 8.10177166,15.4291656 C12.3023368,15.4291656 15.7085059,11.9831072 15.7085059,7.73193065 C15.7085059,3.48075408 12.3023368,0.0346957012 8.10177166,0.0346957012" id="Fill-6" fill="#003D74" mask="url(#mask-8)"></path>
                        </g>
                        <path d="M37.4630247,25.4156814 C37.4630247,28.6603014 40.0622382,31.2904388 43.2687093,31.2904388 C46.4745525,31.2904388 49.0743939,28.6603014 49.0743939,25.4156814 C49.0743939,22.1710614 46.4745525,19.5409239 43.2687093,19.5409239 C40.0622382,19.5409239 37.4630247,22.1710614 37.4630247,25.4156814 Z" id="Fill-9" fill="#F89729"></path>
                        <path d="M36.2603154,42.6651639 C33.9537411,42.6651639 32.1313402,40.6564989 32.1313402,38.3224822 L32.1313402,35.7749535 L32.07231,35.7743181 L5.87670928,35.7743181 C5.87356937,35.8499369 5.87042946,35.9261912 5.87042946,36.0024455 C5.87042946,39.6670995 8.83387194,42.6651639 12.4554385,42.6651639 L36.2603154,42.6651639 Z" id="Fill-11" fill="#FFA100"></path>
                        <path d="M6.99357354,36.8464534 C7.39736534,39.5306043 9.692636,41.5932828 12.4551246,41.5932828 L32.1272583,41.5932828 C31.4653663,40.6839504 31.0716222,39.5503034 31.0716222,38.3226093 L31.0716222,36.8464534 L6.99357354,36.8464534 Z M36.2606294,43.7372992 L12.4551246,43.7372992 C8.24011588,43.7372992 4.81071148,40.2677291 4.81071148,36.0019371 C4.81071148,35.9288601 4.81385138,35.8551476 4.81636331,35.7820706 L4.85153024,34.7018015 L33.1910582,34.7018015 L33.1910582,38.3226093 C33.1910582,40.0955215 34.5964797,41.5932828 36.2606294,41.5932828 L36.2606294,43.7372992 Z" id="Fill-13" fill="#003D74"></path>
                        <path d="M33.0370144,13.3235305 L15.8736649,13.3235305 C15.2883866,13.3235305 14.8136329,12.843764 14.8136329,12.2515223 C14.8136329,11.6586452 15.2883866,11.1788787 15.8736649,11.1788787 L33.0370144,11.1788787 C33.6222927,11.1788787 34.0964184,11.6586452 34.0964184,12.2515223 C34.0964184,12.843764 33.6222927,13.3235305 33.0370144,13.3235305" id="Fill-15" fill="#003D74"></path>
                        <path d="M33.0370144,20.318527 L15.8736649,20.318527 C15.2883866,20.318527 14.8136329,19.8387605 14.8136329,19.2465188 C14.8136329,18.6542772 15.2883866,18.1738752 15.8736649,18.1738752 L33.0370144,18.1738752 C33.6222927,18.1738752 34.0964184,18.6542772 34.0964184,19.2465188 C34.0964184,19.8387605 33.6222927,20.318527 33.0370144,20.318527" id="Fill-17" fill="#003D74"></path>
                        <path d="M24.9315377,27.7958955 L15.8735393,27.7958955 C15.2888889,27.7958955 14.8141353,27.3161289 14.8141353,26.7238872 C14.8141353,26.1316456 15.2888889,25.6512436 15.8735393,25.6512436 L24.9315377,25.6512436 C25.517444,25.6512436 25.9909417,26.1316456 25.9909417,26.7238872 C25.9909417,27.3161289 25.517444,27.7958955 24.9315377,27.7958955" id="Fill-19" fill="#003D74"></path>
                        <polygon id="Fill-21" fill="#FFFFFF" points="46.1473116 25.2103667 43.2271998 22.1030045 40.307088 25.2103667 42.029012 25.2103667 42.029012 28.7708065 44.4253876 28.7708065 44.4253876 25.2103667"></polygon>
                        <path d="M6.32081746,0.000127090481 C2.82987091,0.000127090481 0.000188394309,2.86347562 0.000188394309,6.39595552 C0.000188394309,9.92843543 2.82987091,12.791784 6.32081746,12.791784 C9.811764,12.791784 12.6408185,9.92843543 12.6408185,6.39595552 C12.6408185,2.86347562 9.811764,0.000127090481 6.32081746,0.000127090481" id="Fill-23" fill="#003D74"></path>
                        <path d="M6.32081746,1.51434662 C3.65629395,1.51434662 1.49603921,3.69966743 1.49603921,6.39589198 C1.49603921,9.09211652 3.65629395,11.2774373 6.32081746,11.2774373 C8.98471299,11.2774373 11.1449677,9.09211652 11.1449677,6.39589198 C11.1449677,3.69966743 8.98471299,1.51434662 6.32081746,1.51434662" id="Fill-25" fill="#F89729"></path>
                        <polygon id="Fill-27" fill="#FFFFFF" points="3.49119774 6.8902104 6.0809915 9.64616747 8.67141325 6.8902104 7.14353541 6.8902104 7.14353541 3.73201196 5.01907558 3.73201196 5.01907558 6.8902104"></polygon>
                    </g>
                </g>
            </g>
        </g>
    </g>
</svg>