<?xml version="1.0" encoding="UTF-8"?>
<svg width="95px" height="95px" viewBox="0 0 95 95" version="1.1" xmlns="http://www.w3.org/2000/svg" xmlns:xlink="http://www.w3.org/1999/xlink">
    <!-- Generator: sketchtool 52.5 (67469) - http://www.bohemiancoding.com/sketch -->
    <title>064598BD-6F7C-4205-A246-CDD38C736F93</title>
    <desc>Created with sketchtool.</desc>
    <g id="Page-1" stroke="none" stroke-width="1" fill="none" fill-rule="evenodd">
        <g id="AU-New" transform="translate(-277.000000, -900.000000)" fill="#F89729" fill-rule="nonzero">
            <g id="plans" transform="translate(179.000000, 748.000000)">
                <g id="chat" transform="translate(98.000000, 152.000000)">
                    <path d="M41.3709677,85.8064516 L53.6290323,85.8064516 L53.6290323,88.8709677 L41.3709677,88.8709677 L41.3709677,85.8064516 Z M95,22.983871 L95,54.8627693 L80.7697518,45.9677419 L78.1451613,45.9677419 L78.1451613,87.3387097 C78.1451613,91.5628939 74.7080552,95 70.483871,95 L24.516129,95 C20.2919448,95 16.8548387,91.5628939 16.8548387,87.3387097 L16.8548387,76.6129032 L14.2302482,76.6129032 L0,85.5079306 L0,53.6290323 C0,49.4048481 3.43710613,45.9677419 7.66129032,45.9677419 L16.8548387,45.9677419 L16.8548387,7.66129032 C16.8548387,3.43710613 20.2919448,0 24.516129,0 L70.483871,0 C74.7080552,0 78.1451613,3.43710613 78.1451613,7.66129032 L78.1451613,15.3225806 L87.3387097,15.3225806 C91.5628939,15.3225806 95,18.7596868 95,22.983871 Z M19.9193548,7.66129032 L19.9193548,9.19354839 L75.0806452,9.19354839 L75.0806452,7.66129032 C75.0806452,5.12722872 73.0179326,3.06451613 70.483871,3.06451613 L24.516129,3.06451613 C21.9820674,3.06451613 19.9193548,5.12722872 19.9193548,7.66129032 Z M41.3709677,73.5483871 C43.9050293,73.5483871 45.9677419,71.4856745 45.9677419,68.9516129 L45.9677419,53.6290323 C45.9677419,51.0949707 43.9050293,49.0322581 41.3709677,49.0322581 L7.66129032,49.0322581 C5.12722872,49.0322581 3.06451613,51.0949707 3.06451613,53.6290323 L3.06451613,79.9759404 L13.3503969,73.5483871 L41.3709677,73.5483871 Z M75.0806452,87.3387097 L75.0806452,82.7419355 L19.9193548,82.7419355 L19.9193548,87.3387097 C19.9193548,89.8727713 21.9820674,91.9354839 24.516129,91.9354839 L70.483871,91.9354839 C73.0179326,91.9354839 75.0806452,89.8727713 75.0806452,87.3387097 Z M75.0806452,45.9677419 L53.6290323,45.9677419 C49.4048481,45.9677419 45.9677419,42.5306358 45.9677419,38.3064516 L45.9677419,22.983871 C45.9677419,18.7596868 49.4048481,15.3225806 53.6290323,15.3225806 L75.0806452,15.3225806 L75.0806452,12.2580645 L19.9193548,12.2580645 L19.9193548,45.9677419 L41.3709677,45.9677419 C45.5951519,45.9677419 49.0322581,49.4048481 49.0322581,53.6290323 L49.0322581,68.9516129 C49.0322581,73.1757971 45.5951519,76.6129032 41.3709677,76.6129032 L19.9193548,76.6129032 L19.9193548,79.6774194 L75.0806452,79.6774194 L75.0806452,45.9677419 Z M91.9354839,22.983871 C91.9354839,20.4498094 89.8727713,18.3870968 87.3387097,18.3870968 L53.6290323,18.3870968 C51.0949707,18.3870968 49.0322581,20.4498094 49.0322581,22.983871 L49.0322581,38.3064516 C49.0322581,40.8405132 51.0949707,42.9032258 53.6290323,42.9032258 L81.6496031,42.9032258 L91.9354839,49.3307791 L91.9354839,22.983871 Z M75.0806452,30.6451613 C75.0806452,33.1792229 73.0179326,35.2419355 70.483871,35.2419355 C67.9498094,35.2419355 65.8870968,33.1792229 65.8870968,30.6451613 C65.8870968,28.1110997 67.9498094,26.0483871 70.483871,26.0483871 C73.0179326,26.0483871 75.0806452,28.1110997 75.0806452,30.6451613 Z M72.016129,30.6451613 C72.016129,29.8012223 71.32781,29.1129032 70.483871,29.1129032 C69.639932,29.1129032 68.9516129,29.8012223 68.9516129,30.6451613 C68.9516129,31.4891003 69.639932,32.1774194 70.483871,32.1774194 C71.32781,32.1774194 72.016129,31.4891003 72.016129,30.6451613 Z M87.3387097,30.6451613 C87.3387097,33.1792229 85.2759971,35.2419355 82.7419355,35.2419355 C80.2078739,35.2419355 78.1451613,33.1792229 78.1451613,30.6451613 C78.1451613,28.1110997 80.2078739,26.0483871 82.7419355,26.0483871 C85.2759971,26.0483871 87.3387097,28.1110997 87.3387097,30.6451613 Z M84.2741935,30.6451613 C84.2741935,29.8012223 83.5858745,29.1129032 82.7419355,29.1129032 C81.8979965,29.1129032 81.2096774,29.8012223 81.2096774,30.6451613 C81.2096774,31.4891003 81.8979965,32.1774194 82.7419355,32.1774194 C83.5858745,32.1774194 84.2741935,31.4891003 84.2741935,30.6451613 Z M62.8225806,30.6451613 C62.8225806,33.1792229 60.7598681,35.2419355 58.2258065,35.2419355 C55.6917448,35.2419355 53.6290323,33.1792229 53.6290323,30.6451613 C53.6290323,28.1110997 55.6917448,26.0483871 58.2258065,26.0483871 C60.7598681,26.0483871 62.8225806,28.1110997 62.8225806,30.6451613 Z M59.7580645,30.6451613 C59.7580645,29.8012223 59.0697455,29.1129032 58.2258065,29.1129032 C57.3818674,29.1129032 56.6935484,29.8012223 56.6935484,30.6451613 C56.6935484,31.4891003 57.3818674,32.1774194 58.2258065,32.1774194 C59.0697455,32.1774194 59.7580645,31.4891003 59.7580645,30.6451613 Z M36.7741935,65.8870968 C36.7741935,68.4211584 34.711481,70.483871 32.1774194,70.483871 L27.5806452,70.483871 L27.5806452,61.2903226 L30.6451613,61.2903226 C30.6451613,57.9100774 27.8963742,55.1612903 24.516129,55.1612903 C21.1358839,55.1612903 18.3870968,57.9100774 18.3870968,61.2903226 L21.4516129,61.2903226 L21.4516129,70.483871 L16.8548387,70.483871 C14.3207771,70.483871 12.2580645,68.4211584 12.2580645,65.8870968 C12.2580645,63.892468 13.5434256,62.2068343 15.3225806,61.5723837 L15.3225806,61.2903226 C15.3225806,56.219955 19.4457615,52.0967742 24.516129,52.0967742 C29.5864966,52.0967742 33.7096774,56.219955 33.7096774,61.2903226 L33.7096774,61.5723837 C35.4888324,62.2068343 36.7741935,63.892468 36.7741935,65.8870968 Z M18.3870968,64.3548387 L16.8548387,64.3548387 C16.0108997,64.3548387 15.3225806,65.0416615 15.3225806,65.8870968 C15.3225806,66.732532 16.0108997,67.4193548 16.8548387,67.4193548 L18.3870968,67.4193548 L18.3870968,64.3548387 Z M33.7096774,65.8870968 C33.7096774,65.0416615 33.0213584,64.3548387 32.1774194,64.3548387 L30.6451613,64.3548387 L30.6451613,67.4193548 L32.1774194,67.4193548 C33.0213584,67.4193548 33.7096774,66.732532 33.7096774,65.8870968 Z M52.0967742,62.8225806 L55.1612903,62.8225806 L55.1612903,59.7580645 L52.0967742,59.7580645 L52.0967742,62.8225806 Z M61.2903226,59.7580645 L58.2258065,59.7580645 L58.2258065,62.8225806 L61.2903226,62.8225806 L61.2903226,59.7580645 Z M67.4193548,59.7580645 L64.3548387,59.7580645 L64.3548387,62.8225806 L67.4193548,62.8225806 L67.4193548,59.7580645 Z M27.5806452,32.1774194 L30.6451613,32.1774194 L30.6451613,29.1129032 L27.5806452,29.1129032 L27.5806452,32.1774194 Z M33.7096774,32.1774194 L36.7741935,32.1774194 L36.7741935,29.1129032 L33.7096774,29.1129032 L33.7096774,32.1774194 Z M39.8387097,32.1774194 L42.9032258,32.1774194 L42.9032258,29.1129032 L39.8387097,29.1129032 L39.8387097,32.1774194 Z" id="Shape"></path>
                </g>
            </g>
        </g>
    </g>
</svg>