<?xml version="1.0" encoding="UTF-8"?>
<svg width="37px" height="35px" viewBox="0 0 37 35" version="1.1" xmlns="http://www.w3.org/2000/svg" xmlns:xlink="http://www.w3.org/1999/xlink">
    <!-- Generator: sketchtool 52.5 (67469) - http://www.bohemiancoding.com/sketch -->
    <title>D3723CFD-27CB-41B3-AA8A-CF576B4AFB79</title>
    <desc>Created with sketchtool.</desc>
    <defs>
        <polygon id="path-1" points="0 0 39.0340075 0 39.0340075 36.5309213 0 36.5309213"></polygon>
    </defs>
    <g id="Page-1" stroke="none" stroke-width="1" fill="none" fill-rule="evenodd">
        <g id="AU-New" transform="translate(-697.000000, -2060.000000)">
            <g id="Group-27" transform="translate(132.000000, 1424.000000)">
                <g id="Group-20" transform="translate(525.000000, 592.000000)">
                    <g id="Group-6" transform="translate(40.000000, 43.000000)">
                        <g id="Group-3">
                            <mask id="mask-2" fill="white">
                                <use xlink:href="#path-1"></use>
                            </mask>
                            <g id="Clip-2"></g>
                            <path d="M36.7751196,27.1642857 L36.7751196,3.34807692 C36.7751196,2.05328022 35.723445,1 34.430622,1 L2.34449761,1 C1.05167464,1 0,2.05328022 0,3.34807692 L0,27.1642857 C0,28.4597533 1.05167464,29.5130335 2.34449761,29.5130335 L17.6835407,29.5130335 L17.6835407,34.0743407 L12.4593301,34.0743407 C12.1270813,34.0743407 11.7888038,34.4131346 11.7888038,34.7458907 C11.7888038,35.0779758 12.1270813,35.4167698 12.4593301,35.4167698 L24.2488038,35.4167698 C24.5803828,35.4167698 24.9186603,35.0779758 24.9186603,34.7458907 C24.9186603,34.4131346 24.5803828,34.0743407 24.2488038,34.0743407 L19.0239234,34.0743407 L19.0239234,28.8414835 C19.0239234,28.5093984 18.6856459,28.1706044 18.354067,28.1706044 L2.34449761,28.1706044 C1.79990431,28.1706044 1.34038278,27.7097104 1.34038278,27.1642857 L1.34038278,3.34807692 C1.34038278,2.8026522 1.79990431,2.34242912 2.34449761,2.34242912 L34.430622,2.34242912 C34.9745455,2.34242912 35.4347368,2.8026522 35.4347368,3.34807692 L35.4347368,27.1642857 C35.4347368,27.7097104 34.9745455,28.1706044 34.430622,28.1706044 L25.5885167,28.1706044 C25.2569378,28.1706044 24.9186603,28.5093984 24.9186603,28.8414835 C24.9186603,29.1742396 25.2569378,29.5130335 25.5885167,29.5130335 L34.430622,29.5130335 C35.723445,29.5130335 36.7751196,28.4597533 36.7751196,27.1642857" id="Fill-1" fill="#4DBBA6" mask="url(#mask-2)"></path>
                        </g>
                        <path d="M27,13.1362636 C27,14.5274859 26.4680859,15.7896596 25.4899219,16.7028756 L19.4436328,22.631866 C18.9502344,23.1230405 18.0510937,23.1223821 17.5550391,22.631866 L11.4967969,16.6251831 C10.5451953,15.7376452 10,14.4418925 10,13.0697641 C10,11.7345068 10.5372266,10.4664073 11.5273438,9.48405822 C12.4364453,8.52738715 13.7101172,8 15.1132812,8 C16.1266406,8 17.1858203,8.33118069 18.0942578,8.93165146 L18.5199219,9.21279292 L18.9316406,8.91321595 C19.7763281,8.29891856 20.7432031,8 21.8867188,8 C23.1909375,8 24.4692578,8.55635723 25.5025391,9.58150304 C26.4680859,10.4822092 27,11.7443829 27,13.1362636 Z" id="Fill-4" fill="#4DBBA6"></path>
                    </g>
                </g>
            </g>
        </g>
    </g>
</svg>