<?xml version="1.0" encoding="UTF-8"?>
<svg width="44px" height="37px" viewBox="0 0 44 37" version="1.1" xmlns="http://www.w3.org/2000/svg" xmlns:xlink="http://www.w3.org/1999/xlink">
    <!-- Generator: sketchtool 52.5 (67469) - http://www.bohemiancoding.com/sketch -->
    <title>C608104B-5125-413B-97FF-B73079B9CF57</title>
    <desc>Created with sketchtool.</desc>
    <defs>
        <polygon id="path-1" points="0.0456057816 0.00803579952 38.9165717 0.00803579952 38.9165717 36.9998852 0.0456057816 36.9998852"></polygon>
    </defs>
    <g id="design-desk" stroke="none" stroke-width="1" fill="none" fill-rule="evenodd">
        <g id="AU-New" transform="translate(-692.000000, -1666.000000)">
            <g id="Group-4" transform="translate(-403.000000, 1017.000000)">
                <g id="Group-12" transform="translate(1095.000000, 649.000000)">
                    <path d="M25.000043,26 C25.5522709,26 26,26.4477676 26,27.000043 C26,27.5523183 25.5522709,28 25.000043,28 C24.4477291,28 24,27.5523183 24,27.000043 C24,26.4477676 24.4477291,26 25.000043,26" id="Fill-1" fill="#4DBBA6"></path>
                    <g id="Group-7" transform="translate(5.000000, 0.000000)">
                        <mask id="mask-2" fill="white">
                            <use xlink:href="#path-1"></use>
                        </mask>
                        <g id="Clip-6"></g>
                        <path d="M16.3713231,34.9449282 C16.4685308,34.636742 16.565655,34.3284675 16.565655,33.9174055 L16.565655,30.8347492 L22.3962803,30.8347492 L22.3962803,33.9174055 C22.3962803,34.3285558 22.493488,34.636742 22.5906122,34.9449282 L16.3713231,34.9449282 Z M36.0011839,0.00800930788 L2.96091842,0.00800930788 C1.30888844,0.00800930788 0.0456057816,1.34380644 0.0456057816,3.09066563 L0.0456057816,13.3662456 C0.0456057816,13.9827945 0.434353105,14.3937683 1.01734882,14.3937683 C1.60034454,14.3937683 1.98909186,13.9827062 1.98909186,13.3662456 L1.98909186,3.09075394 C1.98909186,2.47429332 2.37783919,2.06323126 2.9608349,2.06323126 L36.0011004,2.06323126 C36.5841797,2.06323126 36.97276,2.47429332 36.97276,3.09075394 L36.97276,27.7520928 C36.97276,28.3686418 36.5840961,28.7797038 36.0011004,28.7797038 L12.6785994,28.7797038 C12.0955201,28.7797038 11.7068563,29.1906776 11.7068563,29.8071382 C11.7068563,30.4236871 12.0956036,30.8346609 12.6785994,30.8346609 L14.622169,30.8346609 L14.622169,33.9173172 C14.622169,34.5339544 14.2334216,34.9448399 13.6504259,34.9448399 L12.6786829,34.9448399 C12.0956036,34.9448399 11.7069398,35.3559019 11.7069398,35.9724508 C11.7069398,36.5888232 12.0956872,36.9998852 12.6786829,36.9998852 L26.2834195,36.9998852 C26.8665822,36.9998852 27.255246,36.5888232 27.255246,35.9724508 C27.255246,35.3559019 26.8664987,34.9448399 26.2834195,34.9448399 L25.31176,34.9448399 C24.7286807,34.9448399 24.3400169,34.5338661 24.3400169,33.9173172 L24.3400169,30.8346609 L36.0012675,30.8346609 C37.6532974,30.8346609 38.9165801,29.4988637 38.9165801,27.7520045 L38.9165801,3.09075394 C38.9164966,1.34389475 37.6532139,0.00800930788 36.0011839,0.00800930788 Z" id="Fill-5" fill="#4DBBA6" mask="url(#mask-2)"></path>
                    </g>
                    <path d="M39.0000286,23 L16.9999714,23 C16.3999542,23 16,23.4000516 16,24 C16,24.5999484 16.4000401,25 16.9999714,25 L39.0000286,25 C39.5999599,25 40,24.5999484 40,24 C40,23.4000516 39.5999599,23 39.0000286,23" id="Fill-8" fill="#4DBBA6"></path>
                    <path d="M11.0000061,17 L2.99999386,17 C1.29997729,17 0,18.300064 0,19.9999957 L0,34.0000043 C0,35.7000219 1.29997729,37 2.99999386,37 L11.0000061,37 C12.7000227,37 14,35.7000219 14,34.0000043 L14,19.9999957 C14,18.300064 12.7000227,17 11.0000061,17 Z" id="Fill-10" fill="#4DBBA6"></path>
                    <path d="M7,32 C7.55225163,32 8,32.4476817 8,33.000043 C8,33.5523183 7.55225163,34 7,34 C6.44774837,34 6,33.5523183 6,33.000043 C6,32.4476817 6.44774837,32 7,32" id="Fill-3" fill="#F6F9FF"></path>
                </g>
            </g>
        </g>
    </g>
</svg>