<?xml version="1.0" encoding="UTF-8"?>
<svg width="38px" height="43px" viewBox="0 0 38 43" version="1.1" xmlns="http://www.w3.org/2000/svg" xmlns:xlink="http://www.w3.org/1999/xlink">
    <!-- Generator: sketchtool 52.5 (67469) - http://www.bohemiancoding.com/sketch -->
    <title>67958DE6-B0B8-497F-AB8E-5680236A3670</title>
    <desc>Created with sketchtool.</desc>
    <g id="Page-1" stroke="none" stroke-width="1" fill="none" fill-rule="evenodd">
        <g id="AU-New" transform="translate(-697.000000, -1662.000000)">
            <g id="Group-34" transform="translate(698.000000, 1662.000000)">
                <g id="specialist-user-copy" transform="translate(0.000000, -0.000000)" fill-rule="nonzero">
                    <path d="M18.0398272,23.66448 C20.9252093,23.66448 27.7091163,20.1804 27.7091163,11.83212 C27.7092359,5.2974 26.8300465,0 18.0398272,0 C9.24972757,0 8.37053821,5.2974 8.37053821,11.83224 C8.37053821,20.1804 15.1544452,23.66448 18.0398272,23.66448 Z" id="Path" fill="#4DBBA6"></path>
                    <path d="M9.81568106,9.85752 C9.77800664,7.32 10.435106,1.41403731 18.0398272,1.41403731 C24.2308476,1.41403731 26.0848128,5.60868782 26.2643344,9.21780782 C26.30165,9.94992782 26.3016478,11.08824 26.3016478,11.83224 C26.3016478,15.91284 24.5058339,18.44124 22.9992159,19.84368 C21.1009037,21.61092 18.993289,22.25232 18.0398272,22.25232 C17.0863654,22.25232 14.9787508,21.61092 13.0804385,19.84368 C11.5738206,18.44124 9.77800664,15.91284 9.77800664,11.83224 C9.77812625,11.17212 9.78769435,10.50972 9.81568106,9.85752 Z" id="Combined-Shape" stroke="#4DBBA6" stroke-width="1.5"></path>
                    <path d="M9.7071716,10.405829 C9.90757104,9.30893649 10.550313,8.4352664 11.6353974,7.7848187 C12.7204818,7.13437101 13.9260335,6.90832222 15.2520524,7.10667234 C16.0198269,8.77437098 17.423289,9.7276826 19.4624388,9.96660719 C21.5015885,10.2055318 23.8053517,10.0860695 26.3737282,9.60822031" id="Path-4" stroke="#4DBBA6" stroke-width="1.5"></path>
                    <path d="M35.9911495,35.79924 C35.4975548,32.71944 34.4811827,28.75236 32.4428173,27.3426 C31.050897,26.37972 26.194485,23.77644 24.1207176,22.66476 L24.0848372,22.64556 C23.8477874,22.51848 23.5583522,22.54392 23.346897,22.71048 C22.2605581,23.5662 21.0705249,24.14292 19.8099269,24.42456 C19.5872292,24.47436 19.4044784,24.63312 19.3235083,24.84708 L18.0398272,28.242 L16.7561462,24.84708 C16.6751761,24.63312 16.4924252,24.47436 16.2697276,24.42456 C15.0091296,24.14292 13.8190963,23.5662 12.7327575,22.71048 C12.5213023,22.54392 12.2318671,22.51836 11.9948173,22.64556 C9.94568771,23.74416 5.02983389,26.40048 3.64293688,27.3384 C1.29647841,28.92444 0.270418605,34.66464 0.0886245847,35.79924 C0.0705647841,35.9118 0.081089701,36.02688 0.118883721,36.13428 C0.202843854,36.37212 2.35638538,41.96004 18.0398272,41.96004 C33.7232691,41.96004 35.8768106,36.37212 35.9607708,36.13428 C35.9986844,36.02688 36.0092093,35.91168 35.9911495,35.79924 Z" id="Path" stroke="#4DBBA6" stroke-width="1.5"></path>
                    <polygon id="Path" stroke="#4DBBA6" points="28.7641196 33.91992 25.6943123 34.87992 22.624505 33.91992 22.624505 32.26272 28.7641196 32.26272"></polygon>
                </g>
                <polygon id="Path-2-Copy" stroke="#4DBBA6" fill="#4DBBA6" points="23 33 23 34.6214662 26.0567719 35.6418423 29.17921 34.6214662 29.17921 33"></polygon>
                <path d="M9.43615606,8.28386119 C11.6916172,3.68483502 14.6384449,1.38532194 18.2766391,1.38532194 C23.7339303,1.38532194 27.2401706,8.65075305 27.2401706,9.88396001 C27.2401706,10.706098 23.938367,10.8010176 17.3347598,10.1687188 C16.6481068,8.11030669 15.8139563,7.08110062 14.8323084,7.08110062 C13.8506604,7.08110062 12.051943,7.48202081 9.43615606,8.28386119 Z" id="Path-9" fill="#4DBBA6"></path>
            </g>
        </g>
    </g>
</svg>