<?xml version="1.0" encoding="UTF-8"?>
<svg width="50px" height="37px" viewBox="0 0 50 37" version="1.1" xmlns="http://www.w3.org/2000/svg" xmlns:xlink="http://www.w3.org/1999/xlink">
    <!-- Generator: sketchtool 52.5 (67469) - http://www.bohemiancoding.com/sketch -->
    <title>2FD9BC6A-F26D-432B-AA1E-E79932EF2154</title>
    <desc>Created with sketchtool.</desc>
    <defs>
        <polygon id="path-1" points="0.0456057816 0.00803579952 38.9165717 0.00803579952 38.9165717 36.9998852 0.0456057816 36.9998852"></polygon>
    </defs>
    <g id="design-desk" stroke="none" stroke-width="1" fill="none" fill-rule="evenodd">
        <g id="AU-New" transform="translate(-685.000000, -2058.000000)">
            <g id="Group-4" transform="translate(-403.000000, 1017.000000)">
                <g id="Group-6" transform="translate(1088.000000, 1041.000000)">
                    <path d="M18.127437,27.2984972 L9.81604661,36 L1.48355429,27.2757184 C0.542226708,26.3009755 0,24.8905879 0,23.4090166 C0,22.0498814 0.526629662,20.6556288 1.44685536,19.5840759 C2.43405661,18.560928 3.7974219,18 5.22868021,18 C6.5443369,18 7.89302262,18.544793 8.92793247,19.4967572 L9.33712556,19.918165 C9.66282857,20.2551015 10.3380889,20.2541524 10.661957,19.9191142 L11.0307812,19.5385183 C11.9482545,18.5894015 13.3813478,18 14.7713198,18 C16.0851415,18 17.4329098,18.544793 18.4687371,19.4967572 C19.4577733,20.5170577 20,21.9283944 20,23.4090166 C20,24.777643 19.3183174,26.1927762 18.127437,27.2984972" id="Fill-4" fill="#4DBBA6"></path>
                    <g id="Group-12" transform="translate(11.000000, 0.000000)">
                        <path d="M20.000043,26 C20.5522709,26 21,26.4477676 21,27.000043 C21,27.5523183 20.5522709,28 20.000043,28 C19.4477291,28 19,27.5523183 19,27.000043 C19,26.4477676 19.4477291,26 20.000043,26" id="Fill-1" fill="#4DBBA6"></path>
                        <g id="Group-7">
                            <mask id="mask-2" fill="white">
                                <use xlink:href="#path-1"></use>
                            </mask>
                            <g id="Clip-6"></g>
                            <path d="M16.3713231,34.9449282 C16.4685308,34.636742 16.565655,34.3284675 16.565655,33.9174055 L16.565655,30.8347492 L22.3962803,30.8347492 L22.3962803,33.9174055 C22.3962803,34.3285558 22.493488,34.636742 22.5906122,34.9449282 L16.3713231,34.9449282 Z M36.0011839,0.00800930788 L2.96091842,0.00800930788 C1.30888844,0.00800930788 0.0456057816,1.34380644 0.0456057816,3.09066563 L0.0456057816,13.3662456 C0.0456057816,13.9827945 0.434353105,14.3937683 1.01734882,14.3937683 C1.60034454,14.3937683 1.98909186,13.9827062 1.98909186,13.3662456 L1.98909186,3.09075394 C1.98909186,2.47429332 2.37783919,2.06323126 2.9608349,2.06323126 L36.0011004,2.06323126 C36.5841797,2.06323126 36.97276,2.47429332 36.97276,3.09075394 L36.97276,27.7520928 C36.97276,28.3686418 36.5840961,28.7797038 36.0011004,28.7797038 L12.6785994,28.7797038 C12.0955201,28.7797038 11.7068563,29.1906776 11.7068563,29.8071382 C11.7068563,30.4236871 12.0956036,30.8346609 12.6785994,30.8346609 L14.622169,30.8346609 L14.622169,33.9173172 C14.622169,34.5339544 14.2334216,34.9448399 13.6504259,34.9448399 L12.6786829,34.9448399 C12.0956036,34.9448399 11.7069398,35.3559019 11.7069398,35.9724508 C11.7069398,36.5888232 12.0956872,36.9998852 12.6786829,36.9998852 L26.2834195,36.9998852 C26.8665822,36.9998852 27.255246,36.5888232 27.255246,35.9724508 C27.255246,35.3559019 26.8664987,34.9448399 26.2834195,34.9448399 L25.31176,34.9448399 C24.7286807,34.9448399 24.3400169,34.5338661 24.3400169,33.9173172 L24.3400169,30.8346609 L36.0012675,30.8346609 C37.6532974,30.8346609 38.9165801,29.4988637 38.9165801,27.7520045 L38.9165801,3.09075394 C38.9164966,1.34389475 37.6532139,0.00800930788 36.0011839,0.00800930788 Z" id="Fill-5" fill="#4DBBA6" mask="url(#mask-2)"></path>
                        </g>
                        <path d="M34.0000286,23 L11.9999714,23 C11.3999542,23 11,23.4000516 11,24 C11,24.5999484 11.4000401,25 11.9999714,25 L34.0000286,25 C34.5999599,25 35,24.5999484 35,24 C35,23.4000516 34.5999599,23 34.0000286,23" id="Fill-8" fill="#4DBBA6"></path>
                    </g>
                </g>
            </g>
        </g>
    </g>
</svg>