<?xml version="1.0" encoding="UTF-8"?>
<svg width="40px" height="41px" viewBox="0 0 40 41" version="1.1" xmlns="http://www.w3.org/2000/svg" xmlns:xlink="http://www.w3.org/1999/xlink">
    <!-- Generator: sketchtool 52.5 (67469) - http://www.bohemiancoding.com/sketch -->
    <title>EA7DA125-FE3F-4369-8BF6-054038631F25</title>
    <desc>Created with sketchtool.</desc>
    <defs>
        <polygon id="path-1" points="0 0 39.8501335 0 39.8501335 36.3344504 0 36.3344504"></polygon>
    </defs>
    <g id="Page-1" stroke="none" stroke-width="1" fill="none" fill-rule="evenodd">
        <g id="AU-New" transform="translate(-700.000000, -1465.000000)">
            <g id="Group-27" transform="translate(132.000000, 1424.000000)">
                <g id="Group-25" transform="translate(91.000000, 0.000000)">
                    <g id="Group-8" transform="translate(477.000000, 41.000000)">
                        <g id="Group-3">
                            <mask id="mask-2" fill="white">
                                <use xlink:href="#path-1"></use>
                            </mask>
                            <g id="Clip-2"></g>
                            <path d="M24.3703735,36.3344504 L32.9303735,36.3344504 C33.3279735,36.3344504 33.7703735,35.9869722 33.7703735,35.4890809 L33.7703735,19.5235809 L39.0903735,19.5235809 C39.5095735,19.5235809 39.8503735,19.1447331 39.8503735,18.6790157 C39.8503735,18.4425374 39.7239735,18.251907 39.5775735,18.0307113 L31.6103735,10.7602113 L31.6103735,2.99423306 C31.6103735,2.59447219 31.2655735,2.14886349 30.7703735,2.14886349 L26.1303735,2.14886349 C25.7335735,2.14886349 25.2903735,2.49634175 25.2903735,2.99423306 L25.2903735,4.85388523 L20.4183735,0.222450448 C20.1167735,-0.0791799871 19.6359735,-0.0727452045 19.2695735,0.233711317 L0.242373518,18.2406461 C0.0855735181,18.3982983 -0.00962648187,18.6436244 0.000773518133,18.8720591 C0.00637351813,19.0063852 0.0511735181,19.1970157 0.229573518,19.3474287 L0.283973518,19.4069504 C0.396773518,19.5782765 0.687173518,19.6040157 0.850373518,19.6040157 L6.93037352,19.6040157 C7.32797352,19.6040157 7.77037352,19.2573418 7.77037352,18.7586461 C7.77037352,18.3596896 7.42557352,17.9148852 6.93037352,17.9148852 L2.94477352,17.9148852 L19.9703735,1.80299393 L25.6023735,7.13179827 C25.7503735,7.28060262 25.9511735,7.34655914 26.1679735,7.34736349 C26.3847735,7.33690697 26.5791735,7.24118958 26.7151735,7.07629827 C26.8319735,6.89692871 26.9703735,6.68940697 26.9703735,6.53255914 L26.9703735,3.59749393 L30.0103735,3.59749393 L30.0103735,10.8768418 C30.0103735,11.1141244 30.1367735,11.3039504 30.2831735,11.5243418 L36.9127735,17.8336461 L32.8503735,17.8336461 C32.4535735,17.8336461 32.0103735,18.1811244 32.0103735,18.6790157 L32.0103735,34.6445157 L24.3703735,34.6445157 C23.9727735,34.6445157 23.5303735,34.9919939 23.5303735,35.4890809 C23.5303735,35.8888418 23.8751735,36.3344504 24.3703735,36.3344504" id="Fill-1" fill="#4DBBA6" mask="url(#mask-2)"></path>
                        </g>
                        <path d="M13.4995894,20 C18.186724,20 22,23.6421998 22,28.11809 C22,32.884164 18.339485,37.3812298 15.267839,40.3152241 C14.3085656,41.2289112 12.6897918,41.2289112 11.7288758,40.3113027 C9.7339485,38.4690272 5.08541475,33.5978595 5,28.1957338 C5,23.8978753 8.48968549,20.2980267 12.9255036,20 L13.4995894,20 Z" id="Fill-4" fill="#4DBBA6"></path>
                        <path d="M14.8735898,29.9134753 C14.4933861,30.2975558 13.9955544,30.5087235 13.4719205,30.5087235 C12.9475277,30.5087235 12.4504549,30.2975558 12.0694923,29.9134753 C11.6892885,29.53016 11.4790761,29.0290192 11.4790761,28.5003347 C11.4790761,27.9724154 11.6892885,27.4705095 12.0694923,27.0871941 C12.855702,26.29455 14.0873801,26.2937849 14.8735898,27.0871941 C15.2537936,27.4705095 15.4632472,27.9724154 15.4632472,28.5003347 C15.4632472,29.0290192 15.2537936,29.53016 14.8735898,29.9134753 M16.9999989,28.4995696 C16.9999989,27.5500799 16.6251073,26.6686842 15.9443832,26.0168185 L15.9398299,26.0114628 C15.292497,25.3595972 14.4159793,25 13.4711616,25 C12.5271028,25 11.6505852,25.3595972 11.0032522,26.0114628 C10.3559193,26.6640936 10,27.5477846 10,28.5003347 C10,29.4521197 10.3559193,30.3365759 11.0032522,30.9892066 C12.3404159,32.3373137 14.6019073,32.3365486 15.9398299,30.9892066 C16.6258662,30.3319853 17.0007577,29.4498244 16.9999989,28.4995696" id="Fill-6" fill="#FFFFFF"></path>
                    </g>
                </g>
            </g>
        </g>
    </g>
</svg>