<?xml version="1.0" encoding="UTF-8"?>
<svg width="88px" height="88px" viewBox="0 0 88 88" version="1.1" xmlns="http://www.w3.org/2000/svg" xmlns:xlink="http://www.w3.org/1999/xlink">
    <!-- Generator: sketchtool 52.5 (67469) - http://www.bohemiancoding.com/sketch -->
    <title>9AC9C697-7862-418B-8FCC-56C8662E7C6C</title>
    <desc>Created with sketchtool.</desc>
    <g id="Page-1" stroke="none" stroke-width="1" fill="none" fill-rule="evenodd">
        <g id="AU-New" transform="translate(-1075.000000, -904.000000)">
            <g id="plans" transform="translate(179.000000, 748.000000)">
                <g id="data-sharing" transform="translate(896.000000, 156.000000)">
                    <circle id="Oval" fill="#FFFFFF" cx="50" cy="50" r="38"></circle>
                    <path d="M21.4019032,65.2903226 C26.6555409,65.2903226 31.4653957,63.3899949 35.1947054,60.2546624 L47.5976376,66.4241431 C47.2695029,67.4068801 47.0841871,68.4554562 47.0841871,69.5483871 C47.0841871,75.0269027 51.5645139,79.483871 57.0717419,79.483871 C62.5789699,79.483871 67.0592967,75.0269027 67.0592967,69.5483871 C67.0592967,64.0698715 62.5789699,59.6129032 57.0717419,59.6129032 C53.6803205,59.6129032 50.6825213,61.3060106 48.8760391,63.8848286 L37.3474358,58.1512727 C40.7291038,54.3838836 42.8038064,49.4348537 42.8038064,44 C42.8038064,38.5651463 40.7291038,33.6161164 37.3474358,29.8487273 L48.8760391,24.1151714 C50.6825213,26.6939894 53.6803205,28.3870968 57.0717419,28.3870968 C62.5789699,28.3870968 67.0592967,23.9301285 67.0592967,18.4516129 C67.0592967,12.9730973 62.5789699,8.51612903 57.0717419,8.51612903 C51.5645139,8.51612903 47.0841871,12.9730973 47.0841871,18.4516129 C47.0841871,19.5445438 47.2695029,20.5917339 47.5976376,21.577243 L35.1947054,27.7467238 C31.4667892,24.6100051 26.6555409,22.7096774 21.4019032,22.7096774 C9.60089931,22.7096774 0,32.2605216 0,44 C0,55.7394784 9.60089931,65.2903226 21.4019032,65.2903226 Z M57.0717419,62.4516129 C61.0051777,62.4516129 64.2057096,65.6354586 64.2057096,69.5483871 C64.2057096,73.4613156 61.0051777,76.6451613 57.0717419,76.6451613 C53.1383061,76.6451613 49.9377742,73.4613156 49.9377742,69.5483871 C49.9377742,65.6354586 53.1383061,62.4516129 57.0717419,62.4516129 Z M57.0717419,11.3548387 C61.0051777,11.3548387 64.2057096,14.5386844 64.2057096,18.4516129 C64.2057096,22.3645414 61.0051777,25.5483871 57.0717419,25.5483871 C53.1383061,25.5483871 49.9377742,22.3645414 49.9377742,18.4516129 C49.9377742,14.5386844 53.1383061,11.3548387 57.0717419,11.3548387 Z M4.96382028,52.516129 L7.1012239,52.516129 C11.1405545,52.516129 14.9416217,50.3760081 17.0191111,46.9294985 C17.579239,45.9987399 18.6082304,45.4193548 19.7013158,45.4193548 C21.4262869,45.4193548 22.8286968,46.8144531 22.8286968,48.6087449 C22.8286968,49.0897177 22.7144418,49.5706906 22.4991688,49.9996849 C20.8480453,53.2840222 19.9751097,56.9599294 19.9751097,60.6316785 L19.9751097,62.3795363 C13.4430705,61.8812374 7.85433119,58.014743 4.96382028,52.516129 Z M22.2581186,35.7680191 C23.5462737,34.0589718 24.2554903,31.9424142 24.2554903,29.8064516 L24.2554903,25.7895665 C28.5672214,26.4569683 32.3836155,28.5970893 35.1772883,31.6873739 L32.4609465,32.0733997 C29.4115933,32.5058594 27.1090774,35.1449723 27.1048973,38.2103075 L27.1048973,38.6587071 C27.1021107,40.6969505 28.117865,42.5875755 29.87558,43.7532762 C30.8230601,44.3846397 31.389458,45.4318295 31.389458,46.5594128 L31.389458,49.921371 C31.389458,51.0586567 31.8346344,52.1287172 32.6434758,52.9333416 L35.5883276,55.8628402 C32.4707,59.546371 27.9367291,61.9900455 22.8286968,62.3809223 L22.8286968,60.6337575 C22.8286968,57.4000126 23.5978277,54.1628024 25.0517916,51.2700352 C25.4642241,50.4466987 25.6822839,49.5270288 25.6822839,48.5304309 C25.6822839,45.250252 22.9986858,42.5806452 19.7013158,42.5806452 C17.6126795,42.5806452 15.6459616,43.687437 14.5716864,45.469254 C13.0055576,48.0647051 10.1429137,49.6774194 7.1012239,49.6774194 L3.76274993,49.6774194 C3.32036046,48.3204384 3.04029641,46.8927672 2.92743472,45.4193548 L7.04827648,45.4193548 C9.43509038,45.4193548 11.5070063,43.8101059 12.0880346,41.5064263 C12.3458049,40.467553 13.2807449,39.7419355 14.3564134,39.7419355 C17.426667,39.7419355 20.3617652,38.2830772 22.2581186,35.7680191 Z M37.2638346,53.5141129 L34.6596578,50.9235132 C34.3914372,50.656691 34.2430451,50.2990801 34.2430451,49.919985 L34.2430451,46.5573336 C34.2430451,44.4809729 33.2015137,42.5494582 31.4033916,41.3560357 C30.4963188,40.7537802 29.9556978,39.7474798 29.9570911,38.6614793 L29.9570911,38.2130795 C29.9584844,36.5497731 31.2083221,35.1193295 32.865019,34.8836946 L37.1363428,34.2758946 C38.9086879,37.1035156 39.9502193,40.4287425 39.9502193,44 C39.9502193,47.4832408 38.9574553,50.7322328 37.2638346,53.5141129 Z M21.4019032,25.5483871 L21.4019032,29.8064516 C21.4019032,31.3325352 20.8954193,32.8454511 19.9221623,34.1338206 C18.6151971,35.8685106 16.5335276,36.9032258 14.3564134,36.9032258 C11.9695995,36.9032258 9.89768361,38.5124747 9.31665528,40.8161543 C9.05609835,41.8550277 8.12115835,42.5806452 7.04548977,42.5806452 L2.92604146,42.5806452 C3.65824854,33.0693044 11.6553984,25.5483871 21.4019032,25.5483871 Z M57.0717419,22.7096774 C59.4313854,22.7096774 61.3521226,20.7989542 61.3521226,18.4516129 C61.3521226,16.1042716 59.4313854,14.1935484 57.0717419,14.1935484 C54.7120984,14.1935484 52.7913613,16.1042716 52.7913613,18.4516129 C52.7913613,20.7989542 54.7120984,22.7096774 57.0717419,22.7096774 Z M57.0717419,17.0322581 C57.857593,17.0322581 58.4985355,17.6698589 58.4985355,18.4516129 C58.4985355,19.2333669 57.857593,19.8709677 57.0717419,19.8709677 C56.2858908,19.8709677 55.6449484,19.2333669 55.6449484,18.4516129 C55.6449484,17.6698589 56.2858908,17.0322581 57.0717419,17.0322581 Z M57.0717419,73.8064516 C59.4313854,73.8064516 61.3521226,71.8957284 61.3521226,69.5483871 C61.3521226,67.2010458 59.4313854,65.2903226 57.0717419,65.2903226 C54.7120984,65.2903226 52.7913613,67.2010458 52.7913613,69.5483871 C52.7913613,71.8957284 54.7120984,73.8064516 57.0717419,73.8064516 Z M57.0717419,68.1290323 C57.857593,68.1290323 58.4985355,68.7666331 58.4985355,69.5483871 C58.4985355,70.3301411 57.857593,70.9677419 57.0717419,70.9677419 C56.2858908,70.9677419 55.6449484,70.3301411 55.6449484,69.5483871 C55.6449484,68.7666331 56.2858908,68.1290323 57.0717419,68.1290323 Z M17.3242555,20.5931199 L14.9771521,18.9769406 C15.7546433,17.8597529 16.5906551,16.7695942 17.4621974,15.736265 L19.6483684,17.561744 C18.8339534,18.5299269 18.0515858,19.5487022 17.3242555,20.5931199 Z M22.1069399,14.8949093 L20.0893646,12.8864666 C21.0222145,11.9591734 22.0066184,11.0637601 23.0126194,10.2265625 L24.8434853,12.4034148 C23.9001852,13.1886342 22.9798755,14.0258317 22.1069399,14.8949093 Z M27.9179188,10.0803301 L26.2988425,7.74407771 C33.6891873,2.67723039 42.3572368,0 51.3645677,0 C64.0573176,0 75.8025874,5.25466239 84.1808193,14.5185861 L84.1808193,7.09677419 L87.0344064,7.09677419 L87.0344064,19.8709677 L74.1932645,19.8709677 L74.1932645,17.0322581 L82.6139938,17.0322581 C74.7443357,7.98248497 63.5166966,2.83870968 51.3645677,2.83870968 C42.938265,2.83870968 34.8296467,5.34267889 27.9179188,10.0803301 Z M85.6389633,67.0659021 L88,68.6585181 C87.2211157,69.8027344 86.3767438,70.9220011 85.4933579,71.9885962 L83.2918601,70.1825227 C84.120905,69.1852319 84.9102397,68.1359626 85.6389633,67.0659021 Z M77.6829172,75.7622229 C78.6979749,74.9305696 79.6865589,74.0365423 80.6221956,73.1050907 L82.6397708,75.1135334 C81.6400399,76.1073589 80.5838783,77.0623739 79.4998496,77.952243 L77.6829172,75.7622229 Z M28.535871,70.9677419 L20.1151416,70.9677419 C27.9847998,80.017515 39.2124388,85.1612903 51.3645677,85.1612903 C59.3763479,85.1612903 67.1477747,82.8804813 73.8379594,78.5655872 L75.3901549,80.9489666 C68.23668,85.5618699 59.9281157,88 51.3645677,88 C38.6718178,88 26.9265481,82.7453376 18.5483161,73.4814139 L18.5483161,80.9032258 L15.694729,80.9032258 L15.694729,68.1290323 L28.535871,68.1290323 L28.535871,70.9677419 Z" id="Shape" fill="#2C69A9" fill-rule="nonzero"></path>
                </g>
            </g>
        </g>
    </g>
</svg>