<?xml version="1.0" encoding="UTF-8"?>
<svg width="16px" height="16px" viewBox="0 0 16 16" version="1.1" xmlns="http://www.w3.org/2000/svg" xmlns:xlink="http://www.w3.org/1999/xlink">
    <!-- Generator: sketchtool 52.5 (67469) - http://www.bohemiancoding.com/sketch -->
    <title>3C0274A2-9692-471E-A4E0-1D847445E395</title>
    <desc>Created with sketchtool.</desc>
    <g id="Symbols" stroke="none" stroke-width="1" fill="none" fill-rule="evenodd">
        <g id="footer" transform="translate(-117.000000, -454.000000)" fill="#9EB0BA">
            <g id="Group-24" transform="translate(105.000000, 441.000000)">
                <path d="M27.9995053,24.9783465 L27.9995053,27.387003 C28.0035277,28.2733886 27.2851332,28.9959856 26.396995,29 C26.3463132,29 26.2964358,28.9975913 26.245754,28.992774 C23.7703905,28.7246103 21.3923681,27.8799747 19.3031516,26.5287184 C17.3595447,25.2962892 15.7111795,23.6511768 14.4763133,21.7114054 C13.1167539,19.6166771 12.2704482,17.2321072 12.0065811,14.7495852 C11.9269382,13.8664112 12.5793659,13.0860064 13.4642862,13.0057179 C13.5117501,13.0017035 13.559214,13.0000977 13.6074824,13.0000977 L16.0209016,13.0000977 C16.8285925,12.991266 17.5172215,13.5821897 17.6298477,14.3802579 C17.7320158,15.151028 17.9210669,15.908149 18.1929788,16.6363661 C18.4142089,17.2232754 18.2726216,17.8848531 17.8309659,18.3304546 L16.8092852,19.3501191 C17.9548548,21.3605444 19.621723,23.0241232 21.6361235,24.1674322 L22.6578042,23.1485705 C23.1042868,22.7069834 23.7671726,22.5664785 24.3552424,22.787272 C25.0848994,23.0586473 25.8435175,23.2473254 26.6158116,23.3492918 C27.4243071,23.4624987 28.0196171,24.1634177 27.9995053,24.9783465 Z" id="Stroke-1"></path>
            </g>
        </g>
    </g>
</svg>