<?xml version="1.0" encoding="UTF-8"?>
<svg width="20px" height="15px" viewBox="0 0 20 15" version="1.1" xmlns="http://www.w3.org/2000/svg" xmlns:xlink="http://www.w3.org/1999/xlink">
    <!-- Generator: sketchtool 52.5 (67469) - http://www.bohemiancoding.com/sketch -->
    <title>4F83ABAF-3CB4-4250-B9E9-374EB6150224</title>
    <desc>Created with sketchtool.</desc>
    <defs>
        <polygon id="path-1" points="0 0 20 0 20 15 0 15"></polygon>
    </defs>
    <g id="Page-1" stroke="none" stroke-width="1" fill="none" fill-rule="evenodd">
        <g id="AU-New" transform="translate(-1205.000000, -3581.000000)">
            <g id="Group-12" transform="translate(1144.000000, 3568.000000)">
                <g id="Group-3" transform="translate(61.000000, 13.000000)">
                    <mask id="mask-2" fill="white">
                        <use xlink:href="#path-1"></use>
                    </mask>
                    <g id="Clip-2"></g>
                    <path d="M20,0.00850148553 C19.1290909,0.572763347 18.1654545,1.00494614 17.1454545,1.28749504 C15.6690909,-0.273211473 13.0963636,-0.437892342 11.4,0.918843955 C10.4954545,1.64193508 9.98363636,2.693552 10,3.79532553 L10,4.63126903 C6.75545455,4.70901178 3.68363636,3.28707189 1.81818182,0.844444984 C1.81818182,0.844444984 -1.81818182,8.36793647 6.36363636,11.7117105 C4.49090909,12.8803595 2.26090909,13.4663559 0,13.3835975 C8.18181818,17.5633149 18.1818182,13.3835975 18.1818182,3.77024723 C18.1809091,3.53701899 18.1572727,3.3046267 18.1090909,3.07641412 C19.0363636,2.23461902 19.6918182,1.17297078 20,0.00850148553" id="Fill-1" fill="#9EB0BA" mask="url(#mask-2)"></path>
                </g>
            </g>
        </g>
    </g>
</svg>