<?xml version="1.0" encoding="UTF-8"?>
<svg width="44px" height="44px" viewBox="0 0 44 44" version="1.1" xmlns="http://www.w3.org/2000/svg" xmlns:xlink="http://www.w3.org/1999/xlink">
    <!-- Generator: sketchtool 52.5 (67469) - http://www.bohemiancoding.com/sketch -->
    <title>248B1818-E91C-4ED1-AEE4-77B45F8838B8</title>
    <desc>Created with sketchtool.</desc>
    <defs>
        <polygon id="path-1" points="0 44 44 44 44 0 0 0"></polygon>
    </defs>
    <g id="Symbols" stroke="none" stroke-width="1" fill="none" fill-rule="evenodd">
        <g id="footer" transform="translate(-556.000000, -119.000000)">
            <g id="Group-17" transform="translate(556.000000, 119.000000)">
                <path d="M32,33 C31.447,33 31,32.5977 31,32.1 L31,24.9 C31,24.4032 31.447,24 32,24 C32.552,24 33,24.4032 33,24.9 L33,32.1 C33,32.5977 32.552,33 32,33" id="Fill-1" fill="#9EB0BA"></path>
                <mask id="mask-2" fill="white">
                    <use xlink:href="#path-1"></use>
                </mask>
                <g id="Clip-4"></g>
                <path d="M23.8181818,35 L40.1818182,35 L40.1818182,33 L23.8181818,33 L23.8181818,35 Z M41.0909091,37 L22.9090909,37 C22.4063636,37 22,36.552 22,36 L22,32 C22,31.448 22.4063636,31 22.9090909,31 L41.0909091,31 C41.5927273,31 42,31.448 42,32 L42,36 C42,36.552 41.5927273,37 41.0909091,37 Z" id="Fill-3" fill="#9EB0BA" mask="url(#mask-2)"></path>
                <path d="M25.8888889,36.8 L25.8888889,41.3 C25.8888889,41.7977 26.3110556,42.2 26.8333333,42.2 L38.1666667,42.2 C38.688,42.2 39.1111111,41.7977 39.1111111,41.3 L39.1111111,36.8 L25.8888889,36.8 Z M38.1666667,44 L26.8333333,44 C25.2683889,44 24,42.7913 24,41.3 L24,35.9 C24,35.4032 24.4221667,35 24.9444444,35 L40.0555556,35 C40.5768889,35 41,35.4032 41,35.9 L41,41.3 C41,42.7913 39.7306667,44 38.1666667,44 Z" id="Fill-5" fill="#9EB0BA" mask="url(#mask-2)"></path>
                <path d="M42.1090909,24.8636364 C37.2809091,25.3363636 36.1636364,29.2727273 35.9,31.1363636 C40.7263636,30.6636364 41.8454545,26.7272727 42.1090909,24.8636364 M34.9090909,33 C34.4063636,33 34,32.5927273 34,32.0909091 C34,32 34.0990909,23 43.0909091,23 C43.5927273,23 44,23.4063636 44,23.9090909 C44,24 43.9,33 34.9090909,33" id="Fill-6" fill="#9EB0BA" mask="url(#mask-2)"></path>
                <path d="M21.9,24.8636364 C22.1636364,26.6818182 23.3,30.6545455 28.1,31.1272727 C27.8363636,29.2727273 26.7,25.3454545 21.9,24.8636364 M29.0909091,33 C20.1,33 20,24 20,23.9090909 C20,23.4063636 20.4063636,23 20.9090909,23 C29.9,23 30,32 30,32.0909091 C30,32.5927273 29.5927273,33 29.0909091,33" id="Fill-7" fill="#9EB0BA" mask="url(#mask-2)"></path>
                <path d="M32,1.86387086 C28.0247458,1.87965217 24.8143097,5.2178645 24.829606,9.31914983 C24.842203,12.4429219 26.7470498,15.2260033 29.5975716,16.2805665 C29.9565862,16.4096019 30.1986286,16.7595758 30.2004282,17.1531804 L30.2004282,23.215062 C30.2004282,23.7274906 30.6026325,24.1433747 31.1002141,24.1433747 L32.8997859,24.1433747 C33.3964677,24.1433747 33.7995718,23.7274906 33.7995718,23.215062 L33.7995718,17.1624635 C33.8013714,16.7688589 34.042514,16.4198134 34.4024284,16.2898496 C38.1491369,14.9187318 40.1097704,10.673558 38.7807867,6.80806408 C37.762229,3.84581839 35.0466751,1.86479917 32,1.86387086 M32.8997859,26 L31.1002141,26 C29.6092688,26 28.4008563,24.7532761 28.4008563,23.215062 L28.4008563,17.7937161 C23.84614,15.7430734 21.765835,10.2715986 23.7534621,5.57247993 C25.7410892,0.873361251 31.0444274,-1.27382593 35.5991437,0.777745047 C40.15386,2.82838771 42.234165,8.29986253 40.2465379,12.9989812 C39.3386539,15.1443118 37.6794487,16.8570486 35.5991437,17.7937161 L35.5991437,23.215062 C35.5991437,24.7532761 34.3898314,26 32.8997859,26" id="Fill-8" fill="#9EB0BA" mask="url(#mask-2)"></path>
                <path d="M35.125,18 L29.875,18 C29.391125,18 29,17.552 29,17 C29,16.447 29.391125,16 29.875,16 L35.125,16 C35.608,16 36,16.447 36,17 C36,17.552 35.608,18 35.125,18" id="Fill-9" fill="#9EB0BA" mask="url(#mask-2)"></path>
                <path d="M36.1,22 L28.9,22 C28.4023,22 28,21.552 28,21 C28,20.447 28.4023,20 28.9,20 L36.1,20 C36.5968,20 37,20.447 37,21 C37,21.552 36.5968,22 36.1,22" id="Fill-10" fill="#9EB0BA" mask="url(#mask-2)"></path>
                <path d="M32,8 C31.447,8 31,8.447 31,9 C31,9.552 31.447,10 32,10 C32.552,10 33,9.552 33,9 C33,8.447 32.552,8 32,8 M32,12 C30.343,12 29,10.657 29,9 C29,7.343 30.343,6 32,6 C33.656,6 35,7.343 35,9 C35,10.657 33.656,12 32,12" id="Fill-11" fill="#9EB0BA" mask="url(#mask-2)"></path>
                <path d="M32,18 C31.447,18 31,17.6017778 31,17.1111111 L31,10.8888889 C31,10.3973333 31.447,10 32,10 C32.552,10 33,10.3973333 33,10.8888889 L33,17.1111111 C33,17.6017778 32.552,18 32,18" id="Fill-12" fill="#9EB0BA" mask="url(#mask-2)"></path>
                <path d="M21.0833344,44 L2.7500225,44 C1.23110761,44 2.5719642e-05,42.7690192 2.5719642e-05,41.2502291 L2.5719642e-05,8.25297892 C-0.00180761155,8.0091659 0.0944422759,7.77543538 0.265858742,7.60219982 L7.5991835,0.269477544 C7.95851642,-0.0898258478 8.54059907,-0.0898258478 8.90084865,0.269477544 C9.26018156,0.629697525 9.26018156,1.21173236 8.90084865,1.57103575 L1.83335691,8.62878093 L1.83335691,41.2502291 C1.83335691,41.7571036 2.24310643,42.1668194 2.7500225,42.1668194 L21.0833344,42.1668194 C21.5893338,42.1668194 22,42.5774519 22,43.0834097 C22,43.5902841 21.5893338,44 21.0833344,44" id="Fill-13" fill="#9EB0BA" mask="url(#mask-2)"></path>
                <path d="M8.30769231,9 L0.923076923,9 C0.412615385,9 0,8.5968 0,8.1 C0,7.6023 0.412615385,7.2 0.923076923,7.2 L7.38461538,7.2 L7.38461538,0.9 C7.38461538,0.4023 7.79723077,0 8.30769231,0 L23.0769231,0 C23.5864615,0 24,0.4023 24,0.9 C24,1.3968 23.5864615,1.8 23.0769231,1.8 L9.23076923,1.8 L9.23076923,8.1 C9.23076923,8.5968 8.81723077,9 8.30769231,9" id="Fill-14" fill="#9EB0BA" mask="url(#mask-2)"></path>
                <path d="M24.0542734,21.9999935 C23.804088,22.0009101 23.5642487,21.9055771 23.3864854,21.7341609 L18.9659174,17.4166734 L14.6488095,17.4166734 C14.3986242,17.41759 14.1587849,17.322257 13.9810216,17.1508408 L9.27828969,12.5675207 C8.90865496,12.2109384 8.90771442,11.6297734 9.27264642,11.2704411 C9.45135023,11.096275 9.69307065,10.9981919 9.94607763,11.0000252 L14.6488095,11.0000252 C15.1679911,11.0000252 15.5893559,11.4097741 15.5893559,11.9166893 C15.5893559,12.4226878 15.1679911,12.8333533 14.6488095,12.8333533 L12.2127944,12.8333533 L15.0344336,15.5833453 L19.3515415,15.5833453 C19.6017268,15.581512 19.8415661,15.6777617 20.0193294,15.8491779 L24.7220613,20.432498 C25.0907555,20.7890803 25.0926366,21.3693286 24.7277046,21.7286609 C24.5490008,21.9037437 24.3072804,22.0009101 24.0542734,21.9999935" id="Fill-15" fill="#9EB0BA" mask="url(#mask-2)"></path>
                <path d="M10,17 C9.447,17 9,16.616 9,16.1428571 L9,11.8571429 C9,11.3831429 9.447,11 10,11 C10.552,11 11,11.3831429 11,11.8571429 L11,16.1428571 C11,16.616 10.552,17 10,17" id="Fill-16" fill="#9EB0BA" mask="url(#mask-2)"></path>
            </g>
        </g>
    </g>
</svg>