<?xml version="1.0" encoding="UTF-8"?>
<svg width="38px" height="44px" viewBox="0 0 38 44" version="1.1" xmlns="http://www.w3.org/2000/svg" xmlns:xlink="http://www.w3.org/1999/xlink">
    <!-- Generator: sketchtool 52.5 (67469) - http://www.bohemiancoding.com/sketch -->
    <title>58155884-B06F-4C94-98F2-EF20EE634A8F</title>
    <desc>Created with sketchtool.</desc>
    <defs>
        <polygon id="path-1" points="0 0 34.3809524 0 34.3809524 43.999725 0 43.999725"></polygon>
    </defs>
    <g id="Symbols" stroke="none" stroke-width="1" fill="none" fill-rule="evenodd">
        <g id="footer" transform="translate(-246.000000, -119.000000)">
            <g id="Group-16" transform="translate(246.000000, 119.000000)">
                <g id="Group-15">
                    <g id="Group-14">
                        <g id="Group-3">
                            <mask id="mask-2" fill="white">
                                <use xlink:href="#path-1"></use>
                            </mask>
                            <g id="Clip-2"></g>
                            <path d="M31.6666667,43.999725 L2.71428571,43.999725 C1.21509524,43.999725 -1.34540841e-13,42.7686417 -1.34540841e-13,41.249725 L-1.34540841e-13,8.249725 C-0.000904761905,8.00589167 0.0931904762,7.77214167 0.262380952,7.59980833 L7.50047619,0.266475 C7.67147619,0.0941416667 7.90219048,-0.00119166667 8.14285714,-0.000275 L31.6666667,-0.000275 C33.1658571,-0.000275 34.3809524,1.23080833 34.3809524,2.749725 L34.3809524,16.499725 C34.3809524,17.0066417 33.9765238,17.4163917 33.4761905,17.4163917 C32.9758571,17.4163917 32.5714286,17.0066417 32.5714286,16.499725 L32.5714286,2.749725 C32.5714286,2.243725 32.167,1.83305833 31.6666667,1.83305833 L8.51380952,1.83305833 L1.80952381,8.62555833 L1.80952381,41.249725 C1.80952381,41.7566417 2.21485714,42.1663917 2.71428571,42.1663917 L31.6666667,42.1663917 C32.167,42.1663917 32.5714286,41.7566417 32.5714286,41.249725 L32.5714286,33.9163917 C32.5714286,33.4103917 32.9758571,32.999725 33.4761905,32.999725 C33.9765238,32.999725 34.3809524,33.4103917 34.3809524,33.9163917 L34.3809524,41.249725 C34.3809524,42.7686417 33.1658571,43.999725 31.6666667,43.999725" id="Fill-1" fill="#9EB0BA" mask="url(#mask-2)"></path>
                        </g>
                        <path d="M8.14285714,9.16685 L0.904761905,9.16685 C0.405333333,9.16685 0,8.75618333 0,8.25018333 C0,7.74418333 0.405333333,7.33351667 0.904761905,7.33351667 L7.23809524,7.33351667 L7.23809524,0.91685 C7.23809524,0.41085 7.64342857,0.000183333333 8.14285714,0.000183333333 C8.64228571,0.000183333333 9.04761905,0.41085 9.04761905,0.91685 L9.04761905,8.25018333 C9.04761905,8.75618333 8.64228571,9.16685 8.14285714,9.16685" id="Fill-4" fill="#9EB0BA"></path>
                        <path d="M20.303219,34.4301833 L23.0175048,37.1801833 L35.818981,24.23685 L33.1046952,21.48685 L20.303219,34.4301833 Z M23.0175048,39.4159333 C22.7759333,39.4177667 22.5461238,39.3224333 22.3751238,39.1501 L18.357981,35.0810167 C18.0069333,34.7226 18.0069333,34.1451 18.357981,33.7885167 L32.4351714,19.5160167 C32.7889333,19.16035 33.3589333,19.16035 33.7108857,19.5160167 L37.7289333,23.5860167 C38.0790762,23.9435167 38.0790762,24.5210167 37.7289333,24.8785167 L23.6598857,39.1501 C23.4888857,39.3224333 23.2581714,39.4177667 23.0175048,39.4159333 Z" id="Fill-6" fill="#9EB0BA"></path>
                        <path d="M22.6190476,39.4163917 L19,39.4163917 C18.4996667,39.4163917 18.0952381,39.0066417 18.0952381,38.499725 L18.0952381,34.8330583 C18.0952381,34.3270583 18.4996667,33.9163917 19,33.9163917 C19.5003333,33.9163917 19.9047619,34.3270583 19.9047619,34.8330583 L19.9047619,37.5830583 L22.6190476,37.5830583 C23.119381,37.5830583 23.5238095,37.993725 23.5238095,38.499725 C23.5238095,39.0066417 23.119381,39.4163917 22.6190476,39.4163917" id="Fill-8" fill="#9EB0BA"></path>
                        <path d="M17.1904762,32.999725 C11.194619,32.999725 6.33333333,28.0753917 6.33333333,21.999725 C6.33333333,15.924975 11.194619,10.999725 17.1904762,10.999725 C23.1863333,10.999725 28.047619,15.924975 28.047619,21.999725 C28.047619,22.5066417 27.6431905,22.9163917 27.1428571,22.9163917 C26.6425238,22.9163917 26.2380952,22.5066417 26.2380952,21.999725 C26.2380952,16.9378917 22.1865714,12.8330583 17.1904762,12.8330583 C12.1934762,12.8330583 8.14285714,16.9378917 8.14285714,21.999725 C8.14285714,27.062475 12.1934762,31.1663917 17.1904762,31.1663917 C17.6899048,31.1663917 18.0952381,31.5770583 18.0952381,32.0830583 C18.0952381,32.589975 17.6899048,32.999725 17.1904762,32.999725" id="Fill-10" fill="#9EB0BA"></path>
                        <path d="M15.2661789,26.2792441 C14.9717278,26.2804127 14.6894533,26.1588862 14.480238,25.9403722 L12.2663199,23.6033241 C11.8689216,23.1137125 11.9220557,22.3752054 12.3869784,21.9557052 C12.8009811,21.580609 13.4131295,21.580609 13.8271322,21.9557052 L15.2661789,23.4631012 L21.1219922,17.2816091 C21.586915,16.8609405 22.2854062,16.9181981 22.6828045,17.4089782 C23.0381383,17.8460062 23.0381383,18.4910315 22.6828045,18.929228 L16.0410502,25.9403722 C15.8351559,26.1565491 15.5562022,26.2780756 15.2661789,26.2792441" id="Fill-12" fill="#9EB0BA"></path>
                    </g>
                </g>
            </g>
        </g>
    </g>
</svg>