<?xml version="1.0" encoding="UTF-8"?>
<svg width="19px" height="19px" viewBox="0 0 19 19" version="1.1" xmlns="http://www.w3.org/2000/svg" xmlns:xlink="http://www.w3.org/1999/xlink">
    <!-- Generator: sketchtool 52.5 (67469) - http://www.bohemiancoding.com/sketch -->
    <title>AA695A15-6EF8-4A92-8310-9F9E61B72714</title>
    <desc>Created with sketchtool.</desc>
    <g id="Page-1" stroke="none" stroke-width="1" fill="none" fill-rule="evenodd" stroke-linecap="round" stroke-linejoin="round">
        <g id="AU-New" transform="translate(-1077.000000, -14.000000)" stroke="#4D565A">
            <g id="heder" transform="translate(-2.000000, 0.000000)">
                <path d="M1096.99947,27.7269932 L1096.99947,30.2861907 C1097.00375,31.2279754 1096.24045,31.9957347 1095.29681,32 C1095.24296,32 1095.18996,31.9974408 1095.13611,31.9923224 C1092.50604,31.7073984 1089.97939,30.8099731 1087.7596,29.3742633 C1085.69452,28.0648072 1083.94313,26.3168753 1082.63108,24.2558682 C1081.18655,22.0302194 1080.28735,19.4966139 1080.00699,16.8589343 C1079.92237,15.9205619 1080.61558,15.0913818 1081.5558,15.0060753 C1081.60623,15.0018099 1081.65666,15.0001038 1081.70795,15.0001038 L1084.27221,15.0001038 C1085.13038,14.9907201 1085.86205,15.6185765 1085.98171,16.466524 C1086.09027,17.2854672 1086.29113,18.0899083 1086.58004,18.863639 C1086.8151,19.4872302 1086.66466,20.1901564 1086.1954,20.663608 L1085.10987,21.7470016 C1086.32703,23.8830785 1088.09808,25.6506309 1090.23838,26.8653967 L1091.32392,25.7828561 C1091.7983,25.3136699 1092.50262,25.1643834 1093.12745,25.3989765 C1093.90271,25.6873127 1094.70874,25.8877832 1095.5293,25.9961226 C1096.38833,26.1164049 1097.02084,26.8611313 1096.99947,27.7269932 Z" id="Stroke-1"></path>
            </g>
        </g>
    </g>
</svg>