<?xml version="1.0" encoding="UTF-8"?>
<svg width="37px" height="39px" viewBox="0 0 37 39" version="1.1" xmlns="http://www.w3.org/2000/svg" xmlns:xlink="http://www.w3.org/1999/xlink">
    <!-- Generator: sketchtool 52.5 (67469) - http://www.bohemiancoding.com/sketch -->
    <title>7137022F-2565-4187-80B2-30840A6F1E0D</title>
    <desc>Created with sketchtool.</desc>
    <defs>
        <polygon id="path-1" points="0.599018182 0.450784848 16.7853364 0.450784848 16.7853364 26 0.599018182 26"></polygon>
    </defs>
    <g id="Page-1" stroke="none" stroke-width="1" fill="none" fill-rule="evenodd">
        <g id="AU-New" transform="translate(-253.000000, -3225.000000)">
            <g id="Group-13-Copy-3" transform="translate(253.000000, 3225.000000)">
                <g id="Group-6-Copy">
                    <path d="M28.5224839,27 C33.2548394,26.6394902 37,22.5942892 37,17.7913933 C37,13.7750643 34.2261884,10.0560388 30.4041756,8.94875871 L30.0286296,8.84029363 L29.9589079,8.46183636 C29.0541113,3.55905899 24.6846253,0 19.5695931,0 C15.8268094,0 12.4144111,1.87355857 10.4431906,5.01046213 L10.2570021,5.30620502 L9.90364026,5.30620502 C9.71982869,5.30620502 9.53522484,5.28591659 9.35062099,5.26328719 C9.21751606,5.24690038 9.08520343,5.22895292 8.95289079,5.22895292 C5.80749465,5.22895292 3.248394,7.74940031 3.248394,10.8472877 C3.248394,11.1250831 3.248394,11.4723274 3.30860814,11.709546 L3.41002141,12.106731 L3.08042827,12.3556545 C1.15199143,13.8172018 0,16.1410075 0,18.5717176 C0,22.9477761 3.42190578,26.6238837 7.62817987,26.7659027 C8.07740899,26.7659027 8.51396146,26.3796422 8.56070664,25.9223722 C8.55753747,25.5212855 8.16535332,25.0913268 7.70107066,25.0452877 C4.4851606,24.875177 1.74383298,21.8389353 1.74383298,18.4164331 C1.74383298,16.2026531 2.92593148,14.1933181 4.90745182,13.0407792 C5.33528908,12.8277506 5.36777302,12.4087165 5.27269807,12.0926852 C5.09126338,11.7150082 4.99222698,11.247594 4.99222698,10.7692552 C4.99222698,8.53752782 6.76695931,6.78960146 9.03211991,6.78960146 C9.44252677,6.78960146 9.92027837,6.88870264 10.3774304,7.06817722 C10.8203212,7.19771105 11.2798501,7.02135776 11.4636617,6.6140285 C13.050621,3.48804948 16.1516488,1.56142886 19.5695931,1.56142886 C24.199743,1.56142886 28.0130407,4.99251467 28.4408779,9.54102483 C28.4907923,9.97956706 28.7047109,10.2214676 29.1349251,10.3151065 C32.6693362,10.9089333 35.2569593,14.0232074 35.2569593,17.7141412 C35.2569593,21.5486547 32.1194861,24.9422849 28.2626124,25.2809456 C27.8585439,25.3207422 27.4402141,25.6141441 27.4901285,26.1634924 C27.5368737,26.6714835 27.8799358,27 28.364818,27 L28.5224839,27 Z" id="Fill-1" fill="#9EB0BA"></path>
                    <g id="Group-5" transform="translate(9.000000, 13.000000)">
                        <mask id="mask-2" fill="white">
                            <use xlink:href="#path-1"></use>
                        </mask>
                        <g id="Clip-4"></g>
                        <path d="M13.2910636,13.7086182 L13.2910636,3.28419394 L15.4284273,5.46346667 C15.5644273,5.60213333 15.7552909,5.67304242 15.9956091,5.67304242 C16.2444273,5.67304242 16.4638818,5.56431515 16.5627909,5.46346667 C16.8595182,5.16013333 16.8595182,4.60861818 16.5627909,4.30528485 L13.0090182,0.681830303 C12.7053364,0.373769697 12.1760182,0.373769697 11.8738818,0.681830303 L8.31856364,4.30528485 C8.02260909,4.60861818 8.02260909,5.16013333 8.31933636,5.46346667 C8.61683636,5.76601212 9.15697273,5.76522424 9.45447273,5.46346667 L11.5910636,3.28419394 L11.5910636,12.9207394 L4.94560909,12.9207394 C4.51674545,12.9207394 4.09560909,13.3501333 4.09560909,13.7881939 L4.09560909,23.1883758 L1.95824545,21.009103 C1.81606364,20.8633455 1.60897273,20.7798303 1.39106364,20.7798303 C1.17315455,20.7798303 0.966836364,20.8633455 0.823881818,21.009103 C0.680927273,21.1548606 0.599018182,21.3660121 0.599018182,21.5874061 C0.599018182,21.8095879 0.680927273,22.0207394 0.823881818,22.166497 L4.37842727,25.7907394 C4.51674545,25.9317697 4.7022,26.0003152 4.94560909,26.0003152 C5.19442727,26.0003152 5.41388182,25.8915879 5.51279091,25.7907394 L9.06810909,22.166497 C9.36483636,21.8639515 9.36483636,21.3116485 9.06733636,21.009103 C8.7822,20.7175879 8.21810909,20.7175879 7.93297273,21.009103 L5.79560909,23.1883758 L5.79560909,14.5760727 L12.4410636,14.5760727 C12.8699273,14.5760727 13.2910636,14.1466788 13.2910636,13.7086182" id="Fill-3" fill="#9EB0BA" mask="url(#mask-2)"></path>
                    </g>
                </g>
            </g>
        </g>
    </g>
</svg>