<?xml version="1.0" encoding="UTF-8"?>
<svg width="497px" height="252px" viewBox="0 0 497 252" version="1.1" xmlns="http://www.w3.org/2000/svg" xmlns:xlink="http://www.w3.org/1999/xlink">
    <!-- Generator: sketchtool 52.5 (67469) - http://www.bohemiancoding.com/sketch -->
    <title>761CC39C-A4E7-432B-8B5B-92181180830E</title>
    <desc>Created with sketchtool.</desc>
    <defs>
        <polygon id="path-1" points="0.42675 0.118914286 3.82275 0.118914286 3.82275 4 0.42675 4"></polygon>
        <polygon id="path-3" points="0.187742585 0.389976244 3.96888889 0.389976244 3.96888889 3.792876 0.187742585 3.792876"></polygon>
    </defs>
    <g id="-Page1" stroke="none" stroke-width="1" fill="none" fill-rule="evenodd">
        <g id="NBN-Explained" transform="translate(-786.000000, -6847.000000)">
            <g id="Group-284" transform="translate(786.000000, 6847.000000)">
                <path d="M55.3677221,86.2291746 C55.5005953,85.9186768 55.7034769,85.9243915 55.8182527,86.2420326 L56.4068951,87.8688124 C56.5216708,88.1864536 56.869808,88.5550506 57.1803216,88.687917 L58.7709896,89.3679643 C59.0815033,89.5008307 59.075312,89.7032257 58.7581309,89.8184718 L57.1312681,90.406608 C56.8136108,90.5218541 56.4454711,90.8699735 56.3121217,91.1799951 L55.6320397,92.7710581 C55.4991666,93.0815559 55.2967612,93.075365 55.1815092,92.7577239 L54.5928668,91.1309441 C54.4780911,90.8137791 54.1299539,90.4451821 53.8199165,90.3123157 L52.2287723,89.6322684 C51.9187349,89.499402 51.9244498,89.2965308 52.2421072,89.1817609 L53.86897,88.5931485 C54.1866274,88.4783786 54.554767,88.1302592 54.6876401,87.8197614 L55.3677221,86.2291746 Z" id="Fill-1" fill="#EDEDED"></path>
                <path d="M252.368084,86.2291746 C252.500476,85.9186768 252.703351,85.9243915 252.818123,86.2420326 L253.407221,87.8688124 C253.521993,88.1864536 253.869642,88.5550506 254.180145,88.687917 L255.771236,89.3679643 C256.081262,89.5008307 256.075548,89.7032257 255.757901,89.8184718 L254.131094,90.406608 C253.813447,90.5218541 253.44532,90.8699735 253.312451,91.1799951 L252.631916,92.7710581 C252.499048,93.0815559 252.296649,93.075365 252.181401,92.7577239 L251.592779,91.1309441 C251.478483,90.8137791 251.129881,90.4451821 250.819855,90.3123157 L249.228764,89.6322684 C248.918738,89.499402 248.924452,89.2965308 249.242099,89.1817609 L250.868906,88.5931485 C251.186553,88.4783786 251.55468,88.1302592 251.687549,87.8197614 L252.368084,86.2291746 Z" id="Fill-3" fill="#EDEDED"></path>
                <path d="M455.367846,109.229408 C455.500714,108.91891 455.703113,108.924148 455.817885,109.24179 L456.406983,110.868572 C456.521755,111.186214 456.869404,111.554811 457.180384,111.687678 L458.770997,112.368202 C459.0815,112.500593 459.075309,112.703464 458.758139,112.818234 L457.130855,113.406848 C456.813685,113.522094 456.445082,113.869738 456.312213,114.180236 L455.632154,115.770825 C455.498809,116.081323 455.296887,116.075609 455.181639,115.757967 L454.593017,114.131185 C454.478245,113.813543 454.13012,113.445422 453.819616,113.312079 L452.229003,112.632031 C451.9185,112.499164 451.924691,112.296292 452.241861,112.181522 L453.869145,111.592909 C454.186791,111.478139 454.554918,111.130019 454.687311,110.819997 L455.367846,109.229408 Z" id="Fill-5" fill="#FFFFFF"></path>
                <path d="M166.368168,61.2291746 C166.500564,60.9186768 166.703444,60.9243915 166.818219,61.2420326 L167.406856,62.8688124 C167.522107,63.1864536 167.869765,63.5550506 168.180276,63.687917 L169.771406,64.3679643 C170.08144,64.5008307 170.075249,64.7032257 169.758071,64.8184718 L168.131222,65.406608 C167.813568,65.5218541 167.445432,65.8699735 167.312083,66.1799951 L166.632007,67.7710581 C166.499135,68.0815559 166.296732,68.075365 166.181481,67.7577239 L165.592844,66.1309441 C165.478069,65.8137791 165.129935,65.4451821 164.8199,65.3123157 L163.22877,64.6322684 C162.918736,64.499402 162.924451,64.2965308 163.242105,64.1817609 L164.868953,63.5931485 C165.186608,63.4783786 165.554744,63.1302592 165.687616,62.8197614 L166.368168,61.2291746 Z" id="Fill-7" fill="#EDEDED"></path>
                <path d="M44.000249,175 C40.1403265,175 37,171.672686 37,167.582928 C37,166.708624 37.6692989,166 38.4939708,166 C39.3196386,166 39.9879415,166.708624 39.9879415,167.582928 C39.9879415,169.927244 41.7881763,171.834144 44.000249,171.834144 C46.2118237,171.834144 48.0120585,169.927244 48.0120585,167.582928 C48.0120585,166.708624 48.6803614,166 49.5060292,166 C50.3307011,166 51,166.708624 51,167.582928 C51,171.672686 47.8596735,175 44.000249,175" id="Fill-9" fill="#E8E8E8"></path>
                <path d="M56.000249,175 C52.1403265,175 49,171.672686 49,167.582928 C49,166.708624 49.6688009,166 50.4939708,166 C51.3191406,166 51.9879415,166.708624 51.9879415,167.582928 C51.9879415,169.927244 53.7881763,171.834144 56.000249,171.834144 C58.2118237,171.834144 60.0120585,169.927244 60.0120585,167.582928 C60.0120585,166.708624 60.6803614,166 61.5060292,166 C62.3307011,166 63,166.708624 63,167.582928 C63,171.672686 59.8596735,175 56.000249,175" id="Fill-11" fill="#E8E8E8"></path>
                <path d="M66.000249,175 C62.1403265,175 59,171.672686 59,167.582928 C59,166.708624 59.6688009,166 60.4939708,166 C61.3191406,166 61.9879415,166.708624 61.9879415,167.582928 C61.9879415,169.927244 63.7881763,171.834144 66.000249,171.834144 C68.2123217,171.834144 70.0120585,169.927244 70.0120585,167.582928 C70.0120585,166.708624 70.6808594,166 71.5060292,166 C72.3311991,166 73,166.708624 73,167.582928 C73,171.672686 69.8596735,175 66.000249,175" id="Fill-13" fill="#E8E8E8"></path>
                <path d="M77.000249,175 C73.1403265,175 70,171.672686 70,167.582928 C70,166.708624 70.6692989,166 71.4939708,166 C72.3196386,166 72.9879415,166.708624 72.9879415,167.582928 C72.9879415,169.927244 74.7881763,171.834144 77.000249,171.834144 C79.2118237,171.834144 81.0120585,169.927244 81.0120585,167.582928 C81.0120585,166.708624 81.6803614,166 82.5060292,166 C83.3307011,166 84,166.708624 84,167.582928 C84,171.672686 80.8596735,175 77.000249,175" id="Fill-15" fill="#E8E8E8"></path>
                <path d="M87.999751,175 C84.1403265,175 81,171.672686 81,167.582928 C81,166.708624 81.6688009,166 82.4939708,166 C83.3191406,166 83.9879415,166.708624 83.9879415,167.582928 C83.9879415,169.927244 85.7876783,171.834144 87.999751,171.834144 C90.2118237,171.834144 92.0120585,169.927244 92.0120585,167.582928 C92.0120585,166.708624 92.6803614,166 93.5060292,166 C94.3307011,166 95,166.708624 95,167.582928 C95,171.672686 91.8596735,175 87.999751,175" id="Fill-17" fill="#E8E8E8"></path>
                <path d="M376.475231,179 L360.983903,179 C360.160387,179 359.493826,178.326206 359.493826,177.494875 L359.493826,105.616145 L351.367944,105.616145 C350.545422,105.616145 349.877868,104.942351 349.877868,104.111021 L349.877868,68.3843802 L346.026021,68.3843802 C345.203002,68.3843802 344.535945,67.710586 344.535945,66.8792556 L344.535945,56.0102492 L341.64023,56.0102492 L341.64023,66.8792556 C341.64023,67.710586 340.972676,68.3843802 340.150154,68.3843802 L336.297811,68.3843802 L336.297811,81.4483599 C336.297811,82.2791887 335.63125,82.9534845 334.807734,82.9534845 L327.209339,82.9534845 L327.209339,140.564135 C327.209339,141.395466 326.541785,142.06926 325.719263,142.06926 L316.551818,142.06926 L316.551818,162.386435 C316.551818,163.217765 315.88476,163.891559 315.061742,163.891559 L301.044595,163.891559 C300.222073,163.891559 299.554519,163.217765 299.554519,162.386435 L299.554519,78.0969491 L289.394186,78.0969491 L289.394186,115.981939 C289.394186,116.813269 288.727129,117.487063 287.90411,117.487063 L270.581478,117.487063 L270.581478,141.272547 C270.581478,142.103877 269.913923,142.777672 269.091401,142.777672 L264.259581,142.777672 L264.259581,147.322144 C264.259581,147.752108 264.077792,148.161502 263.759412,148.447476 C263.441529,148.731944 263.019838,148.865901 262.595663,148.817235 C255.555053,147.982894 243.76259,153.343145 243.64388,153.397831 C243.186924,153.608046 242.654966,153.569917 242.230791,153.298492 C239.306765,151.428626 235.482733,151.292161 235.444488,151.291158 C234.970644,151.27711 234.531071,151.03629 234.261864,150.642951 C233.99216,150.248608 233.92312,149.748907 234.077591,149.296868 L238.183745,137.248346 C221.800357,134.197458 209.498288,142.431493 209.371632,142.517787 C208.707058,142.972836 207.802581,142.813795 207.330227,142.157059 C201.742938,134.393626 192.357445,123.885849 179.371928,117.91803 C174.396564,115.631244 170.373358,114.7076 168.111919,114.337841 L172.165423,131.513821 C172.309463,132.1244 172.062608,132.761569 171.547041,133.111761 C171.030978,133.461452 170.354484,133.45192 169.847858,133.086174 C163.880599,128.768975 155.638491,127.878945 152.183501,127.69833 L153.122249,137.088301 C153.174899,137.610077 152.953871,138.12182 152.540126,138.438899 C152.126382,138.755477 151.579524,138.831737 151.095746,138.641088 C143.03195,135.44621 135.33223,135.93086 131.939326,136.384404 L138.360065,150.851662 C138.579106,151.345844 138.518509,151.921303 138.201123,152.35779 C137.883737,152.795279 137.357243,153.024058 136.825783,152.962348 C134.699941,152.706477 129.647589,154.772511 126.172235,156.483336 C126.86959,156.608763 127.399064,157.224359 127.399064,157.96488 L127.399064,161.437705 C127.399064,162.269035 126.732503,162.942829 125.908988,162.942829 L124.405004,162.942829 L124.405004,166.030843 C124.405004,166.862675 123.73745,167.535968 122.914928,167.535968 L121.853994,167.535968 L121.853994,168.054232 C121.853994,168.885563 121.18644,169.559357 120.363918,169.559357 L95.4900762,169.559357 C94.6670574,169.559357 94,168.885563 94,168.054232 C94,167.2224 94.6670574,166.549108 95.4900762,166.549108 L118.873842,166.549108 L118.873842,166.030843 C118.873842,165.199513 119.540899,164.525719 120.363918,164.525719 L121.424852,164.525719 L121.424852,161.437705 C121.424852,160.606374 122.09191,159.93258 122.914928,159.93258 L124.418912,159.93258 L124.418912,159.470005 L124.134804,159.470005 C123.311785,159.470005 122.644728,158.796211 122.644728,157.96488 L122.644728,155.836133 C122.644728,155.276728 122.951683,154.762979 123.442415,154.503094 C124.25103,154.074635 130.363322,150.890795 134.764014,150.108632 L128.43119,135.839047 C128.248904,135.427647 128.258341,134.956543 128.456522,134.553671 C128.654702,134.150297 129.020764,133.857802 129.454873,133.756457 C129.874081,133.658623 139.222819,131.54593 149.920572,135.023771 L149.047884,126.300069 C149.006162,125.881645 149.139772,125.464223 149.415933,125.149652 C149.692591,124.835081 150.086964,124.651456 150.503192,124.643931 C150.951705,124.630384 160.381404,124.514992 168.439736,128.708269 L164.719015,112.94259 C164.611233,112.486036 164.721002,112.004396 165.015541,111.640657 C165.309582,111.276919 165.757102,111.073226 166.220516,111.089782 C166.459921,111.097809 172.181814,111.339131 180.437332,115.100939 C187.780924,118.447333 198.603844,125.343813 208.922125,139.266718 C212.725793,137.053181 224.901206,131.081348 240.474488,134.651504 C240.887239,134.746327 241.240388,135.013737 241.446515,135.38751 C241.652145,135.760781 241.690887,136.205294 241.552807,136.609671 L237.50427,148.489619 C239.005273,148.728433 241.139559,149.242182 243.126327,150.339919 C245.697702,149.226629 254.515973,145.641924 261.279429,145.722699 L261.279429,141.272547 C261.279429,140.441217 261.946486,139.767422 262.769505,139.767422 L267.601325,139.767422 L267.601325,115.981939 C267.601325,115.150106 268.268383,114.476814 269.091401,114.476814 L286.414034,114.476814 L286.414034,76.5918245 C286.414034,75.7609958 287.081091,75.0867 287.90411,75.0867 L301.044595,75.0867 C301.867614,75.0867 302.534671,75.7609958 302.534671,76.5918245 L302.534671,160.88131 L313.571665,160.88131 L313.571665,140.564135 C313.571665,139.732303 314.238723,139.05901 315.061742,139.05901 L324.229187,139.05901 L324.229187,81.4483599 C324.229187,80.6170294 324.895748,79.9432353 325.719263,79.9432353 L333.317658,79.9432353 L333.317658,66.8792556 C333.317658,66.0479251 333.985212,65.374131 334.807734,65.374131 L338.660078,65.374131 L338.660078,54.5051246 C338.660078,53.6742958 339.327135,53 340.150154,53 L346.026021,53 C346.84904,53 347.516097,53.6742958 347.516097,54.5051246 L347.516097,65.374131 L351.367944,65.374131 C352.190963,65.374131 352.858021,66.0479251 352.858021,66.8792556 L352.858021,102.605896 L360.983903,102.605896 C361.806425,102.605896 362.473979,103.27969 362.473979,104.111021 L362.473979,175.989751 L374.985155,175.989751 L374.985155,160.228086 C374.985155,159.396756 375.652212,158.722962 376.475231,158.722962 L390.476484,158.722962 L390.476484,144.039969 C390.476484,143.208639 391.143541,142.534845 391.96656,142.534845 L395.818407,142.534845 L395.818407,122.996321 C395.818407,122.16499 396.485464,121.491196 397.308483,121.491196 L411.197483,121.491196 C412.020005,121.491196 412.687559,122.16499 412.687559,122.996321 L412.687559,165.239148 L439.509924,165.239148 C440.332446,165.239148 441,165.912942 441,166.744272 C441,167.575603 440.332446,168.249397 439.509924,168.249397 L411.197483,168.249397 C410.374464,168.249397 409.707407,167.575603 409.707407,166.744272 L409.707407,124.501445 L398.798559,124.501445 L398.798559,144.039969 C398.798559,144.871802 398.131502,145.545094 397.308483,145.545094 L393.456636,145.545094 L393.456636,160.228086 C393.456636,161.059417 392.789579,161.733211 391.96656,161.733211 L377.965307,161.733211 L377.965307,177.494875 C377.965307,178.326206 377.297753,179 376.475231,179" id="Fill-19" fill="#E8E8E8"></path>
                <path d="M126,174.5 L114,174.5" id="Fill-21" fill="#65EFDB"></path>
                <path d="M124.561105,176 L112.438895,176 C111.644145,176 111,175.3285 111,174.5 C111,173.6715 111.644145,173 112.438895,173 L124.561105,173 C125.355375,173 126,173.6715 126,174.5 C126,175.3285 125.355375,176 124.561105,176" id="Fill-23" fill="#E8E8E8"></path>
                <path d="M351.5,114 L351.5,147" id="Fill-25" fill="#65EFDB"></path>
                <path d="M351.5,149 C350.6715,149 350,148.329542 350,147.502327 L350,113.497673 C350,112.670458 350.6715,112 351.5,112 C352.328,112 353,112.670458 353,113.497673 L353,147.502327 C353,148.329542 352.328,149 351.5,149" id="Fill-27" fill="#E8E8E8"></path>
                <path d="M331.5,88 L331.5,121" id="Fill-29" fill="#65EFDB"></path>
                <path d="M331.5,123 C330.6715,123 330,122.329542 330,121.502327 L330,87.4976725 C330,86.6704581 330.6715,86 331.5,86 C332.328,86 333,86.6704581 333,87.4976725 L333,121.502327 C333,122.329542 332.328,123 331.5,123" id="Fill-31" fill="#E8E8E8"></path>
                <path d="M275.5,123 L275.5,146" id="Fill-33" fill="#65EFDB"></path>
                <path d="M275.5,147 C274.6715,147 274,146.343867 274,145.534326 L274,123.465674 C274,122.656133 274.6715,122 275.5,122 C276.328,122 277,122.656133 277,123.465674 L277,145.534326 C277,146.343867 276.328,147 275.5,147" id="Fill-35" fill="#E8E8E8"></path>
                <path d="M282.5,138 L282.5,152" id="Fill-37" fill="#65EFDB"></path>
                <path d="M282.5,154 C281.6715,154 281,153.313271 281,152.465981 L281,138.534019 C281,137.686729 281.6715,137 282.5,137 C283.328,137 284,137.686729 284,138.534019 L284,152.465981 C284,153.313271 283.328,154 282.5,154" id="Fill-39" fill="#E8E8E8"></path>
                <path d="M155.485068,155 C155.040447,155 154.599867,154.806849 154.300253,154.435096 C142.809823,140.173028 129.31607,137.003847 129.180662,136.973244 C128.364681,136.789625 127.852861,135.98391 128.037783,135.172676 C128.2222,134.361943 129.033634,133.853229 129.850626,134.037851 C130.443791,134.170799 144.52111,137.478447 156.667862,152.554759 C157.190797,153.203947 157.084695,154.151139 156.430899,154.670389 C156.151495,154.892136 155.817018,155 155.485068,155" id="Fill-41" fill="#E8E8E8"></path>
                <path d="M445,167.5 L456,167.5" id="Fill-43" fill="#65EFDB"></path>
                <path d="M454.296765,168 L444.703235,168 C444.315049,168 444,167.552 444,167 C444,166.448 444.315049,166 444.703235,166 L454.296765,166 C454.68542,166 455,166.448 455,167 C455,167.552 454.68542,168 454.296765,168" id="Fill-45" fill="#E8E8E8"></path>
                <path d="M435.721044,176 L406.278956,176 C405.572461,176 405,175.3286 405,174.5 C405,173.6714 405.572461,173 406.278956,173 L435.721044,173 C436.427539,173 437,173.6714 437,174.5 C437,175.3286 436.427539,176 435.721044,176" id="Fill-47" fill="#E8E8E8"></path>
                <path d="M427.999749,90.5058981 C427.176023,90.5058981 426.505898,91.1760228 426.505898,91.999749 C426.505898,92.8234753 427.176023,93.4941019 427.999749,93.4941019 C428.823977,93.4941019 429.494102,92.8234753 429.494102,91.999749 C429.494102,91.1760228 428.823977,90.5058981 427.999749,90.5058981 M427.999749,95 C426.345771,95 425,93.6537271 425,91.999749 C425,90.3457709 426.345771,89 427.999749,89 C429.654229,89 431,90.3457709 431,91.999749 C431,93.6537271 429.654229,95 427.999749,95" id="Fill-49" fill="#E89215"></path>
                <path d="M389,67.4785609 C388.712666,67.4785609 388.478561,67.7126663 388.478561,68 C388.478561,68.2873337 388.712666,68.5214391 389,68.5214391 C389.287334,68.5214391 389.521439,68.2873337 389.521439,68 C389.521439,67.7126663 389.287334,67.4785609 389,67.4785609 M389,70 C387.897486,70 387,69.1025136 387,68 C387,66.8969936 387.897486,66 389,66 C390.102514,66 391,66.8969936 391,68 C391,69.1025136 390.102514,70 389,70" id="Fill-51" fill="#E89215"></path>
                <path d="M214.000187,99.4052839 C213.517099,99.4052839 213.124332,99.8961964 213.124332,100.5 C213.124332,101.103335 213.517099,101.594716 214.000187,101.594716 C214.482901,101.594716 214.875668,101.103335 214.875668,100.5 C214.875668,99.8961964 214.482901,99.4052839 214.000187,99.4052839 M214.000187,103 C212.897217,103 212,101.878583 212,100.5 C212,99.1214165 212.897217,98 214.000187,98 C215.102783,98 216,99.1214165 216,100.5 C216,101.878583 215.102783,103 214.000187,103" id="Fill-53" fill="#E89215"></path>
                <path d="M99,134.381534 C98.6592217,134.381534 98.3815335,134.659222 98.3815335,135 C98.3815335,135.340778 98.6592217,135.618466 99,135.618466 C99.3407783,135.618466 99.6184665,135.340778 99.6184665,135 C99.6184665,134.659222 99.3407783,134.381534 99,134.381534 M99,137 C97.8970758,137 97,136.102464 97,135 C97,133.897076 97.8970758,133 99,133 C100.102924,133 101,133.897076 101,135 C101,136.102464 100.102924,137 99,137" id="Fill-55" fill="#E89215"></path>
                <path d="M44.999783,147.302083 C44.6147585,147.302083 44.3022246,147.615451 44.3022246,148 C44.3022246,148.384983 44.6147585,148.697917 44.999783,148.697917 C45.3848074,148.697917 45.6977754,148.384983 45.6977754,148 C45.6977754,147.615451 45.3848074,147.302083 44.999783,147.302083 M44.999783,150 C43.8967987,150 43,149.102865 43,148 C43,146.897135 43.8967987,146 44.999783,146 C46.1027672,146 47,146.897135 47,148 C47,149.102865 46.1027672,150 44.999783,150" id="Fill-57" fill="#E89215"></path>
                <path d="M334.5,173.544118 C333.421176,173.544118 332.544118,174.421176 332.544118,175.5 C332.544118,176.578824 333.421176,177.455882 334.5,177.455882 C335.578309,177.455882 336.455882,176.578824 336.455882,175.5 C336.455882,174.421176 335.578309,173.544118 334.5,173.544118 M334.5,179 C332.569853,179 331,177.429632 331,175.5 C331,173.570368 332.569853,172 334.5,172 C336.429632,172 338,173.570368 338,175.5 C338,177.429632 336.429632,179 334.5,179" id="Fill-59" fill="#E89215"></path>
                <path d="M347,113 C353.627327,113 359,118.148705 359,124.499761 C359,130.851295 353.627327,136 347,136 C340.372673,136 335,130.851295 335,124.499761 C335,118.148705 340.372673,113 347,113" id="Fill-61" fill="#FFFFFF"></path>
                <path d="M182,49 L183.94207,49 C183.94207,45.1042458 187.103434,41.9421816 191,41.9421816 L191,40 C186.037911,40 182,44.026234 182,49" id="Fill-63" fill="#E0E0E0"></path>
                <path d="M182.49301,48.5104172 L183.840831,48.5104172 C183.967144,44.8894631 186.889463,41.9671436 190.510417,41.8408312 L190.510417,40.4934994 C186.146766,40.6207909 182.620791,44.146766 182.49301,48.5104172 Z M184.326008,49 L182,49 L182,48.7552086 C182,43.927433 185.927433,40 190.755209,40 L191,40 L191,42.3260077 L190.755209,42.3260077 C187.21014,42.3260077 184.326008,45.2101398 184.326008,48.7552086 L184.326008,49 Z" id="Fill-65" fill="#E0E0E0"></path>
                <path d="M223.426361,56.2918756 L221.496402,56.2918756 L221.496402,56.2572718 C221.496402,51.9904714 218.096654,48.5150451 213.922763,48.5150451 L213.832496,48.5150451 C213.372818,43.6058175 209.311271,39.7632899 204.396108,39.7632899 C203.375202,39.7632899 202.376863,39.9353059 201.411884,40.2562688 C199.448076,38.3635908 196.979456,37.2166499 194.331282,36.9302909 C196.306374,34.4177533 199.301881,32.8921765 202.488717,32.8921765 C207.829707,32.8921765 210.455804,36.6203611 210.455804,36.6203611 C210.455804,36.6203611 211.813251,35.8059178 213.900196,35.8059178 C218.107937,35.8059178 221.541046,39.3044132 221.541046,43.6173521 L221.541046,44.557673 L223.415568,44.557673 C226.579346,44.557673 229.149026,47.1845537 229.149026,50.4192578 C229.160309,53.6534604 226.590629,56.2918756 223.426361,56.2918756 M213.910989,62.1188566 L181.573639,62.1188566 C178.409371,62.1188566 175.840181,59.4919759 175.840181,56.2572718 C175.840181,53.0225677 178.409371,50.3961886 181.573639,50.3961886 L182.493485,50.3961886 L182.493485,49.4553661 C182.493485,43.5366098 187.206527,38.7306921 192.985119,38.7306921 C198.011645,38.7306921 200.951226,42.4588766 200.951226,42.4588766 C200.951226,42.4588766 202.488717,41.6439318 204.396108,41.6439318 C208.603849,41.6439318 212.037448,45.1429288 212.037448,49.4553661 L212.037448,50.3961886 L213.910989,50.3961886 C217.075748,50.3961886 219.644938,53.0225677 219.644938,56.2572718 C219.656221,59.4919759 217.075748,62.1188566 213.910989,62.1188566 M223.426361,42.6765296 L223.347867,42.6765296 C222.887699,37.7673019 218.825662,33.9247743 213.910989,33.9247743 C212.890083,33.9247743 211.891254,34.0967904 210.926765,34.4177533 C208.626416,32.2156469 205.664268,31 202.5,31 C198.29275,31 194.353849,33.2367101 192.098633,36.8726179 C185.994294,37.3199599 181.113471,42.3094283 180.687154,48.5496489 C176.928788,49.0200602 174,52.2888666 174,56.2572718 C174,60.5240722 177.399749,64 181.573639,64 L213.910989,64 C217.446139,64 220.408287,61.5110331 221.249639,58.1614845 L223.426361,58.1614845 C227.600251,58.1614845 231,54.6860582 231,50.4192578 C231,46.1519559 227.600251,42.6765296 223.426361,42.6765296" id="Fill-67" fill="#E0E0E0"></path>
                <path d="M222.243948,55.9132661 L223.975348,55.9132661 C225.478176,55.9132661 226.890886,55.3367714 227.954697,54.2890033 C229.019012,53.2412353 229.602019,51.8516212 229.596481,50.3765456 C229.596481,47.328089 227.070118,44.8492111 223.964271,44.8492111 L221.789323,44.8492111 L221.789323,43.6754738 C221.789323,39.5688752 218.384422,36.2279722 214.199157,36.2279722 C212.158633,36.2279722 210.804828,36.9887279 210.791235,36.9966318 L210.593878,37.1092632 L210.460461,36.9274722 C210.433778,36.8919044 207.767956,33.3583426 202.488672,33.3583426 C199.512215,33.3583426 196.599698,34.6738571 194.607506,36.8993144 C197.178174,37.2574624 199.531347,38.3531481 201.447013,40.0855962 C202.436312,39.784752 203.44424,39.6321068 204.446125,39.6321068 C209.541646,39.6321068 213.762153,43.3232538 214.35674,48.2538397 C218.646725,48.3234933 222.129159,51.713796 222.243948,55.9132661 Z M223.975348,56.4072633 L221.743508,56.4072633 L221.743508,56.1602647 C221.743508,52.057124 218.369821,48.7468489 214.222316,48.7468489 L213.901612,48.7468489 L213.879963,48.5235622 C213.412249,43.7362354 209.356876,40.126104 204.446125,40.126104 C203.449778,40.126104 202.445375,40.2856651 201.46111,40.5998473 L201.318631,40.6452951 L201.210387,40.5445196 C199.242361,38.723646 196.78044,37.6136343 194.090452,37.3340319 L193.632303,37.2861142 L193.920786,36.9338942 C196.038843,34.3473249 199.161807,32.8643454 202.488672,32.8643454 C207.418051,32.8643454 210.115591,35.7240951 210.73384,36.4685488 C211.199541,36.2452621 212.455171,35.733975 214.199157,35.733975 C218.662332,35.733975 222.292783,39.2966827 222.292783,43.6754738 L222.292783,44.3552139 L223.964271,44.3552139 C227.347524,44.3552139 230.099941,47.0558965 230.099941,50.3755576 C230.105983,51.9825305 229.470616,53.4966318 228.31165,54.6377653 C227.152685,55.7788988 225.6126,56.4072633 223.975348,56.4072633 Z M181.024652,50.5998323 C177.918806,50.5998323 175.39194,53.0792042 175.39194,56.1266729 C175.39194,59.1741415 177.918806,61.6530194 181.024652,61.6530194 L214.210737,61.6530194 C215.720614,61.6530194 217.139868,61.0745487 218.2067,60.0238167 C219.267491,58.9795066 219.848484,57.5958205 219.842946,56.1276608 C219.842946,53.0792042 217.316583,50.5998323 214.210737,50.5998323 L212.036292,50.5998323 L212.036292,49.426589 C212.036292,45.3199904 208.63139,41.9790875 204.446125,41.9790875 C202.571743,41.9790875 201.042231,42.7457711 201.026624,42.753675 L200.844371,42.8465465 L200.714982,42.6894554 C200.685781,42.6538876 197.70731,39.1089638 192.735641,39.1089638 C186.937289,39.1089638 182.220371,43.7377174 182.220371,49.426589 L182.220371,50.5998323 L181.024652,50.5998323 Z M214.210737,62.1470166 L181.024652,62.1470166 C177.640896,62.1470166 174.888479,59.4463339 174.888479,56.1266729 C174.888479,52.8065178 177.640896,50.1058352 181.024652,50.1058352 L181.71691,50.1058352 L181.71691,49.426589 C181.71691,43.465031 186.659883,38.6149666 192.735641,38.6149666 C197.417317,38.6149666 200.334869,41.5211521 200.976781,42.230038 C201.454565,42.0171252 202.814411,41.4850903 204.446125,41.4850903 C208.9093,41.4850903 212.539752,45.047304 212.539752,49.426589 L212.539752,50.1058352 L214.210737,50.1058352 C217.594493,50.1058352 220.346406,52.8065178 220.346406,56.1266729 C220.352448,57.7262357 219.719095,59.2344091 218.56315,60.3720847 C217.401164,61.5166761 215.855541,62.1470166 214.210737,62.1470166 Z M202.499748,31.4939972 C198.306932,31.4939972 194.297878,33.6665968 192.038348,37.1640969 L191.969878,37.2693183 L191.843509,37.2782102 C185.727474,37.7084818 180.793061,42.5545942 180.366127,48.550732 L180.351526,48.7542589 L180.145611,48.7789587 C176.358583,49.2339301 173.50346,52.3925481 173.50346,56.1266729 C173.50346,60.1957277 176.877651,63.5060028 181.024652,63.5060028 L214.210737,63.5060028 C217.643328,63.5060028 220.639924,61.2173139 221.49782,57.9406305 L221.546152,57.7553816 L223.975348,57.7553816 C228.122853,57.7553816 231.49654,54.4446124 231.49654,50.3755576 C231.49654,46.3065028 228.122853,42.9962277 223.975348,42.9962277 L223.666223,42.9962277 L223.644574,42.7724469 C223.177363,37.9851202 219.121488,34.3749888 214.210737,34.3749888 C213.213382,34.3749888 212.208979,34.5345499 211.225721,34.8487321 L211.084249,34.8941798 L210.975501,34.7943924 C208.660088,32.6657585 205.649899,31.4939972 202.499748,31.4939972 Z M214.210737,64 L181.024652,64 C176.599741,64 173,60.4679201 173,56.1266729 C173,52.2107572 175.943228,48.8881321 179.879784,48.3155894 C180.414962,42.2092901 185.442516,37.2945121 191.681395,36.795081 C194.044637,33.2175534 198.178046,31 202.499748,31 C205.728942,31 208.816664,32.1831233 211.21112,34.334975 C212.20042,34.0336367 213.208851,33.8809916 214.210737,33.8809916 C219.305754,33.8809916 223.527268,37.5726326 224.121351,42.5032185 C228.479303,42.579788 232,46.0817341 232,50.3755576 C232,54.7172989 228.400763,58.2493788 223.975348,58.2493788 L221.93432,58.2493788 C220.9566,61.6451154 217.80796,64 214.210737,64 Z" id="Fill-69" fill="#E0E0E0"></path>
                <path d="M446,136 L448.157848,136 C448.157848,131.670877 451.670877,128.15735 456,128.15735 L456,126 C450.486771,126 446,130.473841 446,136" id="Fill-71" fill="#E0E0E0"></path>
                <path d="M445.524752,136.478895 L447.265242,136.478895 C447.40073,132.010943 451.009901,128.40073 455.478895,128.265242 L455.478895,126.52371 C450.051068,126.66024 445.661282,131.051068 445.524752,136.478895 Z M447.782178,137 L445,137 L445,136.739448 C445,130.818134 449.817613,126 455.739448,126 L456,126 L456,128.782178 L455.739448,128.782178 C451.352267,128.782178 447.782178,132.351746 447.782178,136.739448 L447.782178,137 Z" id="Fill-73" fill="#E0E0E0"></path>
                <path d="M489,145.907917 L489,145.867005 C489,140.833861 484.991428,136.734011 480.070341,136.734011 L479.964839,136.734011 C479.422329,130.942468 474.633243,126.409979 468.83864,126.409979 C467.634618,126.409979 466.457097,126.613002 465.319577,126.991946 C463.004536,124.759197 460.093484,123.406047 456.971428,123.068015 L454.339381,123 C447.142253,123.527759 441.38715,129.41391 440.884641,136.774411 C436.452562,137.329274 433,141.1857 433,145.867005 C433,150.900662 437.008572,155 441.929659,155 L480.05684,155 C484.224415,155 487.716977,152.064084 488.708995,148.11305 L489,145.907917 Z M480.05684,152.781059 L441.929659,152.781059 C438.199093,152.781059 435.169539,149.683031 435.169539,145.867005 C435.169539,142.051491 438.199093,138.952952 441.929659,138.952952 L443.014679,138.952952 L443.014679,137.843226 C443.014679,130.861668 448.571278,125.192348 455.3844,125.192348 C461.311006,125.192348 464.777067,129.58983 464.777067,129.58983 C464.777067,129.58983 466.5896,128.628919 468.83864,128.628919 C473.799729,128.628919 477.847801,132.755873 477.847801,137.843226 L477.847801,138.952952 L480.05684,138.952952 C483.787907,138.952952 486.817461,142.051491 486.817461,145.867005 C486.830461,149.683031 483.787907,152.781059 480.05684,152.781059 Z" id="Fill-75" fill="#E0E0E0"></path>
                <path d="M442.098427,139.20487 C438.540133,139.20487 435.645427,142.144529 435.645427,145.758699 C435.645427,149.372365 438.540133,152.313031 442.098427,152.313031 L479.888193,152.313031 C481.617781,152.313031 483.243792,151.626943 484.465902,150.380104 C485.681074,149.14132 486.347139,147.500346 486.340696,145.759202 C486.340696,142.144529 483.446486,139.20487 479.888193,139.20487 L477.450911,139.20487 L477.450911,137.860882 C477.450911,132.998364 473.556612,129.043415 468.768775,129.043415 C466.624878,129.043415 464.874971,129.950481 464.857626,129.960549 L464.678224,130.054678 L464.550859,129.894608 C464.516664,129.852325 461.11448,125.660291 455.433601,125.660291 C448.810121,125.660291 443.421636,131.133392 443.421636,137.860882 L443.421636,139.20487 L442.098427,139.20487 Z M479.888193,152.816397 L442.098427,152.816397 C438.267562,152.816397 435.149843,149.64972 435.149843,145.758699 C435.149843,141.867174 438.267562,138.701504 442.098427,138.701504 L442.926052,138.701504 L442.926052,137.860882 C442.926052,130.856037 448.537054,125.156924 455.433601,125.156924 C460.724951,125.156924 464.116728,128.648776 464.806085,129.426477 C465.320006,129.186875 466.884564,128.540049 468.768775,128.540049 C473.829183,128.540049 477.946495,132.721009 477.946495,137.860882 L477.946495,138.701504 L479.888193,138.701504 C483.719057,138.701504 486.83628,141.867174 486.83628,145.758699 C486.842723,147.634241 486.126108,149.402064 484.817271,150.735984 C483.501,152.076952 481.750597,152.816397 479.888193,152.816397 Z M454.391883,123.50236 C447.431406,124.010256 441.797607,129.739068 441.309952,136.826464 L441.29558,137.033348 L441.092887,137.058516 C436.761483,137.597622 433.495584,141.33713 433.495584,145.758699 C433.495584,150.576921 437.354697,154.496634 442.098427,154.496634 L479.888193,154.496634 C483.8152,154.496634 487.242659,151.787013 488.22342,147.906563 L488.504416,145.758699 C488.504416,140.939974 484.645303,137.02026 479.901078,137.02026 L479.571019,137.02026 L479.549709,136.793242 C479.015469,131.129365 474.381263,126.858806 468.768775,126.858806 C467.630914,126.858806 466.483141,127.047568 465.358166,127.419052 L465.217915,127.465362 L465.111365,127.363179 C462.863396,125.210785 460.052443,123.898509 456.980814,123.567294 L454.391883,123.50236 Z M479.888193,155 L442.098427,155 C437.08163,155 433,150.854275 433,145.758699 C433,141.152394 436.351635,137.244258 440.830723,136.585855 C441.428893,129.344932 447.2188,123.520984 454.379989,123 L457.013522,123.065438 C460.164445,123.4037 463.035363,124.72705 465.343794,126.895048 C466.474221,126.536148 467.625958,126.35544 468.768775,126.35544 C474.562647,126.35544 479.360396,130.707544 480.020018,136.517901 C484.982301,136.582835 489,140.703391 489,145.758699 L488.998018,145.83219 L488.709588,148.003209 C487.666383,152.134839 484.041187,155 479.888193,155 Z" id="Fill-77" fill="#E0E0E0"></path>
                <path d="M11,55 L13.1579086,55 C13.1579086,50.6709797 16.6709797,47.1579086 21,47.1579086 L21,45 C15.486929,45 11,49.4737259 11,55" id="Fill-79" fill="#E0E0E0"></path>
                <path d="M11.5051164,54.4983697 L13.0535714,54.4983697 C13.1839888,50.4517181 16.4514446,47.1835967 20.4983949,47.0536744 L20.4983949,45.5051417 C15.5977127,45.6360672 11.6360353,49.5974417 11.5051164,54.4983697 Z M13.5511637,55 L11,55 L11,54.7491849 C11,49.3737146 15.3734952,45 20.7491974,45 L21,45 L21,47.5512917 L20.7491974,47.5512917 C16.7804976,47.5512917 13.5511637,50.7802859 13.5511637,54.7491849 L13.5511637,55 Z" id="Fill-81" fill="#E0E0E0"></path>
                <path d="M54.6290365,62.824593 L52.4961008,62.824593 L52.4961008,62.7879714 C52.4961008,58.2625176 48.7384506,54.576431 44.1246395,54.576431 L44.0255837,54.576431 C43.5173626,49.3698154 39.0279935,45.2945633 33.5958519,45.2945633 C32.4679098,45.2945633 31.3638605,45.4766947 30.2971438,45.8175198 C28.1268755,43.8101676 25.3986094,42.5933537 22.4717339,42.2896385 C24.6544463,39.6250506 27.9660965,38.0073522 31.4878047,38.0073522 C37.3908347,38.0073522 40.2928219,41.9610207 40.2928219,41.9610207 C40.2928219,41.9610207 41.7935922,41.0972391 44.1002489,41.0972391 C48.7508948,41.0972391 52.5453798,44.8077401 52.5453798,49.3820226 L52.5453798,50.3795951 L54.61709,50.3795951 C58.1139098,50.3795951 60.9541737,53.1652785 60.9541737,56.5959905 C60.9661202,60.0267024 58.126354,62.824593 54.6290365,62.824593 M44.1126931,69.004855 L8.37096354,69.004855 C4.87414372,69.004855 2.03387982,66.2186833 2.03387982,62.7879714 C2.03387982,59.3572594 4.87414372,56.5715761 8.37096354,56.5715761 L9.38790345,56.5715761 L9.38790345,55.5740035 C9.38790345,49.2965722 14.5965472,44.1993331 20.9834077,44.1993331 C26.5394935,44.1993331 29.7889227,48.1534899 29.7889227,48.1534899 C29.7889227,48.1534899 31.4878047,47.2897083 33.5958519,47.2897083 C38.2469956,47.2897083 42.0414807,50.999721 42.0414807,55.5740035 L42.0414807,56.5715761 L44.1126931,56.5715761 C47.6095129,56.5715761 50.4497768,59.3572594 50.4497768,62.7879714 C50.462221,66.2186833 47.6095129,69.004855 44.1126931,69.004855 M54.6290365,48.3844501 L54.5424248,48.3844501 C54.0342038,43.1773462 49.5443369,39.1020941 44.1126931,39.1020941 C42.9837554,39.1020941 41.8807016,39.2847138 40.8139849,39.6250506 C38.271884,37.2895688 34.9975665,36 31.5002489,36 C26.849603,36 22.4966223,38.3721034 20.0038004,42.2286025 C13.2575515,42.7032185 7.86274246,47.9947962 7.39185399,54.6130526 C3.23698495,55.112083 0,58.5789283 0,62.7879714 C0,67.3139134 3.75814799,71 8.37096354,71 L44.1126931,71 C48.0191759,71 51.2934935,68.3598264 52.223324,64.8075308 L54.6290365,64.8075308 C59.2428475,64.8075308 63,61.1214442 63,56.5959905 C63,52.0705367 59.2428475,48.3844501 54.6290365,48.3844501" id="Fill-83" fill="#E0E0E0"></path>
                <path d="M52.5758913,62.4555098 L54.4481515,62.4555098 C56.0596485,62.4555098 57.5748409,61.841027 58.71568,60.7247486 C59.8565191,59.6079886 60.482252,58.1271619 60.4763256,56.5543555 C60.4763256,53.3056866 57.7664623,50.663314 54.4358048,50.663314 L52.133384,50.663314 L52.133384,49.4386824 C52.133384,45.0660301 48.4856621,41.5086751 44.0018187,41.5086751 C41.8139757,41.5086751 40.3629864,42.3196384 40.3486642,42.3278251 L40.1555611,42.437623 L40.0236979,42.2604053 C39.9955473,42.2228429 37.1409802,38.4613024 31.4876533,38.4613024 C28.2873773,38.4613024 25.1562431,39.8732646 23.0232197,42.2589606 C25.7854332,42.6331402 28.3135524,43.7999835 30.3690383,45.6506556 C31.427895,45.3294487 32.5065065,45.1666781 33.5796855,45.1666781 C39.0191668,45.1666781 43.5242467,49.0871366 44.1494857,54.3217986 C48.7385234,54.3858474 52.4647706,57.9913593 52.5758913,62.4555098 Z M54.4481515,62.9370795 L52.0844909,62.9370795 L52.0844909,62.6962947 C52.0844909,58.3274949 48.4698583,54.8024051 44.0260183,54.8024051 L43.7030275,54.8024051 L43.6817911,54.5847356 C43.1815011,49.4902104 38.8384105,45.6482478 33.5796855,45.6482478 C32.5119391,45.6482478 31.4362908,45.8177603 30.3828666,46.1524512 L30.2435954,46.196274 L30.1369195,46.0985154 C28.030565,44.1616423 25.3952761,42.980352 22.5165094,42.6832235 L22.0670879,42.6369928 L22.3500753,42.2931521 C24.6090355,39.5515761 27.939693,37.9797328 31.4876533,37.9797328 C36.7034116,37.9797328 39.6468753,41.0584075 40.2898937,41.8135087 C40.770429,41.5823553 42.1181995,41.0271055 44.0018187,41.0271055 C48.7582782,41.0271055 52.6272538,44.8002036 52.6272538,49.4386824 L52.6272538,50.1817444 L54.4358048,50.1817444 C58.0390784,50.1817444 60.9701954,53.0398602 60.9701954,56.5533923 C60.9766157,58.2542963 60.3000141,59.8569601 59.0653398,61.0647367 C57.8316531,62.2720318 56.1915117,62.9370795 54.4481515,62.9370795 Z M8.55184848,56.7700987 C5.22119093,56.7700987 2.51182152,59.4124713 2.51182152,62.6601769 C2.51182152,65.9083642 5.22119093,68.5507368 8.55184848,68.5507368 L44.0136716,68.5507368 C45.6325766,68.5507368 47.1546831,67.9338461 48.2994732,66.8141967 C49.4368552,65.7012892 50.0601188,64.2262414 50.0546863,62.6611401 C50.0546863,59.4124713 47.3443291,56.7700987 44.0136716,56.7700987 L41.7122386,56.7700987 L41.7122386,55.5454671 C41.7122386,51.1732963 38.0635289,47.6159413 33.5796855,47.6159413 C31.5765498,47.6159413 29.9314697,48.4322019 29.9156659,48.4403886 L29.736885,48.5304421 L29.6099605,48.3782661 C29.5783528,48.3397405 26.3899298,44.5680871 21.0660139,44.5680871 C14.8585651,44.5680871 9.80775924,49.4926182 9.80775924,55.5454671 L9.80775924,56.7700987 L8.55184848,56.7700987 Z M44.0136716,69.0323064 L8.55184848,69.0323064 C4.9490687,69.0323064 2.01795177,66.173709 2.01795177,62.6601769 C2.01795177,59.1471264 4.9490687,56.288529 8.55184848,56.288529 L9.3138895,56.288529 L9.3138895,55.5454671 C9.3138895,49.2272734 14.585949,44.0865174 21.0660139,44.0865174 C26.0190336,44.0865174 29.2000486,47.2133491 29.8647973,47.9304063 C30.3581732,47.7108106 31.8200276,47.1343717 33.5796855,47.1343717 C38.336145,47.1343717 42.2061083,50.9074698 42.2061083,55.5454671 L42.2061083,56.288529 L44.0136716,56.288529 C47.6169452,56.288529 50.548556,59.1471264 50.548556,62.6601769 C50.5544825,64.3533758 49.8798564,65.9497792 48.649133,67.1541848 C47.4114954,68.3648509 45.7654276,69.0323064 44.0136716,69.0323064 Z M31.5,36.4815696 C27.0122056,36.4815696 22.7214653,38.7926224 20.3024913,42.5127478 L20.2358189,42.6153222 L20.1118576,42.6239904 C13.5651203,43.0814816 8.28318334,48.236203 7.82635383,54.6145929 L7.81203161,54.8125181 L7.61003888,54.8365965 C3.55289894,55.3210556 0.493869744,58.684338 0.493869744,62.6601769 C0.493869744,66.9933406 4.1085024,70.5184304 8.55184848,70.5184304 L44.0136716,70.5184304 C47.6915196,70.5184304 50.9026606,68.0812064 51.8217522,64.5922343 L51.8691637,64.4111642 L54.4481515,64.4111642 C58.8914976,64.4111642 62.5061303,60.8860744 62.5061303,56.5533923 C62.5061303,52.2207102 58.8914976,48.6956205 54.4481515,48.6956205 L54.1370136,48.6956205 L54.1157772,48.477951 C53.6149933,43.3829442 49.2728905,39.5409816 44.0136716,39.5409816 C42.9469129,39.5409816 41.8712646,39.7104941 40.8168527,40.045185 L40.6785692,40.0890078 L40.5718933,39.9917308 C38.0936549,37.7283534 34.8716487,36.4815696 31.5,36.4815696 Z M44.0136716,71 L8.55184848,71 C3.83687404,71 0,67.2586855 0,62.6601769 C0,58.5071204 3.1454564,54.9839569 7.34927566,54.3848842 C7.91228717,47.9000674 13.2860838,42.6784078 19.9523377,42.1530153 C22.4730488,38.354394 26.885775,36 31.5,36 C34.9496802,36 38.2467546,37.2573783 40.8030244,39.543871 C41.862375,39.2221825 42.9414804,39.0594119 44.0136716,39.0594119 C49.4536468,39.0594119 53.9592205,42.9798704 54.5839657,48.215014 C59.2372064,48.2862863 63,51.9996698 63,56.5533923 C63,61.1514193 59.1636198,64.8927338 54.4481515,64.8927338 L52.2504312,64.8927338 C51.2133047,68.4982457 47.8535088,71 44.0136716,71 Z" id="Fill-85" fill="#E0E0E0"></path>
                <path d="M318.500303,24 L274.499697,24 C273.671364,24 273,23.3285 273,22.5 C273,21.6715 273.671364,21 274.499697,21 L318.500303,21 C319.328136,21 320,21.6715 320,22.5 C320,23.3285 319.328136,24 318.500303,24" id="Fill-87" fill="#E0E0E0"></path>
                <path d="M330.502033,24 L326.497967,24 C325.67059,24 325,23.3285 325,22.5 C325,21.6715 325.67059,21 326.497967,21 L330.502033,21 C331.328911,21 332,21.6715 332,22.5 C332,23.3285 331.328911,24 330.502033,24" id="Fill-89" fill="#E0E0E0"></path>
                <path d="M54.5003191,198 L10.4996809,198 C9.67185705,198 9,197.3285 9,196.5 C9,195.6715 9.67185705,195 10.4996809,195 L54.5003191,195 C55.3281429,195 56,195.6715 56,196.5 C56,197.3285 55.3281429,198 54.5003191,198" id="Fill-91" fill="#E0E0E0"></path>
                <path d="M66.502033,198 L62.497967,198 C61.6710892,198 61,197.3285 61,196.5 C61,195.6715 61.6710892,195 62.497967,195 L66.502033,195 C67.3294101,195 68,195.6715 68,196.5 C68,197.3285 67.3294101,198 66.502033,198" id="Fill-93" fill="#E0E0E0"></path>
                <path d="M92.5003031,211 L48.4996969,211 C47.6718642,211 47,210.3285 47,209.5 C47,208.6715 47.6718642,208 48.4996969,208 L92.5003031,208 C93.3286357,208 94,208.6715 94,209.5 C94,210.3285 93.3286357,211 92.5003031,211" id="Fill-95" fill="#E0E0E0"></path>
                <path d="M104.502033,211 L100.497967,211 C99.6710892,211 99,210.3285 99,209.5 C99,208.6715 99.6710892,208 100.497967,208 L104.502033,208 C105.32941,208 106,208.6715 106,209.5 C106,210.3285 105.32941,211 104.502033,211" id="Fill-97" fill="#E0E0E0"></path>
                <path d="M156.542066,198 L125.457934,198 C124.653155,198 124,197.3285 124,196.5 C124,195.6715 124.653155,195 125.457934,195 L156.542066,195 C157.347331,195 158,195.6715 158,196.5 C158,197.3285 157.347331,198 156.542066,198" id="Fill-99" fill="#E0E0E0"></path>
                <path d="M164.478059,198 L161.521941,198 C160.68183,198 160,197.3285 160,196.5 C160,195.6715 160.68183,195 161.521941,195 L164.478059,195 C165.318678,195 166,195.6715 166,196.5 C166,197.3285 165.318678,198 164.478059,198" id="Fill-101" fill="#E0E0E0"></path>
                <path d="M214.493675,176 L94.5063253,176 C93.6743316,176 93,175.3285 93,174.5 C93,173.6715 93.6743316,173 94.5063253,173 L214.493675,173 C215.325668,173 216,173.6715 216,174.5 C216,175.3285 215.325668,176 214.493675,176" id="Fill-103" fill="#E0E0E0"></path>
                <path d="M189.439802,198 L174.560198,198 C173.698448,198 173,197.3285 173,196.5 C173,195.6715 173.698448,195 174.560198,195 L189.439802,195 C190.301031,195 191,195.6715 191,196.5 C191,197.3285 190.301031,198 189.439802,198" id="Fill-105" fill="#E0E0E0"></path>
                <path d="M271.481525,198 L250.518475,198 C249.679771,198 249,197.3285 249,196.5 C249,195.6715 249.679771,195 250.518475,195 L271.481525,195 C272.319723,195 273,195.6715 273,196.5 C273,197.3285 272.319723,198 271.481525,198" id="Fill-107" fill="#E0E0E0"></path>
                <path d="M278.623402,176 L267.376598,176 C266.616716,176 266,175.3285 266,174.5 C266,173.6715 266.616716,173 267.376598,173 L278.623402,173 C279.383743,173 280,173.6715 280,174.5 C280,175.3285 279.383743,176 278.623402,176" id="Fill-109" fill="#E0E0E0"></path>
                <path d="M315.520246,176 L285.479754,176 C284.662437,176 284,175.3285 284,174.5 C284,173.6715 284.662437,173 285.479754,173 L315.520246,173 C316.33707,173 317,173.6715 317,174.5 C317,175.3285 316.33707,176 315.520246,176" id="Fill-111" fill="#E0E0E0"></path>
                <path d="M168.542066,10 L137.457934,10 C136.652669,10 136,9.3285 136,8.5 C136,7.6715 136.652669,7 137.457934,7 L168.542066,7 C169.346845,7 170,7.6715 170,8.5 C170,9.3285 169.346845,10 168.542066,10" id="Fill-113" fill="#E0E0E0"></path>
                <path d="M178.478059,10 L175.521941,10 C174.681322,10 174,9.3285 174,8.5 C174,7.6715 174.681322,7 175.521941,7 L178.478059,7 C179.31817,7 180,7.6715 180,8.5 C180,9.3285 179.31817,10 178.478059,10" id="Fill-115" fill="#E0E0E0"></path>
                <path d="M203.439757,10 L188.560243,10 C187.697949,10 187,9.3285 187,8.5 C187,7.6715 187.697949,7 188.560243,7 L203.439757,7 C204.301531,7 205,7.6715 205,8.5 C205,9.3285 204.301531,10 203.439757,10" id="Fill-117" fill="#E0E0E0"></path>
                <path d="M284.481525,10 L263.518475,10 C262.679771,10 262,9.3285 262,8.5 C262,7.6715 262.679771,7 263.518475,7 L284.481525,7 C285.319723,7 286,7.6715 286,8.5 C286,9.3285 285.319723,10 284.481525,10" id="Fill-119" fill="#E0E0E0"></path>
                <path d="M103.563719,25 L95.4362813,25 C94.6429753,25 94,24.3285 94,23.5 C94,22.6715 94.6429753,22 95.4362813,22 L103.563719,22 C104.357025,22 105,22.6715 105,23.5 C105,24.3285 104.357025,25 103.563719,25" id="Fill-121" fill="#E0E0E0"></path>
                <path d="M123.494287,25 L109.505713,25 C108.674559,25 108,24.3285 108,23.5 C108,22.6715 108.674559,22 109.505713,22 L123.494287,22 C124.325441,22 125,22.6715 125,23.5 C125,24.3285 124.325441,25 123.494287,25" id="Fill-123" fill="#E0E0E0"></path>
                <path d="M144.570991,25 L133.429009,25 C132.63972,25 132,24.3285 132,23.5 C132,22.6715 132.63972,22 133.429009,22 L144.570991,22 C145.359804,22 146,22.6715 146,23.5 C146,24.3285 145.359804,25 144.570991,25" id="Fill-125" fill="#E0E0E0"></path>
                <path d="M182.551848,25 L152.448152,25 C151.648289,25 151,24.3285 151,23.5 C151,22.6715 151.648289,22 152.448152,22 L182.551848,22 C183.351711,22 184,22.6715 184,23.5 C184,24.3285 183.351711,25 182.551848,25" id="Fill-127" fill="#E0E0E0"></path>
                <path d="M96.9246237,205.131208 C97.0003195,204.95348 97.1159789,204.956771 97.1818013,205.138261 L97.518436,206.067808 C97.5837883,206.249298 97.782666,206.459939 97.9599164,206.535638 L98.8692061,206.924477 C99.0464565,207.000646 99.0431654,207.116311 98.8616836,207.181666 L97.9321769,207.518315 C97.7506951,207.584141 97.5400634,207.783027 97.4638974,207.960285 L97.075075,208.869144 C96.9993792,209.046402 96.8837198,209.043111 96.8178974,208.862092 L96.4817328,207.932074 C96.4163806,207.750585 96.2175028,207.539944 96.0397823,207.464245 L95.1314328,207.075405 C94.9537123,206.999706 94.9565333,206.884042 95.1380151,206.818216 L96.0679919,206.481567 C96.2490036,206.415742 96.4601055,206.217326 96.5358013,206.040067 L96.9246237,205.131208 Z" id="Fill-129" fill="#EDEDED"></path>
                <path d="M207.924325,241.131208 C208.000496,240.95348 208.116162,240.956771 208.181988,241.138261 L208.518172,242.067808 C208.583528,242.249298 208.782417,242.459939 208.960148,242.535638 L209.86902,242.924477 C210.04675,243.000646 210.042989,243.116311 209.861497,243.181666 L208.932407,243.518315 C208.750914,243.584141 208.540271,243.783027 208.4641,243.960285 L208.075255,244.869144 C207.999555,245.046402 207.883419,245.043111 207.818063,244.862092 L207.481879,243.932074 C207.416053,243.750585 207.217164,243.539944 207.039903,243.464245 L206.131031,243.075405 C205.953771,242.999706 205.956592,242.884042 206.138084,242.818216 L207.068114,242.481567 C207.249137,242.415742 207.460251,242.217796 207.535951,242.040067 L207.924325,241.131208 Z" id="Fill-131" fill="#FFFFFF"></path>
                <path d="M304.924685,216.130801 C305.000381,215.953541 305.11604,215.956832 305.181863,216.138324 L305.518497,217.067885 C305.58385,217.249377 305.782257,217.460021 305.959978,217.535721 L306.868797,217.924566 C307.046518,218.000736 307.043227,218.116402 306.861745,218.181758 L305.932238,218.517942 C305.750756,218.583768 305.540125,218.783128 305.463959,218.960388 L305.075136,219.86879 C304.99944,220.046521 304.883781,220.043229 304.817959,219.861737 L304.481794,218.932177 C304.415972,218.750685 304.217094,218.540041 304.039844,218.464341 L303.131024,218.075496 C302.953773,217.999796 302.956594,217.88413 303.138076,217.818303 L304.068053,217.481649 C304.249065,217.415823 304.460167,217.217404 304.535863,217.040143 L304.924685,216.130801 Z" id="Fill-133" fill="#FFFFFF"></path>
                <path d="M51.9245042,234.130801 C52.0002044,233.953541 52.1163406,233.956832 52.1821668,234.138324 L52.5183507,235.067885 C52.5837067,235.249377 52.7825959,235.460021 52.9598565,235.535721 L53.8691986,235.924566 C54.0464592,236.000736 54.0431679,236.116402 53.8616756,236.181758 L52.9321155,236.518412 C52.7506232,236.584238 52.5404495,236.783128 52.4642792,236.960388 L52.0754343,237.86879 C51.999264,238.046521 51.883598,238.043229 51.8177717,237.861737 L51.4820581,236.932177 C51.4162319,236.750685 51.2173427,236.540041 51.0396119,236.464341 L50.1312102,236.075496 C49.9534794,235.999796 49.9567707,235.88413 50.138263,235.818303 L51.0682933,235.481649 C51.2493154,235.415823 51.4599593,235.217404 51.5356594,235.040143 L51.9245042,234.130801 Z" id="Fill-135" fill="#E89215"></path>
                <path d="M170.924325,241.131208 C171.000496,240.95348 171.116162,240.956771 171.181988,241.138261 L171.518172,242.067808 C171.583528,242.249298 171.782417,242.459939 171.960148,242.535638 L172.86902,242.924477 C173.04675,243.000646 173.042989,243.116311 172.861497,243.181666 L171.932407,243.518315 C171.750914,243.584141 171.540271,243.783027 171.4641,243.960285 L171.075255,244.869144 C170.999555,245.046402 170.883889,245.043111 170.818063,244.862092 L170.481879,243.932074 C170.416053,243.750585 170.217164,243.539944 170.039903,243.464245 L169.131031,243.075405 C168.953771,242.999706 168.956592,242.884042 169.138084,242.818216 L170.068114,242.481567 C170.249137,242.415742 170.460251,242.217796 170.535951,242.040067 L170.924325,241.131208 Z" id="Fill-137" fill="#E89215"></path>
                <path d="M242,236 C242,237.656913 243.343087,239 245,239 C246.656387,239 248,237.656913 248,236" id="Fill-139" fill="#FFFFFF"></path>
                <path d="M245.500243,239 C243.569694,239 242,237.514758 242,235.689101 C242,235.308717 242.325886,235 242.728509,235 C243.130646,235 243.457018,235.308717 243.457018,235.689101 C243.457018,236.75445 244.373482,237.621799 245.500243,237.621799 C246.626518,237.621799 247.542982,236.75445 247.542982,235.689101 C247.542982,235.308717 247.869354,235 248.271491,235 C248.674114,235 249,235.308717 249,235.689101 C249,237.514758 247.430306,239 245.500243,239" id="Fill-141" fill="#EDEDED"></path>
                <path d="M250,236 C250,237.656913 251.343205,239 252.999737,239 C254.656795,239 256,237.656913 256,236" id="Fill-143" fill="#FFFFFF"></path>
                <path d="M252.5,239 C250.570071,239 249,237.514758 249,235.689101 C249,235.308717 249.326349,235 249.728458,235 C250.131053,235 250.456917,235.308717 250.456917,235.689101 C250.456917,236.75445 251.373803,237.621799 252.5,237.621799 C253.626682,237.621799 254.543083,236.75445 254.543083,235.689101 C254.543083,235.308717 254.869432,235 255.271542,235 C255.674136,235 256,235.308717 256,235.689101 C256,237.514758 254.430415,239 252.5,239" id="Fill-145" fill="#EDEDED"></path>
                <path d="M255,236 C255,237.656913 256.343613,239 258,239 C259.656913,239 261,237.656913 261,236" id="Fill-147" fill="#FFFFFF"></path>
                <path d="M258.5,239 C256.570071,239 255,237.514758 255,235.689101 C255,235.308717 255.326349,235 255.728458,235 C256.131053,235 256.456917,235.308717 256.456917,235.689101 C256.456917,236.75445 257.373803,237.621799 258.5,237.621799 C259.626682,237.621799 260.543083,236.75445 260.543083,235.689101 C260.543083,235.308717 260.869432,235 261.271542,235 C261.674136,235 262,235.308717 262,235.689101 C262,237.514758 260.430415,239 258.5,239" id="Fill-149" fill="#EDEDED"></path>
                <path d="M128,246 C128,247.656387 129.343613,249 131,249 C132.656913,249 134,247.656387 134,246" id="Fill-151" fill="#FFFFFF"></path>
                <path d="M130.5,249 C128.570071,249 127,247.514758 127,245.689101 C127,245.308717 127.326349,245 127.728458,245 C128.131053,245 128.456917,245.308717 128.456917,245.689101 C128.456917,246.75445 129.373803,247.621799 130.5,247.621799 C131.626682,247.621799 132.543083,246.75445 132.543083,245.689101 C132.543083,245.308717 132.869432,245 133.271542,245 C133.674136,245 134,245.308717 134,245.689101 C134,247.514758 132.430415,249 130.5,249" id="Fill-153" fill="#EDEDED"></path>
                <path d="M132,246 C132,247.656387 133.343613,249 135,249 C136.656913,249 138,247.656387 138,246" id="Fill-155" fill="#FFFFFF"></path>
                <path d="M135.5,249 C133.570071,249 132,247.514758 132,245.689101 C132,245.308717 132.326349,245 132.728458,245 C133.131053,245 133.456917,245.308717 133.456917,245.689101 C133.456917,246.75445 134.373803,247.621799 135.5,247.621799 C136.626197,247.621799 137.543083,246.75445 137.543083,245.689101 C137.543083,245.308717 137.868947,245 138.271542,245 C138.673651,245 139,245.308717 139,245.689101 C139,247.514758 137.429929,249 135.5,249" id="Fill-157" fill="#EDEDED"></path>
                <path d="M207.5,235.52502 C204.152952,235.52502 201.429752,238.429674 201.429752,241.999746 C201.429752,245.570326 204.152952,248.47498 207.5,248.47498 C210.847048,248.47498 213.570248,245.570326 213.570248,241.999746 C213.570248,238.429674 210.847048,235.52502 207.5,235.52502 M207.5,250 C203.364205,250 200,246.41112 200,241.999746 C200,237.58888 203.364205,234 207.5,234 C211.635795,234 215,237.58888 215,241.999746 C215,246.41112 211.635795,250 207.5,250" id="Fill-159" fill="#E89215"></path>
                <g id="Group-163" transform="translate(102.000000, 248.000000)">
                    <mask id="mask-2" fill="white">
                        <use xlink:href="#path-1"></use>
                    </mask>
                    <g id="Clip-162"></g>
                    <path d="M2.12475,1.8332 C2.01525,1.8332 1.92675,1.93491429 1.92675,2.05948571 C1.92675,2.18405714 2.01525,2.28577143 2.12475,2.28577143 C2.23375,2.28577143 2.32275,2.18405714 2.32275,2.05948571 C2.32275,1.93491429 2.23375,1.8332 2.12475,1.8332 M2.12475,4.00005714 C1.18875,4.00005714 0.42675,3.12977143 0.42675,2.05948571 C0.42675,0.9892 1.18875,0.118914286 2.12475,0.118914286 C3.06075,0.118914286 3.82275,0.9892 3.82275,2.05948571 C3.82275,3.12977143 3.06075,4.00005714 2.12475,4.00005714" id="Fill-161" fill="#E89215" mask="url(#mask-2)"></path>
                </g>
                <path d="M185,237.382743 C184.507006,237.382743 184.106195,237.883757 184.106195,238.5 C184.106195,239.116243 184.507006,239.617257 185,239.617257 C185.492994,239.617257 185.893805,239.116243 185.893805,238.5 C185.893805,237.883757 185.492994,237.382743 185,237.382743 M185,241 C183.897124,241 183,239.878134 183,238.5 C183,237.121866 183.897124,236 185,236 C186.102876,236 187,237.121866 187,238.5 C187,239.878134 186.102876,241 185,241" id="Fill-164" fill="#E89215"></path>
                <path d="M353.924655,201.131154 C354.00035,200.953423 354.116008,200.956714 354.181829,201.138677 L354.518459,202.067767 C354.58381,202.249729 354.782685,202.459903 354.959932,202.535603 L355.869208,202.924448 C356.046456,203.000618 356.043165,203.116284 355.861686,203.18164 L354.932193,203.518295 C354.750714,203.584121 354.540086,203.78301 354.463921,203.96027 L354.075104,204.869142 C353.99941,205.046403 353.883752,205.043112 353.817931,204.86209 L353.481771,203.932059 C353.41595,203.750567 353.217075,203.540393 353.039828,203.464223 L352.131022,203.075848 C351.953774,202.999678 351.956595,202.884012 352.138074,202.818186 L353.068037,202.482002 C353.249046,202.416176 353.460144,202.217757 353.535839,202.040026 L353.924655,201.131154 Z" id="Fill-166" fill="#EDEDED"></path>
                <path d="M466.924325,231.131208 C467.000496,230.95348 467.116162,230.956771 467.181988,231.138261 L467.518172,232.067808 C467.583528,232.249298 467.782417,232.459939 467.960148,232.535638 L468.86902,232.924477 C469.04675,233.000646 469.042989,233.116311 468.861497,233.181666 L467.932407,233.518315 C467.750444,233.584141 467.540271,233.783027 467.4641,233.960285 L467.075255,234.869144 C466.999555,235.046402 466.883419,235.043111 466.818063,234.862092 L466.481879,233.932074 C466.416053,233.750585 466.217164,233.539944 466.039903,233.464245 L465.131031,233.075405 C464.953771,232.999706 464.956592,232.884042 465.138084,232.818216 L466.068114,232.481567 C466.249137,232.415742 466.45978,232.217796 466.535951,232.040067 L466.924325,231.131208 Z" id="Fill-168" fill="#FFFFFF"></path>
                <path d="M313.924655,213.130798 C314.00035,212.953542 314.116008,212.956833 314.181829,213.13832 L314.518459,214.067853 C314.58381,214.24934 314.782685,214.459978 314.959932,214.535676 L315.869208,214.924509 C316.046456,215.000677 316.043165,215.11634 315.861686,215.181694 L314.932193,215.518338 C314.750714,215.584162 314.540086,215.783046 314.463921,215.960301 L314.075104,216.869146 C313.99941,217.046402 313.883752,217.04311 313.817931,216.862094 L313.481771,215.932091 C313.41642,215.750604 313.217075,215.539966 313.039828,215.464268 L312.131022,215.075435 C311.953774,214.999737 311.956595,214.884074 312.138074,214.81825 L313.068037,214.481606 C313.249046,214.415781 313.460144,214.217368 313.535839,214.040113 L313.924655,213.130798 Z" id="Fill-170" fill="#E89215"></path>
                <path d="M428.924325,231.131208 C429.000496,230.95348 429.116162,230.956771 429.181988,231.138261 L429.518172,232.067808 C429.583528,232.249298 429.782417,232.459939 429.960148,232.535638 L430.86902,232.924477 C431.04675,233.000646 431.042989,233.116311 430.861497,233.181666 L429.932407,233.518315 C429.750914,233.584141 429.540271,233.783027 429.4641,233.960285 L429.075255,234.869144 C428.999555,235.046402 428.883419,235.043111 428.818063,234.862092 L428.481879,233.932074 C428.416053,233.750585 428.217164,233.539944 428.039903,233.464245 L427.131031,233.075405 C426.953771,232.999706 426.956592,232.884042 427.138084,232.818216 L428.068114,232.481567 C428.249137,232.415742 428.460251,232.217796 428.535951,232.040067 L428.924325,231.131208 Z" id="Fill-172" fill="#E89215"></path>
                <path d="M386,209 C386,211.761321 388.238069,214 390.999751,214 C393.760934,214 396,211.761321 396,209" id="Fill-174" fill="#FFFFFF"></path>
                <path d="M390,216 C386.691522,216 384,213.008385 384,209.331026 C384,208.595767 384.536005,208 385.197509,208 C385.858534,208 386.395018,208.595767 386.395018,209.331026 C386.395018,211.54053 388.012614,213.337948 390,213.337948 C391.987865,213.337948 393.604982,211.54053 393.604982,209.331026 C393.604982,208.595767 394.141466,208 394.802491,208 C395.463995,208 396,208.595767 396,209.331026 C396,213.008385 393.308478,216 390,216" id="Fill-176" fill="#EDEDED"></path>
                <path d="M395,209 C395,211.761321 397.238069,214 399.999751,214 C402.760934,214 405,211.761321 405,209" id="Fill-178" fill="#FFFFFF"></path>
                <path d="M400,216 C396.691522,216 394,213.008385 394,209.331026 C394,208.595767 394.536005,208 395.197509,208 C395.858534,208 396.395018,208.595767 396.395018,209.331026 C396.395018,211.54053 398.012614,213.337948 400,213.337948 C401.987865,213.337948 403.604982,211.54053 403.604982,209.331026 C403.604982,208.595767 404.141466,208 404.802491,208 C405.463995,208 406,208.595767 406,209.331026 C406,213.008385 403.308478,216 400,216" id="Fill-180" fill="#EDEDED"></path>
                <path d="M468.5,226.52502 C465.152952,226.52502 462.429752,229.429674 462.429752,232.999746 C462.429752,236.570326 465.152952,239.47498 468.5,239.47498 C471.847048,239.47498 474.570248,236.570326 474.570248,232.999746 C474.570248,229.429674 471.847048,226.52502 468.5,226.52502 M468.5,241 C464.364205,241 461,237.41112 461,232.999746 C461,228.58888 464.364205,225 468.5,225 C472.635795,225 476,228.58888 476,232.999746 C476,237.41112 472.635795,241 468.5,241" id="Fill-182" fill="#E89215"></path>
                <path d="M364,240.767045 C363.871025,240.767045 363.766784,240.871889 363.766784,241.000295 C363.766784,241.128111 363.871025,241.232955 364,241.232955 C364.128386,241.232955 364.233216,241.128111 364.233216,241.000295 C364.233216,240.871889 364.128386,240.767045 364,240.767045 M364,243 C362.897527,243 362,242.10293 362,241.000295 C362,239.89707 362.897527,239 364,239 C365.102473,239 366,239.89707 366,241.000295 C366,242.10293 365.102473,243 364,243" id="Fill-184" fill="#E89215"></path>
                <path d="M444.000184,209.382743 C443.507236,209.382743 443.106093,209.883757 443.106093,210.5 C443.106093,211.116243 443.507236,211.617257 444.000184,211.617257 C444.492764,211.617257 444.893907,211.116243 444.893907,210.5 C444.893907,209.883757 444.492764,209.382743 444.000184,209.382743 M444.000184,213 C442.89741,213 442,211.878134 442,210.5 C442,209.121866 442.89741,208 444.000184,208 C445.10259,208 446,209.121866 446,210.5 C446,211.878134 445.10259,213 444.000184,213" id="Fill-186" fill="#E89215"></path>
                <path d="M288.924504,0.130799375 C289.000204,-0.0464584884 289.116341,-0.0431672284 289.182167,0.138322255 L289.518351,1.06786813 C289.583707,1.24935762 289.782596,1.45999826 289.959857,1.53569724 L290.869199,1.92453611 C291.046459,2.00023509 291.043168,2.11636955 290.861676,2.18172457 L289.932115,2.51837346 C289.750623,2.58372848 289.54045,2.78261462 289.463809,2.95987249 L289.075434,3.86920063 C288.999264,4.04645849 288.883598,4.04316723 288.817772,3.86167774 L288.482058,2.93213187 C288.416232,2.75064238 288.217343,2.54000174 288.039612,2.46383258 L287.13121,2.07546389 C286.953479,1.99929473 286.956771,1.88363045 287.138263,1.81780525 L288.067823,1.48162654 C288.249315,1.41580134 288.459959,1.21738538 288.535659,1.03965733 L288.924504,0.130799375 Z" id="Fill-188" fill="#EDEDED"></path>
                <path d="M399.924655,38.1307994 C400.00035,37.9535415 400.116008,37.9568328 400.181829,38.1383223 L400.518459,39.0678681 C400.58381,39.2493576 400.782685,39.4599983 400.959932,39.5356972 L401.869208,39.9245361 C402.046456,40.0002351 402.043165,40.1163696 401.861686,40.1817246 L400.932193,40.5183735 C400.750714,40.5837285 400.540086,40.7826146 400.463921,40.9598725 L400.075104,41.8692006 C399.99941,42.0464585 399.883752,42.0431672 399.817931,41.8616777 L399.481771,40.9321319 C399.41595,40.7506424 399.217075,40.5400017 399.039828,40.4643028 L398.131022,40.0754639 C397.953774,39.9992947 397.956595,39.8836304 398.138074,39.8178052 L399.068037,39.4816265 C399.249046,39.4158013 399.460144,39.2173854 399.535839,39.0396573 L399.924655,38.1307994 Z" id="Fill-190" fill="#FFFFFF"></path>
                <g id="Group-194" transform="translate(493.000000, 10.000000)">
                    <mask id="mask-4" fill="white">
                        <use xlink:href="#path-3"></use>
                    </mask>
                    <g id="Clip-193"></g>
                    <path d="M2.00715556,0.5014 C2.07871111,0.3506 2.18804444,0.353 2.25026667,0.5078 L2.56848889,1.2986 C2.63026667,1.4526 2.81826667,1.6318 2.98582222,1.6966 L3.84537778,2.027 C4.01293333,2.0918 4.00982222,2.1902 3.83826667,2.2462 L2.9596,2.5322 C2.78804444,2.5882 2.58893333,2.7574 2.51693333,2.9082 L2.14937778,3.6814 C2.07782222,3.8326 1.96848889,3.8294 1.90626667,3.6754 L1.58848889,2.8846 C1.52671111,2.7298 1.33826667,2.551 1.17071111,2.4862 L0.3116,2.1554 C0.144044444,2.091 0.146711111,1.9926 0.318266667,1.9366 L1.19737778,1.6506 C1.36848889,1.5946 1.56804444,1.4258 1.6396,1.2746 L2.00715556,0.5014 Z" id="Fill-192" fill="#FFFFFF" mask="url(#mask-4)"></path>
                </g>
                <path d="M243.924504,18.1309694 C244.000204,17.9537165 244.116341,17.9565375 244.181697,18.138492 L244.518351,19.0680118 C244.583707,19.2494962 244.782596,19.4596608 244.959857,19.5358278 L245.869199,19.9246558 C246.046459,20.0003526 246.043168,20.1160137 245.861676,20.181837 L244.932115,20.5180063 C244.750623,20.5838296 244.54045,20.7827102 244.463809,20.9599631 L244.075434,21.8687955 C243.999264,22.0465186 243.883598,22.0432274 243.817772,21.861743 L243.482058,20.9322232 C243.416232,20.7507389 243.217343,20.5401041 243.039612,20.4639371 L242.13121,20.0755793 C241.953479,19.9994123 241.956771,19.8837513 242.138263,19.8179279 L243.067823,19.4817586 C243.249315,19.4159353 243.459959,19.2175249 243.535659,19.0398018 L243.924504,18.1309694 Z" id="Fill-195" fill="#E89215"></path>
                <path d="M361.924655,38.1307994 C362.00035,37.9535415 362.116008,37.9568328 362.181829,38.1383223 L362.518459,39.0678681 C362.58381,39.2493576 362.782685,39.4599983 362.959932,39.5356972 L363.869208,39.9245361 C364.046456,40.0002351 364.043165,40.1163696 363.861686,40.1817246 L362.932193,40.5183735 C362.750714,40.5837285 362.540086,40.7826146 362.463921,40.9598725 L362.075104,41.8692006 C361.99941,42.0464585 361.883752,42.0431672 361.817931,41.8616777 L361.481771,40.9321319 C361.41595,40.7506424 361.217075,40.5400017 361.039828,40.4643028 L360.131022,40.0754639 C359.953774,39.9992947 359.956595,39.8836304 360.138074,39.8178052 L361.068037,39.4816265 C361.249046,39.4158013 361.460144,39.2173854 361.535839,39.0396573 L361.924655,38.1307994 Z" id="Fill-197" fill="#E89215"></path>
                <path d="M435,31 C435,32.6569126 436.343087,34 438,34 C439.656387,34 441,32.6569126 441,31" id="Fill-199" fill="#FFFFFF"></path>
                <path d="M437.5,34 C435.570071,34 434,32.5147582 434,30.6891007 C434,30.3082577 434.326349,30 434.728458,30 C435.131053,30 435.456917,30.3082577 435.456917,30.6891007 C435.456917,31.7549098 436.373803,32.6217986 437.5,32.6217986 C438.626197,32.6217986 439.543083,31.7549098 439.543083,30.6891007 C439.543083,30.3082577 439.868947,30 440.271542,30 C440.673651,30 441,30.3082577 441,30.6891007 C441,32.5147582 439.429929,34 437.5,34" id="Fill-201" fill="#EDEDED"></path>
                <path d="M440,31 C440,32.6569126 441.343087,34 443,34 C444.656387,34 446,32.6569126 446,31" id="Fill-203" fill="#FFFFFF"></path>
                <path d="M443.5,34 C441.569585,34 440,32.5147582 440,30.6891007 C440,30.3082577 440.325864,30 440.728458,30 C441.130568,30 441.456917,30.3082577 441.456917,30.6891007 C441.456917,31.7549098 442.373318,32.6217986 443.5,32.6217986 C444.626197,32.6217986 445.543083,31.7549098 445.543083,30.6891007 C445.543083,30.3082577 445.868947,30 446.271542,30 C446.673651,30 447,30.3082577 447,30.6891007 C447,32.5147582 445.429929,34 443.5,34" id="Fill-205" fill="#EDEDED"></path>
                <path d="M447,31 C447,32.6569126 448.343205,34 450.000263,34 C451.656795,34 453,32.6569126 453,31" id="Fill-207" fill="#FFFFFF"></path>
                <path d="M449.5,34 C447.569585,34 446,32.5147582 446,30.6891007 C446,30.3082577 446.325864,30 446.728458,30 C447.130568,30 447.456917,30.3082577 447.456917,30.6891007 C447.456917,31.7549098 448.373318,32.6217986 449.5,32.6217986 C450.626197,32.6217986 451.543083,31.7549098 451.543083,30.6891007 C451.543083,30.3082577 451.868947,30 452.271542,30 C452.673651,30 453,30.3082577 453,30.6891007 C453,32.5147582 451.429929,34 449.5,34" id="Fill-209" fill="#EDEDED"></path>
                <path d="M319,41 C319,42.6569126 320.343087,44 322,44 C323.656387,44 325,42.6569126 325,41" id="Fill-211" fill="#FFFFFF"></path>
                <path d="M321.5,45 C319.569585,45 318,43.5147582 318,41.6891007 C318,41.3082577 318.325864,41 318.728458,41 C319.130568,41 319.456917,41.3082577 319.456917,41.6891007 C319.456917,42.7549098 320.373318,43.6217986 321.5,43.6217986 C322.626197,43.6217986 323.543083,42.7549098 323.543083,41.6891007 C323.543083,41.3082577 323.868947,41 324.271542,41 C324.673651,41 325,41.3082577 325,41.6891007 C325,43.5147582 323.429929,45 321.5,45" id="Fill-213" fill="#EDEDED"></path>
                <path d="M325,41 C325,42.6569126 326.343205,44 327.999737,44 C329.656795,44 331,42.6569126 331,41" id="Fill-215" fill="#FFFFFF"></path>
                <path d="M328.500243,45 C326.569694,45 325,43.5147582 325,41.6891007 C325,41.3082577 325.325886,41 325.728509,41 C326.130646,41 326.457018,41.3082577 326.457018,41.6891007 C326.457018,42.7549098 327.373482,43.6217986 328.500243,43.6217986 C329.626518,43.6217986 330.542982,42.7549098 330.542982,41.6891007 C330.542982,41.3082577 330.869354,41 331.271491,41 C331.674114,41 332,41.3082577 332,41.6891007 C332,43.5147582 330.430306,45 328.500243,45" id="Fill-217" fill="#EDEDED"></path>
                <path d="M399.5,31.5250199 C396.152952,31.5250199 393.429752,34.4296743 393.429752,37.9997458 C393.429752,41.5703257 396.152952,44.4749801 399.5,44.4749801 C402.847048,44.4749801 405.570248,41.5703257 405.570248,37.9997458 C405.570248,34.4296743 402.847048,31.5250199 399.5,31.5250199 M399.5,46 C395.364205,46 392,42.4111199 392,37.9997458 C392,33.5888801 395.364205,30 399.5,30 C403.635795,30 407,33.5888801 407,37.9997458 C407,42.4111199 403.635795,46 399.5,46" id="Fill-219" fill="#E89215"></path>
                <path d="M296,44.7670446 C295.871614,44.7670446 295.766784,44.8713003 295.766784,45.0002945 C295.766784,45.1286997 295.871614,45.2329554 296,45.2329554 C296.128975,45.2329554 296.233216,45.1286997 296.233216,45.0002945 C296.233216,44.8713003 296.128975,44.7670446 296,44.7670446 M296,47 C294.897527,47 294,46.1029303 294,45.0002945 C294,43.8970697 294.897527,43 296,43 C297.103062,43 298,43.8970697 298,45.0002945 C298,46.1029303 297.103062,47 296,47" id="Fill-221" fill="#E89215"></path>
                <path d="M375,14.3827434 C374.507006,14.3827434 374.106195,14.8837574 374.106195,15.5 C374.106195,16.1162426 374.507006,16.6172566 375,16.6172566 C375.492994,16.6172566 375.893805,16.1162426 375.893805,15.5 C375.893805,14.8837574 375.492994,14.3827434 375,14.3827434 M375,18 C373.897124,18 373,16.8785951 373,15.5 C373,14.1214049 373.897124,13 375,13 C376.102876,13 377,14.1214049 377,15.5 C377,16.8785951 376.102876,18 375,18" id="Fill-223" fill="#E89215"></path>
                <path d="M219.351174,212 C222.709703,183.111065 213.111985,161.496194 188.636583,153.838271 C164.161181,146.179349 149.213237,138 149.213237,138 L132.500322,139.570779 L115.786908,138 C115.786908,138 100.838965,146.179349 76.3635629,153.838271 C51.8881612,161.496194 42.2899449,183.111065 45.6489718,212 L219.351174,212 Z" id="Fill-225" fill="#92DEFF"></path>
                <path d="M220,212 C220,183.111065 213.75414,161.496194 189.252571,153.838271 C164.751001,146.179349 149.787076,138 149.787076,138 L133.056293,139.570779 L116.32501,138 C116.32501,138 101.361085,146.179349 76.8595156,153.838271 C52.3579463,161.496194 44.9708579,183.111065 46.1120863,212 L220,212 Z" id="Stroke-227" stroke="#003D74" stroke-width="2"></path>
                <path d="M153.954613,111.045387 L133.500248,109 L113.044892,111.045387 C113.044892,111.045387 116.45453,130.477554 111,145.477389 C111,145.477389 117.818287,154 133.500248,154 C149.181218,154 156,145.477389 156,145.477389 C150.54547,130.477554 153.954613,111.045387 153.954613,111.045387" id="Fill-229" fill="#F6F9FF"></path>
                <path d="M153.954613,111.045387 L133.500248,109 L113.044892,111.045387 C113.044892,111.045387 116.45453,130.477554 111,145.477389 C111,145.477389 117.818287,154 133.500248,154 C149.181218,154 156,145.477389 156,145.477389 C150.54547,130.477554 153.954613,111.045387 153.954613,111.045387 Z" id="Stroke-231" stroke="#003D74" stroke-width="2"></path>
                <g id="Group-237" transform="translate(114.000000, 107.000000)" fill="#D4D6DB">
                    <path d="M40,2.09296436 L20.000484,0 L0,2.09296436 C0,2.09296436 1.0396399,8.29993077 1.02802381,16.4539821 C3.35704951,20.0644976 5.9866415,23.2419336 8.88969556,25.7173249 C12.9790426,29.2047546 20.6495329,30 22.6663763,30 C24.6837036,30 32.3537099,29.2047546 36.444025,25.7173249 C37.4023523,24.9002989 38.3282513,23.9991896 39.2260781,23.0393233 C38.3611635,11.8911983 40,2.09296436 40,2.09296436" id="Fill-233"></path>
                </g>
                <path d="M133.000253,35 C111.843542,35 98,52.0080289 98,72.9881248 C98,88.7239489 105.787498,111.403494 118.605518,121.760153 C122.878528,125.211203 130.892572,126 133.000253,126 C135.107934,126 143.121472,125.211203 147.394988,121.760153 C160.213513,111.403494 168,88.7239489 168,72.9881248 C168,52.0080289 154.156964,35 133.000253,35" id="Fill-238" fill="#F6F9FF"></path>
                <path d="M133.000253,35 C111.843542,35 98,52.0080289 98,72.9881248 C98,88.7239489 105.787498,111.403494 118.605518,121.760153 C122.878528,125.211203 130.892572,126 133.000253,126 C135.107934,126 143.121472,125.211203 147.394988,121.760153 C160.213513,111.403494 168,88.7239489 168,72.9881248 C168,52.0080289 154.156964,35 133.000253,35 Z" id="Stroke-240" stroke="#003D74" stroke-width="2"></path>
                <path d="M169.268104,67.0532254 C170.147876,61.0144523 171.233044,48.2824578 165.922584,42.6636223 C162.70985,39.2649532 160.090925,38.1023159 158.183675,37.8435113 C147.113668,25.1997681 129.277523,21.7882084 116.386304,28.0669459 C109.723611,31.3119188 107.079322,35.3114904 106.052341,38.3036083 C104.397734,38.9297963 102.392013,40.2153906 100.077452,42.6636223 C92.988052,50.1644925 97.2968952,70.3438114 97.2983872,70.3497609 C97.9225329,79.8754545 100.323131,86 100.323131,86 C99.7840287,65.5450195 107.817853,55.6147579 112.853291,51.4223223 C117.139755,54.7748825 124.647407,57.004469 133.214863,57.004469 C141.78033,57.004469 149.294945,54.7783531 153.581408,51.4262886 C158.616847,55.621699 166.6452,65.5524564 166.106098,86 C166.106098,86 169.071163,78.4411219 169.268104,67.0532254" id="Fill-242" fill="#C2D9FC"></path>
                <path d="M169.268104,67.0532254 C170.147876,61.0144523 171.233044,48.2824578 165.922584,42.6636223 C162.70985,39.2649532 160.090925,38.1023159 158.183675,37.8435113 C147.113668,25.1997681 129.277523,21.7882084 116.386304,28.0669459 C109.723611,31.3119188 107.079322,35.3114904 106.052341,38.3036083 C104.397734,38.9297963 102.392013,40.2153906 100.077452,42.6636223 C92.988052,50.1644925 97.2968952,70.3438114 97.2983872,70.3497609 C97.9225329,79.8754545 100.323131,86 100.323131,86 C99.7840287,65.5450195 107.817853,55.6147579 112.853291,51.4223223 C117.139755,54.7748825 124.647407,57.004469 133.214863,57.004469 C141.78033,57.004469 149.294945,54.7783531 153.581408,51.4262886 C158.616847,55.621699 166.6452,65.5524564 166.106098,86 C166.106098,86 169.071163,78.4411219 169.268104,67.0532254 Z" id="Stroke-244" stroke="#003D74" stroke-width="2"></path>
                <path d="M174.307531,74.3343601 C176.426092,65.8444272 180.185686,44.5348894 169.376916,29.7712791 C168.98858,29.2406894 168.582706,28.7274879 168.164806,28.2257129 C169.094809,26.4148518 168.737038,24.1444443 167.146113,22.7136405 C159.240593,15.604334 147.863099,12 133.327806,12 C118.492367,12 106.953525,15.7523824 99.0304672,23.1528178 C97.4666003,24.6129332 97.1519228,26.8897992 98.1154973,28.6832721 C97.8303835,29.0399794 97.5492783,29.4006612 97.2781947,29.7712791 C86.3687077,44.6715113 90.3011739,66.248828 92.407208,74.5753114 C88.6887024,77.9227962 85.3635437,84.1323855 86.1041381,90.794069 C87.1689305,100.372506 96.2354498,107.241358 101.06635,106.713749 C105.897251,106.18614 104.662091,98.4607929 103.597299,88.8823561 C102.532507,79.3029257 102.040948,71.4975927 97.2105491,72.0252017 C96.5646585,72.0957482 95.8731698,72.3212986 95.1636423,72.6655857 C93.1768649,64.0688394 90.2109797,44.6655496 99.7911047,31.580153 C99.9935406,31.3034316 100.215017,31.0440984 100.426473,30.7758227 C100.999707,31.0137932 101.612025,31.1335236 102.225345,31.1335236 C103.371313,31.1335236 104.519785,30.7171995 105.419221,29.8766022 C111.556434,24.1439475 120.946149,21.2376273 133.327806,21.2376273 C145.47596,21.2376273 154.747921,24.0366372 160.885635,29.5561618 C162.292664,30.8215289 164.265411,31.0719196 165.898427,30.3575113 C166.224629,30.7554536 166.551333,31.1538927 166.857492,31.5712105 C176.381496,44.5686723 173.503801,63.8492507 171.521032,72.5230022 C170.923245,72.2631722 170.338987,72.0853153 169.789805,72.0252017 C164.958904,71.4975927 164.467847,79.3029257 163.402554,88.8823561 C162.337761,98.4607929 161.103103,106.18614 165.933503,106.713749 C167.379115,106.871733 169.204044,106.355551 171.080584,105.315238 C170.449726,106.552783 169.615429,107.873793 168.507043,109.197287 C162.613355,116.229588 151.761492,119.9462 137.123478,119.9462 L137.123478,122 C156.420522,122 165.707516,115.751163 170.09897,110.509354 C172.339294,107.835539 173.565934,105.174641 174.244896,103.056257 C177.496396,100.200114 180.330498,95.88783 180.895715,90.794069 C181.655851,83.9629743 178.138779,77.6152727 174.307531,74.3343601" id="Fill-254" fill="#F2CFA7"></path>
                <g id="Group-13" transform="translate(95.000000, 71.000000)">
                    <path d="M72.071171,16.522166 C72.9016591,8.90644645 73.3681173,2.43619646 76,0.553172848 C75.386391,0.269236419 74.7886511,0.0874004184 74.2264968,0.0246815839 C69.590767,-0.491168675 69.119019,7.14740193 68.0966579,16.522166 C67.0747776,25.8959577 65.8898774,33.4562513 70.5256071,33.9725878 C71.3358981,34.0630196 72.271219,33.9273719 73.2666506,33.6001643 C70.1053138,31.9018939 71.1526809,24.9469099 72.071171,16.522166" id="Fill-246" fill="#FFFFFF"></path>
                    <path d="M72.071171,16.522166 C72.9016591,8.90644645 73.3681173,2.43619646 76,0.553172848 C75.386391,0.269236419 74.7886511,0.0874004184 74.2264968,0.0246815839 C69.590767,-0.491168675 69.119019,7.14740193 68.0966579,16.522166 C67.0747776,25.8959577 65.8898774,33.4562513 70.5256071,33.9725878 C71.3358981,34.0630196 72.271219,33.9273719 73.2666506,33.6001643 C70.1053138,31.9018939 71.1526809,24.9469099 72.071171,16.522166 Z" id="Stroke-248" stroke="#003D74" stroke-width="2"></path>
                    <path d="M7.9031509,16.522166 C6.88123319,7.14740193 6.40994879,-0.491168675 1.77356824,0.0246815839 C1.21139328,0.0874004184 0.614112432,0.269236419 0,0.553172848 C2.63149822,2.43619646 3.0989354,8.90644645 3.92897304,16.522166 C4.84749672,24.9469099 5.89442136,31.9018939 2.73344954,33.6001643 C3.72843671,33.9273719 4.66427289,34.0630196 5.47411262,33.9725878 C10.1104932,33.4562513 8.92506861,25.8959577 7.9031509,16.522166" id="Fill-250" fill="#FFFFFF"></path>
                    <path d="M7.9031509,16.522166 C6.88123319,7.14740193 6.40994879,-0.491168675 1.77356824,0.0246815839 C1.21139328,0.0874004184 0.614112432,0.269236419 0,0.553172848 C2.63149822,2.43619646 3.0989354,8.90644645 3.92897304,16.522166 C4.84749672,24.9469099 5.89442136,31.9018939 2.73344954,33.6001643 C3.72843671,33.9273719 4.66427289,34.0630196 5.47411262,33.9725878 C10.1104932,33.4562513 8.92506861,25.8959577 7.9031509,16.522166 Z" id="Stroke-252" stroke="#003D74" stroke-width="2"></path>
                </g>
                <path d="M174.307531,74.3343601 C176.426092,65.8444272 180.185686,44.5348894 169.376916,29.7712791 C168.98858,29.2406894 168.582706,28.7274879 168.164806,28.2257129 C169.094809,26.4148518 168.737038,24.1444443 167.146113,22.7136405 C159.240593,15.604334 147.863099,12 133.327806,12 C118.492367,12 106.953525,15.7523824 99.0304672,23.1528178 C97.4666003,24.6129332 97.1519228,26.8897992 98.1154973,28.6832721 C97.8303835,29.0399794 97.5492783,29.4006612 97.2781947,29.7712791 C86.3687077,44.6715113 90.3011739,66.248828 92.407208,74.5753114 C88.6887024,77.9227962 85.3635437,84.1323855 86.1041381,90.794069 C87.1689305,100.372506 96.2354498,107.241358 101.06635,106.713749 C105.897251,106.18614 104.662091,98.4607929 103.597299,88.8823561 C102.532507,79.3029257 102.040948,71.4975927 97.2105491,72.0252017 C96.5646585,72.0957482 95.8731698,72.3212986 95.1636423,72.6655857 C93.1768649,64.0688394 90.2109797,44.6655496 99.7911047,31.580153 C99.9935406,31.3034316 100.215017,31.0440984 100.426473,30.7758227 C100.999707,31.0137932 101.612025,31.1335236 102.225345,31.1335236 C103.371313,31.1335236 104.519785,30.7171995 105.419221,29.8766022 C111.556434,24.1439475 120.946149,21.2376273 133.327806,21.2376273 C145.47596,21.2376273 154.747921,24.0366372 160.885635,29.5561618 C162.292664,30.8215289 164.265411,31.0719196 165.898427,30.3575113 C166.224629,30.7554536 166.551333,31.1538927 166.857492,31.5712105 C176.381496,44.5686723 173.503801,63.8492507 171.521032,72.5230022 C170.923245,72.2631722 170.338987,72.0853153 169.789805,72.0252017 C164.958904,71.4975927 164.467847,79.3029257 163.402554,88.8823561 C162.337761,98.4607929 161.103103,106.18614 165.933503,106.713749 C167.379115,106.871733 169.204044,106.355551 171.080584,105.315238 C170.449726,106.552783 169.615429,107.873793 168.507043,109.197287 C162.613355,116.229588 151.761492,119.9462 137.123478,119.9462 L137.123478,122 C148.802871,122 156.815396,119.710935 162.295001,116.741514 C165.868963,114.804768 168.365411,112.578597 170.09897,110.509354 C172.339294,107.835539 173.565934,105.174641 174.244896,103.056257 C177.496396,100.200114 180.330498,95.88783 180.895715,90.794069 C181.655851,83.9629743 178.138779,77.6152727 174.307531,74.3343601 Z" id="Stroke-256" stroke="#003D74" stroke-width="2"></path>
                <path d="M133.999739,124 C130.133177,124 127,122.208348 127,120.000484 C127,117.791652 130.133177,116 133.999739,116 C137.865781,116 141,117.791652 141,120.000484 C141,122.208348 137.865781,124 133.999739,124 Z" id="Fill-258" fill="#01063D"></path>
                <path d="M141,120.000484 C141,122.208348 137.865781,124 133.999739,124 C130.133177,124 127,122.208348 127,120.000484 C127,117.791652 130.133177,116 133.999739,116 C137.865781,116 141,117.791652 141,120.000484 Z" id="Stroke-260" stroke="#003D74" stroke-width="2"></path>
                <path d="M216.289621,173.230173 C218.600961,172.757773 220.979063,173.65713 222.379523,175.532746 L225.576962,179.864741 C233.71976,176.826103 240.88087,171.673152 246.305187,164.950695 L243.107748,160.6187 C241.72853,158.727604 241.589951,156.216795 242.752702,154.189371 C244.188565,151.671072 245.331591,148.999966 246.159527,146.227989 C247.044613,143.362131 249.944663,141.588385 252.937268,142.082258 L261.895863,143.469994 C262.073892,143.497959 262.249392,143.533414 262.42388,143.576359 C265.662286,144.37834 267.629201,147.620719 266.816945,150.818156 C264.388773,159.779767 259.856117,168.050755 253.587174,174.960474 C247.870526,181.373324 240.793373,186.465852 232.85895,189.87452 C224.315081,193.638736 214.995877,195.371534 205.650373,194.933591 C205.460711,194.921106 205.272061,194.900133 205.084929,194.87067 C201.78836,194.346337 199.546815,191.28273 200.077867,188.027867 L201.483384,179.183607 C201.883949,176.178426 204.501783,173.946762 207.570758,173.993702 C210.496602,174.064612 213.421434,173.808438 216.289621,173.230173 Z" id="Fill-262" fill="#67CEBB"></path>
                <g id="Group-27" transform="translate(116.000000, 129.000000)">
                    <path d="M91.7427828,44.8784361 C94.6601574,44.949491 97.5765234,44.6927925 100.436408,44.1133443 C102.741058,43.6399782 105.112276,44.5411752 106.508682,46.4206289 L109.696866,50.7614864 C117.816093,47.7166313 124.956475,42.5531375 130.36509,35.8169273 L127.176907,31.4760698 C125.801681,29.5811041 125.663503,27.0651581 126.822888,25.0335868 C128.254596,22.510135 129.394313,19.8335647 130.219852,17.0559163 C131.102377,14.1841951 133.994032,12.4068204 136.977974,12.9017032 L145.910637,14.2922787 C146.088151,14.3203004 146.263143,14.3558279 146.437126,14.3988612 C149.666158,15.2024827 151.62738,18.4514957 150.817475,21.6554739 C148.396331,30.6354196 143.876796,38.92333 137.625999,45.8471854 C131.925898,52.2731556 124.869231,57.3761026 116.957775,60.7917445 C108.438638,64.5636619 99.1464088,66.3000049 89.8279563,65.8611655 C89.6388439,65.8486558 89.45074,65.8276396 89.2641491,65.7981167 C85.9771227,65.2727103 83.7420658,62.2028359 84.2715807,58.9413132 L85.6730299,50.0789585 C86.0724354,47.0676293 88.6826914,44.8313997 91.7427828,44.8784361 Z" id="Stroke-264" stroke="#003D74" stroke-width="2"></path>
                    <path d="M47.6143366,37.5421687 L5.79583787,37.5951112 C4.81843806,37.6172134 3.91160321,37.8248713 2.97674257,38.3306519 L1.71708291,39.2060019 C-0.442405152,41.1114173 -0.592042911,45.2121467 1.42181107,47.2779316 C2.61791222,48.5043468 4.23840407,49.1936271 5.9279595,49.1936271 L58.48034,49.1936271 C59.8100642,49.1936271 61.0707248,49.8022087 61.9190057,50.8533483 C64.0769924,53.5287427 64.3407352,57.3169573 62.5761107,60.2796804 C61.6537615,61.8278625 60.0137517,62.7720892 58.2466249,62.7720892 L50.8733369,62.7720892 C48.8104378,62.7720892 46.8551377,63.7209418 45.545432,65.3575328 L45.2791868,65.6900938 C43.6146544,67.7707848 43.4194748,70.7067796 44.7932395,73.0002686 C45.9107683,74.8645636 47.88959,76 50.0210523,76 L74.1362531,76 C75.5870888,76 76.9873779,75.455669 78.0738781,74.468266 C79.7999672,72.9005517 80.3790003,71.7563772 81.1321937,68.6009024 L81.4484848,65.0789422" id="Stroke-266" stroke="#003D74" stroke-width="2" stroke-linecap="round" stroke-linejoin="round"></path>
                    <path d="M53.0787879,37.5419513 C53.0787879,38.047924 52.6693037,38.4578313 52.1638535,38.4578313 C51.6584032,38.4578313 51.2484848,38.047924 51.2484848,37.5419513 C51.2484848,37.0364134 51.6584032,36.626506 52.1638535,36.626506 C52.6693037,36.626506 53.0787879,37.0364134 53.0787879,37.5419513" id="Fill-268" fill="#003D74"></path>
                    <path d="M56.7393939,37.5419513 C56.7393939,38.047924 56.3298126,38.4578313 55.8246768,38.4578313 C55.3186722,38.4578313 54.9090909,38.047924 54.9090909,37.5419513 C54.9090909,37.0364134 55.3186722,36.626506 55.8246768,36.626506 C56.3298126,36.626506 56.7393939,37.0364134 56.7393939,37.5419513" id="Fill-270" fill="#003D74"></path>
                    <path d="M60.4,37.5419513 C60.4,38.047924 59.9904187,38.4578313 59.4848485,38.4578313 C58.9792783,38.4578313 58.569697,38.047924 58.569697,37.5419513 C58.569697,37.0364134 58.9792783,36.626506 59.4848485,36.626506 C59.9904187,36.626506 60.4,37.0364134 60.4,37.5419513" id="Fill-272" fill="#003D74"></path>
                    <path d="M64.0606061,37.5419513 C64.0606061,38.047924 63.6510247,38.4578313 63.1454545,38.4578313 C62.6398844,38.4578313 62.230303,38.047924 62.230303,37.5419513 C62.230303,37.0364134 62.6398844,36.626506 63.1454545,36.626506 C63.6510247,36.626506 64.0606061,37.0364134 64.0606061,37.5419513" id="Fill-274" fill="#003D74"></path>
                    <path d="M67.7212121,37.5419513 C67.7212121,38.047924 67.3116308,38.4578313 66.8064949,38.4578313 C66.3004904,38.4578313 65.8909091,38.047924 65.8909091,37.5419513 C65.8909091,37.0364134 66.3004904,36.626506 66.8064949,36.626506 C67.3116308,36.626506 67.7212121,37.0364134 67.7212121,37.5419513" id="Fill-276" fill="#003D74"></path>
                    <path d="M71.3818182,37.5419513 C71.3818182,38.047924 70.9722368,38.4578313 70.467101,38.4578313 C69.9610965,38.4578313 69.5515152,38.047924 69.5515152,37.5419513 C69.5515152,37.0364134 69.9610965,36.626506 70.467101,36.626506 C70.9722368,36.626506 71.3818182,37.0364134 71.3818182,37.5419513" id="Fill-278" fill="#003D74"></path>
                    <path d="M75.0424242,37.5419513 C75.0424242,38.047924 74.6328429,38.4578313 74.1272727,38.4578313 C73.6217025,38.4578313 73.2121212,38.047924 73.2121212,37.5419513 C73.2121212,37.0364134 73.6217025,36.626506 74.1272727,36.626506 C74.6328429,36.626506 75.0424242,37.0364134 75.0424242,37.5419513" id="Fill-280" fill="#003D74"></path>
                    <path d="M110.085181,20.1445783 C109.317566,13.3368157 113.346064,6.90364655 119.786715,4.64962781 M104.445778,19.6795659 C103.471421,11.0341098 108.587539,2.86260877 116.768185,0 M115.595494,19.650751 C115.460964,15.4407984 117.882019,11.569669 121.715152,9.8626361" id="Stroke-282" stroke="#003D74" stroke-width="2" stroke-linecap="round" stroke-linejoin="round"></path>
                </g>
            </g>
        </g>
    </g>
</svg>