<?xml version="1.0" encoding="UTF-8"?>
<svg width="16px" height="17px" viewBox="0 0 16 17" version="1.1" xmlns="http://www.w3.org/2000/svg" xmlns:xlink="http://www.w3.org/1999/xlink">
    <!-- Generator: sketchtool 52.5 (67469) - http://www.bohemiancoding.com/sketch -->
    <title>51B9DAD3-EE02-48B0-8625-7DBF8123095D</title>
    <desc>Created with sketchtool.</desc>
    <defs>
        <polygon id="path-1" points="0 0.000164 16 0.000164 16 16.4 0 16.4"></polygon>
    </defs>
    <g id="-Page1" stroke="none" stroke-width="1" fill="none" fill-rule="evenodd">
        <g id="NBN-Explained" transform="translate(-352.000000, -7116.000000)">
            <g id="Group-12-Copy" transform="translate(189.000000, 7104.000000)">
                <g id="Group-8" transform="translate(163.000000, 12.300000)">
                    <g id="Group-23">
                        <g id="Group-3">
                            <mask id="mask-2" fill="white">
                                <use xlink:href="#path-1"></use>
                            </mask>
                            <g id="Clip-2"></g>
                            <path d="M4,0.000164 L12,0.000164 C14.2096,0.000164 16,1.835324 16,4.100164 L16,12.300164 C16,14.564184 14.2096,16.400164 12,16.400164 L4,16.400164 C1.7912,16.400164 0,14.564184 0,12.300164 L0,4.100164 C0,1.835324 1.7912,0.000164 4,0.000164" id="Fill-1" fill="#003D74" mask="url(#mask-2)"></path>
                        </g>
                        <path d="M11.3910463,7.6842356 C11.6687138,9.6044839 10.3755031,11.3912108 8.50296125,11.6758222 C6.63041944,11.9604336 4.88728442,10.6348825 4.60875989,8.71551259 C4.33194937,6.79526429 5.62430316,5.00853737 7.49770196,4.723926 C7.8310744,4.67297705 8.16958882,4.67297705 8.50296125,4.723926 C9.9967097,4.95143941 11.1690837,6.15313185 11.3910463,7.6842356" id="Fill-4" fill="#FFFFFF"></path>
                        <path d="M13.7017773,3.34236425 C13.7943332,3.98244701 13.3632629,4.57802265 12.7390823,4.67289311 C12.1149017,4.76776357 11.5338567,4.3259132 11.4410152,3.68612324 C11.348745,3.04604048 11.7795296,2.45046484 12.4039959,2.35559438 C12.51512,2.3386114 12.6279582,2.3386114 12.7390823,2.35559438 C13.2369985,2.43143218 13.6277898,2.83199633 13.7017773,3.34236425" id="Fill-4" fill="#FFFFFF"></path>
                    </g>
                </g>
            </g>
        </g>
    </g>
</svg>