<?xml version="1.0" encoding="UTF-8"?>
<svg width="21px" height="15px" viewBox="0 0 21 15" version="1.1" xmlns="http://www.w3.org/2000/svg" xmlns:xlink="http://www.w3.org/1999/xlink">
    <!-- Generator: sketchtool 52.5 (67469) - http://www.bohemiancoding.com/sketch -->
    <title>512E6052-091F-49AD-B7C1-63895DBAADD9</title>
    <desc>Created with sketchtool.</desc>
    <defs>
        <polygon id="path-1" points="0.000303202286 0.0001 20.088 0.0001 20.088 14.7898 0.000303202286 14.7898"></polygon>
    </defs>
    <g id="Symbols" stroke="none" stroke-width="1" fill="none" fill-rule="evenodd">
        <g id="contact" transform="translate(-300.000000, -408.000000)">
            <g id="Group-3" transform="translate(300.000000, 408.000000)">
                <mask id="mask-2" fill="white">
                    <use xlink:href="#path-1"></use>
                </mask>
                <g id="Clip-2"></g>
                <path d="M7.9898,10.5428 L7.9898,4.2858 L13.2398,7.4148 L7.9898,10.5428 Z M19.6678,2.3148 C19.4468,1.3908 18.7718,0.6608 17.8958,0.4018 C16.3258,-0.0002 10.0438,-0.0002 10.0438,-0.0002 C10.0438,-0.0002 3.7618,-0.0002 2.1918,0.4398 C1.3168,0.6998 0.6418,1.4298 0.4208,2.3538 C0.1328,4.0238 -0.0082,5.7168 0.0008,7.4148 C-0.0092,9.1238 0.1318,10.8308 0.4208,12.5138 C0.6648,13.4078 1.3358,14.1058 2.1918,14.3498 C3.7618,14.7898 10.0438,14.7898 10.0438,14.7898 C10.0438,14.7898 16.3258,14.7898 17.8958,14.3498 C18.7718,14.0908 19.4468,13.3608 19.6678,12.4368 C19.9518,10.7788 20.0928,9.0978 20.0878,7.4148 C20.0978,5.7048 19.9568,3.9978 19.6678,2.3148 Z" id="Fill-1" fill="#3464A9" mask="url(#mask-2)"></path>
            </g>
        </g>
    </g>
</svg>