<?xml version="1.0" encoding="UTF-8"?>
<svg width="393px" height="432px" viewBox="0 0 393 432" version="1.1" xmlns="http://www.w3.org/2000/svg" xmlns:xlink="http://www.w3.org/1999/xlink">
    <!-- Generator: sketchtool 52.5 (67469) - http://www.bohemiancoding.com/sketch -->
    <title>208AA4A4-517C-40A2-B8B8-2E661F2C23ED</title>
    <desc>Created with sketchtool.</desc>
    <g id="design-desk" stroke="none" stroke-width="1" fill="none" fill-rule="evenodd">
        <g id="NBN-Explained" transform="translate(-500.000000, -2446.000000)" stroke="#979797">
            <g id="Group-24-Copy" transform="translate(719.820112, 2678.924188) rotate(-45.000000) translate(-719.820112, -2678.924188) translate(440.820112, 2623.424188)">
                <path d="M4.25914498,61.3027224 C43.260557,23.0354575 81.0236107,23.2985777 117.548306,62.092083 C172.335349,120.282341 212.787624,113.312041 234.785453,98.7984812 C256.783282,84.2849216 282.855929,22.4936665 344.507756,36.6397295 C406.159583,50.7857925 441.855055,74.7822009 472.167288,63.70255 C502.479521,52.6228991 502.479521,27.3666197 557.259145,20.9200038" id="Path-22-Copy-3" opacity="0.246140253"></path>
                <path d="M0.723611076,24.4157023 C40.0889385,19.5751071 70.0052355,33.6884589 90.4725019,66.7557575 C121.173402,116.356705 172.585391,116.046836 188.187888,104.023358 C203.790385,91.9998798 259.140936,44.1837768 318.019603,50.9861925 C376.898269,57.7886082 402.442628,70.3354096 432.754861,59.281484 C463.067094,48.2275585 493.502012,-8.42335551 553.723611,2.00167157" id="Path-22-Copy-3" opacity="0.322986421"></path>
            </g>
        </g>
    </g>
</svg>