<?xml version="1.0" encoding="UTF-8"?>
<svg width="393px" height="432px" viewBox="0 0 393 432" version="1.1" xmlns="http://www.w3.org/2000/svg" xmlns:xlink="http://www.w3.org/1999/xlink">
    <!-- Generator: sketchtool 52.5 (67469) - http://www.bohemiancoding.com/sketch -->
    <title>7120040F-C4C2-4C60-A31A-E5B93B1BF5FD</title>
    <desc>Created with sketchtool.</desc>
    <g id="design-desk" stroke="none" stroke-width="1" fill="none" fill-rule="evenodd">
        <g id="NBN-Explained" transform="translate(-500.000000, -3399.000000)" stroke="#979797">
            <g id="Group-24-Copy-3" transform="translate(720.173665, 3632.506709) rotate(-45.000000) translate(-720.173665, -3632.506709) translate(441.673665, 3577.006709)">
                <path d="M3.92104986,60.6408175 C42.9224619,22.3735526 80.6855156,22.6366728 117.210211,61.4301781 C171.997254,119.620436 212.449529,112.650136 234.447358,98.1365763 C256.445187,83.6230168 282.517834,21.8317616 344.169661,35.9778246 C405.821488,50.1238876 441.51696,74.120296 471.829193,63.0406451 C502.141426,51.9609943 502.141426,26.7047148 556.92105,20.258099" id="Path-22-Copy-3" opacity="0.246140253"></path>
                <path d="M0.385515959,23.7537974 C39.7508434,18.9132023 69.6671403,33.026554 90.1344068,66.0938526 C120.835307,115.6948 172.247296,115.384932 187.849793,103.361453 C203.45229,91.337975 258.802841,43.5218719 317.681508,50.3242877 C376.560174,57.1267034 402.104533,69.6735047 432.416766,58.6195792 C462.728999,47.5656536 493.163916,-9.0852604 553.385516,1.33976669" id="Path-22-Copy-3" opacity="0.322986421"></path>
            </g>
        </g>
    </g>
</svg>