<?xml version="1.0" encoding="UTF-8"?>
<svg width="26px" height="26px" viewBox="0 0 26 26" version="1.1" xmlns="http://www.w3.org/2000/svg" xmlns:xlink="http://www.w3.org/1999/xlink">
    <!-- Generator: sketchtool 52.5 (67469) - http://www.bohemiancoding.com/sketch -->
    <title>C4ABFE3F-9E0A-405C-89AA-B4D15A21AE03</title>
    <desc>Created with sketchtool.</desc>
    <g id="-Page1" stroke="none" stroke-width="1" fill="none" fill-rule="evenodd" stroke-linecap="round" stroke-linejoin="round">
        <g id="NBN-Explained" transform="translate(-188.000000, -6966.000000)" stroke="#9EB0BA" stroke-width="2">
            <path d="M212.999258,6984.96752 L212.999258,6988.5805 C213.005291,6989.91008 211.9277,6990.99398 210.595492,6991 C210.51947,6991 210.444654,6990.99639 210.368631,6990.98916 C206.655586,6990.58692 203.088552,6989.31996 199.954727,6987.29308 C197.039317,6985.44443 194.566769,6982.97677 192.71447,6980.06711 C190.675131,6976.92502 189.405672,6973.34816 189.009872,6969.62438 C188.890407,6968.29962 189.869049,6967.12901 191.196429,6967.00858 C191.267625,6967.00256 191.338821,6967.00015 191.411224,6967.00015 L195.031352,6967.00015 C196.242889,6966.9869 197.275832,6967.87328 197.444772,6969.07039 C197.598024,6970.22654 197.8816,6971.36222 198.289468,6972.45455 C198.621313,6973.33491 198.408932,6974.32728 197.746449,6974.99568 L196.213928,6976.52518 C197.932282,6979.54082 200.432584,6982.03618 203.454185,6983.75115 L204.986706,6982.22286 C205.65643,6981.56048 206.650759,6981.34972 207.532864,6981.68091 C208.627349,6982.08797 209.765276,6982.37099 210.923717,6982.52394 C212.136461,6982.69375 213.029426,6983.74513 212.999258,6984.96752 Z" id="Stroke-1"></path>
        </g>
    </g>
</svg>