<?xml version="1.0" encoding="UTF-8"?>
<svg width="432px" height="393px" viewBox="0 0 432 393" version="1.1" xmlns="http://www.w3.org/2000/svg" xmlns:xlink="http://www.w3.org/1999/xlink">
    <!-- Generator: sketchtool 52.5 (67469) - http://www.bohemiancoding.com/sketch -->
    <title>09EAED2B-B8D9-4D95-BAFF-0ACC74652BA0</title>
    <desc>Created with sketchtool.</desc>
    <g id="design-desk" stroke="none" stroke-width="1" fill="none" fill-rule="evenodd">
        <g id="NBN-Explained" transform="translate(-658.000000, -2088.000000)" stroke="#979797">
            <g id="Group-24" transform="translate(856.527218, 2308.024693) rotate(-315.000000) translate(-856.527218, -2308.024693) translate(577.527218, 2252.524693)">
                <path d="M4.04089091,61.2316546 C43.042303,22.9643897 80.8053567,23.2275099 117.330052,62.0210152 C172.117095,120.211273 212.56937,113.240973 234.567199,98.7274134 C256.565028,84.2138538 282.637675,22.4225987 344.289502,36.5686617 C405.941329,50.7147247 441.636801,74.7111331 471.949034,63.6314822 C502.261267,52.5518313 502.261267,27.2955519 557.040891,20.848936" id="Path-22-Copy-3" opacity="0.246140253"></path>
                <path d="M0.505357006,24.3446345 C39.8706844,19.5040393 69.7869814,33.617391 90.2542479,66.6846896 C120.955148,116.285638 172.367137,115.975769 187.969634,103.95229 C203.572131,91.928812 258.922682,44.112709 317.801349,50.9151247 C376.680015,57.7175404 402.224374,70.2643418 432.536607,59.2104162 C462.84884,48.1564907 493.283758,-8.49442332 553.505357,1.93060376" id="Path-22-Copy-3" opacity="0.322986421"></path>
            </g>
        </g>
    </g>
</svg>