<?xml version="1.0" encoding="UTF-8"?>
<svg width="432px" height="393px" viewBox="0 0 432 393" version="1.1" xmlns="http://www.w3.org/2000/svg" xmlns:xlink="http://www.w3.org/1999/xlink">
    <!-- Generator: sketchtool 52.5 (67469) - http://www.bohemiancoding.com/sketch -->
    <title>5C93AF34-709B-49BF-97DF-D1CFCC4B0F02</title>
    <desc>Created with sketchtool.</desc>
    <g id="design-desk" stroke="none" stroke-width="1" fill="none" fill-rule="evenodd">
        <g id="NBN-Explained" transform="translate(-578.000000, -2949.000000)" stroke="#979797">
            <g id="Group-24-Copy-2" transform="translate(776.173665, 3169.073160) rotate(-315.000000) translate(-776.173665, -3169.073160) translate(497.673665, 3113.573160)">
                <path d="M3.89370465,61.0844683 C42.8951167,22.8172034 80.6581704,23.0803236 117.182866,61.8738289 C171.969909,120.064087 212.422184,113.093787 234.420012,98.5802271 C256.417841,84.0666676 282.490489,22.2754124 344.142316,36.4214754 C405.794143,50.5675384 441.489615,74.5639468 471.801848,63.484296 C502.114081,52.4046451 502.114081,27.1483657 556.893705,20.7017498" id="Path-22-Copy-3" opacity="0.246140253"></path>
                <path d="M0.358170749,24.1974482 C39.7234982,19.3568531 69.6397951,33.4702048 90.1070616,66.5375034 C120.807961,116.138451 172.219951,115.828582 187.822448,103.805104 C203.424944,91.7816258 258.775496,43.9655228 317.654162,50.7679385 C376.532829,57.5703542 402.077188,70.1171555 432.389421,59.06323 C462.701654,48.0093044 493.136571,-8.64160958 553.358171,1.7834175" id="Path-22-Copy-3" opacity="0.322986421"></path>
            </g>
        </g>
    </g>
</svg>