<?xml version="1.0" encoding="UTF-8"?>
<svg width="60px" height="59px" viewBox="0 0 60 59" version="1.1" xmlns="http://www.w3.org/2000/svg" xmlns:xlink="http://www.w3.org/1999/xlink">
    <!-- Generator: sketchtool 52.5 (67469) - http://www.bohemiancoding.com/sketch -->
    <title>5A9CC8C1-CB4D-4D95-9B70-9EB7DE730790</title>
    <desc>Created with sketchtool.</desc>
    <defs>
        <polygon id="path-1" points="0.0199335938 0.0708742138 25.0582148 0.0708742138 25.0582148 31.5302556 0.0199335938 31.5302556"></polygon>
    </defs>
    <g id="design" stroke="none" stroke-width="1" fill="none" fill-rule="evenodd">
        <g id="NBN-Explained" transform="translate(-1018.000000, -5840.000000)">
            <g id="Group-43" transform="translate(1018.000000, 5840.000000)">
                <g id="Group-40">
                    <path d="M4.04588672,17.32334 L4.04588672,52.5308788 C4.04588672,54.3915434 5.79596484,56.2388495 7.95491016,56.2388495 L52.0451836,56.2388495 C54.2041289,56.2388495 55.954207,54.3916671 55.954207,52.5308788 L55.954207,17.32334 C55.954207,14.6267803 54.2041289,12.7795979 52.0451836,12.7795979 L7.95491016,12.7795979 C5.79596484,12.7794742 4.04588672,14.6267803 4.04588672,17.32334" id="Fill-1" fill="#D4D6DB"></path>
                    <path d="M52.0451016,12.7796103 L49.0763906,12.7796103 C51.2352187,12.7796103 52.9852969,14.6267927 52.9852969,17.3233524 L52.9852969,52.5308912 C52.9852969,54.3916795 51.2353359,56.2389855 49.0763906,56.2389855 L52.0451016,56.2389855 C54.2040469,56.2389855 55.9540078,54.3916795 55.9540078,52.5308912 L55.9540078,17.3233524 C55.9540078,14.6267927 54.2040469,12.7796103 52.0451016,12.7796103" id="Fill-3" fill="#D5DBDC"></path>
                    <path d="M7.95479297,46.2097277 C7.73412891,46.2097277 7.55225391,46.0635264 7.47701953,45.9679143 L7.47701953,17.3232287 C7.47701953,17.2288535 7.49037891,16.4011218 7.95479297,16.4011218 L52.0450664,16.4011218 C52.5095977,16.4011218 52.522957,17.2288535 52.522957,17.3232287 L52.522957,45.9679143 C52.4477227,46.0635264 52.2658477,46.2097277 52.0450664,46.2097277 L7.95479297,46.2097277 Z" id="Fill-5" fill="#FFFFFF"></path>
                    <path d="M35.2788164,52.7608057 L35.2788164,53.7096296 C35.2788164,54.1712396 34.9244414,54.545401 34.4869805,54.545401 L25.5129961,54.545401 C25.0756523,54.545401 24.7211602,54.1712396 24.7211602,53.7096296 L24.7211602,52.7608057 C24.7211602,52.2993193 24.366668,51.9250342 23.9293242,51.9250342 L1.67073047,51.9250342 C1.23338672,51.9250342 0.878894531,52.2993193 0.878894531,52.7608057 L0.878894531,54.9398476 C0.878894531,56.6306862 2.17756641,58.0014157 3.77951953,58.0014157 L56.220457,58.0014157 C57.8224102,58.0014157 59.121082,56.6306862 59.121082,54.9398476 L59.121082,52.7608057 C59.121082,52.2993193 58.7665898,51.9250342 58.3292461,51.9250342 L36.0706523,51.9250342 C35.6333086,51.9251579 35.2788164,52.299443 35.2788164,52.7608057" id="Fill-7" fill="#EBEEF2"></path>
                    <path d="M58.3292812,51.9251826 L55.416,51.9251826 C55.8533437,51.9251826 56.2077187,52.299344 56.2077187,52.7609541 L56.2077187,54.939996 C56.2077187,56.6308346 54.9090469,58.0015642 53.3072109,58.0015642 L56.2204922,58.0015642 C57.8224453,58.0015642 59.1211172,56.6308346 59.1211172,54.939996 L59.1211172,52.7609541 C59.1211172,52.299344 58.7665078,51.9251826 58.3292812,51.9251826" id="Fill-9" fill="#D1D6DE"></path>
                    <path d="M40.2762187,28.2632388 C40.9827422,28.2632388 41.5665703,27.6842472 41.6145,26.9401298 C41.6317266,26.6707335 41.6408672,26.3988635 41.6408672,26.1247671 C41.6408672,19.3390249 36.4290703,13.838048 30.0000469,13.838048 C23.5710234,13.838048 18.3592266,19.3390249 18.3592266,26.1247671 C18.3592266,26.3988635 18.36825,26.6707335 18.3855937,26.9401298 C18.4334062,27.6842472 19.0173516,28.2632388 19.723875,28.2632388 L40.2762187,28.2632388 Z" id="Fill-11" fill="#1DB199"></path>
                    <path d="M33.0931055,30.6552621 C33.7263867,30.6552621 34.294043,30.245478 34.5238477,29.6225765 C36.5738086,24.0644549 38.2586133,16.398413 38.2586133,12.0736017 C38.2586133,5.77247589 29.9999414,1.05099161 29.9999414,1.05099161 C29.9999414,1.05099161 21.7412695,5.77247589 21.7412695,12.0736017 C21.7412695,16.398413 23.4260742,24.0644549 25.4760352,29.6225765 C25.7057227,30.245478 26.2736133,30.6552621 26.9067773,30.6552621 L33.0931055,30.6552621 Z" id="Fill-13" fill="#EBEEF2"></path>
                    <path d="M30,1.05114004 C30,1.05114004 35.0390625,5.77262432 35.0390625,12.0737501 C35.0390625,16.3985614 34.0110938,24.0646034 32.7602344,29.6227249 C32.6200781,30.2456264 32.2736719,30.6554105 31.8873047,30.6554105 L33.0931641,30.6554105 C33.7264453,30.6554105 34.2941016,30.2456264 34.5239062,29.6227249 C36.5738672,24.0646034 38.2586719,16.3985614 38.2586719,12.0737501 C38.2586719,5.77262432 30,1.05114004 30,1.05114004" id="Fill-15" fill="#D1D6DE"></path>
                    <path d="M30,11.851826 C31.7037891,11.851826 33.0849609,13.3096331 33.0849609,15.1079581 C33.0849609,16.906283 31.7037891,18.3640901 30,18.3640901 C28.2962109,18.3640901 26.9150391,16.906283 26.9150391,15.1079581 C26.9150391,13.3096331 28.2962109,11.851826 30,11.851826" id="Fill-17" fill="#F5A623"></path>
                    <path d="M22.815,8.08400189 L37.1851172,8.08400189 C34.9496484,3.88176709 30,1.05112767 30,1.05112767 C30,1.05112767 25.0503516,3.88176709 22.815,8.08400189" id="Fill-19" fill="#5C9CEE"></path>
                    <path d="M34.3840078,8.08400189 L37.1850234,8.08400189 C35.3359219,4.60782579 31.62975,2.07045472 30.4040859,1.29727023 C30.4009219,1.29529119 30.3977578,1.29331216 30.3948281,1.29145681 C30.3293203,1.25026813 30.2713125,1.21415073 30.2210391,1.18335199 C30.2196328,1.18248616 30.2179922,1.18149665 30.2164687,1.18063082 C30.2019375,1.17172516 30.1885781,1.16343795 30.1754531,1.1555218 C30.1711172,1.15292432 30.1667812,1.15020314 30.1626797,1.14772935 C30.1504922,1.14030797 30.1387734,1.13338134 30.1281094,1.12682579 C30.1234219,1.12410461 30.1189687,1.12150713 30.11475,1.11878595 C30.1052578,1.11309623 30.0956484,1.1074065 30.0873281,1.10233522 C30.0759609,1.09553229 30.0652969,1.08922411 30.0561562,1.08378176 C30.0508828,1.08068952 30.0467812,1.07833941 30.0422109,1.07561824 C30.0372891,1.07277338 30.0320156,1.06968113 30.0279141,1.06733103 C30.0243984,1.0652283 30.0212344,1.06337296 30.0184219,1.06176499 C30.0154922,1.06003333 30.0129141,1.05854906 30.0106875,1.05718847 C30.0082266,1.05582788 30.0055312,1.05421992 30.0040078,1.05335409 C30.0024844,1.05248826 30.000375,1.05125136 30.000375,1.05125136 C30.000375,1.05125136 33.0200625,3.88176709 34.3840078,8.08400189" id="Fill-21" fill="#3580D3"></path>
                    <path d="M27.8001562,38.2534849 C27.8001562,40.0455017 28.6761328,41.620814 30,42.5309231 C31.3238672,41.620814 32.1997266,40.0455017 32.1997266,38.2534849 C32.1997266,36.4615918 31.32375,34.8862795 30,33.9760468 C28.6761328,34.8862795 27.8001562,36.4615918 27.8001562,38.2534849" id="Fill-23" fill="#FCAB29"></path>
                    <path d="M4.04576953,25.7404631 C4.53116016,25.7404631 4.92467578,25.3252367 4.92467578,24.8127901 L4.92467578,17.3232535 C4.92467578,15.2279495 6.19908984,13.7071843 7.95479297,13.7071843 L18.3044414,13.7071843 C18.789832,13.7071843 19.1833477,13.2919579 19.1833477,12.7795113 C19.1833477,12.2670648 18.789832,11.8518384 18.3044414,11.8518384 L7.95479297,11.8518384 C5.22526172,11.8518384 3.16686328,14.2040459 3.16686328,17.3232535 L3.16686328,24.8127901 C3.16686328,25.3252367 3.56037891,25.7404631 4.04576953,25.7404631" id="Fill-25" fill="#003D74"></path>
                    <path d="M7.95479297,15.4734365 C7.14326953,15.4734365 6.59811328,16.2168117 6.59811328,17.3232164 L6.59811328,45.9679019 C6.59811328,46.1844826 6.66994922,46.3942604 6.80108203,46.5608704 C7.02057422,46.8396671 7.43893359,47.1373883 7.95479297,47.1373883 L52.0450664,47.1373883 C52.5606914,47.1373883 52.979168,46.8397908 53.1986602,46.5611178 C53.3300273,46.3945078 53.4018633,46.1846063 53.4018633,45.9679019 L53.4018633,41.1688642 C53.4018633,40.6565413 53.0084648,40.2411912 52.522957,40.2411912 C52.0374492,40.2411912 51.6440508,40.6565413 51.6440508,41.1688642 L51.6440508,45.2820423 L8.35592578,45.2820423 L8.35592578,17.3287824 L18.5983477,17.3287824 C19.0837383,17.3287824 19.4772539,16.913556 19.4772539,16.4011094 C19.4772539,15.8886629 19.0837383,15.4734365 18.5983477,15.4734365 L7.95479297,15.4734365 Z" id="Fill-27" fill="#003D74"></path>
                    <path d="M52.5230039,38.4006015 C53.0085117,38.4006015 53.4019102,37.9853751 53.4019102,37.4729285 L53.4019102,17.3232535 C53.4019102,16.2168488 52.8566367,15.4734736 52.0451133,15.4734736 L41.6408555,15.4734736 C41.1553477,15.4734736 40.7619492,15.8887 40.7619492,16.4011465 C40.7619492,16.9135931 41.1553477,17.3288195 41.6408555,17.3288195 L51.6440977,17.3288195 L51.6440977,37.4728048 C51.6440977,37.9852514 52.0374961,38.4006015 52.5230039,38.4006015" id="Fill-29" fill="#003D74"></path>
                    <path d="M58.2421875,54.939996 C58.2421875,56.1166564 57.3352734,57.0738912 56.2204688,57.0738912 L3.77953125,57.0738912 C2.66472656,57.0738912 1.7578125,56.1166564 1.7578125,54.939996 L1.7578125,52.8528556 L4.04308594,52.8528556 C4.04378906,52.8528556 4.04460938,52.8529792 4.0453125,52.8529792 C4.04601563,52.8529792 4.04683594,52.8528556 4.04753906,52.8528556 L23.8422656,52.8528556 L23.8422656,53.709778 C23.8422656,54.6821029 24.5917969,55.4733461 25.5130078,55.4733461 L34.4869922,55.4733461 C35.4082031,55.4733461 36.1577344,54.6821029 36.1577344,53.709778 L36.1577344,52.8528556 L55.9524609,52.8528556 C55.9531641,52.8528556 55.9539844,52.8529792 55.9546875,52.8529792 C55.9553906,52.8529792 55.9562109,52.8528556 55.9569141,52.8528556 L58.2421875,52.8528556 L58.2421875,54.939996 Z M58.3292578,50.9975096 L56.8335938,50.9975096 L56.8335938,17.323105 C56.8335938,14.2042686 54.7750781,11.8524321 52.0453125,11.8524321 L41.7738281,11.8524321 C41.2883203,11.8524321 40.8949219,12.2676585 40.8949219,12.780105 C40.8949219,13.2925516 41.2883203,13.707778 41.7738281,13.707778 L52.0453125,13.707778 C53.80125,13.707778 55.0757813,15.2282958 55.0757813,17.323105 L55.0757813,50.9975096 L36.0706641,50.9975096 C35.1494531,50.9975096 34.3999219,51.7886291 34.3999219,52.7609541 L34.3999219,53.6180002 L25.6000781,53.6180002 L25.6000781,52.7609541 C25.6000781,51.7886291 24.8505469,50.9975096 23.9293359,50.9975096 L4.92421875,50.9975096 L4.92421875,28.5230862 C4.92421875,28.0106396 4.53070312,27.5954132 4.0453125,27.5954132 C3.55992187,27.5954132 3.16640625,28.0106396 3.16640625,28.5230862 L3.16640625,50.997386 L1.67074219,50.997386 C0.74953125,50.9975096 0,51.7885055 0,52.7608304 L0,54.9398723 C0,57.1395704 1.69546875,58.9291134 3.77953125,58.9291134 L56.2204688,58.9291134 C58.3045313,58.9291134 60,57.1395704 60,54.9398723 L60,52.7608304 C60,51.7885055 59.2504688,50.9975096 58.3292578,50.9975096 Z" id="Fill-31" fill="#003D74"></path>
                    <path d="M30,12.779734 C31.2164063,12.779734 32.2060547,13.8242937 32.2060547,15.1081931 C32.2060547,16.3920925 31.2164063,17.4366522 30,17.4366522 C28.7835938,17.4366522 27.7939453,16.3920925 27.7939453,15.1081931 C27.7939453,13.8242937 28.7835938,12.779734 30,12.779734 M30,19.2919981 C32.1856641,19.2919981 33.9638672,17.4151302 33.9638672,15.1081931 C33.9638672,12.801256 32.1856641,10.9243881 30,10.9243881 C27.8143359,10.9243881 26.0361328,12.801256 26.0361328,15.1081931 C26.0361328,17.4151302 27.8143359,19.2919981 30,19.2919981" id="Fill-33" fill="#003D74"></path>
                    <g id="Group-37" transform="translate(17.460938, 0.052816)">
                        <mask id="mask-2" fill="white">
                            <use xlink:href="#path-1"></use>
                        </mask>
                        <g id="Clip-36"></g>
                        <path d="M19.1888789,8.95885933 C19.7521992,10.1762136 19.9187227,11.2165679 19.9187227,12.0209222 C19.9187227,16.085614 18.304582,23.6461486 16.2438398,29.2333373 C16.1448164,29.5014966 15.9048164,29.674786 15.6321211,29.674786 L9.44579297,29.674786 C9.17309766,29.674786 8.93309766,29.5014966 8.83407422,29.2333373 C6.77344922,23.6462723 5.15919141,16.0857377 5.15919141,12.0209222 C5.15919141,11.0222514 5.40364453,9.99723459 5.88528516,8.95885933 L19.1888789,8.95885933 Z M23.3004023,26.0720753 C23.3004023,26.3287314 23.2924336,26.5816769 23.2767305,26.8241088 C23.2600898,27.0813834 23.0574727,27.2829977 22.8152461,27.2829977 L18.7766133,27.2829977 C19.6406367,24.552547 20.3742305,21.6196161 20.8873945,18.9066057 C22.4354414,20.9185428 23.3004023,23.4501004 23.3004023,26.0720753 Z M2.26290234,27.2829977 C2.02079297,27.2829977 1.81805859,27.0815071 1.80141797,26.8234904 C1.78571484,26.5818006 1.77762891,26.3289788 1.77762891,26.0720753 C1.77762891,23.4501004 2.64258984,20.9185428 4.19063672,18.906482 C4.70380078,21.6196161 5.43716016,24.5524233 6.30130078,27.2829977 L2.26290234,27.2829977 Z M3.80180859,16.6100585 C1.39301953,19.0899138 0.0199335938,22.509069 0.0199335938,26.0720753 C0.0199335938,26.3712807 0.0293085938,26.6670229 0.0477070313,26.9501486 C0.126808594,28.1772744 1.09981641,29.1383436 2.26290234,29.1383436 L6.92028516,29.1383436 C7.01133984,29.3971025 7.10309766,29.6540061 7.19614453,29.9064568 C7.56001172,30.8928824 8.44313672,31.5302556 9.44591016,31.5302556 L15.6323555,31.5302556 C16.6352461,31.5302556 17.5182539,30.8928824 17.8820039,29.9064568 C17.9750508,29.6540061 18.0668086,29.3971025 18.1578633,29.1383436 L22.8153633,29.1383436 C23.978332,29.1383436 24.9513398,28.1771507 25.0304414,26.9505197 C25.0488398,26.6664044 25.0582148,26.370786 25.0582148,26.0719516 C25.0582148,22.5089453 23.6851289,19.0899138 21.2762227,16.6099348 C21.5330977,14.8764233 21.6766523,13.3012346 21.6766523,12.0207985 C21.6766523,5.49307317 13.9160273,0.745119287 13.0292695,0.224138155 C13.024582,0.221416981 13.0196602,0.218448428 13.0154414,0.215974633 C13.0142695,0.215356184 13.0132148,0.214737736 13.012043,0.213995597 C12.9855586,0.198534382 12.9669258,0.187773375 12.9577852,0.182578407 C12.9564961,0.181959958 12.9554414,0.181588889 12.9543867,0.180846751 C12.9248555,0.164148637 12.8947383,0.149800629 12.8643867,0.136936897 C12.856418,0.133597275 12.848332,0.130876101 12.8403633,0.127783857 C12.8155195,0.118136059 12.7903242,0.109725157 12.7652461,0.102551153 C12.757043,0.100201048 12.748957,0.0980983229 12.7407539,0.0959955975 C12.7134492,0.0891926625 12.6860273,0.0837503145 12.6584883,0.0797922432 C12.6528633,0.0789264151 12.6472383,0.0778132075 12.6414961,0.0771947589 C12.5734102,0.0687838574 12.5053242,0.0687838574 12.4381758,0.0770710692 C12.4310273,0.0779368973 12.4238789,0.079421174 12.4167305,0.0804106918 C12.390832,0.0843687631 12.365168,0.0893163522 12.3396211,0.0956245283 C12.3305977,0.0978509434 12.3215742,0.100201048 12.3125508,0.102674843 C12.2857148,0.110219916 12.2592305,0.119125577 12.2330977,0.129391824 C12.2278242,0.131494549 12.2224336,0.133102516 12.2172773,0.135205241 C12.185168,0.148563732 12.1538789,0.163777568 12.1235273,0.18109413 C12.1225898,0.181588889 12.1215352,0.181959958 12.1204805,0.182578407 C12.0703242,0.211274423 10.8744258,0.899236688 9.37899609,2.09853229 C8.99251172,2.40862243 8.91739453,2.9905826 9.21106641,3.39851132 C9.50485547,3.80656373 10.0562227,3.88572516 10.4425898,3.57588239 C11.3165742,2.87480901 12.0875508,2.35778595 12.5384883,2.07119686 C13.4988398,2.68321363 15.9154805,4.34585094 17.7254414,6.6269369 C17.7309492,6.63386352 17.7363398,6.64079015 17.7419648,6.64771677 C17.790832,6.70956164 17.8389961,6.77202495 17.887043,6.83473564 C17.9090742,6.86355535 17.9307539,6.89237505 17.9523164,6.92107107 C17.9857148,6.96559937 18.0189961,7.01025136 18.052043,7.05515073 C18.0637617,7.07135409 18.0751289,7.08743375 18.0868477,7.10351342 L6.99036328,7.10351342 C7.27114453,6.71685933 7.58298047,6.33032893 7.92434766,5.94614864 C8.25645703,5.57248197 8.23864453,4.98532683 7.88462109,4.63479015 C7.53059766,4.28437715 6.97430859,4.3030543 6.64231641,4.67684465 C6.18071484,5.19634151 5.76692578,5.72301237 5.40059766,6.25203333 C5.38899609,6.2668761 5.37716016,6.2813478 5.36626172,6.29705639 C5.32958203,6.35061405 5.29512891,6.4041717 5.25950391,6.45760566 C5.24860547,6.47405639 5.23758984,6.49050713 5.22680859,6.50683417 C5.15895703,6.60949665 5.09309766,6.71215912 5.02899609,6.81494528 C5.01622266,6.83535409 5.00356641,6.8556392 4.99102734,6.87604801 C4.93055859,6.97401027 4.87196484,7.07209623 4.81501172,7.17030587 C4.80036328,7.19553857 4.78571484,7.22077128 4.77130078,7.24588029 C4.71762891,7.33988449 4.66559766,7.43388868 4.61508984,7.52789287 C4.60630078,7.54421992 4.59657422,7.56054696 4.58790234,7.576874 C4.58602734,7.58046101 4.58473828,7.58429539 4.58298047,7.58788239 C3.79958203,9.06473774 3.40173047,10.5506224 3.40173047,12.0207985 C3.40149609,13.3013583 3.54505078,14.876547 3.80180859,16.6100585 Z" id="Fill-35" fill="#003D74" mask="url(#mask-2)"></path>
                    </g>
                    <path d="M29.9998828,41.366743 C29.2678125,40.6789044 28.8029297,39.7319358 28.7005078,38.6899736 C28.6503516,38.1804956 28.2180469,37.8096738 27.7355859,37.8631078 C27.2527734,37.916047 26.9019141,38.3718436 26.9520703,38.8814453 C27.1303125,40.6948604 28.0664062,42.3083929 29.5203516,43.3080532 C29.6661328,43.4084893 29.833125,43.45846 30.0001172,43.45846 C30.1671094,43.45846 30.3341016,43.4084893 30.4798828,43.3080532 C32.1072656,42.1889086 33.0788672,40.2993006 33.0788672,38.2533488 C33.0788672,36.2072734 32.1072656,34.3177891 30.4798828,33.1987681 C30.1883203,32.9982671 29.8120312,32.9982671 29.5203516,33.1987681 C28.9971094,33.5583342 28.5355078,34.0033698 28.1482031,34.5208876 C27.8473828,34.9230029 27.9123047,35.5063237 28.2932812,35.8238352 C28.6741406,36.1412231 29.2267969,36.0729463 29.5277344,35.670831 C29.6711719,35.4791119 29.8291406,35.3021119 30.0004687,35.1404495 C30.83625,35.9269925 31.3210547,37.0513321 31.3210547,38.2533488 C31.3208203,39.4557367 30.8358984,40.5802 29.9998828,41.366743" id="Fill-38" fill="#003D74"></path>
                </g>
            </g>
        </g>
    </g>
</svg>