<?xml version="1.0" encoding="UTF-8"?>
<svg width="1260px" height="325px" viewBox="0 0 1260 325" version="1.1" xmlns="http://www.w3.org/2000/svg" xmlns:xlink="http://www.w3.org/1999/xlink">
    <!-- Generator: sketchtool 52.5 (67469) - http://www.bohemiancoding.com/sketch -->
    <title>98D471B6-DB19-41B2-A553-DECEC11F5733</title>
    <desc>Created with sketchtool.</desc>
    <defs>
        <filter x="-29.3%" y="-256.8%" width="158.6%" height="613.6%" filterUnits="objectBoundingBox" id="filter-1">
            <feGaussianBlur stdDeviation="22.2544643" in="SourceGraphic"></feGaussianBlur>
        </filter>
    </defs>
    <g id="design" stroke="none" stroke-width="1" fill="none" fill-rule="evenodd" opacity="0.234105283">
        <g id="NBN-Explained" transform="translate(-115.000000, -6299.000000)">
            <g id="Group-19" transform="translate(116.000000, 6300.000000)">
                <path d="M0,281 C0,288.732431 6.04606976,295 13.5,295 C20.9562728,295 27,288.732431 27,281" id="Stroke-1" stroke="#4DBBA6" stroke-width="2" stroke-linecap="round" stroke-linejoin="round"></path>
                <path d="M27,280 C27,287.732431 33.0455452,294 40.5011712,294 C47.9544548,294 54,287.732431 54,280" id="Stroke-7" stroke="#4DBBA6" stroke-width="2" stroke-linecap="round" stroke-linejoin="round"></path>
                <path d="M54,280 C54,287.732431 60.0437272,294 67.5,294 C74.9562728,294 81,287.732431 81,280" id="Stroke-9" stroke="#4DBBA6" stroke-width="2" stroke-linecap="round" stroke-linejoin="round"></path>
                <path d="M83,279.741554 L144.819754,279.741554 L144.819754,274.755061 L151.15921,274.755061 L151.15921,263.440013 L158.602209,263.440013 L158.602209,254.887336 L154.190402,254.887336 L154.190402,249.642389 C154.190402,249.642389 176.794101,237.774868 186.164749,238.877444 L168.249927,198.859829 C168.249927,198.859829 194.43659,192.787357 222.550902,203.824982 L219.794411,176.502414 C219.794411,176.502414 249.564039,175.952311 269.96065,190.577461 L258.659985,143.107374 C258.659985,143.107374 314.064504,145.039848 363.956042,213.762401 C363.956042,213.762401 397.583336,190.854884 442.513663,201.064983 L430.935928,234.739817 C430.935928,234.739817 441.410119,235.014868 449.679592,240.257444 C449.679592,240.257444 480.000992,226.457449 498.744656,228.667345 L498.744656,213.762401 L514.454759,213.762401 L514.454759,151.453763 L561.210907,151.453763 L561.210907,54.4151361 L593.86964,54.4151361 L593.86964,265.777951 L628.707043,265.777951 L628.707043,212.017247 L655.194457,212.017247 L655.194457,66.3798743 L677.783947,66.3798743 L677.783947,30.4856597 L691.059624,30.4856597 L691.059624,0 L705.663816,0 L705.663816,30.4856597 L718.939492,30.4856597 L718.939492,122.210577 L742.836184,122.210577 L742.836184,303 L781.339436,303 L781.339436,260.459499 L819.84032,260.459499 L819.84032,220.581781 L833.115996,220.581781 L833.115996,168.736953 L867.636071,168.736953 L867.636071,276.516813 L938,276.516813" id="Stroke-11" stroke="#4DBBA6" stroke-width="2" stroke-linecap="round" stroke-linejoin="round"></path>
                <g id="Group-16" transform="translate(127.000000, 291.000000)">
                    <path d="M31.1688714,1.544 L0.113514286,1.544" id="Fill-13" fill="#65EFDB"></path>
                    <path d="M31.1688714,1.544 L0.113514286,1.544" id="Stroke-15" stroke="#1DB199" stroke-width="2" stroke-linecap="round" stroke-linejoin="round"></path>
                </g>
                <g id="Group-20" transform="translate(720.000000, 143.000000)">
                    <path d="M1.69386667,0.696740096 L1.69386667,85.4876138" id="Fill-17" fill="#65EFDB"></path>
                    <path d="M1.69386667,0.696740096 L1.69386667,85.4876138" id="Stroke-19" stroke="#1DB199" stroke-width="2" stroke-linecap="round" stroke-linejoin="round"></path>
                </g>
                <g id="Group-24" transform="translate(669.000000, 79.000000)">
                    <path d="M1.55573333,0.30315 L1.55573333,85.1254278" id="Fill-21" fill="#65EFDB"></path>
                    <path d="M1.55573333,0.30315 L1.55573333,85.1254278" id="Stroke-23" stroke="#4DBBA6" stroke-width="2" stroke-linecap="round" stroke-linejoin="round"></path>
                </g>
                <g id="Group-28" transform="translate(529.000000, 168.000000)">
                    <path d="M1.4152,0.8771 L1.4152,55.8201" id="Fill-25" fill="#65EFDB"></path>
                    <path d="M1.4152,0.8771 L1.4152,55.8201" id="Stroke-27" stroke="#4DBBA6" stroke-width="2" stroke-linecap="round" stroke-linejoin="round"></path>
                </g>
                <g id="Group-32" transform="translate(547.000000, 209.000000)">
                    <path d="M1.34746667,0.162262069 L1.34746667,33.4635034" id="Fill-29" fill="#65EFDB"></path>
                    <path d="M1.34746667,0.162262069 L1.34746667,33.4635034" id="Stroke-31" stroke="#4DBBA6" stroke-width="2" stroke-linecap="round" stroke-linejoin="round"></path>
                </g>
                <path d="M290,283 L446,283 L446,269.649713 L353.760993,269.649713 C353.760993,269.649713 364.214857,220.603004 416.240131,211" id="Stroke-33" stroke="#4DBBA6" stroke-width="2" stroke-linecap="round" stroke-linejoin="round"></path>
                <path d="M170,200 C170,200 203.997238,207.882403 233,245" id="Stroke-35" stroke="#4DBBA6" stroke-width="2" stroke-linecap="round" stroke-linejoin="round"></path>
                <g id="Group-40" transform="translate(952.000000, 273.000000)">
                    <path d="M0.0396173913,2.21333333 L25.0815304,2.21333333" id="Fill-37" fill="#65EFDB"></path>
                    <path d="M0.0396173913,2.21333333 L25.0815304,2.21333333" id="Stroke-39" stroke="#1DB199" stroke-width="2" stroke-linecap="round" stroke-linejoin="round"></path>
                </g>
                <g id="Group-40-Copy" transform="translate(1060.000000, 290.000000)">
                    <path d="M0.0396173913,2.21333333 L25.0815304,2.21333333" id="Fill-37" fill="#65EFDB"></path>
                    <path d="M0.0396173913,2.21333333 L25.0815304,2.21333333" id="Stroke-39" stroke="#1DB199" stroke-width="2" stroke-linecap="round" stroke-linejoin="round"></path>
                </g>
                <path d="M857,292 L928,292" id="Stroke-41" stroke="#1DB199" stroke-width="2" stroke-linecap="round" stroke-linejoin="round"></path>
                <path d="M1101,292 L1172,292" id="Stroke-41-Copy" stroke="#1DB199" stroke-width="2" stroke-linecap="round" stroke-linejoin="round"></path>
                <path d="M524,242 L726,242 C733.179702,242 739,247.820298 739,255 L739,255 C739,262.179702 733.179702,268 726,268 L524,268 C516.820298,268 511,262.179702 511,255 L511,255 C511,247.820298 516.820298,242 524,242 Z" id="box-shadow-copy" fill="#2C69A9" opacity="0.246163504" filter="url(#filter-1)"></path>
                <path d="M997,275.5 L1258,275.5" id="Path-20" stroke="#1DB199" stroke-width="2" stroke-linecap="round"></path>
            </g>
        </g>
    </g>
</svg>