<?xml version="1.0" encoding="UTF-8"?>
<svg width="30px" height="27px" viewBox="0 0 30 27" version="1.1" xmlns="http://www.w3.org/2000/svg" xmlns:xlink="http://www.w3.org/1999/xlink">
    <!-- Generator: sketchtool 52.5 (67469) - http://www.bohemiancoding.com/sketch -->
    <title>48DFD05B-160C-4901-8037-4B5B0C0FC903</title>
    <desc>Created with sketchtool.</desc>
    <defs>
        <polygon id="path-1" points="0 0 29.9708049 0 29.9708049 26.9999707 0 26.9999707"></polygon>
    </defs>
    <g id="design" stroke="none" stroke-width="1" fill="none" fill-rule="evenodd">
        <g id="NBN-Explained" transform="translate(-940.000000, -4625.000000)">
            <g id="Group-18" transform="translate(707.000000, 4562.000000)">
                <g id="Group-14" transform="translate(233.000000, 63.000000)">
                    <path d="M14,6.5 C14,6.775875 14.223875,7 14.5,7 C14.775875,7 15,6.775875 15,6.5 C15,6.223875 14.775875,6 14.5,6 C14.223875,6 14,6.223875 14,6.5 Z" id="Fill-1" fill="#F89729"></path>
                    <path d="M5,15.5 C5,15.223875 4.775875,15 4.5,15 C4.224125,15 4,15.223875 4,15.5 C4,15.775875 4.224125,16 4.5,16 C4.775875,16 5,15.775875 5,15.5 Z" id="Fill-3" fill="#F89729"></path>
                    <g id="Group-7">
                        <mask id="mask-2" fill="white">
                            <use xlink:href="#path-1"></use>
                        </mask>
                        <g id="Clip-6"></g>
                        <path d="M26.7404707,13.7126543 C26.6730073,13.7822087 26.6238366,13.8676109 26.5972756,13.9608636 C26.2617146,15.1448283 26.4026415,16.3943853 26.9542756,17.4541353 C25.9530073,17.2062196 25.0341293,16.6657793 24.3273,15.8910701 C24.1628854,15.7113147 23.9045195,15.651812 23.6787146,15.7419832 C22.7646659,16.1066299 21.4610561,16.3590946 20.2299585,16.420138 C20.0590317,14.2004152 18.9549585,12.114225 17.0670805,10.5652467 L24.7025195,10.5652467 C25.0257878,10.5652467 25.2878854,10.302437 25.2878854,9.97829022 C25.2878854,9.65414348 25.0257878,9.3913337 24.7025195,9.3913337 L15.2686902,9.3913337 C13.9399098,8.71288533 12.4478854,8.31735 10.912178,8.23451576 C11.2485439,4.29236902 15.047422,1.17394239 19.6683732,1.17394239 C24.6182268,1.17394239 28.8000805,4.66816793 28.8000805,8.80437717 C28.8000805,10.5978228 28.0683732,12.3413038 26.7404707,13.7126543 M10.3025195,24.6522033 C8.92083659,24.6522033 7.34649512,24.3802223 6.29210488,23.9593745 C6.06600732,23.8692033 5.80793415,23.9284125 5.64359268,24.1084614 C4.93676341,24.8831707 4.0178122,25.4233174 3.01661707,25.6716 C3.56825122,24.6117766 3.70910488,23.3622196 3.37332439,22.1782549 C3.34698293,22.0847821 3.2978122,21.9996 3.23034878,21.9300457 C1.90215366,20.5586951 1.17073902,18.8152875 1.17073902,17.0217685 C1.17073902,12.8855592 5.3523,9.3913337 10.3025195,9.3913337 C14.9765927,9.3913337 19.0830073,12.6504832 19.0830073,17.0217685 C19.0830073,21.2292196 15.1440805,24.6522033 10.3025195,24.6522033 M19.6683732,2.93478261e-05 C14.3983244,2.93478261e-05 10.0729829,3.64326848 9.73859268,8.23231467 C4.7198122,8.48477935 7.31707405e-06,12.1134179 7.31707405e-06,17.0217685 C7.31707405e-06,19.0729614 0.809421951,21.0602495 2.28286098,22.6347603 C2.57444634,23.8398554 2.22059268,25.1172929 1.34225122,25.9980212 C1.17476341,26.1656707 1.12471463,26.4182087 1.2153,26.6377304 C1.30595854,26.8569587 1.51917805,27.0000293 1.75610488,27.0000293 C3.42556829,27.0000293 5.03451951,26.3433717 6.22983659,25.1867005 C7.39427561,25.5847304 8.91366585,25.8261163 10.3025195,25.8261163 C15.5715439,25.8261163 19.8964463,22.1836842 20.2320073,17.5955185 C21.4576171,17.5410783 22.7323976,17.3140728 23.7410561,16.9693092 C24.9363732,18.1259804 26.5452512,18.782638 28.2147146,18.782638 C28.451422,18.782638 28.6649341,18.6395674 28.7555195,18.4203391 C28.8458122,18.2008174 28.7958366,17.9482793 28.6286415,17.7806299 C27.7503,16.8999016 27.3961537,15.6224641 27.6876659,14.417369 C29.1613976,12.8428582 29.9708122,10.8555701 29.9708122,8.80437717 C29.9708122,3.70423859 24.8874951,2.93478261e-05 19.6683732,2.93478261e-05" id="Fill-5" fill="#F89729" mask="url(#mask-2)"></path>
                    </g>
                    <path d="M15.3835669,15 L7.61643308,15 C7.27600791,15 7,15.223875 7,15.5 C7,15.776125 7.27600791,16 7.61643308,16 L15.3835669,16 C15.7239921,16 16,15.776125 16,15.5 C16,15.223875 15.7239921,15 15.3835669,15" id="Fill-8" fill="#F89729"></path>
                    <path d="M14.4086061,18 L4.59139388,18 C4.26479661,18 4,18.223875 4,18.5 C4,18.776125 4.26479661,19 4.59139388,19 L14.4086061,19 C14.7352034,19 15,18.776125 15,18.5 C15,18.223875 14.7352034,18 14.4086061,18" id="Fill-10" fill="#F89729"></path>
                    <path d="M25.3835669,6 L17.6164331,6 C17.2760079,6 17,6.223875 17,6.5 C17,6.776125 17.2760079,7 17.6164331,7 L25.3835669,7 C25.7239921,7 26,6.776125 26,6.5 C26,6.223875 25.7239921,6 25.3835669,6" id="Fill-12" fill="#F89729"></path>
                </g>
            </g>
        </g>
    </g>
</svg>