<?xml version="1.0" encoding="UTF-8"?>
<svg width="30px" height="21px" viewBox="0 0 30 21" version="1.1" xmlns="http://www.w3.org/2000/svg" xmlns:xlink="http://www.w3.org/1999/xlink">
    <!-- Generator: sketchtool 52.5 (67469) - http://www.bohemiancoding.com/sketch -->
    <title>B78A74ED-7A53-47F2-B502-7074605208F2</title>
    <desc>Created with sketchtool.</desc>
    <g id="design" stroke="none" stroke-width="1" fill="none" fill-rule="evenodd">
        <g id="NBN-Explained" transform="translate(-1073.000000, -4723.000000)" fill="#3464AA">
            <g id="Group-18" transform="translate(707.000000, 4562.000000)">
                <g id="Group-73">
                    <g id="Group-53" transform="translate(366.000000, 161.000000)">
                        <g id="Group-6">
                            <path d="M23.2785335,13.8089436 C23.2785335,13.9896059 23.1980567,14.1526482 23.0324622,14.3070498 C22.8640381,14.4641058 22.6825407,14.5404595 22.4780095,14.5404595 C22.3679339,14.5404595 22.2847971,14.5106973 22.2237886,14.44914 C22.1623274,14.3875826 22.1325023,14.2964891 22.1325023,14.17072 C22.1325023,14.0346162 22.1325023,13.6203183 23.1556111,13.6203183 L23.2785335,13.6203183 L23.2785335,13.8089436 Z M22.7110641,9.38980361 C21.8766968,9.38980361 21.1575551,9.57244257 20.5735036,9.93224245 C19.9880939,10.2933977 19.5548092,10.7741098 19.2855343,11.3611071 C19.0198248,11.9408757 18.884961,12.6176677 18.884961,13.3725641 C18.884961,14.5689227 19.2088492,15.5062886 19.8477404,16.1583447 C20.4873108,16.8115868 21.2767424,17.1426976 22.1937371,17.1426976 C22.63104,17.1426976 23.0742853,17.0818179 23.5108525,16.9620352 C23.6950098,16.9115469 24.2547824,16.7579924 24.2547824,16.3417178 C24.2547824,16.2276391 24.2138648,16.1109625 24.1332182,15.9953589 C24.0427807,15.864959 23.9174247,15.7961729 23.7712987,15.7961729 C23.7405681,15.7961729 23.7058758,15.7961729 23.2522173,15.9413127 C22.978528,16.028679 22.6747873,16.0727857 22.3491446,16.0727857 C21.9160863,16.0727857 21.5426782,16.0004416 21.2389375,15.8574479 C20.9400638,15.716939 20.7061603,15.5190519 20.5434521,15.269547 C20.374745,15.0114579 20.2496154,14.7230984 20.1717984,14.4131656 C20.0931326,14.0995055 20.0531205,13.7460873 20.0531205,13.3620033 C20.0531205,12.9508115 20.0988486,12.5728833 20.189286,12.2388923 C20.2785916,11.9084592 20.4214352,11.5989218 20.6141948,11.318977 C20.8003329,11.0482941 21.071815,10.8360625 21.421114,10.6878166 C21.777657,10.536521 22.2118473,10.4597155 22.7110641,10.4597155 C24.3701778,10.4597155 25.1768706,11.3776542 25.1768706,13.2662788 C25.1768706,13.8912271 25.0931113,14.636184 24.6933869,14.636184 C24.6467534,14.636184 24.5054944,14.636184 24.4466931,14.2561097 L24.4466931,12.4681228 C24.4466931,11.9697907 24.2609511,11.577292 23.8944475,11.3017523 C23.5402814,11.0359262 23.1007713,10.9009518 22.588368,10.9009518 C22.1864365,10.9009518 21.8139339,10.9748206 21.481217,11.1204687 C21.1100726,11.2826074 20.9218971,11.496138 20.9218971,11.7551306 C20.9218971,11.8790924 20.9632674,12.0138974 21.0448196,12.1555358 C21.140973,12.3225312 21.2616883,12.4072432 21.4034,12.4072432 C21.4401296,12.4072432 21.4777081,12.4072432 21.8236681,12.2508085 C22.0162013,12.163894 22.2364091,12.1197873 22.4784622,12.1197873 C22.8262332,12.1197873 23.2252784,12.188404 23.2252784,12.7235576 L23.2252784,12.7418554 L23.0212,12.7418554 C21.4867632,12.7418554 20.7085938,13.2298527 20.7085938,14.1921239 C20.7085938,14.6412667 20.8642277,14.9869479 21.1710811,15.2196799 C21.4659931,15.4436018 21.820329,15.5570028 22.2242414,15.5570028 C22.6991228,15.5570028 23.1226733,15.3608664 23.4861208,14.973281 C23.5590707,15.1237295 23.6669391,15.2541294 23.8091036,15.3628995 C24.0233124,15.5270148 24.2916817,15.6103714 24.6071941,15.6103714 C25.1832658,15.6103714 25.6252094,15.3578168 25.9205742,14.85988 C26.2021866,14.3860578 26.3450302,13.7780519 26.3450302,13.0535954 C26.3450302,11.9207707 26.0215947,11.0174025 25.3840052,10.3686219 C24.7455667,9.71916367 23.8462293,9.38980361 22.7110641,9.38980361 Z" id="Fill-1"></path>
                            <g id="Group-5" transform="translate(0.000000, 0.031739)">
                                <path d="M22.6915901,19.3595866 C19.3675901,19.3595866 16.6631827,16.6611723 16.6631827,13.3439088 C16.6631827,13.3318233 16.6634091,13.3196812 16.6634091,13.3075392 L16.6634091,13.2953971 C16.6636355,13.2870389 16.6636355,13.2788501 16.6636355,13.2704918 C16.6638619,13.2664821 16.6638619,13.2625289 16.6638619,13.2585757 L16.6638619,13.2569944 C16.6640882,13.2490879 16.6640882,13.2408991 16.6643146,13.2329927 C16.6643146,13.2292089 16.664541,13.2252556 16.664541,13.2214718 L16.664541,13.2192693 C16.6647674,13.2115888 16.6649938,13.2038518 16.6649938,13.1961147 C16.6652201,13.1926133 16.6652201,13.1892813 16.6654465,13.1857799 L16.6654465,13.1809231 C16.6656163,13.173186 16.6658427,13.1652231 16.666069,13.1573167 C16.6662954,13.1553401 16.6662954,13.1531375 16.6662954,13.1511045 C16.6662954,13.1485066 16.6665218,13.1460782 16.6665218,13.1434239 C16.6667482,13.134388 16.6672009,13.1252955 16.6674273,13.1162596 C16.6674273,13.1158078 16.6676537,13.1151866 16.6676537,13.1147348 C16.6676537,13.1123064 16.6676537,13.109878 16.6678235,13.1072237 L16.6691817,13.0748072 C16.6691817,13.0739036 16.6691817,13.0728306 16.6694081,13.071927 C16.8124215,9.88065852 19.4588765,7.32845696 22.6915901,7.32845696 C26.0155901,7.32845696 28.7199974,10.0269843 28.7199974,13.3439088 C28.7199974,16.6611723 26.0155901,19.3595866 22.6915901,19.3595866 Z M16.1912442,10.3428469 C16.1894332,10.347026 16.1874524,10.3509793 16.1854716,10.3552149 C15.834871,11.1142904 15.619983,11.9331725 15.5536547,12.7791625 L3.23231903,12.7791625 C3.22654643,12.7793884 3.22094361,12.7791625 3.2152276,12.7791625 L3.21279405,12.7791625 C3.20792695,12.7791625 3.20311645,12.7789931 3.19824936,12.7789931 C3.19728726,12.7789931 3.19672132,12.7787672 3.19558943,12.7787672 C3.02359985,12.7736845 2.85574165,12.7321756 2.70282429,12.6589845 L3.35824098,11.8289204 C3.37753958,11.8105661 3.39615905,11.7911953 3.4130807,11.7696785 L7.43664078,6.66245162 L9.79344697,8.73620011 C10.6247016,9.46743364 11.8224033,9.56457001 12.7511131,9.02715741 C12.8930512,8.9450433 13.0288205,8.84801988 13.1558744,8.73620011 L15.5127371,6.66245162 L17.1816416,8.77652299 C16.788086,9.24994983 16.4554257,9.77392147 16.1943003,10.3362394 C16.193225,10.3384419 16.1923195,10.3406444 16.1912442,10.3428469 Z M2.01639402,11.7035467 C2.01067801,11.6556562 2.00756533,11.6069186 2.00756533,11.5572774 L2.00756533,2.42188447 C2.00756533,2.26008465 2.03920146,2.1054571 2.0966445,1.9641011 L6.58637049,5.91438865 L2.75047655,10.7830667 C2.73197027,10.8008562 2.71408653,10.8195493 2.69767423,10.8402755 L2.01639402,11.7035467 Z M3.23231903,1.19966048 L19.7170589,1.19966048 C19.8065908,1.19966048 19.894142,1.20937412 19.9781842,1.22772837 L15.2149954,5.41854138 C15.2142597,5.4193885 15.2134108,5.4198403 15.2127882,5.42046152 L12.4074169,7.88879826 C12.1414245,8.12288561 11.8080284,8.23984457 11.474689,8.23984457 C11.2193928,8.23984457 10.9642665,8.17145379 10.7391916,8.03422043 C10.7254958,8.02586219 10.7117434,8.01722157 10.698274,8.00818563 C10.6755232,7.99338927 10.6534515,7.9777458 10.6314929,7.96136816 C10.6009887,7.93872183 10.5709372,7.91438126 10.541961,7.88879826 L7.7365897,5.42046152 L7.73641992,5.42046152 L2.97091071,1.22772837 C3.05523598,1.20937412 3.14256073,1.19966048 3.23231903,1.19966048 Z M20.9418126,2.42188447 L20.9418126,6.41390677 C19.8187586,6.69447274 18.8111566,7.23391842 17.9783739,7.96052104 L16.3630074,5.91438865 L20.8527334,1.9641011 C20.9101765,2.1054571 20.9418126,2.26008465 20.9418126,2.42188447 Z M22.6915901,6.19896432 C22.48355,6.19896432 22.277321,6.20783084 22.0736953,6.2255074 L22.0736953,2.42188447 C22.0736953,1.76220429 21.8000061,1.16532391 21.3603262,0.737697993 C21.3534217,0.730638664 21.3463475,0.723353437 21.3391034,0.716520006 C20.8991406,0.299793698 20.3230123,0.0701678444 19.7170589,0.0701678444 L3.23231903,0.0701678444 C2.62613924,0.0701678444 2.05018072,0.299793698 1.61010472,0.716520006 C1.60280407,0.723579335 1.59572981,0.730638664 1.58888192,0.737697993 C1.14914548,1.16532391 0.875682618,1.76220429 0.875682618,2.42188447 L0.875682618,11.5572774 C0.875682618,12.1498092 1.09645634,12.6918527 1.46018685,13.1056989 C1.468393,13.1160337 1.47676893,13.1261991 1.485824,13.1361387 C1.65385199,13.3209801 1.84876219,13.4762854 2.06212208,13.5978753 C2.40706334,13.7957059 2.80650475,13.9088811 3.23231903,13.9088811 L15.5536547,13.9088811 C15.8430205,17.5857184 18.9340224,20.4892487 22.6915901,20.4892487 C26.6397102,20.4890793 29.8518801,17.283918 29.8518801,13.3441347 C29.8518801,9.40435148 26.6397102,6.19896432 22.6915901,6.19896432 Z" id="Fill-3"></path>
                            </g>
                        </g>
                    </g>
                </g>
            </g>
        </g>
    </g>
</svg>