<?xml version="1.0" encoding="UTF-8"?>
<svg width="303px" height="227px" viewBox="0 0 303 227" version="1.1" xmlns="http://www.w3.org/2000/svg" xmlns:xlink="http://www.w3.org/1999/xlink">
    <!-- Generator: sketchtool 52.5 (67469) - http://www.bohemiancoding.com/sketch -->
    <title>3B396270-5CE0-45BF-AC4E-3706B31F9F62</title>
    <desc>Created with sketchtool.</desc>
    <defs>
        <polygon id="path-1" points="0.194126229 0.281738542 194.201065 0.281738542 194.201065 179 0.194126229 179"></polygon>
        <polygon id="path-3" points="0 0.0980731579 30.7746614 0.0980731579 30.7746614 24.0831311 0 24.0831311"></polygon>
        <filter x="-15.6%" y="-21.1%" width="131.3%" height="142.2%" filterUnits="objectBoundingBox" id="filter-5">
            <feOffset dx="0" dy="2" in="SourceAlpha" result="shadowOffsetOuter1"></feOffset>
            <feGaussianBlur stdDeviation="5" in="shadowOffsetOuter1" result="shadowBlurOuter1"></feGaussianBlur>
            <feColorMatrix values="0 0 0 0 0.619607843   0 0 0 0 0.690196078   0 0 0 0 0.729411765  0 0 0 1 0" type="matrix" in="shadowBlurOuter1" result="shadowMatrixOuter1"></feColorMatrix>
            <feMerge>
                <feMergeNode in="shadowMatrixOuter1"></feMergeNode>
                <feMergeNode in="SourceGraphic"></feMergeNode>
            </feMerge>
        </filter>
        <filter x="-15.6%" y="-21.1%" width="131.3%" height="142.2%" filterUnits="objectBoundingBox" id="filter-6">
            <feOffset dx="0" dy="2" in="SourceAlpha" result="shadowOffsetOuter1"></feOffset>
            <feGaussianBlur stdDeviation="5" in="shadowOffsetOuter1" result="shadowBlurOuter1"></feGaussianBlur>
            <feColorMatrix values="0 0 0 0 0.619607843   0 0 0 0 0.690196078   0 0 0 0 0.729411765  0 0 0 1 0" type="matrix" in="shadowBlurOuter1" result="shadowMatrixOuter1"></feColorMatrix>
            <feMerge>
                <feMergeNode in="shadowMatrixOuter1"></feMergeNode>
                <feMergeNode in="SourceGraphic"></feMergeNode>
            </feMerge>
        </filter>
        <filter x="-15.6%" y="-21.1%" width="131.3%" height="142.2%" filterUnits="objectBoundingBox" id="filter-7">
            <feOffset dx="0" dy="2" in="SourceAlpha" result="shadowOffsetOuter1"></feOffset>
            <feGaussianBlur stdDeviation="5" in="shadowOffsetOuter1" result="shadowBlurOuter1"></feGaussianBlur>
            <feColorMatrix values="0 0 0 0 0.619607843   0 0 0 0 0.690196078   0 0 0 0 0.729411765  0 0 0 1 0" type="matrix" in="shadowBlurOuter1" result="shadowMatrixOuter1"></feColorMatrix>
            <feMerge>
                <feMergeNode in="shadowMatrixOuter1"></feMergeNode>
                <feMergeNode in="SourceGraphic"></feMergeNode>
            </feMerge>
        </filter>
    </defs>
    <g id="-Page1" stroke="none" stroke-width="1" fill="none" fill-rule="evenodd">
        <g id="NBN-Explained" transform="translate(-948.000000, -300.000000)">
            <g id="Group-50" transform="translate(949.000000, 296.000000)">
                <g id="Group-11-Copy-3" opacity="0.54484747" transform="translate(0.000000, 28.000000)">
                    <g id="Group-3" transform="translate(24.464945, 0.000000)">
                        <mask id="mask-2" fill="white">
                            <use xlink:href="#path-1"></use>
                        </mask>
                        <g id="Clip-2"></g>
                        <path d="M182.337278,131.527895 L178.907683,131.527895 C185.547863,119.033322 189.315757,104.778582 189.315757,89.6409625 C189.315757,40.2891708 149.322772,0.281738542 99.989733,0.281738542 C77.3367025,0.281738542 56.6594166,8.72084271 40.9131047,22.6222437 L12.0588455,22.6222437 C5.50626981,22.6222437 0.194126229,27.935374 0.194126229,34.4893844 C0.194126229,41.0443271 5.50626981,46.3574573 12.0588455,46.3574573 L21.8285299,46.3574573 C14.7177132,59.1811292 10.6627769,73.9365094 10.6627769,89.6409625 C10.6627769,138.992754 50.6557624,179.000186 99.989733,179.000186 C123.390191,179.000186 144.685363,169.994249 160.611543,155.264041 L182.337278,155.264041 C188.889854,155.264041 194.201065,149.95091 194.201065,143.395968 C194.201065,136.841957 188.889854,131.527895 182.337278,131.527895" id="Fill-1" fill="#E8F1FE" mask="url(#mask-2)"></path>
                    </g>
                    <path d="M243.269352,130.010526 L235.678987,130.010526 C229.199947,130.010526 223.948339,135.494423 223.948339,142.257895 C223.948339,149.022329 229.199947,154.505263 235.678987,154.505263 L243.269352,154.505263 C249.748393,154.505263 255,149.022329 255,142.257895 C255,135.494423 249.748393,130.010526 243.269352,130.010526" id="Fill-4" fill="#E8F1FE"></path>
                    <path d="M209.332124,34.8578947 L216.922489,34.8578947 C223.401529,34.8578947 228.653137,29.3739984 228.653137,22.6105263 C228.653137,15.8470542 223.401529,10.3631579 216.922489,10.3631579 L209.332124,10.3631579 C202.854005,10.3631579 197.601476,15.8470542 197.601476,22.6105263 C197.601476,29.3739984 202.854005,34.8578947 209.332124,34.8578947" id="Fill-6" fill="#E8F1FE"></path>
                    <g id="Group-10" transform="translate(0.000000, 118.705263)">
                        <mask id="mask-4" fill="white">
                            <use xlink:href="#path-3"></use>
                        </mask>
                        <g id="Clip-9"></g>
                        <path d="M19.1485544,0.0980731579 L11.625833,0.0980731579 C5.20544557,0.0980731579 -0.000273985241,5.46713105 -0.000273985241,12.0910732 C-0.000273985241,18.7140732 5.20544557,24.0831311 11.625833,24.0831311 L19.1485544,24.0831311 C25.5698552,24.0831311 30.7746614,18.7140732 30.7746614,12.0910732 C30.7746614,5.46713105 25.5698552,0.0980731579 19.1485544,0.0980731579" id="Fill-8" fill="#E8F1FE" mask="url(#mask-4)"></path>
                    </g>
                </g>
                <g id="Group-35" filter="url(#filter-5)" transform="translate(67.000000, 46.000000)">
                    <path d="M10,22.3774834 L137,22.3774834 C142.522847,22.3774834 147,26.8546359 147,32.3774834 L147,109 L0,109 L1.77635684e-15,32.3774834 C1.10000309e-15,26.8546359 4.4771525,22.3774834 10,22.3774834 Z" id="Rectangle-Copy-8" fill="#FFFFFF" transform="translate(73.500000, 65.688742) rotate(-180.000000) translate(-73.500000, -65.688742) "></path>
                    <rect id="Rectangle" fill="#EEEEEE" x="19.4558824" y="46.1986755" width="107.367647" height="2.88741722" rx="1.44370861"></rect>
                    <rect id="Rectangle-Copy-9" fill="#EEEEEE" x="19.4558824" y="63.5231788" width="107.367647" height="2.88741722" rx="1.44370861"></rect>
                    <rect id="Rectangle-Copy-10" fill="#EEEEEE" x="19.4558824" y="80.8476821" width="107.367647" height="2.88741722" rx="1.44370861"></rect>
                    <path d="M10,0 L137,1.77635684e-15 C142.522847,7.61826213e-16 147,4.4771525 147,10 L147,31.7615894 L0,31.7615894 L3.55271368e-15,10 C2.87635993e-15,4.4771525 4.4771525,2.79088747e-15 10,1.77635684e-15 Z" id="Rectangle" fill="#1DB199"></path>
                    <ellipse id="Oval" fill="#FFFFFF" cx="18.7352941" cy="16.602649" rx="8.64705882" ry="8.66225166"></ellipse>
                    <rect id="Rectangle" fill="#1DB199" x="35.3088235" y="56.3046358" width="76.3823529" height="20.2119205" rx="10.1059603"></rect>
                    <text id="Сheck-address" font-family="Roboto-Bold, Roboto" font-size="10" font-weight="bold" line-spacing="24" fill="#FFFFFF">
                        <tspan x="59.0894129" y="63.263963">Сheck </tspan>
                        <tspan x="55.1563074" y="87.263963">address</tspan>
                    </text>
                    <rect id="Rectangle-Copy-11" fill="#FFFFFF" x="37.4705882" y="15.1589404" width="57.6470588" height="2.88741722" rx="1.44370861"></rect>
                    <path d="M10,0 L137,1.77635684e-15 C142.522847,7.61826213e-16 147,4.4771525 147,10 L147,31.7615894 L0,31.7615894 L3.55271368e-15,10 C2.87635993e-15,4.4771525 4.4771525,2.79088747e-15 10,1.77635684e-15 Z" id="Rectangle" fill="#003D74"></path>
                    <ellipse id="Oval" fill="#FFFFFF" cx="18.7352941" cy="16.602649" rx="8.64705882" ry="8.66225166"></ellipse>
                    <text id="Сheck-address" font-family="Roboto-Bold, Roboto" font-size="10" font-weight="bold" line-spacing="24" fill="#FFFFFF">
                        <tspan x="59.0894129" y="63.263963">Сheck </tspan>
                        <tspan x="55.1563074" y="87.263963">address</tspan>
                    </text>
                    <rect id="Rectangle-Copy-11" fill="#FFFFFF" x="37.4705882" y="15.1589404" width="57.6470588" height="2.88741722" rx="1.44370861"></rect>
                </g>
                <g id="Group-35" filter="url(#filter-6)" transform="translate(97.000000, 91.000000)">
                    <path d="M10,22.3774834 L137,22.3774834 C142.522847,22.3774834 147,26.8546359 147,32.3774834 L147,109 L0,109 L1.77635684e-15,32.3774834 C1.10000309e-15,26.8546359 4.4771525,22.3774834 10,22.3774834 Z" id="Rectangle-Copy-8" fill="#FFFFFF" transform="translate(73.500000, 65.688742) rotate(-180.000000) translate(-73.500000, -65.688742) "></path>
                    <rect id="Rectangle" fill="#EEEEEE" x="19.4558824" y="46.1986755" width="107.367647" height="2.88741722" rx="1.44370861"></rect>
                    <rect id="Rectangle-Copy-9" fill="#EEEEEE" x="19.4558824" y="63.5231788" width="107.367647" height="2.88741722" rx="1.44370861"></rect>
                    <rect id="Rectangle-Copy-10" fill="#EEEEEE" x="19.4558824" y="80.8476821" width="107.367647" height="2.88741722" rx="1.44370861"></rect>
                    <path d="M10,0 L137,1.77635684e-15 C142.522847,7.61826213e-16 147,4.4771525 147,10 L147,31.7615894 L0,31.7615894 L3.55271368e-15,10 C2.87635993e-15,4.4771525 4.4771525,2.79088747e-15 10,1.77635684e-15 Z" id="Rectangle" fill="#1DB199"></path>
                    <ellipse id="Oval" fill="#FFFFFF" cx="18.7352941" cy="16.602649" rx="8.64705882" ry="8.66225166"></ellipse>
                    <rect id="Rectangle" fill="#F89729" x="28" y="56" width="91.3823529" height="20.2119205" rx="10.1059603"></rect>
                    <text id="Pick-your-plan" font-family="Roboto-Bold, Roboto" font-size="9" font-weight="bold" line-spacing="24" fill="#FFFFFF">
                        <tspan x="45.780912" y="63">Pick your plan</tspan>
                    </text>
                    <rect id="Rectangle-Copy-11" fill="#FFFFFF" x="37.4705882" y="15.1589404" width="57.6470588" height="2.88741722" rx="1.44370861"></rect>
                    <path d="M10,0 L137,1.77635684e-15 C142.522847,7.61826213e-16 147,4.4771525 147,10 L147,31.7615894 L0,31.7615894 L3.55271368e-15,10 C2.87635993e-15,4.4771525 4.4771525,2.79088747e-15 10,1.77635684e-15 Z" id="Rectangle" fill="#F89729"></path>
                    <ellipse id="Oval" fill="#FFFFFF" cx="18.7352941" cy="16.602649" rx="8.64705882" ry="8.66225166"></ellipse>
                    <rect id="Rectangle-Copy-11" fill="#FFFFFF" x="37.4705882" y="15.1589404" width="57.6470588" height="2.88741722" rx="1.44370861"></rect>
                </g>
                <g id="Group-36" filter="url(#filter-7)" transform="translate(145.000000, 17.000000)">
                    <g id="Group-35">
                        <path d="M10,22.3774834 L137,22.3774834 C142.522847,22.3774834 147,26.8546359 147,32.3774834 L147,109 L0,109 L1.77635684e-15,32.3774834 C1.10000309e-15,26.8546359 4.4771525,22.3774834 10,22.3774834 Z" id="Rectangle-Copy-8" fill="#FFFFFF" transform="translate(73.500000, 65.688742) rotate(-180.000000) translate(-73.500000, -65.688742) "></path>
                        <rect id="Rectangle" fill="#EEEEEE" x="19.4558824" y="46.1986755" width="107.367647" height="2.88741722" rx="1.44370861"></rect>
                        <rect id="Rectangle-Copy-9" fill="#EEEEEE" x="19.4558824" y="63.5231788" width="107.367647" height="2.88741722" rx="1.44370861"></rect>
                        <rect id="Rectangle-Copy-10" fill="#EEEEEE" x="19.4558824" y="80.8476821" width="107.367647" height="2.88741722" rx="1.44370861"></rect>
                        <path d="M10,0 L137,1.77635684e-15 C142.522847,7.61826213e-16 147,4.4771525 147,10 L147,31.7615894 L0,31.7615894 L3.55271368e-15,10 C2.87635993e-15,4.4771525 4.4771525,2.79088747e-15 10,1.77635684e-15 Z" id="Rectangle" fill="#1DB199"></path>
                        <ellipse id="Oval" fill="#FFFFFF" cx="18.7352941" cy="16.602649" rx="8.64705882" ry="8.66225166"></ellipse>
                        <rect id="Rectangle" fill="#67CEBB" x="32.0384615" y="56.3793103" width="83.9208145" height="20.2119205" rx="10.1059603"></rect>
                        <text id="Сheck-address" font-family="Roboto-Bold, Roboto" font-size="9" font-weight="bold" line-spacing="24" fill="#FFFFFF">
                            <tspan x="44.1310858" y="63.572391">Сheck address</tspan>
                        </text>
                        <rect id="Rectangle-Copy-11" fill="#FFFFFF" x="37.4705882" y="15.1589404" width="57.6470588" height="2.88741722" rx="1.44370861"></rect>
                        <path d="M10,0 L137,1.77635684e-15 C142.522847,7.61826213e-16 147,4.4771525 147,10 L147,31.7615894 L0,31.7615894 L3.55271368e-15,10 C2.87635993e-15,4.4771525 4.4771525,2.79088747e-15 10,1.77635684e-15 Z" id="Rectangle" fill="#67CEBB"></path>
                        <ellipse id="Oval" fill="#FFFFFF" cx="18.7352941" cy="16.602649" rx="8.64705882" ry="8.66225166"></ellipse>
                        <rect id="Rectangle-Copy-11" fill="#FFFFFF" x="37.4705882" y="15.1589404" width="57.6470588" height="2.88741722" rx="1.44370861"></rect>
                    </g>
                </g>
                <circle id="Oval" stroke="#C5D2F0" stroke-width="2" cx="6" cy="126" r="6"></circle>
                <circle id="Oval-Copy" stroke="#2C69A9" stroke-width="2" cx="200" cy="226" r="4"></circle>
                <g id="Group-31-Copy" transform="translate(123.590446, 9.818268) rotate(-45.000000) translate(-123.590446, -9.818268) translate(117.090446, 3.818268)" stroke="#1DB199" stroke-linecap="round" stroke-width="2">
                    <path d="M6.51584466,0.63272409 L6.74338536,11.1015583" id="Path-7"></path>
                    <path d="M12.2138623,5.62521181 L1.27290839,5.62521181" id="Path-8"></path>
                </g>
                <g id="Group-31-Copy" transform="translate(54.000000, 222.500000) rotate(-90.000000) translate(-54.000000, -222.500000) translate(48.000000, 217.000000)" stroke="#C5D2F0" stroke-linecap="round" stroke-width="2">
                    <path d="M6.56459968,0.349437892 L6.56459968,9.51610456" id="Path-7"></path>
                    <path d="M10.8784716,4.15003338 L0.631578947,4.15003338" id="Path-8"></path>
                </g>
                <g id="Group-30" opacity="0.729678199" transform="translate(274.000000, 168.000000)" stroke="#C5D2F0" stroke-linecap="round" stroke-width="2">
                    <path d="M0.57748171,1.40142119 L18.5184092,1.40142119" id="Path-14"></path>
                    <path d="M23.203249,1.25796379 L26.5344828,1.25796379" id="Path-15"></path>
                </g>
                <g id="Group-30" opacity="0.729678199" transform="translate(22.000000, 35.000000)" stroke="#C5D2F0" stroke-linecap="round" stroke-width="2">
                    <path d="M0,0.5 L17.9409275,0.5" id="Path-14"></path>
                    <path d="M23.2758621,0.5 L26.6070958,0.5" id="Path-15"></path>
                </g>
            </g>
        </g>
    </g>
</svg>