<?xml version="1.0" encoding="UTF-8"?>
<svg width="432px" height="393px" viewBox="0 0 432 393" version="1.1" xmlns="http://www.w3.org/2000/svg" xmlns:xlink="http://www.w3.org/1999/xlink">
    <!-- Generator: sketchtool 52.5 (67469) - http://www.bohemiancoding.com/sketch -->
    <title>BF17160A-C0DE-4252-B78D-36A7F7D5BD04</title>
    <desc>Created with sketchtool.</desc>
    <g id="design-desk" stroke="none" stroke-width="1" fill="none" fill-rule="evenodd">
        <g id="NBN-Explained" transform="translate(-447.000000, -3771.000000)" stroke="#979797">
            <g id="Group-24-Copy-4" transform="translate(645.173665, 3991.205194) rotate(-315.000000) translate(-645.173665, -3991.205194) translate(366.673665, 3935.705194)">
                <path d="M3.66325728,60.8540209 C42.6646693,22.5867561 80.427723,22.8498762 116.952418,61.6433815 C171.739461,119.833639 212.191736,112.863339 234.189565,98.3497797 C256.187394,83.8362202 282.260042,22.044965 343.911868,36.191028 C405.563695,50.3370911 441.259167,74.3334995 471.571401,63.2538486 C501.883634,52.1741977 501.883634,26.9179183 556.663257,20.4713024" id="Path-22-Copy-3" opacity="0.246140253"></path>
                <path d="M0.12772337,23.9670009 C39.4930508,19.1264057 69.4093477,33.2397574 89.8766142,66.307056 C120.577514,115.908004 171.989504,115.598135 187.592,103.574657 C203.194497,91.5511784 258.545049,43.7350754 317.423715,50.5374911 C376.302381,57.3399068 401.84674,69.8867081 432.158973,58.8327826 C462.471207,47.7788571 492.906124,-8.87205696 553.127723,1.55297012" id="Path-22-Copy-3" opacity="0.322986421"></path>
            </g>
        </g>
    </g>
</svg>