<?xml version="1.0" encoding="UTF-8"?>
<svg width="18px" height="28px" viewBox="0 0 18 28" version="1.1" xmlns="http://www.w3.org/2000/svg" xmlns:xlink="http://www.w3.org/1999/xlink">
    <!-- Generator: sketchtool 52.5 (67469) - http://www.bohemiancoding.com/sketch -->
    <title>62E1C0D4-AAD3-4CC5-AFED-9D257776AE7E</title>
    <desc>Created with sketchtool.</desc>
    <g id="design" stroke="none" stroke-width="1" fill="none" fill-rule="evenodd">
        <g id="NBN-Explained" transform="translate(-897.000000, -4792.000000)" fill="#1DB199">
            <g id="Group-18" transform="translate(707.000000, 4562.000000)">
                <g id="Group-73">
                    <g id="Group-55" transform="translate(102.000000, 167.000000)">
                        <g id="Group-54" transform="translate(88.000000, 63.000000)">
                            <g id="Group-52">
                                <g id="Group-8">
                                    <g id="Group-62">
                                        <g id="Group-7" transform="translate(0.000000, 0.040376)">
                                            <path d="M16.9411765,3.89005465 L1.05882353,3.89005465 L1.05882353,2.28037964 C1.05882353,1.62933317 1.58122059,1.09981716 2.22333088,1.09981716 L15.7763382,1.09981716 C16.4187132,1.09981716 16.9411765,1.62933317 16.9411765,2.28037964 L16.9411765,3.89005465 Z M9,25.4186397 C8.86063235,25.4186397 8.72417647,25.3617645 8.62570588,25.2614281 C8.52716912,25.1616282 8.47058824,25.0232632 8.47058824,24.8820813 C8.47058824,24.7411006 8.52716912,24.6028027 8.62570588,24.5030029 C8.72417647,24.4028677 8.86063235,24.345523 9,24.345523 C9.13903676,24.345523 9.27582353,24.4028677 9.37429412,24.5030029 C9.47276471,24.6028027 9.52941176,24.7411006 9.52941176,24.8820813 C9.52941176,25.0237998 9.47276471,25.1616282 9.37429412,25.2614281 C9.27582353,25.3617645 9.13903676,25.4186397 9,25.4186397 Z M16.9411765,6.46620536 L16.9411765,19.0207985 L16.9411765,22.5621506 L1.05882353,22.5621506 L1.05882353,4.96317132 L16.9411765,4.96317132 L16.9411765,6.46620536 Z M16.9411765,25.2449423 C16.9411765,25.8959888 16.4187132,26.4255048 15.7763382,26.4255048 L2.22333088,26.4255048 C1.58122059,26.4255048 1.05882353,25.8959888 1.05882353,25.2449423 L1.05882353,23.6352673 L16.9411765,23.6352673 L16.9411765,25.2449423 Z M15.7763382,0.0267004842 L2.22333088,0.0267004842 C0.997279412,0.0267004842 0,1.03744225 0,2.28037964 L0,25.2449423 C0,26.4875443 0.997279412,27.4986215 2.22333088,27.4986215 L15.7763382,27.4986215 C17.0024559,27.4986215 18,26.4875443 18,25.2449423 L18,19.0207985 L18,6.36083872 L18,2.28037964 C18,1.03744225 17.0024559,0.0267004842 15.7763382,0.0267004842 Z" id="Fill-5"></path>
                                        </g>
                                    </g>
                                </g>
                            </g>
                        </g>
                    </g>
                </g>
            </g>
        </g>
    </g>
</svg>