<?xml version="1.0" encoding="UTF-8"?>
<svg width="20px" height="16px" viewBox="0 0 20 16" version="1.1" xmlns="http://www.w3.org/2000/svg" xmlns:xlink="http://www.w3.org/1999/xlink">
    <!-- Generator: sketchtool 52.5 (67469) - http://www.bohemiancoding.com/sketch -->
    <title>08FE019B-4C30-40C2-85D8-3A2337879C9A</title>
    <desc>Created with sketchtool.</desc>
    <g id="-Page1" stroke="none" stroke-width="1" fill="none" fill-rule="evenodd">
        <g id="NBN-Explained" transform="translate(-250.000000, -7117.000000)" fill="#003D74">
            <g id="Group-12-Copy" transform="translate(189.000000, 7104.000000)">
                <g id="Group-3" transform="translate(61.000000, 13.325000)">
                    <path d="M20,0.00871402267 C19.1290909,0.58708243 18.1654545,1.03006979 17.1454545,1.31968241 C15.6690909,-0.28004176 13.0963636,-0.448839651 11.4,0.941815054 C10.4954545,1.68298346 9.98363636,2.7608908 10,3.89020867 L10,4.74705076 C6.75545455,4.82673707 3.68363636,3.36924868 1.81818182,0.865556108 C1.81818182,0.865556108 -1.81818182,8.57713488 6.36363636,12.0045032 C4.49090909,13.2023685 2.26090909,13.8030148 0,13.7181874 C8.18181818,18.0023978 18.1818182,13.7181874 18.1818182,3.86450341 C18.1809091,3.62544447 18.1572727,3.38724237 18.1090909,3.15332448 C19.0363636,2.2904845 19.6918182,1.20229505 20,0.00871402267" id="Fill-1"></path>
                </g>
            </g>
        </g>
    </g>
</svg>