<?xml version="1.0" encoding="UTF-8"?>
<svg width="95px" height="95px" viewBox="0 0 95 95" version="1.1" xmlns="http://www.w3.org/2000/svg" xmlns:xlink="http://www.w3.org/1999/xlink">
    <!-- Generator: sketchtool 52.5 (67469) - http://www.bohemiancoding.com/sketch -->
    <title>3502B494-CFFC-4C82-AD1E-0FA8845CA038</title>
    <desc>Created with sketchtool.</desc>
    <g id="Page-1" stroke="none" stroke-width="1" fill="none" fill-rule="evenodd">
        <g id="AU-New" transform="translate(-671.000000, -901.000000)">
            <g id="plans" transform="translate(179.000000, 748.000000)">
                <g id="Group-33" transform="translate(492.000000, 153.000000)">
                    <rect id="Rectangle" fill="#FFFFFF" x="24" y="27" width="69" height="22"></rect>
                    <g id="wage" fill="#4DBBA6" fill-rule="nonzero">
                        <path d="M85.8064516,4.59677419 C85.8064516,2.06271259 83.743739,0 81.2096774,0 L75.0806452,0 C72.5465836,0 70.483871,2.06271259 70.483871,4.59677419 L70.483871,9.19354839 L33.0280919,9.19354839 L18.3870968,25.4603233 L18.3870968,30.6451613 L0,30.6451613 L0,70.483871 L18.3870968,70.483871 L18.3870968,95 L95,95 L95,9.19354839 L85.8064516,9.19354839 L85.8064516,4.59677419 Z M73.5483871,45.9677419 L73.5483871,21.4516129 L76.6129032,21.4516129 L76.6129032,45.9677419 L73.5483871,45.9677419 Z M81.4116842,49.0322581 L78.1451613,53.930546 L74.8786384,49.0322581 L81.4116842,49.0322581 Z M82.7419355,45.9677419 L79.6774194,45.9677419 L79.6774194,21.4516129 L82.7419355,21.4516129 L82.7419355,45.9677419 Z M82.7419355,18.3870968 L73.5483871,18.3870968 L73.5483871,15.3225806 L82.7419355,15.3225806 L82.7419355,18.3870968 Z M75.0806452,3.06451613 L81.2096774,3.06451613 C82.0551127,3.06451613 82.7419355,3.75283518 82.7419355,4.59677419 L82.7419355,12.2580645 L73.5483871,12.2580645 L73.5483871,4.59677419 C73.5483871,3.75283518 74.2352099,3.06451613 75.0806452,3.06451613 Z M32.1774194,14.7188051 L32.1774194,24.516129 L23.3594539,24.516129 L32.1774194,14.7188051 Z M3.06451613,33.7096774 L64.3548387,33.7096774 L64.3548387,67.4193548 L3.06451613,67.4193548 L3.06451613,33.7096774 Z M91.9354839,12.2580645 L91.9354839,91.9354839 L21.4516129,91.9354839 L21.4516129,70.483871 L67.4193548,70.483871 L67.4193548,30.6451613 L21.4516129,30.6451613 L21.4516129,27.5806452 L35.2419355,27.5806452 L35.2419355,12.2580645 L70.483871,12.2580645 L70.483871,47.9646153 L78.1451613,59.4565508 L85.8064516,47.9646153 L85.8064516,12.2580645 L91.9354839,12.2580645 Z M67.4193548,18.3870968 L38.3064516,18.3870968 L38.3064516,15.3225806 L67.4193548,15.3225806 L67.4193548,18.3870968 Z M67.4193548,24.516129 L38.3064516,24.516129 L38.3064516,21.4516129 L67.4193548,21.4516129 L67.4193548,24.516129 Z M24.516129,73.5483871 L88.8709677,73.5483871 L88.8709677,76.6129032 L24.516129,76.6129032 L24.516129,73.5483871 Z M27.5806452,82.7419355 L24.516129,82.7419355 L24.516129,79.6774194 L27.5806452,79.6774194 L27.5806452,82.7419355 Z M30.6451613,79.6774194 L88.8709677,79.6774194 L88.8709677,82.7419355 L30.6451613,82.7419355 L30.6451613,79.6774194 Z M24.516129,85.8064516 L82.7419355,85.8064516 L82.7419355,88.8709677 L24.516129,88.8709677 L24.516129,85.8064516 Z M85.8064516,85.8064516 L88.8709677,85.8064516 L88.8709677,88.8709677 L85.8064516,88.8709677 L85.8064516,85.8064516 Z M39.8387097,45.9677419 L39.8387097,47.5 L36.7741935,47.5 L36.7741935,45.9677419 C36.7741935,44.2776193 35.3998,42.9032258 33.7096774,42.9032258 C32.0195548,42.9032258 30.6451613,44.2776193 30.6451613,45.9677419 C30.6451613,47.6578645 32.0195548,49.0322581 33.7096774,49.0322581 C37.0899226,49.0322581 39.8387097,51.7810451 39.8387097,55.1612903 C39.8387097,58.0080881 37.8792448,60.388026 35.2419355,61.0726042 L35.2419355,64.3548387 L32.1774194,64.3548387 L32.1774194,61.0726042 C29.54011,60.388026 27.5806452,58.0080881 27.5806452,55.1612903 L27.5806452,53.6290323 L30.6451613,53.6290323 L30.6451613,55.1612903 C30.6451613,56.8514129 32.0195548,58.2258065 33.7096774,58.2258065 C35.3998,58.2258065 36.7741935,56.8514129 36.7741935,55.1612903 C36.7741935,53.4711677 35.3998,52.0967742 33.7096774,52.0967742 C30.3294322,52.0967742 27.5806452,49.3479871 27.5806452,45.9677419 C27.5806452,43.1209442 29.54011,40.7410063 32.1774194,40.056428 L32.1774194,36.7741935 L35.2419355,36.7741935 L35.2419355,40.056428 C37.8792448,40.7410063 39.8387097,43.1209442 39.8387097,45.9677419 Z M58.2258065,49.0322581 L61.2903226,49.0322581 L61.2903226,52.0967742 L58.2258065,52.0967742 L58.2258065,49.0322581 Z M6.12903226,49.0322581 L9.19354839,49.0322581 L9.19354839,52.0967742 L6.12903226,52.0967742 L6.12903226,49.0322581 Z M52.0967742,49.0322581 L55.1612903,49.0322581 L55.1612903,52.0967742 L52.0967742,52.0967742 L52.0967742,49.0322581 Z M45.9677419,49.0322581 L49.0322581,49.0322581 L49.0322581,52.0967742 L45.9677419,52.0967742 L45.9677419,49.0322581 Z M12.2580645,49.0322581 L15.3225806,49.0322581 L15.3225806,52.0967742 L12.2580645,52.0967742 L12.2580645,49.0322581 Z M18.3870968,49.0322581 L21.4516129,49.0322581 L21.4516129,52.0967742 L18.3870968,52.0967742 L18.3870968,49.0322581 Z" id="Shape"></path>
                    </g>
                </g>
            </g>
        </g>
    </g>
</svg>