<?xml version="1.0" encoding="UTF-8"?>
<svg width="180px" height="126px" viewBox="0 0 180 126" version="1.1" xmlns="http://www.w3.org/2000/svg" xmlns:xlink="http://www.w3.org/1999/xlink">
    <!-- Generator: sketchtool 52.5 (67469) - http://www.bohemiancoding.com/sketch -->
    <title>B8B8D866-12B5-4694-A5EB-ADD2372B1F2D</title>
    <desc>Created with sketchtool.</desc>
    <defs>
        <polygon id="path-1" points="0.136541148 0.19831875 136.593785 0.19831875 136.593785 126 0.136541148 126"></polygon>
        <polygon id="path-3" points="0 0.0680653846 21.8037471 0.0680653846 21.8037471 16.7143346 0 16.7143346"></polygon>
        <polygon id="path-5" points="0 -2.04277053e-05 22.3914523 -2.04277053e-05 22.3914523 22.2661781 0 22.2661781"></polygon>
    </defs>
    <g id="design-desk" stroke="none" stroke-width="1" fill="none" fill-rule="evenodd">
        <g id="Spred-design-" transform="translate(-630.000000, -764.000000)">
            <g id="Group-16" transform="translate(630.000000, 764.000000)">
                <g id="Group-2">
                    <g id="Group-11-Copy" opacity="0.54484747">
                        <g id="Group-3" transform="translate(17.000000, 0.000000)">
                            <mask id="mask-2" fill="white">
                                <use xlink:href="#path-1"></use>
                            </mask>
                            <g id="Clip-2"></g>
                            <path d="M128.24924,92.5838812 L125.836991,92.5838812 C130.507445,83.7888187 133.157642,73.7547562 133.157642,63.099225 C133.157642,28.359975 105.028067,0.19831875 70.3290483,0.19831875 C54.3957517,0.19831875 39.8521201,6.13869375 28.7767517,15.9240375 L8.48174211,15.9240375 C3.87290478,15.9240375 0.136541148,19.6640062 0.136541148,24.2774438 C0.136541148,28.8915375 3.87290478,32.6315062 8.48174211,32.6315062 L15.3533737,32.6315062 C10.3518904,41.658225 7.49979952,52.0446937 7.49979952,63.099225 C7.49979952,97.838475 35.6293737,126.000131 70.3290483,126.000131 C86.7880579,126.000131 101.766288,119.660756 112.968168,109.292006 L128.24924,109.292006 C132.858077,109.292006 136.593785,105.552037 136.593785,100.937944 C136.593785,96.3245062 132.858077,92.5838812 128.24924,92.5838812" id="Fill-1" fill="#E8F1FE" mask="url(#mask-2)"></path>
                        </g>
                        <path d="M171.688874,92 L166.311126,92 C161.720747,92 158,95.8059701 158,100.5 C158,105.194698 161.720747,109 166.311126,109 L171.688874,109 C176.279253,109 180,105.194698 180,100.5 C180,95.8059701 176.279253,92 171.688874,92" id="Fill-4" fill="#E8F1FE"></path>
                        <path d="M147.311126,25 L152.688874,25 C157.279253,25 161,21.1940299 161,16.5 C161,11.8059701 157.279253,8 152.688874,8 L147.311126,8 C142.7214,8 139,11.8059701 139,16.5 C139,21.1940299 142.7214,25 147.311126,25" id="Fill-6" fill="#E8F1FE"></path>
                        <g id="Group-10" transform="translate(0.000000, 83.000000)">
                            <mask id="mask-4" fill="white">
                                <use xlink:href="#path-3"></use>
                            </mask>
                            <g id="Clip-9"></g>
                            <path d="M13.5666882,0.0680653846 L8.23686471,0.0680653846 C3.68804118,0.0680653846 -0.000194117649,3.79433462 -0.000194117649,8.39152692 C-0.000194117649,12.9880654 3.68804118,16.7143346 8.23686471,16.7143346 L13.5666882,16.7143346 C18.1161588,16.7143346 21.8037471,12.9880654 21.8037471,8.39152692 C21.8037471,3.79433462 18.1161588,0.0680653846 13.5666882,0.0680653846" id="Fill-8" fill="#E8F1FE" mask="url(#mask-4)"></path>
                        </g>
                    </g>
                    <g id="Group-23" transform="translate(57.000000, 38.000000)">
                        <g id="Group-22">
                            <path d="M42.1630407,12.4225981 L43.7140097,12.4225981 L48.8393973,12.4225981 C50.544436,12.4225981 51.9207926,13.7912544 51.9207926,15.4867539 L51.9207926,21.57421 L43.8064516,21.57421 C41.5363876,21.57421 39.6979244,23.4024896 39.6979244,25.659751 L39.6979244,30.582828 C39.6979244,32.8400894 41.5363876,34.668369 43.8064516,34.668369 L51.9207926,34.668369 L51.9207926,40.7558251 C51.9207926,42.4513246 50.544436,43.8199808 48.8393973,43.8199808 L12.9719554,43.8199808 C11.2669167,43.8199808 9.89056008,42.4513246 9.89056008,40.7558251 L9.89056008,15.4867539 C9.89056008,14.0057453 10.9382345,12.780083 12.3351337,12.4838813 C12.5405601,12.4430259 12.7562578,12.4225981 12.9719554,12.4225981 L19.1450174,12.4225981 L42.1630407,12.4225981 Z" id="Fill-1" fill="#FFA100"></path>
                            <path d="M48.1306353,28.1519311 C48.1306353,26.9262688 47.1343174,25.9253112 45.891488,25.9253112 C44.6589298,25.9253112 43.6523407,26.9160549 43.6523407,28.1519311 C43.6523407,29.3775934 44.6487612,30.3785509 45.891488,30.3785509 C47.1343174,30.3785509 48.1306353,29.3878072 48.1306353,28.1519311 Z M51.9207516,21.57421 L51.9207516,34.668369 L43.8064105,34.668369 C41.5364492,34.668369 39.6978833,32.8400894 39.6978833,30.582828 L39.6978833,25.659751 C39.6978833,23.4024896 41.5364492,21.57421 43.8064105,21.57421 L51.9207516,21.57421 Z" id="Fill-3" fill="#FDC75B"></path>
                            <path d="M45.9017388,25.9253316 C47.1384054,25.9253316 48.1409888,26.9222036 48.1409888,28.1519515 C48.1409888,29.3816993 47.1384054,30.3785713 45.9017388,30.3785713 C44.6651748,30.3785713 43.6625915,29.3816993 43.6625915,28.1519515 C43.6625915,26.9222036 44.6651748,25.9253316 45.9017388,25.9253316" id="Fill-5" fill="#FFA100"></path>
                            <polygon id="Fill-7" fill="#FFA100" points="43.7139686 1.36101628 43.7139686 12.4226186 42.1629996 12.4226186 34.3054415 4.68051835"></polygon>
                            <polygon id="Fill-9" fill="#FFFFFF" points="34.3054826 4.68051835 42.1630407 12.4226186 19.1450174 12.4226186 22.8529632 8.74563166 22.8529632 8.73541781 30.6078081 1.034173"></polygon>
                            <path d="M10.8765963,15.4867539 C10.8765963,14.5266518 11.5853172,13.678902 12.5302785,13.4848388 C12.6638056,13.4541973 12.8281467,13.4337695 12.9719452,13.4337695 L48.839387,13.4337695 C49.969232,13.4337695 50.9347359,14.3632301 50.9347359,15.4867539 L50.9347359,20.5834663 L43.79617,20.5834663 C40.9612862,20.5834663 38.7118676,22.8407277 38.7118676,25.659751 L38.7118676,30.582828 C38.7118676,33.4018513 40.9715576,35.6999681 43.79617,35.6999681 L50.9347359,35.6999681 L50.9347359,40.7456112 C50.9347359,41.869135 49.969232,42.7475263 48.839387,42.7475263 L12.9719452,42.7475263 C11.8421002,42.7475263 10.8765963,41.869135 10.8765963,40.7456112 L10.8765963,15.4867539 Z M18.8882242,11.2275774 L18.7238831,11.390999 L18.4260149,11.390999 L18.8882242,11.2275774 Z M23.5512998,9.48100862 C23.5615711,9.47079477 23.5718424,9.47079477 23.5821138,9.46058091 L30.6076952,2.46409192 L39.6669975,11.390999 L21.6202921,11.390999 L23.5512998,9.48100862 Z M42.7176816,2.81136291 L42.7176816,11.390999 L42.5841545,11.390999 L36.2056661,5.08905203 L42.7176816,2.81136291 Z M50.9347359,33.6571976 L43.79617,33.6571976 C42.1014025,33.6571976 40.7661312,32.2681136 40.7661312,30.582828 L40.7661312,25.659751 C40.7661312,23.9744654 42.1014025,22.6262368 43.79617,22.6262368 L50.9347359,22.6262368 L50.9347359,33.6571976 Z M12.9719452,44.7902968 L48.839387,44.7902968 C51.1093483,44.7902968 52.9889994,43.0028726 52.9889994,40.7456112 L52.9889994,15.4867539 C52.9889994,13.2294925 51.0990769,11.390999 48.839387,11.390999 L44.7719452,11.390999 L44.7719452,1.36099585 C44.7719452,1.03415257 44.5973328,0.717523141 44.3200072,0.523459943 C44.0426816,0.329396744 43.6934568,0.288541334 43.3750459,0.39067986 L34.5725266,3.49569103 L31.3267901,0.298755187 C30.9262087,-0.0995850622 30.2791157,-0.0995850622 29.8785343,0.298755187 L22.2880304,7.84679221 L12.0167126,11.5033514 C10.1678754,11.9323332 8.81206143,13.5869773 8.81206143,15.4867539 L8.81206143,40.7456112 C8.82223004,43.0028726 10.7122552,44.7902968 12.9719452,44.7902968 Z" id="Fill-11" fill="#003D74"></path>
                            <path d="M45.9017388,26.9568899 C46.5693744,26.9568899 47.113857,27.4982241 47.113857,28.1621245 C47.113857,28.8260249 46.5693744,29.3674612 45.9017388,29.3674612 C45.2341031,29.3674612 44.6897233,28.8260249 44.6897233,28.1621245 C44.6897233,27.4982241 45.2341031,26.9568899 45.9017388,26.9568899 M42.6354597,28.1519106 C42.6354597,29.9393348 44.0939868,31.3999157 45.9017388,31.3999157 C47.7095934,31.3999157 49.1681205,29.9495487 49.1681205,28.1519106 C49.1681205,26.3543747 47.7095934,24.9039055 45.9017388,24.9039055 C44.0939868,24.9039055 42.6354597,26.3644864 42.6354597,28.1519106" id="Fill-13" fill="#003D74"></path>
                            <path d="M21.492712,38.0899891 C21.492712,43.7309978 16.8941403,48.3038417 11.2213942,48.3038417 C5.54864806,48.3038417 0.950076357,43.7309978 0.950076357,38.0899891 C0.950076357,32.4489805 5.54864806,27.8761366 11.2213942,27.8761366 C16.8941403,27.8761366 21.492712,32.4489805 21.492712,38.0899891 Z" id="Fill-15" fill="#4DBBA6"></path>
                            <path d="M11.2984291,41.0816368 C10.8595357,41.0816368 10.3858225,40.8071906 9.96459574,40.3091631 C9.5995531,39.8771171 8.95153566,39.8214516 8.51746977,40.184452 C8.08319845,40.5475544 8.02721977,41.1917421 8.3922624,41.6234816 C8.94136705,42.2730827 9.58702209,42.7256585 10.2712973,42.9538359 L10.2712973,44.1457925 C10.2712973,44.7098015 10.7311442,45.1671778 11.2984291,45.1671778 C11.865714,45.1671778 12.3255609,44.7098015 12.3255609,44.1457925 L12.3255609,42.948729 C13.5210395,42.5271012 14.3798244,41.3918315 14.3798244,40.0602515 C14.3798244,38.370676 12.9975105,36.9960958 11.2984291,36.9960958 C10.7320686,36.9960958 10.2712973,36.5379023 10.2712973,35.9747105 C10.2712973,35.4115187 10.7320686,34.9533252 11.2984291,34.9533252 C11.6622391,34.9533252 12.0464891,35.1380938 12.4093748,35.4873055 C12.8170434,35.8795174 13.4674233,35.8687929 13.8617391,35.4635072 C14.2561578,35.0580172 14.2454756,34.4114804 13.837807,34.0191663 C13.3165376,33.517564 12.7949601,33.2339253 12.3254581,33.0789812 L12.3254581,31.8891695 C12.3254581,31.3252627 11.8656112,30.8677842 11.2983264,30.8677842 C10.7310415,30.8677842 10.2711946,31.3252627 10.2711946,31.8891695 L10.2711946,33.086233 C9.07571589,33.5078608 8.21693101,34.6431305 8.21693101,35.9747105 C8.21693101,37.664286 9.59924496,39.0388663 11.2983264,39.0388663 C11.8646868,39.0388663 12.3254581,39.4970597 12.3254581,40.0602515 C12.3254581,40.6234433 11.8647895,41.0816368 11.2984291,41.0816368" id="Fill-17" fill="#003D74"></path>
                            <g id="Group-21" transform="translate(0.000000, 26.956910)">
                                <mask id="mask-6" fill="white">
                                    <use xlink:href="#path-5"></use>
                                </mask>
                                <g id="Clip-20"></g>
                                <path d="M11.1957159,20.4276846 C6.04177403,20.4276846 1.84881667,16.2581858 1.84881667,11.1330788 C1.84881667,6.00797191 6.04177403,1.83847303 11.1957159,1.83847303 C16.3496578,1.83847303 20.5426151,6.00797191 20.5426151,11.1330788 C20.5426151,16.2581858 16.3496578,20.4276846 11.1957159,20.4276846 M11.1957159,-2.04277053e-05 C5.02234574,-2.04277053e-05 -2.05426368e-05,4.99424705 -2.05426368e-05,11.1330788 C-2.05426368e-05,17.2719106 5.02234574,22.2661781 11.1957159,22.2661781 C17.369086,22.2661781 22.3914523,17.2719106 22.3914523,11.1330788 C22.3914523,4.99424705 17.369086,-2.04277053e-05 11.1957159,-2.04277053e-05" id="Fill-19" fill="#003D74" mask="url(#mask-6)"></path>
                            </g>
                        </g>
                    </g>
                </g>
            </g>
        </g>
    </g>
</svg>