<?xml version="1.0" encoding="UTF-8"?>
<svg width="370px" height="187px" viewBox="0 0 370 187" version="1.1" xmlns="http://www.w3.org/2000/svg" xmlns:xlink="http://www.w3.org/1999/xlink">
    <!-- Generator: sketchtool 52.5 (67469) - http://www.bohemiancoding.com/sketch -->
    <title>9E3B4ACB-224E-4F19-B8D5-E9353010220B</title>
    <desc>Created with sketchtool.</desc>
    <defs>
        <polygon id="path-1" points="0.316111111 0.0766855374 2.83166667 0.0766855374 2.83166667 2.57952312 0.316111111 2.57952312"></polygon>
    </defs>
    <g id="Symbols" stroke="none" stroke-width="1" fill="none" fill-rule="evenodd">
        <g id="FAQs-" transform="translate(0.000000, -104.000000)">
            <g id="Group-249" transform="translate(0.000000, 104.000000)">
                <g id="Group-248">
                    <path d="M40.8655185,63.5520428 C40.9688519,63.3117787 41.1262593,63.3162007 41.2155185,63.5619924 L41.6736667,64.8207997 C41.7629259,65.0665914 42.0332963,65.351813 42.2747778,65.4546254 L43.5121852,65.9808481 C43.7532963,66.0836605 43.7488519,66.2402744 43.5021852,66.3294522 L42.2366296,66.7845538 C41.989963,66.8737316 41.7032963,67.1431075 41.599963,67.3830032 L41.0707037,68.6141727 C40.9673704,68.8544369 40.809963,68.8496463 40.7207037,68.6038546 L40.2629259,67.3450473 C40.1732963,67.0996241 39.9029259,66.8144026 39.6614444,66.7115901 L38.4244074,66.1853674 C38.1829259,66.082555 38.1873704,65.9255726 38.4344074,65.8367633 L39.6995926,65.3812932 C39.9466296,65.2924839 40.2329259,65.023108 40.3362593,64.7828439 L40.8655185,63.5520428 Z" id="Fill-1" fill="#EDEDED"></path>
                    <path d="M186.731778,63.5520428 C186.835111,63.3117787 186.992889,63.3162007 187.082148,63.5619924 L187.539926,64.8207997 C187.629185,65.0665914 187.899556,65.351813 188.141407,65.4546254 L189.378444,65.9808481 C189.619556,66.0836605 189.615111,66.2402744 189.368444,66.3294522 L188.103259,66.7845538 C187.856222,66.8737316 187.569556,67.1431075 187.466222,67.3830032 L186.937333,68.6141727 C186.83363,68.8544369 186.676222,68.8496463 186.586963,68.6038546 L186.129185,67.3450473 C186.039926,67.0996241 185.769185,66.8144026 185.527704,66.7115901 L184.290667,66.1853674 C184.049185,66.082555 184.05363,65.9255726 184.300667,65.8367633 L185.565852,65.3812932 C185.812889,65.2924839 186.099556,65.023108 186.202519,64.7828439 L186.731778,63.5520428 Z" id="Fill-3" fill="#EDEDED"></path>
                    <path d="M338.440222,81.19377 C338.543556,80.9535058 338.701333,80.9575593 338.790593,81.203351 L339.24837,82.4621583 C339.33763,82.70795 339.608,82.9931716 339.849481,83.095984 L341.086889,83.6225752 C341.328,83.7250191 341.323556,83.8820016 341.076889,83.9708109 L339.811333,84.4262809 C339.564667,84.5154587 339.278,84.7844661 339.174667,85.0247303 L338.645778,86.2555313 C338.542074,86.4957955 338.384667,86.4913734 338.295407,86.2455817 L337.83763,84.9867745 C337.74837,84.7409828 337.47763,84.4561297 337.236148,84.3529488 L335.999111,83.8267261 C335.75763,83.7239136 335.762074,83.5669312 336.009111,83.4781219 L337.274296,83.0226519 C337.521333,82.9338426 337.808,82.6644666 337.910963,82.424571 L338.440222,81.19377 Z" id="Fill-5" fill="#FFFFFF"></path>
                    <path d="M123.858519,43.9988522 C123.961852,43.758588 124.11963,43.7630101 124.208519,44.0088018 L124.666667,45.2676091 C124.755926,45.5134008 125.026296,45.7986223 125.267778,45.9014348 L126.505185,46.4276575 C126.746296,46.5304699 126.741852,46.6870838 126.495185,46.7762616 L125.22963,47.2313632 C124.982963,47.320541 124.696296,47.5899169 124.592963,47.8298125 L124.063704,49.0609821 C123.96037,49.3012462 123.802963,49.2964557 123.713704,49.050664 L123.255926,47.7918567 C123.166667,47.5464335 122.895926,47.2612119 122.654444,47.1583995 L121.417407,46.6321768 C121.175926,46.5293644 121.18037,46.372382 121.427407,46.2835727 L122.692593,45.8281026 C122.93963,45.7392933 123.225926,45.4699174 123.329259,45.2296532 L123.858519,43.9988522 Z" id="Fill-7" fill="#EDEDED"></path>
                    <path d="M32.7785185,129.133028 C29.9081481,129.133028 27.5725926,126.809246 27.5725926,123.952977 C27.5725926,123.342367 28.07,122.847467 28.6837037,122.847467 C29.2974074,122.847467 29.7948148,123.342367 29.7948148,123.952977 C29.7948148,125.590237 31.1333333,126.922008 32.7785185,126.922008 C34.4237037,126.922008 35.7622222,125.590237 35.7622222,123.952977 C35.7622222,123.342367 36.2596296,122.847467 36.8733333,122.847467 C37.4866667,122.847467 37.9844444,123.342367 37.9844444,123.952977 C37.9844444,126.809246 35.6488889,129.133028 32.7785185,129.133028" id="Fill-9" fill="#E8E8E8"></path>
                    <path d="M40.9682593,129.133028 C38.0975185,129.133028 35.761963,126.809246 35.761963,123.952977 C35.761963,123.342367 36.2597407,122.847467 36.8730741,122.847467 C37.4867778,122.847467 37.9841852,123.342367 37.9841852,123.952977 C37.9841852,125.590237 39.3230741,126.922008 40.9682593,126.922008 C42.6134444,126.922008 43.951963,125.590237 43.951963,123.952977 C43.951963,123.342367 44.4493704,122.847467 45.0630741,122.847467 C45.6764074,122.847467 46.1741852,123.342367 46.1741852,123.952977 C46.1741852,126.809246 43.8386296,129.133028 40.9682593,129.133028" id="Fill-11" fill="#E8E8E8"></path>
                    <path d="M49.158,129.133028 C46.2872593,129.133028 43.9517037,126.809246 43.9517037,123.952977 C43.9517037,123.342367 44.4494815,122.847467 45.0628148,122.847467 C45.6765185,122.847467 46.1739259,123.342367 46.1739259,123.952977 C46.1739259,125.590237 47.5128148,126.922008 49.158,126.922008 C50.8031852,126.922008 52.1417037,125.590237 52.1417037,123.952977 C52.1417037,123.342367 52.6391111,122.847467 53.2528148,122.847467 C53.8665185,122.847467 54.3639259,123.342367 54.3639259,123.952977 C54.3639259,126.809246 52.0283704,129.133028 49.158,129.133028" id="Fill-13" fill="#E8E8E8"></path>
                    <path d="M57.3477407,129.133028 C54.4773704,129.133028 52.1418148,126.809246 52.1418148,123.952977 C52.1418148,123.342367 52.6392222,122.847467 53.2529259,122.847467 C53.8666296,122.847467 54.364037,123.342367 54.364037,123.952977 C54.364037,125.590237 55.7025556,126.922008 57.3477407,126.922008 C58.9929259,126.922008 60.3314444,125.590237 60.3314444,123.952977 C60.3314444,123.342367 60.8288519,122.847467 61.4425556,122.847467 C62.0558889,122.847467 62.5536667,123.342367 62.5536667,123.952977 C62.5536667,126.809246 60.2181111,129.133028 57.3477407,129.133028" id="Fill-15" fill="#E8E8E8"></path>
                    <path d="M65.5372963,129.133028 C62.6669259,129.133028 60.3313704,126.809246 60.3313704,123.952977 C60.3313704,123.342367 60.8287778,122.847467 61.4424815,122.847467 C62.0561852,122.847467 62.5535926,123.342367 62.5535926,123.952977 C62.5535926,125.590237 63.8921111,126.922008 65.5372963,126.922008 C67.1824815,126.922008 68.521,125.590237 68.521,123.952977 C68.521,123.342367 69.0184074,122.847467 69.6321111,122.847467 C70.2458148,122.847467 70.7432222,123.342367 70.7432222,123.952977 C70.7432222,126.809246 68.4076667,129.133028 65.5372963,129.133028" id="Fill-17" fill="#E8E8E8"></path>
                    <path d="M279.708481,131.992908 L268.157,131.992908 C267.543296,131.992908 267.045889,131.498008 267.045889,130.887399 L267.045889,78.0926673 L260.987,78.0926673 C260.373296,78.0926673 259.875889,77.5977673 259.875889,76.9871574 L259.875889,50.7460371 L257.003296,50.7460371 C256.389963,50.7460371 255.892185,50.2511372 255.892185,49.6405272 L255.892185,41.6572717 L253.732926,41.6572717 L253.732926,49.6405272 C253.732926,50.2511372 253.235519,50.7460371 252.621815,50.7460371 L249.749593,50.7460371 L249.749593,60.3414946 C249.749593,60.9517361 249.252185,61.4470046 248.638481,61.4470046 L242.972185,61.4470046 L242.972185,103.76187 C242.972185,104.37248 242.474407,104.86738 241.861074,104.86738 L235.025148,104.86738 L235.025148,119.79029 C235.025148,120.4009 234.527741,120.8958 233.914037,120.8958 L223.461815,120.8958 C222.848481,120.8958 222.350704,120.4009 222.350704,119.79029 L222.350704,57.8798926 L214.774407,57.8798926 L214.774407,85.706314 C214.774407,86.316924 214.277,86.8118239 213.663296,86.8118239 L200.746259,86.8118239 L200.746259,104.282197 C200.746259,104.892807 200.248481,105.387707 199.635148,105.387707 L196.032185,105.387707 L196.032185,108.72561 C196.032185,109.041417 195.89663,109.342116 195.659593,109.552163 C195.422185,109.761104 195.107741,109.859495 194.791444,109.82375 C189.541444,109.210929 180.748111,113.148018 180.659963,113.188185 C180.319222,113.342588 179.922185,113.314581 179.605889,113.115221 C177.425519,111.741809 174.574037,111.641576 174.545519,111.640839 C174.192185,111.630521 173.864407,111.45364 173.663667,111.164733 C173.462556,110.87509 173.411074,110.50806 173.526259,110.176039 L176.588111,101.326432 C164.371444,99.0855634 155.198481,105.13344 155.104037,105.196822 C154.608111,105.531055 153.934037,105.414239 153.581444,104.931868 C149.415148,99.2296482 142.41663,91.511715 132.733667,87.1283683 C129.024037,85.4487302 126.023667,84.7703156 124.337741,84.4987287 L127.359963,97.1144393 C127.46737,97.5629078 127.283667,98.030907 126.898852,98.2881223 C126.514037,98.5449691 126.009593,98.5379675 125.632185,98.2693286 C121.182556,95.0983577 115.036259,94.4446328 112.459963,94.3119716 L113.160333,101.208879 C113.199222,101.592123 113.034778,101.967996 112.726259,102.20089 C112.417741,102.433416 112.009593,102.489428 111.649222,102.349397 C105.635889,100.002768 99.8944074,100.358742 97.3644074,100.691869 L102.152185,111.318031 C102.315519,111.681006 102.270333,112.10368 102.033667,112.424278 C101.797,112.745612 101.404778,112.91365 101.008111,112.868324 C99.4232963,112.680387 95.6555185,114.197884 93.064037,115.45448 C93.584037,115.546606 93.9792222,115.99876 93.9792222,116.54267 L93.9792222,119.09345 C93.9792222,119.70406 93.4818148,120.19896 92.8681111,120.19896 L91.7462593,120.19896 L91.7462593,122.467098 C91.7462593,123.078077 91.2488519,123.572608 90.6351481,123.572608 L89.844037,123.572608 L89.844037,123.953272 C89.844037,124.563882 89.3466296,125.058782 88.7329259,125.058782 L70.1851481,125.058782 C69.5714444,125.058782 69.074037,124.563882 69.074037,123.953272 C69.074037,123.342293 69.5714444,122.847762 70.1851481,122.847762 L87.6218148,122.847762 L87.6218148,122.467098 C87.6218148,121.856488 88.1192222,121.361588 88.7329259,121.361588 L89.524037,121.361588 L89.524037,119.09345 C89.524037,118.48284 90.0214444,117.98794 90.6351481,117.98794 L91.757,117.98794 L91.757,117.64818 L91.5447778,117.64818 C90.9310741,117.64818 90.4336667,117.15328 90.4336667,116.54267 L90.4336667,114.979111 C90.4336667,114.56823 90.6629259,114.190882 91.0288519,113.999998 C91.6314444,113.685296 96.1895926,111.346774 99.4707037,110.772277 L94.7488519,100.291306 C94.6129259,99.9891335 94.6195926,99.6431089 94.7673704,99.3472008 C94.9151481,99.0509241 95.1881111,98.8360867 95.5118148,98.761649 C95.8244074,98.6897909 102.795519,97.1380235 110.772926,99.6924884 L110.122185,93.2849529 C110.091074,92.9776212 110.190333,92.6710264 110.39663,92.4399749 C110.602556,92.2089233 110.89663,92.0740511 111.207,92.0685235 C111.541444,92.0585739 118.572926,91.9738182 124.581815,95.0537688 L121.80737,83.473921 C121.72737,83.138583 121.808852,82.7848198 122.028481,82.5176549 C122.248111,82.25049 122.581444,82.1008777 122.927,82.1130383 C123.105519,82.1189344 127.372185,82.2961844 133.528111,85.0592222 C139.004037,87.5171392 147.074407,92.5825856 154.768481,102.808921 C157.605148,101.183084 166.683667,96.7967894 178.296259,99.4190589 C178.604037,99.4887061 178.86737,99.6851183 179.021074,99.9596533 C179.174407,100.23382 179.203296,100.560314 179.100704,100.857327 L176.081444,109.583117 C177.200704,109.758525 178.792556,110.135872 180.273667,110.942157 C182.191074,110.124448 188.767,107.491492 193.809963,107.550821 L193.809963,104.282197 C193.809963,103.671587 194.30737,103.176687 194.921074,103.176687 L198.524037,103.176687 L198.524037,85.706314 C198.524037,85.0953355 199.021444,84.6008041 199.635148,84.6008041 L212.552185,84.6008041 L212.552185,56.7743827 C212.552185,56.1641412 213.049593,55.6688728 213.663296,55.6688728 L223.461815,55.6688728 C224.075519,55.6688728 224.572926,56.1641412 224.572926,56.7743827 L224.572926,118.68478 L232.802926,118.68478 L232.802926,103.76187 C232.802926,103.150892 233.300704,102.65636 233.914037,102.65636 L240.749963,102.65636 L240.749963,60.3414946 C240.749963,59.7308847 241.24737,59.2359847 241.861074,59.2359847 L247.52737,59.2359847 L247.52737,49.6405272 C247.52737,49.0299172 248.024778,48.5350173 248.638481,48.5350173 L251.510704,48.5350173 L251.510704,40.5517617 C251.510704,39.9415203 252.008111,39.4462518 252.621815,39.4462518 L257.003296,39.4462518 C257.617,39.4462518 258.114407,39.9415203 258.114407,40.5517617 L258.114407,48.5350173 L260.987,48.5350173 C261.600333,48.5350173 262.098111,49.0299172 262.098111,49.6405272 L262.098111,75.8816474 L268.157,75.8816474 C268.770333,75.8816474 269.268111,76.3765474 269.268111,76.9871574 L269.268111,129.781889 L278.59737,129.781889 L278.59737,118.204989 C278.59737,117.594379 279.094778,117.099479 279.708481,117.099479 L290.148852,117.099479 L290.148852,106.314861 C290.148852,105.704251 290.64663,105.209351 291.259963,105.209351 L294.132185,105.209351 L294.132185,90.8583587 C294.132185,90.2477487 294.629963,89.7528488 295.243296,89.7528488 L305.599963,89.7528488 C306.213667,89.7528488 306.711074,90.2477487 306.711074,90.8583587 L306.711074,121.8856 L326.711815,121.8856 C327.325519,121.8856 327.822926,122.3805 327.822926,122.99111 C327.822926,123.60172 327.325519,124.09662 326.711815,124.09662 L305.599963,124.09662 C304.986259,124.09662 304.488852,123.60172 304.488852,122.99111 L304.488852,91.9638686 L296.354407,91.9638686 L296.354407,106.314861 C296.354407,106.92584 295.857,107.420371 295.243296,107.420371 L292.371074,107.420371 L292.371074,118.204989 C292.371074,118.815599 291.873667,119.310499 291.259963,119.310499 L280.819593,119.310499 L280.819593,130.887399 C280.819593,131.498008 280.322185,131.992908 279.708481,131.992908" id="Fill-19" fill="#E8E8E8"></path>
                    <path d="M93.0891852,128.027518 L83.7284444,128.027518" id="Fill-21" fill="#65EFDB"></path>
                    <path d="M93.0891852,129.133028 L83.7284444,129.133028 C83.1147407,129.133028 82.6173333,128.638128 82.6173333,128.027518 C82.6173333,127.416908 83.1147407,126.922008 83.7284444,126.922008 L93.0891852,126.922008 C93.7028889,126.922008 94.2002963,127.416908 94.2002963,128.027518 C94.2002963,128.638128 93.7028889,129.133028 93.0891852,129.133028" id="Fill-23" fill="#E8E8E8"></path>
                    <path d="M262.181704,83.7243558 L262.181704,108.824958" id="Fill-25" fill="#65EFDB"></path>
                    <path d="M262.181704,109.930542 C261.568,109.930542 261.070593,109.435642 261.070593,108.825032 L261.070593,83.7244295 C261.070593,83.1138196 261.568,82.6189196 262.181704,82.6189196 C262.795407,82.6189196 263.292815,83.1138196 263.292815,83.7244295 L263.292815,108.825032 C263.292815,109.435642 262.795407,109.930542 262.181704,109.930542" id="Fill-27" fill="#E8E8E8"></path>
                    <path d="M246.514037,64.172455 L246.514037,89.2730575" id="Fill-29" fill="#65EFDB"></path>
                    <path d="M246.514037,90.3786411 C245.900333,90.3786411 245.402926,89.8837412 245.402926,89.2731312 L245.402926,64.1725287 C245.402926,63.5619187 245.900333,63.0670188 246.514037,63.0670188 C247.127741,63.0670188 247.625148,63.5619187 247.625148,64.1725287 L247.625148,89.2731312 C247.625148,89.8837412 247.127741,90.3786411 246.514037,90.3786411" id="Fill-31" fill="#E8E8E8"></path>
                    <path d="M204.556222,90.8583587 L204.556222,107.504021" id="Fill-33" fill="#65EFDB"></path>
                    <path d="M204.556222,108.609494 C203.942519,108.609494 203.445111,108.114595 203.445111,107.503985 L203.445111,90.8583218 C203.445111,90.2477119 203.942519,89.7528119 204.556222,89.7528119 C205.169926,89.7528119 205.667333,90.2477119 205.667333,90.8583218 L205.667333,107.503985 C205.667333,108.114595 205.169926,108.609494 204.556222,108.609494" id="Fill-35" fill="#E8E8E8"></path>
                    <path d="M209.867259,103.012482 L209.867259,113.052723" id="Fill-37" fill="#65EFDB"></path>
                    <path d="M209.867259,114.15827 C209.253556,114.15827 208.756148,113.66337 208.756148,113.05276 L208.756148,103.012519 C208.756148,102.401909 209.253556,101.907009 209.867259,101.907009 C210.480963,101.907009 210.97837,102.401909 210.97837,103.012519 L210.97837,113.05276 C210.97837,113.66337 210.480963,114.15827 209.867259,114.15827" id="Fill-39" fill="#E8E8E8"></path>
                    <path d="M115.901148,115.21628 C115.575222,115.21628 115.252259,115.074406 115.03263,114.801345 C106.609667,104.325533 96.7181852,101.997698 96.6189259,101.975219 C96.0207778,101.840347 95.6452222,101.24853 95.7807778,100.652661 C95.9163333,100.057159 96.5111481,99.6834969 97.110037,99.8191061 C97.5448519,99.9167595 107.864111,102.346302 116.768185,113.420195 C117.151148,113.897038 117.073741,114.592772 116.594481,114.974173 C116.389667,115.137051 116.144481,115.21628 115.901148,115.21628" id="Fill-41" fill="#E8E8E8"></path>
                    <path d="M330.964074,122.990483 L338.542963,122.990483" id="Fill-43" fill="#65EFDB"></path>
                    <path d="M338.542926,123.543238 L330.964037,123.543238 C330.657,123.543238 330.408481,123.295604 330.408481,122.990483 C330.408481,122.685363 330.657,122.437728 330.964037,122.437728 L338.542926,122.437728 C338.849963,122.437728 339.098481,122.685363 339.098481,122.990483 C339.098481,123.295604 338.849963,123.543238 338.542926,123.543238" id="Fill-45" fill="#E8E8E8"></path>
                    <path d="M323.622148,128.948776 L302.306963,128.948776 C301.795481,128.948776 301.381037,128.536421 301.381037,128.027518 C301.381037,127.518615 301.795481,127.10626 302.306963,127.10626 L323.622148,127.10626 C324.13363,127.10626 324.548074,127.518615 324.548074,128.027518 C324.548074,128.536421 324.13363,128.948776 323.622148,128.948776" id="Fill-47" fill="#E8E8E8"></path>
                    <path d="M318.027148,66.6357153 C317.41937,66.6357153 316.924926,67.1276672 316.924926,67.7323811 C316.924926,68.3370951 317.41937,68.8294155 318.027148,68.8294155 C318.634926,68.8294155 319.129741,68.3370951 319.129741,67.7323811 C319.129741,67.1276672 318.634926,66.6357153 318.027148,66.6357153 M318.027148,69.9349254 C316.806778,69.9349254 315.813815,68.9465995 315.813815,67.7323811 C315.813815,66.5181628 316.806778,65.5302054 318.027148,65.5302054 C319.247519,65.5302054 320.240852,66.5181628 320.240852,67.7323811 C320.240852,68.9465995 319.247519,69.9349254 318.027148,69.9349254" id="Fill-49" fill="#E89215"></path>
                    <path d="M288.937704,49.7909134 C288.721778,49.7909134 288.545852,49.9659525 288.545852,50.1807899 C288.545852,50.3956273 288.721778,50.5706664 288.937704,50.5706664 C289.15363,50.5706664 289.329556,50.3956273 289.329556,50.1807899 C289.329556,49.9659525 289.15363,49.7909134 288.937704,49.7909134 M288.937704,51.6761763 C288.109185,51.6761763 287.434741,51.0051318 287.434741,50.1807899 C287.434741,49.3560795 288.109185,48.6854035 288.937704,48.6854035 C289.766593,48.6854035 290.440667,49.3560795 290.440667,50.1807899 C290.440667,51.0051318 289.766593,51.6761763 288.937704,51.6761763" id="Fill-51" fill="#E89215"></path>
                    <path d="M159.379704,73.4375493 C158.902296,73.4375493 158.514148,73.8237407 158.514148,74.2987415 C158.514148,74.7733738 158.902296,75.1599337 159.379704,75.1599337 C159.856741,75.1599337 160.244889,74.7733738 160.244889,74.2987415 C160.244889,73.8237407 159.856741,73.4375493 159.379704,73.4375493 M159.379704,76.2654436 C158.289704,76.2654436 157.403037,75.3832467 157.403037,74.2987415 C157.403037,73.2142363 158.289704,72.3320394 159.379704,72.3320394 C160.469333,72.3320394 161.356,73.2142363 161.356,74.2987415 C161.356,75.3832467 160.469333,76.2654436 159.379704,76.2654436" id="Fill-53" fill="#E89215"></path>
                    <path d="M74.5762963,99.7340924 C74.3018519,99.7340924 74.0788889,99.9562999 74.0788889,100.228992 C74.0788889,100.501685 74.3018519,100.723892 74.5762963,100.723892 C74.8503704,100.723892 75.0737037,100.501685 75.0737037,100.228992 C75.0737037,99.9562999 74.8503704,99.7340924 74.5762963,99.7340924 M74.5762963,101.829402 C73.6892593,101.829402 72.9677778,101.111189 72.9677778,100.228992 C72.9677778,99.3464269 73.6892593,98.6285825 74.5762963,98.6285825 C75.4633333,98.6285825 76.1848148,99.3464269 76.1848148,100.228992 C76.1848148,101.111189 75.4633333,101.829402 74.5762963,101.829402" id="Fill-55" fill="#E89215"></path>
                    <path d="M33.9295926,108.05674 C33.6010741,108.05674 33.334037,108.322799 33.334037,108.649293 C33.334037,108.976155 33.6010741,109.241846 33.9295926,109.241846 C34.2581111,109.241846 34.5251481,108.976155 34.5251481,108.649293 C34.5251481,108.322799 34.2581111,108.05674 33.9295926,108.05674 M33.9295926,110.347356 C32.9884815,110.347356 32.2229259,109.58566 32.2229259,108.649293 C32.2229259,107.712926 32.9884815,106.95123 33.9295926,106.95123 C34.8707037,106.95123 35.6362593,107.712926 35.6362593,108.649293 C35.6362593,109.58566 34.8707037,110.347356 33.9295926,110.347356" id="Fill-57" fill="#E89215"></path>
                    <path d="M248.476926,127.549274 C247.701,127.549274 247.069519,128.177204 247.069519,128.949587 C247.069519,129.72197 247.701,130.3499 248.476926,130.3499 C249.252852,130.3499 249.884333,129.72197 249.884333,128.949587 C249.884333,128.177204 249.252852,127.549274 248.476926,127.549274 M248.476926,131.455409 C247.088037,131.455409 245.958407,130.331106 245.958407,128.949587 C245.958407,127.568068 247.088037,126.443765 248.476926,126.443765 C249.865815,126.443765 250.995444,127.568068 250.995444,128.949587 C250.995444,130.331106 249.865815,131.455409 248.476926,131.455409" id="Fill-59" fill="#E89215"></path>
                    <path d="M257.462556,83.1226636 C262.384778,83.1226636 266.375148,87.0929182 266.375148,91.9903271 C266.375148,96.8881045 262.384778,100.858359 257.462556,100.858359 C252.539963,100.858359 248.549963,96.8881045 248.549963,91.9903271 C248.549963,87.0929182 252.539963,83.1226636 257.462556,83.1226636" id="Fill-61" fill="#FFFFFF"></path>
                    <path d="M136.573889,36.3880429 L137.963148,36.3880429 C137.963148,33.6154241 140.22463,31.3649744 143.011667,31.3649744 L143.011667,29.9827185 C139.462407,29.9827185 136.573889,32.8482002 136.573889,36.3880429" id="Fill-63" fill="#E0E0E0"></path>
                    <path d="M136.761593,36.2039755 L137.780852,36.2039755 C137.876778,33.4785251 140.087519,31.2789289 142.826407,31.183855 L142.826407,30.1697339 C139.525296,30.2655448 136.857889,32.9195056 136.761593,36.2039755 Z M138.148259,36.5724788 L136.38863,36.5724788 L136.38863,36.3882272 C136.38863,32.7544161 139.359741,29.7982826 143.011593,29.7982826 L143.196778,29.7982826 L143.196778,31.5490418 L143.011593,31.5490418 C140.330111,31.5490418 138.148259,33.7198948 138.148259,36.3882272 L138.148259,36.5724788 Z" id="Fill-65" fill="#E0E0E0"></path>
                    <path d="M165.993741,41.4114431 L164.536704,41.4114431 L164.536704,41.3860164 C164.536704,38.2507903 161.970037,35.6970624 158.818556,35.6970624 L158.750778,35.6970624 C158.403741,32.0897835 155.337074,29.2663112 151.626704,29.2663112 C150.855963,29.2663112 150.101889,29.3927079 149.37337,29.62855 C147.891148,28.2378185 146.027444,27.3950515 144.028185,27.1846361 C145.519296,25.3384345 147.781148,24.2174475 150.186704,24.2174475 C154.218926,24.2174475 156.201148,26.956901 156.201148,26.956901 C156.201148,26.956901 157.226333,26.3584517 158.801889,26.3584517 C161.978556,26.3584517 164.570407,28.9291307 164.570407,32.0982591 L164.570407,32.7892028 L165.985222,32.7892028 C168.374111,32.7892028 170.314111,34.7194231 170.314111,37.0962694 C170.32263,39.4727472 168.38263,41.4114431 165.993741,41.4114431 M158.810037,45.693083 L134.396704,45.693083 C132.007815,45.693083 130.067815,43.7628627 130.067815,41.3860164 C130.067815,39.0091701 132.007815,37.0793183 134.396704,37.0793183 L135.091148,37.0793183 L135.091148,36.3880061 C135.091148,32.0389301 138.649296,28.5075629 143.011889,28.5075629 C146.806704,28.5075629 149.025963,31.2470165 149.025963,31.2470165 C149.025963,31.2470165 150.186704,30.6481986 151.626704,30.6481986 C154.80337,30.6481986 157.395593,33.2192462 157.395593,36.3880061 L157.395593,37.0793183 L158.810037,37.0793183 C161.199296,37.0793183 163.138926,39.0091701 163.138926,41.3860164 C163.147444,43.7628627 161.199296,45.693083 158.810037,45.693083 M165.993741,31.4069469 L165.934481,31.4069469 C165.587074,27.7996681 162.520778,24.9761958 158.810037,24.9761958 C158.039296,24.9761958 157.285593,25.1025924 156.557074,25.3384345 C154.820407,23.7203365 152.584111,22.8270845 150.195222,22.8270845 C147.018556,22.8270845 144.045222,24.4706093 142.34263,27.1422582 C137.734481,27.4709631 134.049296,31.1372025 133.727444,35.7224891 C130.889667,36.0681452 128.678926,38.4700497 128.678926,41.3860164 C128.678926,44.5212425 131.245593,47.0753389 134.396704,47.0753389 L158.810037,47.0753389 C161.478556,47.0753389 163.715222,45.246457 164.350407,42.7852234 L165.993741,42.7852234 C169.144852,42.7852234 171.711519,40.2314955 171.711519,37.0962694 C171.711519,33.9606748 169.144852,31.4069469 165.993741,31.4069469" id="Fill-67" fill="#E0E0E0"></path>
                    <path d="M164.719704,41.2271915 L165.993778,41.2271915 C167.098963,41.2271915 168.138593,40.7971481 168.920815,40.0155526 C169.703778,39.2339571 170.132667,38.1973573 170.128593,37.0970064 C170.128593,34.8229725 168.270074,32.973823 165.985259,32.973823 L164.385259,32.973823 L164.385259,32.0982591 C164.385259,29.0348912 161.880444,26.5427033 158.801556,26.5427033 C157.300444,26.5427033 156.304519,27.1101984 156.294519,27.1160945 L156.149704,27.2001132 L156.051185,27.064504 C156.031556,27.0379718 154.070444,24.4020676 150.186741,24.4020676 C147.997111,24.4020676 145.854519,25.3833919 144.389333,27.0434993 C146.280074,27.3106642 148.011185,28.1280045 149.420444,29.4203456 C150.148222,29.1959271 150.890074,29.0820596 151.626741,29.0820596 C155.375259,29.0820596 158.480444,31.8355163 158.917481,35.5135477 C162.073778,35.5655067 164.63563,38.0945449 164.719704,41.2271915 Z M165.993778,41.5956948 L164.351556,41.5956948 L164.351556,41.4114431 C164.351556,38.3506547 161.869704,35.881314 158.818593,35.881314 L158.582667,35.881314 L158.566741,35.7147505 C158.222667,32.143585 155.239333,29.4505629 151.626741,29.4505629 C150.893778,29.4505629 150.154889,29.5695895 149.430815,29.8039576 L149.32637,29.8378599 L149.24637,29.7626852 C147.798593,28.404382 145.987481,27.5763551 144.008963,27.3677822 L143.671556,27.3320374 L143.884148,27.0692945 C145.442296,25.1398112 147.739333,24.0335643 150.186741,24.0335643 C153.813037,24.0335643 155.797481,26.16683 156.252296,26.7221644 C156.594889,26.5556009 157.518593,26.1742 158.801556,26.1742 C162.084889,26.1742 164.75563,28.8318458 164.75563,32.0982591 L164.75563,32.6053197 L165.985259,32.6053197 C168.474148,32.6053197 170.498963,34.6199272 170.498963,37.0962694 C170.503407,38.2950107 170.036,39.4244733 169.183407,40.2757159 C168.330815,41.1269586 167.198222,41.5956948 165.993778,41.5956948 Z M134.396741,37.2635699 C132.111926,37.2635699 130.253037,39.113088 130.253037,41.3863849 C130.253037,43.6596818 132.111926,45.5088313 134.396741,45.5088313 L158.810074,45.5088313 C159.920815,45.5088313 160.964889,45.077314 161.749704,44.2935074 C162.530074,43.5144915 162.957852,42.4823137 162.953778,41.3871219 C162.953778,39.113088 161.094889,37.2635699 158.810074,37.2635699 L157.210444,37.2635699 L157.210444,36.3883746 C157.210444,33.3250066 154.70563,30.8328188 151.626741,30.8328188 C150.247852,30.8328188 149.122667,31.4047359 149.111185,31.410632 L148.977111,31.4799106 L148.881926,31.3627265 C148.860444,31.3361943 146.669333,28.6918146 143.011926,28.6918146 C138.746741,28.6918146 135.27637,32.1446905 135.27637,36.3883746 L135.27637,37.2635699 L134.396741,37.2635699 Z M158.810074,45.8773346 L134.396741,45.8773346 C131.907852,45.8773346 129.882667,43.8627271 129.882667,41.3863849 C129.882667,38.9096742 131.907852,36.8950666 134.396741,36.8950666 L134.906,36.8950666 L134.906,36.3883746 C134.906,31.9412767 138.542296,28.3233113 143.011926,28.3233113 C146.45637,28.3233113 148.602296,30.4912162 149.074519,31.0200185 C149.42637,30.8611935 150.42637,30.4643155 151.626741,30.4643155 C154.910074,30.4643155 157.580815,33.1215928 157.580815,36.3883746 L157.580815,36.8950666 L158.810074,36.8950666 C161.299333,36.8950666 163.324148,38.9096742 163.324148,41.3863849 C163.328593,42.5795986 162.862296,43.7046392 162.012296,44.5533023 C161.157111,45.4071244 160.020074,45.8773346 158.810074,45.8773346 Z M150.195259,23.0113362 C147.110444,23.0113362 144.161556,24.6320137 142.498963,27.2410171 L142.448963,27.3195083 L142.35563,27.3261413 C137.85637,27.6471077 134.22637,31.2621251 133.912296,35.7350182 L133.901926,35.8868416 L133.750074,35.9052667 C130.964519,36.2446583 128.863778,38.6008684 128.863778,41.3863849 C128.863778,44.4217466 131.346,46.8910872 134.396741,46.8910872 L158.810074,46.8910872 C161.33563,46.8910872 163.539704,45.1838114 164.170815,42.739529 L164.206741,42.6013403 L165.993778,42.6013403 C169.044519,42.6013403 171.52637,40.1316311 171.52637,37.0962694 C171.52637,34.0609077 169.044519,31.5915671 165.993778,31.5915671 L165.766,31.5915671 L165.750074,31.4246351 C165.40637,27.8534696 162.422667,25.1604474 158.810074,25.1604474 C158.076741,25.1604474 157.337852,25.279474 156.614148,25.5138421 L156.510074,25.5477444 L156.430444,25.4733067 C154.726741,23.885426 152.512667,23.0113362 150.195259,23.0113362 Z M158.810074,47.2595905 L134.396741,47.2595905 C131.141556,47.2595905 128.493407,44.6247919 128.493407,41.3863849 C128.493407,38.4652592 130.658963,35.986706 133.554519,35.5596107 C133.948222,31.0045413 137.647111,27.338302 142.23637,26.9657451 C143.974889,24.2970442 147.016,22.6428329 150.195259,22.6428329 C152.570815,22.6428329 154.842296,23.5253983 156.603407,25.1305987 C157.331185,24.9058117 158.073037,24.7919441 158.810074,24.7919441 C162.558593,24.7919441 165.663778,27.5457693 166.100815,31.2238008 C169.306741,31.2809188 171.896741,33.8932387 171.896741,37.0962694 C171.896741,40.335045 169.248963,42.9698436 165.993778,42.9698436 L164.491926,42.9698436 C163.772667,45.5029353 161.456741,47.2595905 158.810074,47.2595905 Z" id="Fill-69" fill="#E0E0E0"></path>
                    <path d="M331.593407,101.07316 L333.200444,101.07316 C333.200444,97.8653384 335.816741,95.2618626 339.040815,95.2618626 L339.040815,93.6632953 C334.934889,93.6632953 331.593407,96.978351 331.593407,101.07316" id="Fill-71" fill="#E0E0E0"></path>
                    <path d="M331.780963,100.888908 L333.018,100.888908 C333.114296,97.7293607 335.679852,95.1763698 338.855778,95.080559 L338.855778,93.8490209 C334.998,93.9455688 331.878,97.0505776 331.780963,100.888908 Z M333.385778,101.257411 L331.40837,101.257411 L331.40837,101.07316 C331.40837,96.8858567 334.832444,93.4786751 339.040963,93.4786751 L339.226148,93.4786751 L339.226148,95.4461143 L339.040963,95.4461143 C335.922815,95.4461143 333.385778,97.9703619 333.385778,101.07316 L333.385778,101.257411 Z" id="Fill-73" fill="#E0E0E0"></path>
                    <path d="M363.941333,106.884273 L363.941333,106.854792 C363.941333,103.227983 360.972074,100.273692 357.326519,100.273692 L357.24837,100.273692 C356.846519,96.1003919 353.299111,92.8343471 349.006889,92.8343471 C348.115407,92.8343471 347.243185,92.9806429 346.400222,93.2537039 C344.685407,91.6448184 342.529481,90.6697587 340.216889,90.426178 L338.266889,90.3771671 C332.935778,90.7574625 328.673185,94.9989355 328.300963,100.302804 C325.018,100.70263 322.460222,103.481513 322.460222,106.854792 C322.460222,110.48197 325.429481,113.435893 329.075037,113.435893 L357.316889,113.435893 C360.403556,113.435893 362.990593,111.320315 363.725407,108.473259 L363.941333,106.884273 Z M357.316889,111.836957 L329.075037,111.836957 C326.311333,111.836957 324.067259,109.604564 324.067259,106.854792 C324.067259,104.105389 326.311333,101.872628 329.075037,101.872628 L329.87837,101.872628 L329.87837,101.072975 C329.87837,96.0421684 333.994296,91.9569407 339.040963,91.9569407 C343.431333,91.9569407 345.99837,95.1257006 345.99837,95.1257006 C345.99837,95.1257006 347.340963,94.4332829 349.006889,94.4332829 C352.681704,94.4332829 355.680222,97.4071046 355.680222,101.072975 L355.680222,101.872628 L357.316889,101.872628 C360.080222,101.872628 362.324296,104.105389 362.324296,106.854792 C362.334296,109.604564 360.080222,111.836957 357.316889,111.836957 Z" id="Fill-75" fill="#E0E0E0"></path>
                    <path d="M329.074963,102.057027 C326.415704,102.057027 324.25237,104.209086 324.25237,106.85494 C324.25237,109.500425 326.415704,111.653221 329.074963,111.653221 L357.316815,111.653221 C358.609407,111.653221 359.824593,111.150951 360.737926,110.238169 C361.646074,109.331282 362.143852,108.129961 362.139037,106.855308 C362.139037,104.209086 359.975704,102.057027 357.316815,102.057027 L355.494963,102.057027 L355.494963,101.073123 C355.494963,97.5133809 352.584593,94.6180505 349.006815,94.6180505 C347.404593,94.6180505 346.096444,95.2820934 346.083481,95.2894635 L345.949407,95.3583736 L345.854222,95.2411896 C345.829037,95.2102353 343.286444,92.1413398 339.040889,92.1413398 C334.090889,92.1413398 330.063481,96.1480762 330.063481,101.073123 L330.063481,102.057027 L329.074963,102.057027 Z M357.316815,112.021724 L329.074963,112.021724 C326.21163,112.021724 323.882,109.70347 323.882,106.85494 C323.882,104.006041 326.21163,101.688523 329.074963,101.688523 L329.693111,101.688523 L329.693111,101.073123 C329.693111,95.9450309 333.886815,91.7728365 339.040889,91.7728365 C342.994963,91.7728365 345.530148,94.3291439 346.045333,94.8984815 C346.429407,94.7230739 347.598296,94.2495472 349.006815,94.2495472 C352.788667,94.2495472 355.865333,97.3103356 355.865333,101.073123 L355.865333,101.688523 L357.316815,101.688523 C360.179778,101.688523 362.509407,104.006041 362.509407,106.85494 C362.514222,108.227983 361.978296,109.522167 361.000519,110.4987 C360.016815,111.480393 358.708667,112.021724 357.316815,112.021724 Z M338.262,90.5615661 C333.060519,90.933386 328.849778,95.1273221 328.485704,100.315849 L328.474963,100.467303 L328.323111,100.485729 C325.086444,100.880396 322.645333,103.618007 322.645333,106.85494 C322.645333,110.382253 325.529778,113.251789 329.074963,113.251789 L357.316815,113.251789 C360.251259,113.251789 362.813111,111.268135 363.546074,108.427343 L363.756074,106.85494 C363.756074,103.327258 360.87163,100.457722 357.326444,100.457722 L357.079778,100.457722 L357.063852,100.291527 C356.664593,96.1451282 353.200889,93.0187462 349.006815,93.0187462 C348.156444,93.0187462 347.298667,93.1569349 346.457556,93.4288903 L346.353111,93.4627926 L346.273481,93.3879865 C344.593481,91.8122663 342.492741,90.8515782 340.197185,90.6091031 L338.262,90.5615661 Z M357.316815,113.620292 L329.074963,113.620292 C325.325333,113.620292 322.274963,110.585299 322.274963,106.85494 C322.274963,103.482766 324.780148,100.621706 328.127556,100.139704 C328.574593,94.838784 332.90163,90.5752008 338.253481,90.1937998 L340.22163,90.2417053 C342.576444,90.4893395 344.722,91.4581347 346.447185,93.0452784 C347.292,92.7825355 348.15237,92.6502429 349.006815,92.6502429 C353.336444,92.6502429 356.922,95.8363224 357.414963,100.089956 C361.123852,100.137493 364.126444,103.154061 364.126444,106.85494 L364.124593,106.908741 L363.909037,108.498096 C363.129778,111.522771 360.420519,113.620292 357.316815,113.620292 Z" id="Fill-77" fill="#E0E0E0"></path>
                    <path d="M8.78525926,40.9412697 L10.2985926,40.9412697 C10.2985926,37.9206482 12.7622963,35.4693642 15.7982222,35.4693642 L15.7982222,33.9636597 C11.9319259,33.9636597 8.78525926,37.0852512 8.78525926,40.9412697" id="Fill-79" fill="#E0E0E0"></path>
                    <path d="M8.973,40.7570181 L10.1163333,40.7570181 C10.2126296,37.7843019 12.6252222,35.3835029 15.613,35.2880606 L15.613,34.1504909 C11.9948519,34.2466702 9.06966667,37.1567408 8.973,40.7570181 Z M10.4837407,41.1255214 L8.60003704,41.1255214 L8.60003704,40.9412697 C8.60003704,36.9923883 11.8292963,33.779408 15.7981852,33.779408 L15.9833704,33.779408 L15.9833704,35.6536158 L15.7981852,35.6536158 C12.8678148,35.6536158 10.4837407,38.0256716 10.4837407,40.9412697 L10.4837407,41.1255214 Z" id="Fill-81" fill="#E0E0E0"></path>
                    <path d="M40.8325926,46.4130279 L39.2451852,46.4130279 L39.2451852,46.3853901 C39.2451852,42.9701015 36.4496296,40.1882701 33.0166667,40.1882701 L32.942963,40.1882701 C32.5644444,36.2589194 29.2244444,33.1833908 25.1825926,33.1833908 C24.342963,33.1833908 23.5214815,33.3208425 22.7281481,33.5780578 C21.1133333,32.0631408 19.082963,31.1448305 16.9055556,30.9156215 C18.5296296,28.9046989 20.9933333,27.6838475 23.6137037,27.6838475 C28.0062963,27.6838475 30.1655556,30.6676187 30.1655556,30.6676187 C30.1655556,30.6676187 31.2818519,30.0157364 32.9985185,30.0157364 C36.4585185,30.0157364 39.2822222,32.815993 39.2822222,36.268132 L39.2822222,37.0209842 L40.8233333,37.0209842 C43.4255556,37.0209842 45.5385185,39.1232955 45.5385185,41.7123998 C45.5477778,44.301504 43.4348148,46.4130279 40.8325926,46.4130279 M33.0077778,51.0771742 L6.4137037,51.0771742 C3.81148148,51.0771742 1.69851852,48.9744943 1.69851852,46.3853901 C1.69851852,43.7962859 3.81148148,41.6939746 6.4137037,41.6939746 L7.17037037,41.6939746 L7.17037037,40.9411223 C7.17037037,36.2036439 11.0459259,32.3568379 15.7981481,32.3568379 C19.9322222,32.3568379 22.3496296,35.3409776 22.3496296,35.3409776 C22.3496296,35.3409776 23.6140741,34.6890953 25.1825926,34.6890953 C28.642963,34.6890953 31.4666667,37.4889834 31.4666667,40.9411223 L31.4666667,41.6939746 L33.0077778,41.6939746 C35.6096296,41.6939746 37.722963,43.7962859 37.722963,46.3853901 C37.7318519,48.9744943 35.6096296,51.0771742 33.0077778,51.0771742 M40.8325926,35.5152797 L40.7677778,35.5152797 C40.3896296,31.5855605 37.0492593,28.5100319 33.0077778,28.5100319 C32.1677778,28.5100319 31.3466667,28.6478521 30.552963,28.9046989 C28.6614815,27.1421476 26.2251852,26.1689304 23.6233333,26.1689304 C20.1625926,26.1689304 16.9240741,27.9591195 15.0692593,30.8695586 C10.0492593,31.2277438 6.03518519,35.2212141 5.68481481,40.2159078 C2.59333333,40.5925182 0.185185185,43.2088917 0.185185185,46.3853901 C0.185185185,49.8010473 2.98111111,52.5828787 6.4137037,52.5828787 L33.0077778,52.5828787 C35.9140741,52.5828787 38.3503704,50.5903813 39.0425926,47.9095198 L40.8325926,47.9095198 C44.2651852,47.9095198 47.0611111,45.1276884 47.0611111,41.7123998 C47.0611111,38.2971111 44.2651852,35.5152797 40.8325926,35.5152797" id="Fill-83" fill="#E0E0E0"></path>
                    <path d="M39.4285185,46.2287762 L40.8325926,46.2287762 C42.0411111,46.2287762 43.1774074,45.758566 44.032963,44.9043754 C44.8885185,44.0498162 45.3577778,42.9166685 45.3533333,41.7131368 C45.3533333,39.2272135 43.3211111,37.2052359 40.8233333,37.2052359 L39.097037,37.2052359 L39.097037,36.268132 C39.097037,32.922122 36.3611111,30.1999881 32.9985185,30.1999881 C31.3577778,30.1999881 30.2696296,30.8205476 30.2588889,30.8268122 L30.1140741,30.9108309 L30.0151852,30.7752217 C29.9940741,30.7464785 27.8537037,27.8680992 23.6137037,27.8680992 C21.2140741,27.8680992 18.8655556,28.9485508 17.2662963,30.7741162 C19.3374074,31.0604433 21.2333333,31.9533268 22.7751852,33.369485 C23.5688889,33.1236933 24.3781481,32.9991391 25.1825926,32.9991391 C29.2618519,32.9991391 32.6403704,35.9991245 33.1096296,40.0047554 C36.5507407,40.0537664 39.3451852,42.8127506 39.4285185,46.2287762 Z M40.8325926,46.5972795 L39.06,46.5972795 L39.06,46.4130279 C39.06,43.0699659 36.3492593,40.3725217 33.0166667,40.3725217 L32.7748148,40.3725217 L32.7588889,40.2059582 C32.3833333,36.3075618 29.1262963,33.3676425 25.1825926,33.3676425 C24.3818519,33.3676425 23.5751852,33.4973556 22.7851852,33.7534654 L22.6811111,33.7869992 L22.6011111,33.712193 C21.0211111,32.2300728 19.0448148,31.3261342 16.8859259,31.0987676 L16.5488889,31.0633913 L16.7611111,30.8002799 C18.4555556,28.7023906 20.952963,27.4995959 23.6137037,27.4995959 C27.5255556,27.4995959 29.7325926,29.8554375 30.2148148,30.4332506 C30.5751852,30.2563691 31.5859259,29.8314848 32.9985185,29.8314848 C36.5655556,29.8314848 39.4674074,32.7187081 39.4674074,36.268132 L39.4674074,36.8367325 L40.8233333,36.8367325 C43.5255556,36.8367325 45.7237037,39.0237997 45.7237037,41.7123998 C45.7285185,43.0139534 45.2211111,44.2403324 44.2951852,45.1645387 C43.37,46.0883765 42.14,46.5972795 40.8325926,46.5972795 Z M6.4137037,41.8782262 C3.91592593,41.8782262 1.8837037,43.9002039 1.8837037,46.3853901 C1.8837037,48.8709449 3.91592593,50.8929225 6.4137037,50.8929225 L33.0077778,50.8929225 C34.2218519,50.8929225 35.3633333,50.4208698 36.2214815,49.5640996 C37.0744444,48.7124885 37.5418519,47.5837629 37.5377778,46.3861271 C37.5377778,43.9002039 35.5055556,41.8782262 33.0077778,41.8782262 L31.2814815,41.8782262 L31.2814815,40.9411223 C31.2814815,37.5954809 28.5455556,34.8733469 25.1825926,34.8733469 C23.6807407,34.8733469 22.447037,35.49796 22.4348148,35.5042246 L22.3007407,35.5731347 L22.2055556,35.4566877 C22.1818519,35.4272074 19.7907407,32.5410895 15.7981481,32.5410895 C11.142963,32.5410895 7.35555556,36.3094043 7.35555556,40.9411223 L7.35555556,41.8782262 L6.4137037,41.8782262 Z M33.0077778,51.2614258 L6.4137037,51.2614258 C3.71148148,51.2614258 1.51333333,49.0739902 1.51333333,46.3853901 C1.51333333,43.6971585 3.71148148,41.5097229 6.4137037,41.5097229 L6.98518519,41.5097229 L6.98518519,40.9411223 C6.98518519,36.106359 10.9388889,32.1725862 15.7981481,32.1725862 C19.5125926,32.1725862 21.8981481,34.5652782 22.3966667,35.1139796 C22.7666667,34.9459421 23.862963,34.5048436 25.1825926,34.5048436 C28.7496296,34.5048436 31.6518519,37.392067 31.6518519,40.9411223 L31.6518519,41.5097229 L33.0077778,41.5097229 C35.7096296,41.5097229 37.9081481,43.6971585 37.9081481,46.3853901 C37.9125926,47.6810478 37.407037,48.9026362 36.4837037,49.824263 C35.5555556,50.7506803 34.3211111,51.2614258 33.0077778,51.2614258 Z M23.6233333,26.3531821 C20.2574074,26.3531821 17.0396296,28.1216294 15.2255556,30.9683174 L15.1755556,31.0468086 L15.0825926,31.0534417 C10.172963,31.4035198 6.21185185,35.3479792 5.86925926,40.2288055 L5.85888889,40.3802603 L5.70703704,40.3986855 C2.66481481,40.7693998 0.37037037,43.3430269 0.37037037,46.3853901 C0.37037037,49.7011829 3.08148148,52.398627 6.4137037,52.398627 L33.0077778,52.398627 C35.7659259,52.398627 38.1737037,50.5336318 38.862963,47.8638254 L38.8988889,47.7252682 L40.8325926,47.7252682 C44.1648148,47.7252682 46.8759259,45.027824 46.8759259,41.7123998 C46.8759259,38.3969755 44.1648148,35.6995314 40.8325926,35.6995314 L40.5996296,35.6995314 L40.5837037,35.5329679 C40.2081481,31.6342029 36.9514815,28.6942836 33.0077778,28.6942836 C32.2074074,28.6942836 31.4007407,28.8239967 30.6103704,29.0801065 L30.5062963,29.1136403 L30.4262963,29.0392027 C28.5677778,27.3072371 26.1514815,26.3531821 23.6233333,26.3531821 Z M33.0077778,52.7671303 L6.4137037,52.7671303 C2.87740741,52.7671303 0,49.9042282 0,46.3853901 C0,43.2074177 2.35888889,40.5114475 5.51148148,40.0530294 C5.93407407,35.0907639 9.96407407,31.0950826 14.962963,30.6930455 C16.8533333,27.7862914 20.1625926,25.9846788 23.6233333,25.9846788 C26.21,25.9846788 28.682963,26.9468409 30.5996296,28.6964946 C31.3940741,28.4503344 32.2037037,28.3257803 33.0077778,28.3257803 C37.087037,28.3257803 40.4659259,31.3257656 40.9344444,35.3317651 C44.4240741,35.3863035 47.2462963,38.2278325 47.2462963,41.7123998 C47.2462963,45.2308693 44.3688889,48.0937715 40.8325926,48.0937715 L39.1844444,48.0937715 C38.4066667,50.8527557 35.887037,52.7671303 33.0077778,52.7671303 Z" id="Fill-85" fill="#E0E0E0"></path>
                    <path d="M237.155667,17.4756427 L204.556037,17.4756427 C203.942704,17.4756427 203.444926,16.9807428 203.444926,16.3701328 C203.444926,15.7595228 203.942704,15.2646229 204.556037,15.2646229 L237.155667,15.2646229 C237.76937,15.2646229 238.266778,15.7595228 238.266778,16.3701328 C238.266778,16.9807428 237.76937,17.4756427 237.155667,17.4756427" id="Fill-87" fill="#E0E0E0"></path>
                    <path d="M245.69263,17.4756427 L242.72263,17.4756427 C242.109296,17.4756427 241.611519,16.9807428 241.611519,16.3701328 C241.611519,15.7595228 242.109296,15.2646229 242.72263,15.2646229 L245.69263,15.2646229 C246.306333,15.2646229 246.803741,15.7595228 246.803741,16.3701328 C246.803741,16.9807428 246.306333,17.4756427 245.69263,17.4756427" id="Fill-89" fill="#E0E0E0"></path>
                    <path d="M40.1804815,145.804928 L7.58085185,145.804928 C6.96714815,145.804928 6.46974074,145.310028 6.46974074,144.699418 C6.46974074,144.088808 6.96714815,143.593908 7.58085185,143.593908 L40.1804815,143.593908 C40.7941852,143.593908 41.2915926,144.088808 41.2915926,144.699418 C41.2915926,145.310028 40.7941852,145.804928 40.1804815,145.804928" id="Fill-91" fill="#E0E0E0"></path>
                    <path d="M48.7172593,145.804928 L45.7472593,145.804928 C45.1339259,145.804928 44.6361481,145.310028 44.6361481,144.699418 C44.6361481,144.088808 45.1339259,143.593908 45.7472593,143.593908 L48.7172593,143.593908 C49.330963,143.593908 49.8283704,144.088808 49.8283704,144.699418 C49.8283704,145.310028 49.330963,145.804928 48.7172593,145.804928" id="Fill-93" fill="#E0E0E0"></path>
                    <path d="M68.667,154.970011 L36.0673704,154.970011 C35.454037,154.970011 34.9562593,154.475111 34.9562593,153.864501 C34.9562593,153.253891 35.454037,152.758991 36.0673704,152.758991 L68.667,152.758991 C69.2807037,152.758991 69.7781111,153.253891 69.7781111,153.864501 C69.7781111,154.475111 69.2807037,154.970011 68.667,154.970011" id="Fill-95" fill="#E0E0E0"></path>
                    <path d="M77.203963,154.970011 L74.233963,154.970011 C73.6206296,154.970011 73.1228519,154.475111 73.1228519,153.864501 C73.1228519,153.253891 73.6206296,152.758991 74.233963,152.758991 L77.203963,152.758991 C77.8176667,152.758991 78.3150741,153.253891 78.3150741,153.864501 C78.3150741,154.475111 77.8176667,154.970011 77.203963,154.970011" id="Fill-97" fill="#E0E0E0"></path>
                    <path d="M116.545333,145.804928 L92.8557037,145.804928 C92.242,145.804928 91.7445926,145.310028 91.7445926,144.699418 C91.7445926,144.088808 92.242,143.593908 92.8557037,143.593908 L116.545333,143.593908 C117.159037,143.593908 117.656444,144.088808 117.656444,144.699418 C117.656444,145.310028 117.159037,145.804928 116.545333,145.804928" id="Fill-99" fill="#E0E0E0"></path>
                    <path d="M122.749037,145.804928 L120.590889,145.804928 C119.977185,145.804928 119.479778,145.310028 119.479778,144.699418 C119.479778,144.088808 119.977185,143.593908 120.590889,143.593908 L122.749037,143.593908 C123.362741,143.593908 123.860148,144.088808 123.860148,144.699418 C123.860148,145.310028 123.362741,145.804928 122.749037,145.804928" id="Fill-101" fill="#E0E0E0"></path>
                    <path d="M158.971889,129.133028 L70.4655926,129.133028 C69.8518889,129.133028 69.3544815,128.638128 69.3544815,128.027518 C69.3544815,127.416908 69.8518889,126.922008 70.4655926,126.922008 L158.971889,126.922008 C159.585593,126.922008 160.083,127.416908 160.083,128.027518 C160.083,128.638128 159.585593,129.133028 158.971889,129.133028" id="Fill-103" fill="#E0E0E0"></path>
                    <path d="M141.767593,145.804928 L131.170926,145.804928 C130.557222,145.804928 130.059815,145.310028 130.059815,144.699418 C130.059815,144.088808 130.557222,143.593908 131.170926,143.593908 L141.767593,143.593908 C142.381296,143.593908 142.878704,144.088808 142.878704,144.699418 C142.878704,145.310028 142.381296,145.804928 141.767593,145.804928" id="Fill-105" fill="#E0E0E0"></path>
                    <path d="M202.173741,145.804928 L186.834481,145.804928 C186.220778,145.804928 185.72337,145.310028 185.72337,144.699418 C185.72337,144.088808 186.220778,143.593908 186.834481,143.593908 L202.173741,143.593908 C202.787444,143.593908 203.284852,144.088808 203.284852,144.699418 C203.284852,145.310028 202.787444,145.804928 202.173741,145.804928" id="Fill-107" fill="#E0E0E0"></path>
                    <path d="M207.526222,129.133028 L198.448444,129.133028 C197.834741,129.133028 197.337333,128.638128 197.337333,128.027518 C197.337333,127.416908 197.834741,126.922008 198.448444,126.922008 L207.526222,126.922008 C208.139926,126.922008 208.637333,127.416908 208.637333,128.027518 C208.637333,128.638128 208.139926,129.133028 207.526222,129.133028" id="Fill-109" fill="#E0E0E0"></path>
                    <path d="M234.861852,129.133028 L212.305185,129.133028 C211.691481,129.133028 211.194074,128.638128 211.194074,128.027518 C211.194074,127.416908 211.691481,126.922008 212.305185,126.922008 L234.861852,126.922008 C235.475556,126.922008 235.972963,127.416908 235.972963,128.027518 C235.972963,128.638128 235.475556,129.133028 234.861852,129.133028" id="Fill-111" fill="#E0E0E0"></path>
                    <path d="M125.613074,7.43823918 L101.923444,7.43823918 C101.309741,7.43823918 100.812333,6.94333924 100.812333,6.33272927 C100.812333,5.72211929 101.309741,5.22721936 101.923444,5.22721936 L125.613074,5.22721936 C126.226778,5.22721936 126.724185,5.72211929 126.724185,6.33272927 C126.724185,6.94333924 126.226778,7.43823918 125.613074,7.43823918" id="Fill-113" fill="#E0E0E0"></path>
                    <path d="M131.816778,7.43823918 L129.65863,7.43823918 C129.044926,7.43823918 128.547519,6.94333924 128.547519,6.33272927 C128.547519,5.72211929 129.044926,5.22721936 129.65863,5.22721936 L131.816778,5.22721936 C132.430481,5.22721936 132.927889,5.72211929 132.927889,6.33272927 C132.927889,6.94333924 132.430481,7.43823918 131.816778,7.43823918" id="Fill-115" fill="#E0E0E0"></path>
                    <path d="M150.835333,7.43823918 L140.238667,7.43823918 C139.624963,7.43823918 139.127556,6.94333924 139.127556,6.33272927 C139.127556,5.72211929 139.624963,5.22721936 140.238667,5.22721936 L150.835333,5.22721936 C151.449037,5.22721936 151.946444,5.72211929 151.946444,6.33272927 C151.946444,6.94333924 151.449037,7.43823918 150.835333,7.43823918" id="Fill-117" fill="#E0E0E0"></path>
                    <path d="M211.241333,7.43823918 L195.902074,7.43823918 C195.28837,7.43823918 194.790963,6.94333924 194.790963,6.33272927 C194.790963,5.72211929 195.28837,5.22721936 195.902074,5.22721936 L211.241333,5.22721936 C211.855037,5.22721936 212.352444,5.72211929 212.352444,6.33272927 C212.352444,6.94333924 211.855037,7.43823918 211.241333,7.43823918" id="Fill-119" fill="#E0E0E0"></path>
                    <path d="M76.7529259,18.0521293 L70.4655185,18.0521293 C69.8518148,18.0521293 69.3544074,17.5572293 69.3544074,16.9466194 C69.3544074,16.3360094 69.8518148,15.8411094 70.4655185,15.8411094 L76.7529259,15.8411094 C77.3666296,15.8411094 77.864037,16.3360094 77.864037,16.9466194 C77.864037,17.5572293 77.3666296,18.0521293 76.7529259,18.0521293" id="Fill-121" fill="#E0E0E0"></path>
                    <path d="M92.830963,18.0521293 L82.5083704,18.0521293 C81.895037,18.0521293 81.3972593,17.5572293 81.3972593,16.9466194 C81.3972593,16.3360094 81.895037,15.8411094 82.5083704,15.8411094 L92.830963,15.8411094 C93.4446667,15.8411094 93.9420741,16.3360094 93.9420741,16.9466194 C93.9420741,17.5572293 93.4446667,18.0521293 92.830963,18.0521293" id="Fill-123" fill="#E0E0E0"></path>
                    <path d="M107.80237,18.2991739 L99.139037,18.2991739 C98.5257037,18.2991739 98.0279259,17.8042739 98.0279259,17.193664 C98.0279259,16.583054 98.5257037,16.0881541 99.139037,16.0881541 L107.80237,16.0881541 C108.416074,16.0881541 108.913481,16.583054 108.913481,17.193664 C108.913481,17.8042739 108.416074,18.2991739 107.80237,18.2991739" id="Fill-125" fill="#E0E0E0"></path>
                    <path d="M136.865778,18.2991739 L113.76837,18.2991739 C113.154667,18.2991739 112.657259,17.8042739 112.657259,17.193664 C112.657259,16.583054 113.154667,16.0881541 113.76837,16.0881541 L136.865778,16.0881541 C137.479481,16.0881541 137.976889,16.583054 137.976889,17.193664 C137.976889,17.8042739 137.479481,18.2991739 136.865778,18.2991739" id="Fill-127" fill="#E0E0E0"></path>
                    <path d="M72.0093704,151.228118 C72.069,151.088823 72.1604815,151.091403 72.211963,151.233645 L72.4771481,151.962176 C72.5286296,152.104418 72.6852963,152.269508 72.8249259,152.328837 L73.5408519,152.633589 C73.6808519,152.693287 73.6782593,152.783938 73.5352963,152.83516 L72.8030741,153.099009 C72.6601111,153.150599 72.4941852,153.306476 72.4341852,153.445402 L72.1282593,154.157719 C72.0682593,154.296645 71.9771481,154.294065 71.9252963,154.152191 L71.6604815,153.423292 C71.6086296,153.281049 71.4523333,153.11596 71.3123333,153.056631 L70.5964074,152.751879 C70.4567778,152.69255 70.4593704,152.601898 70.6023333,152.550307 L71.3345556,152.286459 C71.4775185,152.234869 71.6434444,152.07936 71.7030741,151.940434 L72.0093704,151.228118 Z" id="Fill-129" fill="#EDEDED"></path>
                    <path d="M154.445185,178.145773 C154.504815,178.006479 154.596296,178.009058 154.647778,178.151301 L154.912963,178.879832 C154.964444,179.022074 155.121111,179.187163 155.260741,179.246492 L155.977037,179.551245 C156.116667,179.610942 156.114074,179.701594 155.971111,179.752816 L155.238889,180.016664 C155.095926,180.068255 154.93,180.224132 154.87,180.363057 L154.564074,181.075374 C154.504074,181.2143 154.412963,181.21172 154.361111,181.069847 L154.096296,180.340947 C154.044444,180.198705 153.888148,180.033615 153.748148,179.974286 L153.032222,179.669534 C152.892593,179.610205 152.895185,179.519553 153.038148,179.467963 L153.77037,179.204114 C153.913333,179.152524 154.079259,178.997384 154.138889,178.85809 L154.445185,178.145773 Z" id="Fill-131" fill="#FFFFFF"></path>
                    <path d="M225.490815,158.939344 C225.550444,158.800418 225.641926,158.802998 225.693407,158.94524 L225.958593,159.673771 C226.010074,159.816013 226.166741,159.981103 226.306741,160.040432 L227.022667,160.345184 C227.162296,160.404882 227.159704,160.495533 227.016741,160.546755 L226.284519,160.810235 C226.141556,160.861826 225.97563,161.018071 225.916,161.156997 L225.609704,161.868945 C225.550074,162.008239 225.458593,162.00566 225.406741,161.863418 L225.141926,161.134887 C225.090444,160.992644 224.933778,160.827555 224.794148,160.768226 L224.077852,160.463474 C223.938222,160.404145 223.940815,160.313493 224.083778,160.261902 L224.816,159.998054 C224.958963,159.946463 225.124889,159.790955 225.184519,159.652029 L225.490815,158.939344 Z" id="Fill-133" fill="#FFFFFF"></path>
                    <path d="M39.6677778,164.143716 C39.7274074,164.00479 39.8188889,164.00737 39.8703704,164.149612 L40.1351852,164.878143 C40.187037,165.020385 40.3437037,165.185475 40.4833333,165.244804 L41.1992593,165.549556 C41.3392593,165.609254 41.3366667,165.699906 41.1937037,165.751128 L40.4614815,166.014976 C40.3185185,166.066566 40.1525926,166.222443 40.0925926,166.361369 L39.7866667,167.073686 C39.7266667,167.212612 39.6355556,167.210032 39.5837037,167.068158 L39.3188889,166.339259 C39.267037,166.197017 39.1107407,166.031927 38.9707407,165.972598 L38.2548148,165.667846 C38.1151852,165.608517 38.1177778,165.517865 38.2607407,165.466274 L38.992963,165.202426 C39.1359259,165.150836 39.3018519,164.995327 39.3614815,164.856401 L39.6677778,164.143716 Z" id="Fill-135" fill="#E89215"></path>
                    <path d="M126.41637,178.145773 C126.476,178.006479 126.567481,178.009058 126.618963,178.151301 L126.884148,178.879832 C126.93563,179.022074 127.092296,179.187163 127.231926,179.246492 L127.948222,179.551245 C128.087852,179.610942 128.085259,179.701594 127.942296,179.752816 L127.210074,180.016664 C127.067111,180.068255 126.901185,180.224132 126.841556,180.363057 L126.535259,181.075374 C126.475259,181.2143 126.384148,181.21172 126.332296,181.069847 L126.067481,180.340947 C126.01563,180.198705 125.859333,180.033615 125.719704,179.974286 L125.003407,179.669534 C124.863778,179.610205 124.86637,179.519553 125.009333,179.467963 L125.741556,179.204114 C125.884519,179.152524 126.050444,178.997384 126.110074,178.85809 L126.41637,178.145773 Z" id="Fill-137" fill="#E89215"></path>
                    <path d="M180.840222,174.580577 C180.840222,175.7421 181.786519,176.683626 182.953926,176.683626 C184.121333,176.683626 185.06763,175.7421 185.06763,174.580577" id="Fill-139" fill="#FFFFFF"></path>
                    <path d="M182.954111,177.236381 C181.482259,177.236381 180.284852,176.045009 180.284852,174.580577 C180.284852,174.275456 180.53337,174.027822 180.840407,174.027822 C181.147444,174.027822 181.395963,174.275456 181.395963,174.580577 C181.395963,175.435136 182.094852,176.130871 182.954111,176.130871 C183.813,176.130871 184.512259,175.435136 184.512259,174.580577 C184.512259,174.275456 184.760778,174.027822 185.067815,174.027822 C185.374481,174.027822 185.62337,174.275456 185.62337,174.580577 C185.62337,176.045009 184.425963,177.236381 182.954111,177.236381" id="Fill-141" fill="#EDEDED"></path>
                    <path d="M185.06763,174.580577 C185.06763,175.7421 186.013926,176.683626 187.181333,176.683626 C188.348741,176.683626 189.295037,175.7421 189.295037,174.580577" id="Fill-143" fill="#FFFFFF"></path>
                    <path d="M187.181333,177.236381 C185.709481,177.236381 184.512074,176.045009 184.512074,174.580577 C184.512074,174.275456 184.760593,174.027822 185.06763,174.027822 C185.374667,174.027822 185.623185,174.275456 185.623185,174.580577 C185.623185,175.435136 186.322074,176.130871 187.181333,176.130871 C188.040593,176.130871 188.739481,175.435136 188.739481,174.580577 C188.739481,174.275456 188.988,174.027822 189.295037,174.027822 C189.602074,174.027822 189.850593,174.275456 189.850593,174.580577 C189.850593,176.045009 188.653185,177.236381 187.181333,177.236381" id="Fill-145" fill="#EDEDED"></path>
                    <path d="M189.295074,174.580577 C189.295074,175.7421 190.24137,176.683626 191.408778,176.683626 C192.576185,176.683626 193.522481,175.7421 193.522481,174.580577" id="Fill-147" fill="#FFFFFF"></path>
                    <path d="M191.408778,177.236381 C189.936926,177.236381 188.739519,176.045009 188.739519,174.580577 C188.739519,174.275456 188.988037,174.027822 189.295074,174.027822 C189.602111,174.027822 189.85063,174.275456 189.85063,174.580577 C189.85063,175.435136 190.549519,176.130871 191.408778,176.130871 C192.268037,176.130871 192.966926,175.435136 192.966926,174.580577 C192.966926,174.275456 193.215444,174.027822 193.522481,174.027822 C193.829519,174.027822 194.078037,174.275456 194.078037,174.580577 C194.078037,176.045009 192.88063,177.236381 191.408778,177.236381" id="Fill-149" fill="#EDEDED"></path>
                    <path d="M94.843037,181.178002 C94.843037,182.339156 95.7893333,183.281051 96.9567407,183.281051 C98.1241481,183.281051 99.0704444,182.339156 99.0704444,181.178002" id="Fill-151" fill="#FFFFFF"></path>
                    <path d="M96.9567407,183.833806 C95.4848889,183.833806 94.2874815,182.642435 94.2874815,181.178002 C94.2874815,180.872882 94.536,180.625247 94.843037,180.625247 C95.1500741,180.625247 95.3985926,180.872882 95.3985926,181.178002 C95.3985926,182.032562 96.0974815,182.728296 96.9567407,182.728296 C97.816,182.728296 98.5148889,182.032562 98.5148889,181.178002 C98.5148889,180.872882 98.7634074,180.625247 99.0704444,180.625247 C99.3774815,180.625247 99.626,180.872882 99.626,181.178002 C99.626,182.642435 98.4285926,183.833806 96.9567407,183.833806" id="Fill-153" fill="#EDEDED"></path>
                    <path d="M99.0704444,181.178002 C99.0704444,182.339156 100.016741,183.281051 101.184148,183.281051 C102.351185,183.281051 103.297852,182.339156 103.297852,181.178002" id="Fill-155" fill="#FFFFFF"></path>
                    <path d="M101.184185,183.833806 C99.7123333,183.833806 98.5149259,182.642435 98.5149259,181.178002 C98.5149259,180.872882 98.7634444,180.625247 99.0704815,180.625247 C99.3775185,180.625247 99.626037,180.872882 99.626037,181.178002 C99.626037,182.032562 100.324926,182.728296 101.184185,182.728296 C102.043074,182.728296 102.742333,182.032562 102.742333,181.178002 C102.742333,180.872882 102.990852,180.625247 103.297889,180.625247 C103.604556,180.625247 103.853444,180.872882 103.853444,181.178002 C103.853444,182.642435 102.656037,183.833806 101.184185,183.833806" id="Fill-157" fill="#EDEDED"></path>
                    <path d="M154.912815,174.186168 C152.311704,174.186168 150.195407,176.291796 150.195407,178.879795 C150.195407,181.468162 152.311704,183.57379 154.912815,183.57379 C157.513926,183.57379 159.630222,181.468162 159.630222,178.879795 C159.630222,176.291796 157.513926,174.186168 154.912815,174.186168 M154.912815,184.6793 C151.698741,184.6793 149.084296,182.077666 149.084296,178.879795 C149.084296,175.682292 151.698741,173.080658 154.912815,173.080658 C158.126889,173.080658 160.741333,175.682292 160.741333,178.879795 C160.741333,182.077666 158.126889,184.6793 154.912815,184.6793" id="Fill-159" fill="#E89215"></path>
                    <g id="Group-163" transform="translate(76.296296, 183.496957)">
                        <mask id="mask-2" fill="white">
                            <use xlink:href="#path-1"></use>
                        </mask>
                        <g id="Clip-162"></g>
                        <path d="M1.57388889,1.18219545 C1.49314815,1.18219545 1.42722222,1.24778903 1.42722222,1.32812276 C1.42722222,1.40845648 1.49314815,1.47405006 1.57388889,1.47405006 C1.65462963,1.47405006 1.72055556,1.40845648 1.72055556,1.32812276 C1.72055556,1.24778903 1.65462963,1.18219545 1.57388889,1.18219545 M1.57388889,2.57955997 C0.880555556,2.57955997 0.316111111,2.01832944 0.316111111,1.32812276 C0.316111111,0.637916068 0.880555556,0.0766855374 1.57388889,0.0766855374 C2.26759259,0.0766855374 2.83166667,0.637916068 2.83166667,1.32812276 C2.83166667,2.01832944 2.26759259,2.57955997 1.57388889,2.57955997" id="Fill-161" fill="#E89215" mask="url(#mask-2)"></path>
                    </g>
                    <path d="M136.844444,161.936639 C136.349259,161.936639 135.946667,162.337202 135.946667,162.829891 C135.946667,163.32258 136.349259,163.723143 136.844444,163.723143 C137.339259,163.723143 137.742222,163.32258 137.742222,162.829891 C137.742222,162.337202 137.339259,161.936639 136.844444,161.936639 M136.844444,164.828653 C135.736667,164.828653 134.835556,163.931716 134.835556,162.829891 C134.835556,161.728066 135.736667,160.831129 136.844444,160.831129 C137.952222,160.831129 138.853333,161.728066 138.853333,162.829891 C138.853333,163.931716 137.952222,164.828653 136.844444,164.828653" id="Fill-164" fill="#E89215"></path>
                    <path d="M263.336222,148.65976 C263.396222,148.520466 263.487333,148.523045 263.538815,148.665656 L263.804,149.393819 C263.855481,149.536429 264.012148,149.70115 264.152148,149.760479 L264.868074,150.065232 C265.007704,150.124929 265.005111,150.215581 264.862148,150.266803 L264.129926,150.530651 C263.986963,150.582242 263.821407,150.738119 263.761407,150.877044 L263.455111,151.589361 C263.395481,151.728287 263.30437,151.725708 263.252519,151.583834 L262.987704,150.854934 C262.935852,150.712692 262.779185,150.547971 262.639556,150.488273 L261.92363,150.18389 C261.78363,150.124192 261.786222,150.03354 261.929185,149.98195 L262.661407,149.71847 C262.80437,149.66688 262.970296,149.511371 263.029926,149.372077 L263.336222,148.65976 Z" id="Fill-166" fill="#EDEDED"></path>
                    <path d="M347.608852,171.000973 C347.668481,170.861679 347.759963,170.864258 347.811444,171.006501 L348.076259,171.735032 C348.128111,171.877274 348.284778,172.042363 348.424407,172.101692 L349.140333,172.406445 C349.280333,172.466142 349.27737,172.556794 349.134778,172.608016 L348.402556,172.871864 C348.259593,172.923455 348.093667,173.079332 348.033667,173.218257 L347.727741,173.930574 C347.667741,174.0695 347.57663,174.06692 347.524778,173.925047 L347.259963,173.196147 C347.208111,173.053905 347.051815,172.888815 346.911815,172.829486 L346.195889,172.524734 C346.056259,172.465405 346.058852,172.374753 346.201815,172.323163 L346.934037,172.059314 C347.077,172.007724 347.242926,171.852584 347.302556,171.71329 L347.608852,171.000973 Z" id="Fill-168" fill="#FFFFFF"></path>
                    <path d="M232.831296,156.998916 C232.891296,156.85999 232.982407,156.86257 233.033889,157.004812 L233.299074,157.733343 C233.350556,157.875585 233.507222,158.040675 233.647222,158.100004 L234.363148,158.404756 C234.502778,158.464454 234.500185,158.555106 234.357222,158.606328 L233.625,158.870176 C233.482037,158.921766 233.316481,159.077643 233.256481,159.216569 L232.950185,159.928886 C232.890556,160.067812 232.799444,160.065232 232.747593,159.923358 L232.482778,159.194459 C232.430926,159.052217 232.274259,158.887127 232.13463,158.827798 L231.418704,158.523046 C231.278704,158.463717 231.281296,158.373065 231.424259,158.321474 L232.156481,158.057626 C232.299444,158.006036 232.46537,157.850527 232.525,157.711602 L232.831296,156.998916 Z" id="Fill-170" fill="#E89215"></path>
                    <path d="M319.580074,171.000973 C319.639704,170.861679 319.731185,170.864258 319.782667,171.006501 L320.047852,171.735032 C320.099333,171.877274 320.256,172.042363 320.39563,172.101692 L321.111926,172.406445 C321.251556,172.466142 321.248963,172.556794 321.106,172.608016 L320.373778,172.871864 C320.230815,172.923455 320.064889,173.079332 320.004889,173.218257 L319.698963,173.930574 C319.638963,174.0695 319.547852,174.06692 319.496,173.925047 L319.231185,173.196147 C319.179333,173.053905 319.023037,172.888815 318.883037,172.829486 L318.167111,172.524734 C318.027481,172.465405 318.030074,172.374753 318.173037,172.323163 L318.905259,172.059314 C319.048222,172.007724 319.214148,171.852584 319.273778,171.71329 L319.580074,171.000973 Z" id="Fill-172" fill="#E89215"></path>
                    <path d="M286.876074,154.729267 C286.876074,156.76967 288.538667,158.423882 290.589407,158.423882 C292.640519,158.423882 294.303111,156.76967 294.303111,154.729267" id="Fill-174" fill="#FFFFFF"></path>
                    <path d="M290.589556,159.34525 C288.031407,159.34525 285.950296,157.27463 285.950296,154.729378 C285.950296,154.220475 286.364741,153.80812 286.876222,153.80812 C287.387333,153.80812 287.802148,154.220475 287.802148,154.729378 C287.802148,156.258667 289.052519,157.502734 290.589556,157.502734 C292.126593,157.502734 293.376963,156.258667 293.376963,154.729378 C293.376963,154.220475 293.791778,153.80812 294.302889,153.80812 C294.81437,153.80812 295.228815,154.220475 295.228815,154.729378 C295.228815,157.27463 293.147704,159.34525 290.589556,159.34525" id="Fill-176" fill="#EDEDED"></path>
                    <path d="M294.303037,154.729267 C294.303037,156.76967 295.96563,158.423882 298.01637,158.423882 C300.067481,158.423882 301.730074,156.76967 301.730074,154.729267" id="Fill-178" fill="#FFFFFF"></path>
                    <path d="M298.016481,159.34525 C295.458333,159.34525 293.377222,157.27463 293.377222,154.729378 C293.377222,154.220475 293.791667,153.80812 294.303148,153.80812 C294.814259,153.80812 295.229074,154.220475 295.229074,154.729378 C295.229074,156.258667 296.479444,157.502734 298.016481,157.502734 C299.553519,157.502734 300.803889,156.258667 300.803889,154.729378 C300.803889,154.220475 301.218704,153.80812 301.729815,153.80812 C302.241296,153.80812 302.655741,154.220475 302.655741,154.729378 C302.655741,157.27463 300.57463,159.34525 298.016481,159.34525" id="Fill-180" fill="#EDEDED"></path>
                    <path d="M348.076519,167.041368 C345.475407,167.041368 343.358741,169.146996 343.358741,171.734995 C343.358741,174.323362 345.475407,176.42899 348.076519,176.42899 C350.67763,176.42899 352.793926,174.323362 352.793926,171.734995 C352.793926,169.146996 350.67763,167.041368 348.076519,167.041368 M348.076519,177.5345 C344.862444,177.5345 342.24763,174.932866 342.24763,171.734995 C342.24763,168.537492 344.862444,165.935858 348.076519,165.935858 C351.290593,165.935858 353.905037,168.537492 353.905037,171.734995 C353.905037,174.932866 351.290593,177.5345 348.076519,177.5345" id="Fill-182" fill="#E89215"></path>
                    <path d="M271.033889,177.534352 C270.953148,177.534352 270.887222,177.599946 270.887222,177.68028 C270.887222,177.760245 270.953148,177.825838 271.033889,177.825838 C271.11463,177.825838 271.180556,177.760245 271.180556,177.68028 C271.180556,177.599946 271.11463,177.534352 271.033889,177.534352 M271.033889,178.931348 C270.340556,178.931348 269.776111,178.370118 269.776111,177.68028 C269.776111,176.990073 270.340556,176.428842 271.033889,176.428842 C271.727222,176.428842 272.291667,176.990073 272.291667,177.68028 C272.291667,178.370118 271.727222,178.931348 271.033889,178.931348" id="Fill-184" fill="#E89215"></path>
                    <path d="M330.008148,154.791508 C329.512963,154.791508 329.11037,155.192071 329.11037,155.68476 C329.11037,156.177449 329.512963,156.578012 330.008148,156.578012 C330.502963,156.578012 330.905926,156.177449 330.905926,155.68476 C330.905926,155.192071 330.502963,154.791508 330.008148,154.791508 M330.008148,157.683522 C328.90037,157.683522 327.999259,156.786585 327.999259,155.68476 C327.999259,154.582935 328.90037,153.685998 330.008148,153.685998 C331.115926,153.685998 332.017037,154.582935 332.017037,155.68476 C332.017037,156.786585 331.115926,157.683522 330.008148,157.683522" id="Fill-186" fill="#E89215"></path>
                    <path d="M131.119593,136.8126 L138.206259,136.8126 C141.337741,136.8126 143.875889,134.286878 143.875889,131.171183 L143.875889,76.5269336 C143.875889,73.4116067 141.337741,70.885885 138.206259,70.885885 L129.170704,70.885885 L133.369963,70.885885 L69.4636667,70.885885 C66.3325556,70.885885 63.794037,73.4116067 63.794037,76.5269336 C63.794037,79.6422605 66.3325556,82.1679821 69.4636667,82.1679821 L129.170704,82.1679821 L131.119593,136.8126 Z" id="Fill-188" fill="#C2D9FC"></path>
                    <path d="M134.30863,87.0448286 L134.30863,131.173468 C134.30863,134.288795 131.770111,136.814516 128.639,136.814516 L69.4634444,136.814516 C66.3323333,136.814516 63.7938148,134.288795 63.7938148,131.173468 L63.7938148,82.1680558 L129.406778,82.1680558 C132.114185,82.1680558 134.30863,84.3510694 134.30863,87.0448286" id="Fill-190" fill="#92DEFF"></path>
                    <path d="M143.876037,96.6439343 C143.876037,99.9250877 141.202704,102.584945 137.904926,102.584945 L116.591593,102.584945 C111.503074,102.584945 107.37863,106.688966 107.37863,111.751464 C107.37863,116.813963 111.503074,120.917984 116.591593,120.917984 L137.143444,120.917984 C140.861593,120.917984 143.876037,117.918735 143.876037,114.219331 L143.876037,96.6439343 Z" id="Fill-192" fill="#FFFFFF"></path>
                    <path d="M119.777778,68.0917824 C119.777778,71.6924282 116.844074,74.6117114 113.225185,74.6117114 C109.606296,74.6117114 106.672593,71.6924282 106.672593,68.0917824 C106.672593,64.4911366 109.606296,61.572222 113.225185,61.572222 C116.844074,61.572222 119.777778,64.4911366 119.777778,68.0917824 Z" id="Fill-194" fill="#4DBBA6"></path>
                    <path d="M102.592074,56.6045026 C102.592074,60.2051484 99.6583704,63.1244316 96.0394815,63.1244316 C92.4205926,63.1244316 89.4868889,60.2051484 89.4868889,56.6045026 C89.4868889,53.0038569 92.4205926,50.0849422 96.0394815,50.0849422 C99.6583704,50.0849422 102.592074,53.0038569 102.592074,56.6045026 Z" id="Fill-196" fill="#4DBBA6"></path>
                    <path d="M65.156963,82.1013567 L65.7806667,82.4842317 C66.8877037,83.1644888 68.161037,83.5237795 69.4636296,83.5237795 L128.639185,83.5237795 C131.01363,83.5237795 132.945852,85.4458927 132.945852,87.8087359 L132.945852,101.228889 L116.591407,101.228889 C110.759926,101.228889 106.015481,105.949417 106.015481,111.751501 C106.015481,117.553586 110.759926,122.274113 116.591407,122.274113 L132.945852,122.274113 L132.945852,131.173468 C132.945852,133.486931 131.05437,135.407939 128.729556,135.456213 L69.4636296,135.458424 C67.0888148,135.458424 65.156963,133.535942 65.156963,131.173468 L65.156963,82.1013567 Z M137.904741,103.941074 L137.905852,103.941074 C139.319556,103.941074 140.69437,103.536088 141.881778,102.76997 L142.512889,102.362405 L142.512889,114.219368 C142.512889,117.165552 140.10437,119.561929 137.143259,119.561929 L116.591407,119.561929 C112.262889,119.561929 108.741407,116.058199 108.741407,111.75187 C108.741407,107.444803 112.262889,103.941074 116.591407,103.941074 L137.904741,103.941074 Z M142.512889,131.171257 C142.512889,133.5341 140.581407,135.456582 138.206593,135.456582 L134.243259,135.456582 L134.628074,134.836022 C135.310667,133.734934 135.671778,132.468757 135.671778,131.173836 L135.671778,122.274481 L137.143259,122.274481 C138.847333,122.274481 140.480296,121.749364 141.865111,120.755879 L142.512889,120.291197 L142.512889,131.171257 Z M62.431037,76.9655262 L62.431037,131.173468 C62.431037,135.031697 65.5858519,138.17024 69.4636296,138.17024 L138.206593,138.168029 C142.08437,138.168029 145.238815,135.029486 145.238815,131.171257 L145.238815,76.5270073 C145.238815,72.6687777 142.08437,69.5298666 138.206593,69.5298666 L127.842148,69.5298666 C127.090296,69.5298666 126.478815,70.1382655 126.478815,70.8859587 C126.478815,71.6336519 127.090296,72.2420509 127.842148,72.2420509 L138.206593,72.2420509 C140.581407,72.2420509 142.512889,74.1641641 142.512889,76.5270073 L142.512889,96.6439711 C142.512889,99.1719038 140.445852,101.228889 137.904741,101.228889 L135.671778,101.228889 L135.671778,87.8087359 C135.671778,83.9508748 132.516963,80.8115952 128.639185,80.8115952 L102.097333,80.8115952 L102.097333,75.0283043 C102.097333,74.2806111 101.485852,73.6722122 100.73437,73.6722122 C99.9828889,73.6722122 99.3714074,74.2806111 99.3714074,75.0283043 L99.3714074,80.8115952 L69.4636296,80.8115952 C67.0888148,80.8115952 65.156963,78.889482 65.156963,76.5270073 C65.156963,74.1641641 67.0888148,72.2420509 69.4636296,72.2420509 L81.1873333,72.2420509 C81.9391852,72.2420509 82.5502963,71.6336519 82.5502963,70.8859587 C82.5502963,70.1382655 81.9391852,69.5298666 81.1873333,69.5298666 L69.4636296,69.5298666 C65.5858519,69.5298666 62.431037,72.6687777 62.431037,76.5270073 C62.431037,76.6195016 62.4347407,76.7112589 62.4380741,76.8033848 L62.4391852,76.826969 L62.4373333,76.8509217 C62.434,76.8888775 62.431037,76.9268334 62.431037,76.9655262 Z" id="Fill-198" fill="#003D74"></path>
                    <path d="M113.225185,73.3141375 C110.331481,73.3141375 107.977037,70.9719305 107.977037,68.0924457 C107.977037,65.2133294 110.331481,62.8707539 113.225185,62.8707539 C116.118889,62.8707539 118.473333,65.2133294 118.473333,68.0924457 C118.473333,70.9719305 116.118889,73.3141375 113.225185,73.3141375 M113.225185,60.2746481 C108.892593,60.2746481 105.367778,63.7816941 105.367778,68.0924457 C105.367778,72.4028289 108.892593,75.9098748 113.225185,75.9098748 C117.557778,75.9098748 121.082222,72.4028289 121.082222,68.0924457 C121.082222,63.7816941 117.557778,60.2746481 113.225185,60.2746481" id="Fill-200" fill="#003D74"></path>
                    <path d="M96.0394815,61.826305 C93.1457778,61.826305 90.7913333,59.484098 90.7913333,56.6046132 C90.7913333,53.7254969 93.1457778,51.3829214 96.0394815,51.3829214 C98.9331852,51.3829214 101.28763,53.7254969 101.28763,56.6046132 C101.28763,59.484098 98.9331852,61.826305 96.0394815,61.826305 M96.0394815,48.7871841 C91.7068889,48.7871841 88.1820741,52.2938616 88.1820741,56.6046132 C88.1820741,60.9153648 91.7068889,64.4220423 96.0394815,64.4220423 C100.371704,64.4220423 103.896519,60.9153648 103.896519,56.6046132 C103.896519,52.2938616 100.371704,48.7871841 96.0394815,48.7871841" id="Fill-202" fill="#003D74"></path>
                    <path d="M91.6154815,67.3162304 C91.6154815,66.6005969 91.0302963,66.0183617 90.311037,66.0183617 C89.5917778,66.0183617 89.0065926,66.6005969 89.0065926,67.3162304 L89.0065926,74.4556134 C89.0065926,75.1712468 89.5917778,75.753482 90.311037,75.753482 C91.0302963,75.753482 91.6154815,75.1712468 91.6154815,74.4556134 L91.6154815,67.3162304 Z" id="Fill-204" fill="#003D74"></path>
                    <path d="M115.897,111.97135 C115.897,112.435296 116.084778,112.88966 116.414037,113.217628 C116.745519,113.54707 117.201074,113.733901 117.667,113.733901 C118.134778,113.733901 118.589963,113.54707 118.921444,113.217628 C119.250704,112.88966 119.440333,112.435296 119.440333,111.97135 C119.440333,111.507773 119.250704,111.05304 118.921444,110.725072 C118.589963,110.397472 118.134778,110.20843 117.667,110.20843 C117.201074,110.20843 116.745519,110.397472 116.414037,110.725072 C116.084778,111.05304 115.897,111.507773 115.897,111.97135" id="Fill-206" fill="#70628E"></path>
                    <path d="M75.0794074,95.9177248 C75.0794074,95.2020914 74.4942222,94.6198562 73.774963,94.6198562 C73.0557037,94.6198562 72.4705185,95.2020914 72.4705185,95.9177248 L72.4705185,110.431227 C72.4705185,111.146861 73.0557037,111.729096 73.774963,111.729096 C74.4942222,111.729096 75.0794074,111.146861 75.0794074,110.431227 L75.0794074,95.9177248 Z" id="Fill-208" fill="#003D74"></path>
                    <path d="M73.7742222,115.215911 C73.4308889,115.215911 73.094963,115.354837 72.852,115.596207 C72.609037,115.837945 72.4697778,116.172546 72.4697778,116.51378 C72.4697778,116.855382 72.609037,117.189983 72.852,117.431721 C73.094963,117.673091 73.4312593,117.812017 73.7742222,117.812017 C74.1171852,117.812017 74.4534815,117.673091 74.6964444,117.431721 C74.9394074,117.19072 75.0786667,116.856856 75.0786667,116.51378 C75.0786667,116.17144 74.9394074,115.837576 74.6975556,115.597312 C74.4531111,115.354837 74.1171852,115.215911 73.7742222,115.215911" id="Fill-210" fill="#003D74"></path>
                    <path d="M214.857667,0.102701871 C214.917667,-0.0362238747 215.008778,-0.0336443516 215.060259,0.108597923 L215.325444,0.837128954 C215.376926,0.979371229 215.533593,1.14446071 215.673593,1.20378974 L216.389519,1.50854197 C216.529148,1.567871 216.526556,1.65889132 216.383593,1.71011328 L215.65137,1.97396164 C215.508407,2.0251836 215.342481,2.1810605 215.282852,2.31998625 L214.976556,3.03267163 C214.916926,3.17159738 214.825444,3.16901786 214.773593,3.02677558 L214.508778,2.29824455 C214.457296,2.15600228 214.30063,1.9909128 214.161,1.93121526 L213.444704,1.62683153 C213.305074,1.567134 213.307667,1.47648218 213.45063,1.42489172 L214.182852,1.16141186 C214.325815,1.1098214 214.491741,0.954313004 214.55137,0.815018756 L214.857667,0.102701871 Z" id="Fill-212" fill="#EDEDED"></path>
                    <path d="M297.293481,27.0203573 C297.353481,26.8814316 297.444593,26.8840111 297.496074,27.0262534 L297.761259,27.7547844 C297.812741,27.8970267 297.969407,28.0621161 298.109407,28.1214452 L298.825333,28.4261974 C298.964963,28.4855264 298.96237,28.5765468 298.819407,28.6277687 L298.087185,28.8916171 C297.944222,28.942839 297.778296,29.0987159 297.718667,29.2376417 L297.41237,29.9503271 C297.352741,30.0892528 297.261259,30.0866733 297.209778,29.944431 L296.944593,29.2159 C296.893111,29.0736577 296.736444,28.9085682 296.596815,28.8492392 L295.880889,28.544487 C295.740889,28.4847894 295.743481,28.3941376 295.886444,28.3425472 L296.618667,28.0790673 C296.76163,28.0274768 296.927556,27.8719684 296.987185,27.7326742 L297.293481,27.0203573 Z" id="Fill-214" fill="#FFFFFF"></path>
                    <path d="M368.339296,7.8142968 C368.398926,7.67537105 368.490407,7.67758207 368.541889,7.82019285 L368.806704,8.54872388 C368.858556,8.69059765 369.015222,8.85568713 369.154852,8.91538467 L369.870778,9.21976839 C370.010778,9.27946593 370.007815,9.37011774 369.865222,9.4217082 L369.133,9.68518807 C368.990037,9.73677853 368.824111,9.89265543 368.764111,10.0315812 L368.458185,10.7438981 C368.398185,10.8831923 368.307074,10.8802443 368.255222,10.7383705 L367.990407,10.0098395 C367.938556,9.8672287 367.782259,9.70250772 367.642259,9.64281019 L366.926333,9.33805795 C366.786704,9.27872892 366.789296,9.18807711 366.932259,9.13648665 L367.664481,8.87300679 C367.807444,8.82141632 367.97337,8.66590793 368.033,8.52661368 L368.339296,7.8142968 Z" id="Fill-216" fill="#FFFFFF"></path>
                    <path d="M182.516111,13.0186689 C182.575741,12.8797432 182.667222,12.8819542 182.718704,13.024565 L182.983889,13.753096 C183.03537,13.8953383 183.192037,14.0600593 183.332037,14.1197568 L184.047963,14.424509 C184.187593,14.4838381 184.185,14.5744899 184.042037,14.6260804 L183.309815,14.8895602 C183.166852,14.9411507 183.000926,15.0970276 182.941296,15.2359533 L182.635,15.9482702 C182.57537,16.0875645 182.483889,16.0849849 182.432037,15.9427427 L182.167222,15.2142116 C182.115741,15.0719694 181.959074,14.9068799 181.819444,14.8471823 L181.103148,14.5427986 C180.963519,14.4831011 180.966111,14.3924493 181.109074,14.3408588 L181.841296,14.0773789 C181.984259,14.0257885 182.150185,13.8702801 182.209815,13.7309858 L182.516111,13.0186689 Z" id="Fill-218" fill="#E89215"></path>
                    <path d="M269.264667,27.0203573 C269.324667,26.8814316 269.415778,26.8840111 269.467259,27.0262534 L269.732444,27.7547844 C269.783926,27.8970267 269.940593,28.0621161 270.080593,28.1214452 L270.796519,28.4261974 C270.936148,28.4855264 270.933556,28.5765468 270.790593,28.6277687 L270.05837,28.8916171 C269.915407,28.942839 269.749481,29.0987159 269.689852,29.2376417 L269.383556,29.9503271 C269.323926,30.0892528 269.232815,30.0866733 269.180963,29.944431 L268.916148,29.2159 C268.864296,29.0736577 268.70763,28.9085682 268.568,28.8492392 L267.852074,28.544487 C267.712074,28.4847894 267.714667,28.3941376 267.85763,28.3425472 L268.589852,28.0790673 C268.732815,28.0274768 268.898741,27.8719684 268.95837,27.7326742 L269.264667,27.0203573 Z" id="Fill-220" fill="#E89215"></path>
                    <path d="M323.688704,23.4555301 C323.688704,24.6170525 324.635,25.5585784 325.802407,25.5585784 C326.969815,25.5585784 327.916111,24.6170525 327.916111,23.4555301" id="Fill-222" fill="#FFFFFF"></path>
                    <path d="M325.802407,26.1113334 C324.330556,26.1113334 323.133148,24.9199622 323.133148,23.4555301 C323.133148,23.1500408 323.381667,22.9027751 323.688704,22.9027751 C323.995741,22.9027751 324.244259,23.1500408 324.244259,23.4555301 C324.244259,24.3104577 324.943148,25.0058234 325.802407,25.0058234 C326.661296,25.0058234 327.360556,24.3104577 327.360556,23.4555301 C327.360556,23.1500408 327.609074,22.9027751 327.916111,22.9027751 C328.222778,22.9027751 328.471667,23.1500408 328.471667,23.4555301 C328.471667,24.9199622 327.274259,26.1113334 325.802407,26.1113334" id="Fill-224" fill="#EDEDED"></path>
                    <path d="M327.915926,23.4555301 C327.915926,24.6170525 328.862222,25.5585784 330.02963,25.5585784 C331.197037,25.5585784 332.143333,24.6170525 332.143333,23.4555301" id="Fill-226" fill="#FFFFFF"></path>
                    <path d="M330.029667,26.1113334 C328.557815,26.1113334 327.360407,24.9199622 327.360407,23.4555301 C327.360407,23.1500408 327.608926,22.9027751 327.915963,22.9027751 C328.223,22.9027751 328.471519,23.1500408 328.471519,23.4555301 C328.471519,24.3104577 329.170407,25.0058234 330.029667,25.0058234 C330.888926,25.0058234 331.587815,24.3104577 331.587815,23.4555301 C331.587815,23.1500408 331.836333,22.9027751 332.14337,22.9027751 C332.450407,22.9027751 332.698926,23.1500408 332.698926,23.4555301 C332.698926,24.9199622 331.501519,26.1113334 330.029667,26.1113334" id="Fill-228" fill="#EDEDED"></path>
                    <path d="M332.14337,23.4555301 C332.14337,24.6170525 333.089667,25.5585784 334.257074,25.5585784 C335.424481,25.5585784 336.370778,24.6170525 336.370778,23.4555301" id="Fill-230" fill="#FFFFFF"></path>
                    <path d="M334.257074,26.1113334 C332.785222,26.1113334 331.587815,24.9199622 331.587815,23.4555301 C331.587815,23.1500408 331.836333,22.9027751 332.14337,22.9027751 C332.450407,22.9027751 332.698926,23.1500408 332.698926,23.4555301 C332.698926,24.3104577 333.397815,25.0058234 334.257074,25.0058234 C335.116333,25.0058234 335.815222,24.3104577 335.815222,23.4555301 C335.815222,23.1500408 336.063741,22.9027751 336.370778,22.9027751 C336.677815,22.9027751 336.926333,23.1500408 336.926333,23.4555301 C336.926333,24.9199622 335.728926,26.1113334 334.257074,26.1113334" id="Fill-232" fill="#EDEDED"></path>
                    <path d="M237.691333,30.052771 C237.691333,31.2142934 238.63763,32.1558193 239.805037,32.1558193 C240.972444,32.1558193 241.918741,31.2142934 241.918741,30.052771" id="Fill-234" fill="#FFFFFF"></path>
                    <path d="M239.805037,32.7086111 C238.333185,32.7086111 237.135778,31.51724 237.135778,30.0528078 C237.135778,29.7473186 237.384296,29.5000529 237.691333,29.5000529 C237.99837,29.5000529 238.246889,29.7473186 238.246889,30.0528078 C238.246889,30.9077355 238.945778,31.6031012 239.805037,31.6031012 C240.664296,31.6031012 241.363185,30.9077355 241.363185,30.0528078 C241.363185,29.7473186 241.611704,29.5000529 241.918741,29.5000529 C242.225778,29.5000529 242.474296,29.7473186 242.474296,30.0528078 C242.474296,31.51724 241.276889,32.7086111 239.805037,32.7086111" id="Fill-236" fill="#EDEDED"></path>
                    <path d="M241.918778,30.052771 C241.918778,31.2142934 242.865074,32.1558193 244.032481,32.1558193 C245.199889,32.1558193 246.146185,31.2142934 246.146185,30.052771" id="Fill-238" fill="#FFFFFF"></path>
                    <path d="M244.032481,32.7086111 C242.56063,32.7086111 241.363222,31.51724 241.363222,30.0528078 C241.363222,29.7473186 241.611741,29.5000529 241.918778,29.5000529 C242.225815,29.5000529 242.474333,29.7473186 242.474333,30.0528078 C242.474333,30.9077355 243.173222,31.6031012 244.032481,31.6031012 C244.89137,31.6031012 245.59063,30.9077355 245.59063,30.0528078 C245.59063,29.7473186 245.839148,29.5000529 246.146185,29.5000529 C246.452852,29.5000529 246.701741,29.7473186 246.701741,30.0528078 C246.701741,31.51724 245.504333,32.7086111 244.032481,32.7086111" id="Fill-240" fill="#EDEDED"></path>
                    <path d="M297.761148,23.0609367 C295.160037,23.0609367 293.043741,25.1665646 293.043741,27.7545633 C293.043741,30.3429305 295.160037,32.4485584 297.761148,32.4485584 C300.362259,32.4485584 302.478556,30.3429305 302.478556,27.7545633 C302.478556,25.1665646 300.362259,23.0609367 297.761148,23.0609367 M297.761148,33.5540683 C294.547074,33.5540683 291.93263,30.952435 291.93263,27.7545633 C291.93263,24.5570601 294.547074,21.9554268 297.761148,21.9554268 C300.975222,21.9554268 303.589667,24.5570601 303.589667,27.7545633 C303.589667,30.952435 300.975222,33.5540683 297.761148,33.5540683" id="Fill-242" fill="#E89215"></path>
                    <path d="M220.718481,33.5541051 C220.637741,33.5541051 220.571815,33.6193302 220.571815,33.7000324 C220.571815,33.7803662 220.637741,33.8455912 220.718481,33.8455912 C220.799222,33.8455912 220.865148,33.7803662 220.865148,33.7000324 C220.865148,33.6193302 220.799222,33.5541051 220.718481,33.5541051 M220.718481,34.9511011 C220.025148,34.9511011 219.460704,34.3898706 219.460704,33.7000324 C219.460704,33.0098257 220.025148,32.4485952 220.718481,32.4485952 C221.412185,32.4485952 221.976259,33.0098257 221.976259,33.7000324 C221.976259,34.3898706 221.412185,34.9511011 220.718481,34.9511011" id="Fill-244" fill="#E89215"></path>
                    <path d="M279.692741,10.8112605 C279.197556,10.8112605 278.794963,11.2118236 278.794963,11.7045125 C278.794963,12.1972014 279.197556,12.5977645 279.692741,12.5977645 C280.187556,12.5977645 280.590519,12.1972014 280.590519,11.7045125 C280.590519,11.2118236 280.187556,10.8112605 279.692741,10.8112605 M279.692741,13.7032744 C278.584963,13.7032744 277.683852,12.8067058 277.683852,11.7045125 C277.683852,10.6023191 278.584963,9.70575055 279.692741,9.70575055 C280.800519,9.70575055 281.70163,10.6023191 281.70163,11.7045125 C281.70163,12.8067058 280.800519,13.7032744 279.692741,13.7032744" id="Fill-246" fill="#E89215"></path>
                </g>
            </g>
        </g>
    </g>
</svg>