<?xml version="1.0" encoding="UTF-8"?>
<svg width="51px" height="39px" viewBox="0 0 51 39" version="1.1" xmlns="http://www.w3.org/2000/svg" xmlns:xlink="http://www.w3.org/1999/xlink">
    <!-- Generator: sketchtool 52.5 (67469) - http://www.bohemiancoding.com/sketch -->
    <title>5822C460-865D-4095-AEE7-E8D550FBFB2A</title>
    <desc>Created with sketchtool.</desc>
    <g id="design-desk" stroke="none" stroke-width="1" fill="none" fill-rule="evenodd">
        <g id="Spred-design-" transform="translate(-746.000000, -1488.000000)" fill="#00ACEE">
            <g id="Group-17" transform="translate(186.000000, 1235.000000)">
                <path d="M611,253.022104 C608.779182,254.489185 606.321909,255.61286 603.720909,256.347487 C599.956182,252.28965 593.395727,251.86148 589.07,255.388994 C586.763409,257.269031 585.458273,260.003235 585.5,262.867846 L585.5,265.041299 C577.226409,265.243431 569.393273,261.546387 564.636364,255.195557 C564.636364,255.195557 555.363636,274.756635 576.227273,283.450447 C571.451818,286.488935 565.765318,288.012525 560,287.797353 C580.863636,298.664619 606.363636,287.797353 606.363636,262.802643 C606.361318,262.196249 606.301045,261.592029 606.178182,260.998677 C608.542727,258.810009 610.214136,256.049724 611,253.022104" id="Fill-1"></path>
            </g>
        </g>
    </g>
</svg>