<?xml version="1.0" encoding="UTF-8"?>
<svg width="180px" height="126px" viewBox="0 0 180 126" version="1.1" xmlns="http://www.w3.org/2000/svg" xmlns:xlink="http://www.w3.org/1999/xlink">
    <!-- Generator: sketchtool 52.5 (67469) - http://www.bohemiancoding.com/sketch -->
    <title>4AE62B00-BA54-4F3F-974D-E39E4460E38F</title>
    <desc>Created with sketchtool.</desc>
    <defs>
        <polygon id="path-1" points="0.136541148 0.19831875 136.593785 0.19831875 136.593785 126 0.136541148 126"></polygon>
        <polygon id="path-3" points="0 0.0680653846 21.8037471 0.0680653846 21.8037471 16.7143346 0 16.7143346"></polygon>
        <polygon id="path-5" points="2.47863245e-05 1.25000001e-05 57.987235 1.25000001e-05 57.987235 64 2.47863245e-05 64"></polygon>
    </defs>
    <g id="design-desk" stroke="none" stroke-width="1" fill="none" fill-rule="evenodd">
        <g id="Spred-design-" transform="translate(-1047.000000, -764.000000)">
            <g id="Group-18" transform="translate(1047.000000, 764.000000)">
                <g id="Group-6">
                    <g id="Group-11-Copy-2" opacity="0.54484747">
                        <g id="Group-3" transform="translate(17.000000, 0.000000)">
                            <mask id="mask-2" fill="white">
                                <use xlink:href="#path-1"></use>
                            </mask>
                            <g id="Clip-2"></g>
                            <path d="M128.24924,92.5838812 L125.836991,92.5838812 C130.507445,83.7888187 133.157642,73.7547562 133.157642,63.099225 C133.157642,28.359975 105.028067,0.19831875 70.3290483,0.19831875 C54.3957517,0.19831875 39.8521201,6.13869375 28.7767517,15.9240375 L8.48174211,15.9240375 C3.87290478,15.9240375 0.136541148,19.6640062 0.136541148,24.2774438 C0.136541148,28.8915375 3.87290478,32.6315062 8.48174211,32.6315062 L15.3533737,32.6315062 C10.3518904,41.658225 7.49979952,52.0446937 7.49979952,63.099225 C7.49979952,97.838475 35.6293737,126.000131 70.3290483,126.000131 C86.7880579,126.000131 101.766288,119.660756 112.968168,109.292006 L128.24924,109.292006 C132.858077,109.292006 136.593785,105.552037 136.593785,100.937944 C136.593785,96.3245062 132.858077,92.5838812 128.24924,92.5838812" id="Fill-1" fill="#E8F1FE" mask="url(#mask-2)"></path>
                        </g>
                        <path d="M171.688874,92 L166.311126,92 C161.720747,92 158,95.8059701 158,100.5 C158,105.194698 161.720747,109 166.311126,109 L171.688874,109 C176.279253,109 180,105.194698 180,100.5 C180,95.8059701 176.279253,92 171.688874,92" id="Fill-4" fill="#E8F1FE"></path>
                        <path d="M147.311126,25 L152.688874,25 C157.279253,25 161,21.1940299 161,16.5 C161,11.8059701 157.279253,8 152.688874,8 L147.311126,8 C142.7214,8 139,11.8059701 139,16.5 C139,21.1940299 142.7214,25 147.311126,25" id="Fill-6" fill="#E8F1FE"></path>
                        <g id="Group-10" transform="translate(0.000000, 83.000000)">
                            <mask id="mask-4" fill="white">
                                <use xlink:href="#path-3"></use>
                            </mask>
                            <g id="Clip-9"></g>
                            <path d="M13.5666882,0.0680653846 L8.23686471,0.0680653846 C3.68804118,0.0680653846 -0.000194117649,3.79433462 -0.000194117649,8.39152692 C-0.000194117649,12.9880654 3.68804118,16.7143346 8.23686471,16.7143346 L13.5666882,16.7143346 C18.1161588,16.7143346 21.8037471,12.9880654 21.8037471,8.39152692 C21.8037471,3.79433462 18.1161588,0.0680653846 13.5666882,0.0680653846" id="Fill-8" fill="#E8F1FE" mask="url(#mask-4)"></path>
                        </g>
                    </g>
                    <g id="Group-44" transform="translate(57.000000, 31.000000)">
                        <g id="Group-43">
                            <g id="Group-42">
                                <path d="M10.3558256,3.8066375 L10.3558256,60.1933875 C10.3558256,61.7778875 11.629347,63.0625125 13.2004282,63.0625125 L44.7868812,63.0625125 C46.3579624,63.0625125 47.6314838,61.7780125 47.6314838,60.1933875 L47.6314838,3.8066375 C47.6314838,2.2221375 46.3579624,0.9375125 44.7868812,0.9375125 L13.2004282,0.9375125 C11.6294709,0.9375125 10.3558256,2.2220125 10.3558256,3.8066375" id="Fill-1" fill="#D2F5FF"></path>
                                <path d="M19.8755094,0.9374875 L22.0008128,5.5929875 C22.3589752,6.3774875 23.136894,6.8799875 23.9931376,6.8799875 L33.9941718,6.8799875 C34.8504154,6.8799875 35.6283342,6.3774875 35.9864966,5.5929875 L38.1118,0.9374875 L19.8755094,0.9374875 Z" id="Fill-3" fill="#FFFFFF"></path>
                                <path d="M20.6421504,11.0956375 C24.3368,11.0956375 27.3319795,14.1165125 27.3319795,17.8431375 C27.3319795,21.5696375 24.3368,24.5906375 20.6421504,24.5906375 C16.9475009,24.5906375 13.9523214,21.5696375 13.9523214,17.8431375 C13.9523214,14.1165125 16.9475009,11.0956375 20.6421504,11.0956375" id="Fill-5" fill="#F9DC6A"></path>
                                <path d="M34.5031466,10.786375 C32.9221509,10.786375 31.6403261,12.07925 31.6403261,13.674 L31.6403261,22.012125 C31.6403261,23.606875 32.9221509,24.89975 34.5031466,24.89975 L36.1793218,24.89975 C36.1793218,26.607875 35.2511979,28.096375 33.8765483,28.88325 C34.3685568,29.067625 34.9007192,29.16875 35.4566765,29.16875 C37.8603303,29.16875 39.8263816,27.283875 39.9841466,24.89975 L54.1948902,24.89975 C55.7760098,24.89975 57.0579585,23.606875 57.0579585,22.012125 L57.0579585,13.674 C57.0579585,12.07925 55.7761338,10.786375 54.1947662,10.786375 L34.5031466,10.786375 Z" id="Fill-7" fill="#4DBBA6"></path>
                                <path d="M37.3451466,35.140375 C41.0397962,35.140375 44.0349756,38.161375 44.0349756,41.88775 C44.0349756,45.614375 41.0397962,48.635375 37.3451466,48.635375 C33.650497,48.635375 30.6554415,45.614375 30.6554415,41.88775 C30.6554415,38.161375 33.650497,35.140375 37.3451466,35.140375" id="Fill-9" fill="#F9DC6A"></path>
                                <path d="M23.4841504,34.8312875 C25.0652701,34.8312875 26.3470949,36.1241625 26.3470949,37.7189125 L26.3470949,46.0570375 C26.3470949,47.6516625 25.0652701,48.9445375 23.4841504,48.9445375 L21.8080991,48.9445375 C21.8080991,50.6526625 22.7362231,52.1411625 24.1108726,52.9280375 C23.6187402,53.1125375 23.0865778,53.2136625 22.5307444,53.2136625 C20.1269667,53.2136625 18.1609154,51.3286625 18.0031504,48.9445375 L3.79253077,48.9445375 C2.21141111,48.9445375 0.929586325,47.6516625 0.929586325,46.0570375 L0.929586325,37.7189125 C0.929462393,36.1240375 2.21128718,34.8312875 3.79253077,34.8312875 L23.4841504,34.8312875 Z" id="Fill-11" fill="#2BB4F3"></path>
                                <path d="M34.475956,57.6843125 L23.5116013,57.6843125 C22.9981526,57.6843125 22.5821141,58.1040625 22.5821141,58.6218125 C22.5821141,59.1396875 22.9981526,59.5593125 23.5116013,59.5593125 L34.475956,59.5593125 C34.9894047,59.5593125 35.4054432,59.1396875 35.4054432,58.6218125 C35.4054432,58.1040625 34.9894047,57.6843125 34.475956,57.6843125" id="Fill-13" fill="#003D74"></path>
                                <path d="M20.6421504,23.653125 C17.4659068,23.653125 14.8818085,21.04675 14.8818085,17.843125 C14.8818085,14.6395 17.4659068,12.033125 20.6421504,12.033125 C23.818394,12.033125 26.4024923,14.6395 26.4024923,17.843125 C26.4024923,21.04675 23.818394,23.653125 20.6421504,23.653125 M20.6422744,10.158125 C16.4409923,10.158125 13.0229581,13.605625 13.0229581,17.843125 C13.0229581,22.080625 16.4409923,25.528125 20.6422744,25.528125 C24.8435564,25.528125 28.2615906,22.080625 28.2615906,17.843125 C28.2615906,13.605625 24.8435564,10.158125 20.6422744,10.158125" id="Fill-15" fill="#003D74"></path>
                                <path d="M23.7749312,19.3143875 C23.3882645,18.9741375 22.8010765,19.0145125 22.4634868,19.4047625 C21.9755679,19.9690125 21.3287688,20.2797625 20.6421876,20.2797625 C19.9556064,20.2797625 19.3086833,19.9690125 18.8208885,19.4047625 C18.4831748,19.0145125 17.8961107,18.9742625 17.509444,19.3143875 C17.1225295,19.6547625 17.0824996,20.2468875 17.4198415,20.6371375 C18.2537774,21.6015125 19.4282774,22.1546375 20.6421876,22.1546375 C21.8560979,22.1546375 23.0305979,21.6015125 23.8645338,20.6371375 C24.2019996,20.2468875 24.1618457,19.6547625 23.7749312,19.3143875" id="Fill-17" fill="#003D74"></path>
                                <path d="M18.5987906,16.846975 L18.5987906,16.2601 C18.5987906,15.74235 18.1827521,15.3226 17.6693034,15.3226 C17.1558547,15.3226 16.7398162,15.74235 16.7398162,16.2601 L16.7398162,16.846975 C16.7398162,17.364725 17.1558547,17.784475 17.6693034,17.784475 C18.1827521,17.784475 18.5987906,17.364725 18.5987906,16.846975" id="Fill-19" fill="#003D74"></path>
                                <path d="M23.4400556,15.322625 C22.9266068,15.322625 22.5105684,15.742375 22.5105684,16.260125 L22.5105684,16.847 C22.5105684,17.36475 22.9266068,17.7845 23.4400556,17.7845 C23.9535043,17.7845 24.3695427,17.36475 24.3695427,16.847 L24.3695427,16.260125 C24.3695427,15.742375 23.9535043,15.322625 23.4400556,15.322625" id="Fill-21" fill="#003D74"></path>
                                <path d="M52.381535,14.5974625 L36.3165265,14.5974625 C35.8030778,14.5974625 35.3870393,15.0172125 35.3870393,15.5349625 C35.3870393,16.0527125 35.8030778,16.4724625 36.3165265,16.4724625 L52.381535,16.4724625 C52.8949838,16.4724625 53.3110222,16.0527125 53.3110222,15.5349625 C53.3110222,15.0172125 52.8951077,14.5974625 52.381535,14.5974625" id="Fill-23" fill="#003D74"></path>
                                <path d="M47.8983333,19.2136125 L36.7834017,19.2136125 C36.269953,19.2136125 35.8539145,19.6333625 35.8539145,20.1511125 C35.8539145,20.6688625 36.269953,21.0886125 36.7834017,21.0886125 L47.8983333,21.0886125 C48.4117821,21.0886125 48.8278205,20.6688625 48.8278205,20.1511125 C48.8278205,19.6333625 48.4117821,19.2136125 47.8983333,19.2136125" id="Fill-25" fill="#003D74"></path>
                                <path d="M43.1054265,41.88805 C43.1054265,45.091675 40.5212043,47.697925 37.3450846,47.697925 C34.168841,47.697925 31.5847427,45.091675 31.5847427,41.88805 C31.5847427,38.6843 34.168841,36.07805 37.3450846,36.07805 C40.5212043,36.07805 43.1054265,38.6843 43.1054265,41.88805 M29.7258923,41.88805 C29.7258923,46.125425 33.1439265,49.572925 37.3452085,49.572925 C41.5464906,49.572925 44.9645248,46.125425 44.9645248,41.88805 C44.9645248,37.65055 41.5464906,34.20305 37.3452085,34.20305 C33.1439265,34.20305 29.7258923,37.65055 29.7258923,41.88805" id="Fill-27" fill="#003D74"></path>
                                <path d="M35.5239342,43.449575 C35.1862205,43.0592 34.5992803,43.0192 34.2124897,43.3592 C33.8255752,43.699575 33.7855453,44.2917 34.1227632,44.68195 C34.9568231,45.646325 36.1311991,46.19945 37.3451094,46.19945 C38.5590197,46.19945 39.7335197,45.646325 40.5674556,44.68195 C40.9050453,44.2917 40.8648915,43.699575 40.4779769,43.3592 C40.0911863,43.019075 39.5041222,43.059325 39.1665325,43.449575 C38.6786137,44.01395 38.0316906,44.324575 37.3451094,44.324575 C36.6585282,44.324575 36.0117291,44.01395 35.5239342,43.449575" id="Fill-29" fill="#003D74"></path>
                                <path d="M40.3180556,41.8293375 C40.8316282,41.8293375 41.2475427,41.4097125 41.2475427,40.8918375 L41.2475427,40.3050875 C41.2475427,39.7872125 40.8316282,39.3675875 40.3180556,39.3675875 C39.8046068,39.3675875 39.3885684,39.7872125 39.3885684,40.3050875 L39.3885684,40.8918375 C39.3885684,41.4097125 39.8046068,41.8293375 40.3180556,41.8293375" id="Fill-31" fill="#003D74"></path>
                                <path d="M35.4768526,40.8918375 L35.4768526,40.3050875 C35.4768526,39.7872125 35.060938,39.3675875 34.5473654,39.3675875 C34.0339167,39.3675875 33.6178782,39.7872125 33.6178782,40.3050875 L33.6178782,40.8918375 C33.6178782,41.4097125 34.0339167,41.8293375 34.5473654,41.8293375 C35.060938,41.8293375 35.4768526,41.4097125 35.4768526,40.8918375" id="Fill-33" fill="#003D74"></path>
                                <path d="M22.6003073,39.579825 C22.6003073,39.062075 22.1842688,38.642325 21.6708201,38.642325 L5.60581154,38.642325 C5.09236282,38.642325 4.67632436,39.062075 4.67632436,39.579825 C4.67632436,40.0977 5.09236282,40.517325 5.60581154,40.517325 L21.6708201,40.517325 C22.1842688,40.517325 22.6003073,40.0977 22.6003073,39.579825" id="Fill-35" fill="#003D74"></path>
                                <path d="M22.1334444,44.1960375 C22.1334444,43.6781625 21.717406,43.2585375 21.2039573,43.2585375 L10.0890256,43.2585375 C9.57557692,43.2585375 9.15953846,43.6781625 9.15953846,44.1960375 C9.15953846,44.7137875 9.57557692,45.1335375 10.0890256,45.1335375 L21.2039573,45.1335375 C21.717406,45.1335375 22.1334444,44.7137875 22.1334444,44.1960375" id="Fill-37" fill="#003D74"></path>
                                <g id="Group-41">
                                    <mask id="mask-6" fill="white">
                                        <use xlink:href="#path-5"></use>
                                    </mask>
                                    <g id="Clip-40"></g>
                                    <path d="M56.1284094,22.0120125 C56.1284094,23.0890125 55.262747,23.9621375 54.1948282,23.9621375 L39.9840846,23.9621375 C39.4949265,23.9621375 39.0892983,24.3447625 39.0568282,24.8371375 C38.9438026,26.5442625 37.659747,27.9196375 36.0301701,28.1847625 C36.7212128,27.2447625 37.1119692,26.0910125 37.108747,24.8855125 C37.1075077,24.3732625 36.6872556,23.9620125 36.1793838,23.9620125 L34.5032085,23.9620125 C33.4354137,23.9620125 32.5697513,23.0888875 32.5697513,22.0118875 L32.5697513,13.6737625 C32.5697513,12.5967625 33.4354137,11.7236375 34.5032085,11.7236375 L54.3735376,11.7236375 C54.8298538,11.7660125 55.2405632,11.9687625 55.5498966,12.2756375 C55.565512,12.2951375 55.5814991,12.3143875 55.5988496,12.3327625 C55.8972769,12.6505125 56.078341,13.0533875 56.1193624,13.4850125 C56.1209735,13.5027625 56.1208496,13.5210125 56.1220889,13.5388875 C56.1251872,13.5837625 56.1284094,13.6285125 56.1284094,13.6738875 L56.1284094,22.0120125 Z M46.7021701,60.1937625 C46.7021701,61.2586375 45.8427043,62.1250125 44.7861872,62.1250125 L13.2010974,62.1250125 C12.1447043,62.1250125 11.2851145,61.2586375 11.2851145,60.1937625 L11.2851145,49.8820125 L17.2043368,49.8820125 C17.7685974,52.3358875 19.9600803,54.1511375 22.530794,54.1511375 C23.1844094,54.1511375 23.824888,54.0353875 24.4345077,53.8070125 C24.7730889,53.6800125 25.0083111,53.3665125 25.0371872,53.0032625 C25.0661872,52.6400125 24.8837598,52.2926375 24.5694692,52.1127625 C23.7164479,51.6245125 23.1073239,50.8130125 22.8599564,49.8820125 L23.4840761,49.8820125 C25.5752983,49.8820125 27.2766316,48.1661375 27.2766316,46.0570125 L27.2766316,37.7188875 C27.2766316,35.6096375 25.5752983,33.8937625 23.4840761,33.8937625 L11.2851145,33.8937625 L11.2851145,3.8075125 C11.2851145,2.7402625 12.1429692,1.8750125 13.2010974,1.8750125 L19.2801915,1.8750125 L21.1565162,5.9850125 C21.6647598,7.0981375 22.7780376,7.8173875 23.9930632,7.8173875 L33.9940974,7.8173875 C35.209247,7.8173875 36.3225248,7.0981375 36.8307684,5.9850125 L38.7072171,1.8750125 L44.7861872,1.8750125 C45.8445632,1.8750125 46.7021701,2.7402625 46.7021701,3.8075125 L46.7021701,9.8488875 L34.5032085,9.8488875 C32.4085162,9.8488875 30.7105291,11.5615125 30.7105291,13.6741375 L30.7105291,22.0120125 C30.7105291,24.1246375 32.4085162,25.8372625 34.5032085,25.8372625 L35.1273282,25.8372625 C34.8813239,26.7630125 34.2774051,27.5707625 33.4315718,28.0598875 C33.186559,28.2016375 33.0063624,28.4433875 32.9601359,28.7245125 C32.8847855,29.1821375 33.1431829,29.6085125 33.5527769,29.7621375 C34.1623966,29.9905125 34.8028752,30.1062625 35.4564906,30.1062625 C38.0270803,30.1062625 40.2188111,28.2910125 40.7829479,25.8372625 L46.7021701,25.8372625 L46.7021701,60.1937625 Z M3.79245641,48.0070125 C2.72627265,48.0070125 1.85899915,47.1321375 1.85899915,46.0570125 L1.85899915,38.8490125 L1.85899915,38.7238875 L1.85899915,37.7188875 C1.85899915,36.6435125 2.72627265,35.7687625 3.79245641,35.7687625 L23.4842,35.7687625 C24.5503838,35.7687625 25.4177812,36.6436375 25.4177812,37.7188875 L25.4177812,46.0570125 C25.4177812,47.1322625 24.5503838,48.0070125 23.4842,48.0070125 L21.8081487,48.0070125 C21.2947,48.0070125 20.8786615,48.4268875 20.8786615,48.9445125 C20.8786615,50.1451375 21.2689222,51.2933875 21.9573624,52.2298875 C20.3279094,51.9647625 19.0437299,50.5892625 18.9307043,48.8820125 C18.8981103,48.3897625 18.492606,48.0070125 18.0033239,48.0070125 L3.79245641,48.0070125 Z M36.6607342,1.8750125 L35.1422,5.2008875 C34.9365974,5.6513875 34.4859821,5.9425125 33.9940974,5.9425125 L23.9930632,5.9425125 C23.5013026,5.9425125 23.0506872,5.6513875 22.8450846,5.2008875 L21.3267983,1.8750125 L36.6607342,1.8750125 Z M57.9872598,13.6646375 C57.9872598,13.6093875 57.9854009,13.5546375 57.9831701,13.5000125 C57.9829222,13.4953875 57.9830462,13.4907625 57.9827983,13.4861375 C57.8943111,11.5537625 56.3777598,9.9923875 54.4755333,9.8510125 L54.4756573,9.8486375 L54.443435,9.8486375 C54.3610205,9.8431375 54.2783581,9.8395125 54.1945803,9.8395125 L54.1945803,9.8486375 L48.5611444,9.8486375 L48.5611444,3.8075125 C48.5611444,1.7046375 46.8712128,1.25000001e-05 44.7861872,1.25000001e-05 L38.1119735,1.25000001e-05 L19.875559,1.25000001e-05 L13.2010974,1.25000001e-05 C11.1161957,1.25000001e-05 9.42614017,1.7046375 9.42614017,3.8075125 L9.42614017,33.8937625 L3.79245641,33.8937625 C1.70135812,33.8937625 2.47863245e-05,35.6097625 2.47863245e-05,37.7188875 L2.47863245e-05,38.7238875 L2.47863245e-05,38.8490125 L2.47863245e-05,46.0570125 C2.47863245e-05,48.1662625 1.70135812,49.8820125 3.79245641,49.8820125 L9.42614017,49.8820125 L9.42614017,60.1937625 C9.42614017,62.2926375 11.1195419,64.0000125 13.2010974,64.0000125 L44.7861872,64.0000125 C46.8677427,64.0000125 48.5611444,62.2925125 48.5611444,60.1937625 L48.5611444,25.8372625 L54.1947043,25.8372625 C56.2892726,25.8372625 57.9872598,24.1246375 57.9872598,22.0121375 L57.9872598,13.6740125 C57.9872598,13.6708875 57.987012,13.6677625 57.987012,13.6646375 L57.9872598,13.6646375 Z" id="Fill-39" fill="#003D74" mask="url(#mask-6)"></path>
                                </g>
                            </g>
                        </g>
                    </g>
                </g>
            </g>
        </g>
    </g>
</svg>