<?xml version="1.0" encoding="UTF-8"?>
<svg width="26px" height="26px" viewBox="0 0 26 26" version="1.1" xmlns="http://www.w3.org/2000/svg" xmlns:xlink="http://www.w3.org/1999/xlink">
    <!-- Generator: sketchtool 52.5 (67469) - http://www.bohemiancoding.com/sketch -->
    <title>0320D624-C94A-41D4-B498-C4FD7BFC3F4A</title>
    <desc>Created with sketchtool.</desc>
    <defs>
        <polygon id="path-1" points="0 0.0245222304 25.9747356 0.0245222304 25.9747356 25.261588 0 25.261588"></polygon>
    </defs>
    <g id="design-desk" stroke="none" stroke-width="1" fill="none" fill-rule="evenodd">
        <g id="Spred-design-" transform="translate(-708.000000, -1383.000000)">
            <g id="Group-13" transform="translate(708.000000, 1383.000000)">
                <g id="Group-8">
                    <g id="Group-3" transform="translate(0.000000, 0.037091)">
                        <mask id="mask-2" fill="white">
                            <use xlink:href="#path-1"></use>
                        </mask>
                        <g id="Clip-2"></g>
                        <path d="M20.2594917,7.36978667 C19.1021746,7.36978667 18.1608478,6.45519373 18.1608478,5.33074472 C18.1608478,4.20629572 19.1021746,3.29151794 20.2594917,3.29151794 C21.4168088,3.29151794 22.3581356,4.20629572 22.3581356,5.33074472 C22.3581356,6.45519373 21.4168088,7.36978667 20.2594917,7.36978667 M12.9873551,19.5435337 C9.07099415,19.5435337 5.88523317,16.447941 5.88523317,12.643052 C5.88523317,8.83791658 9.07099415,5.74257032 12.9873551,5.74257032 C16.9034624,5.74257032 20.0895405,8.83791658 20.0895405,12.643052 C20.0895405,16.447941 16.9034624,19.5435337 12.9873551,19.5435337 M18.943638,0.024516069 L7.0310722,0.024516069 C3.15409171,0.024516069 -2.53658536e-05,3.08911712 -2.53658536e-05,6.85592887 L-2.53658536e-05,18.4301752 C-2.53658536e-05,22.1970485 3.15409171,25.261588 7.0310722,25.261588 L18.943638,25.261588 C22.8206185,25.261588 25.9747356,22.1970485 25.9747356,18.4301752 L25.9747356,6.85592887 C25.9747356,3.08911712 22.8206185,0.024516069 18.943638,0.024516069" id="Fill-1" fill="#F89729" mask="url(#mask-2)"></path>
                    </g>
                    <path d="M12.9873678,7.25912856 C9.91099707,7.25912856 7.40783122,9.69089587 7.40783122,12.6801434 C7.40783122,15.6692062 9.91099707,18.1011583 12.9873678,18.1011583 C16.0639922,18.1011583 18.566841,15.6692062 18.566841,12.6801434 C18.566841,9.69089587 16.0639922,7.25912856 12.9873678,7.25912856" id="Fill-4" fill="#F89729"></path>
                    <path d="M20.2594917,4.80827334 C19.9419112,4.80827334 19.68356,5.05953379 19.68356,5.36784846 C19.68356,5.67640959 19.9419112,5.92742358 20.2594917,5.92742358 C20.5770722,5.92742358 20.8354234,5.67665605 20.8354234,5.36784846 C20.8354234,5.05934894 20.5770722,4.80827334 20.2594917,4.80827334" id="Fill-6" fill="#F89729"></path>
                </g>
            </g>
        </g>
    </g>
</svg>