<?xml version="1.0" encoding="UTF-8"?>
<svg width="180px" height="126px" viewBox="0 0 180 126" version="1.1" xmlns="http://www.w3.org/2000/svg" xmlns:xlink="http://www.w3.org/1999/xlink">
    <!-- Generator: sketchtool 52.5 (67469) - http://www.bohemiancoding.com/sketch -->
    <title>064B347B-E8E5-4F28-A8A7-0DAEF6C71515</title>
    <desc>Created with sketchtool.</desc>
    <defs>
        <polygon id="path-1" points="0.136541148 0.19831875 136.593785 0.19831875 136.593785 126 0.136541148 126"></polygon>
        <polygon id="path-3" points="0 0.0680653846 21.8037471 0.0680653846 21.8037471 16.7143346 0 16.7143346"></polygon>
        <polygon id="path-5" points="2.27091623e-05 0.0002265625 56.9320996 0.0002265625 56.9320996 57.9999547 2.27091623e-05 57.9999547"></polygon>
    </defs>
    <g id="design-desk" stroke="none" stroke-width="1" fill="none" fill-rule="evenodd">
        <g id="Spred-design-" transform="translate(-213.000000, -764.000000)">
            <g id="Group-12" transform="translate(213.000000, 764.000000)">
                <g id="Group-11" opacity="0.54484747">
                    <g id="Group-3" transform="translate(17.000000, 0.000000)">
                        <mask id="mask-2" fill="white">
                            <use xlink:href="#path-1"></use>
                        </mask>
                        <g id="Clip-2"></g>
                        <path d="M128.24924,92.5838812 L125.836991,92.5838812 C130.507445,83.7888187 133.157642,73.7547562 133.157642,63.099225 C133.157642,28.359975 105.028067,0.19831875 70.3290483,0.19831875 C54.3957517,0.19831875 39.8521201,6.13869375 28.7767517,15.9240375 L8.48174211,15.9240375 C3.87290478,15.9240375 0.136541148,19.6640062 0.136541148,24.2774438 C0.136541148,28.8915375 3.87290478,32.6315062 8.48174211,32.6315062 L15.3533737,32.6315062 C10.3518904,41.658225 7.49979952,52.0446937 7.49979952,63.099225 C7.49979952,97.838475 35.6293737,126.000131 70.3290483,126.000131 C86.7880579,126.000131 101.766288,119.660756 112.968168,109.292006 L128.24924,109.292006 C132.858077,109.292006 136.593785,105.552037 136.593785,100.937944 C136.593785,96.3245062 132.858077,92.5838812 128.24924,92.5838812" id="Fill-1" fill="#E8F1FE" mask="url(#mask-2)"></path>
                    </g>
                    <path d="M171.688874,92 L166.311126,92 C161.720747,92 158,95.8059701 158,100.5 C158,105.194698 161.720747,109 166.311126,109 L171.688874,109 C176.279253,109 180,105.194698 180,100.5 C180,95.8059701 176.279253,92 171.688874,92" id="Fill-4" fill="#E8F1FE"></path>
                    <path d="M147.311126,25 L152.688874,25 C157.279253,25 161,21.1940299 161,16.5 C161,11.8059701 157.279253,8 152.688874,8 L147.311126,8 C142.7214,8 139,11.8059701 139,16.5 C139,21.1940299 142.7214,25 147.311126,25" id="Fill-6" fill="#E8F1FE"></path>
                    <g id="Group-10" transform="translate(0.000000, 83.000000)">
                        <mask id="mask-4" fill="white">
                            <use xlink:href="#path-3"></use>
                        </mask>
                        <g id="Clip-9"></g>
                        <path d="M13.5666882,0.0680653846 L8.23686471,0.0680653846 C3.68804118,0.0680653846 -0.000194117649,3.79433462 -0.000194117649,8.39152692 C-0.000194117649,12.9880654 3.68804118,16.7143346 8.23686471,16.7143346 L13.5666882,16.7143346 C18.1161588,16.7143346 21.8037471,12.9880654 21.8037471,8.39152692 C21.8037471,3.79433462 18.1161588,0.0680653846 13.5666882,0.0680653846" id="Fill-8" fill="#E8F1FE" mask="url(#mask-4)"></path>
                    </g>
                </g>
                <g id="Group-38" transform="translate(59.000000, 31.000000)">
                    <path d="M1.28932845,55 C1.11636223,55 0.982118059,54.8532754 1.00194561,54.6858823 L1.83738525,47.6495768 C2.21970706,44.4293589 5.02017351,42 8.35015216,42 L16.6498478,42 C19.9798265,42 22.7802929,44.4293589 23.1626148,47.6495768 L23.9980544,54.6858823 C24.0178819,54.8532754 23.8836378,55 23.7106716,55 L1.28932845,55 Z" id="Fill-1" fill="#0098DB"></path>
                    <path d="M22.2209141,47.6495768 C21.8652099,44.4293589 19.259714,42 16.1615709,42 L14,42 C17.0981431,42 19.703639,44.4293589 20.0593433,47.6495768 L20.871343,55 L22.7308148,55 C22.891739,55 23.016637,54.8532754 22.9981898,54.6858823 L22.2209141,47.6495768 Z" id="Fill-3" fill="#2AAD52"></path>
                    <path d="M9,37 L9,42.085633 C9,43.6952345 10.3432195,45 12,45 C13.6568965,45 15,43.6951218 15,42.085633 L15,37 L9,37 Z" id="Fill-5" fill="#B05A3D"></path>
                    <path d="M20.3655257,28.0101414 L20.3655257,23.6788544 C20.3655257,20.5425152 17.8214849,18 14.683264,18 L10.3169642,18 C7.17874334,18 4.63470261,20.5425152 4.63470261,23.6788544 L4.63470261,28.0101414 L2.83721057,28.0101414 C1.82256176,28.0101414 1,28.83221 1,29.8462504 L1,30.7146294 C1,31.7287839 1.82256176,32.5508524 2.83721057,32.5508524 L4.64600185,32.5508524 C4.86034498,36.7010038 8.2947429,40 12.5001141,40 C14.6027997,40 16.5123711,39.1757642 17.9235205,37.8319611 C19.334784,36.488272 20.2462559,34.6252437 20.3541123,32.5509664 L22.1629036,32.5509664 C23.1775524,32.5509664 24,31.7288979 24,30.7148575 L24,29.8465926 C24.0001141,28.83221 23.1775524,28.0101414 22.1629036,28.0101414 L20.3655257,28.0101414 Z" id="Fill-7" fill="#D7875F"></path>
                    <path d="M4,24 L6.30012552,24 C6.95090293,24 7.54073526,23.6361049 7.80599148,23.0709414 L8.40278896,21.7996271 C8.56507702,21.4538384 9.02524142,21.3445374 9.33948588,21.5769401 L12.1684986,23.669668 C12.4580168,23.8837435 12.8142844,24 13.1809996,24 L20,24 L20,19.2754361 C20,16.914203 17.9873031,15 15.5045745,15 L10.0392515,15 C9.22212307,15 8.55973707,15.6299713 8.55973707,16.4071125 L8.55973707,17.1599647 L6.17591363,17.1599647 C4.97419266,17.1599647 4,18.086484 4,19.2293972 L4,24 Z" id="Fill-9" fill="#475D6D"></path>
                    <path d="M17.0004685,23 L45,23 L45,9.19490632 C45,6.40193044 42.7547519,4.1378211 39.9850429,4.1378211 L37.9490551,4.1378211 L37.7949292,3.81779023 C36.9651785,2.09460888 35.2324302,1.00057655 33.3329115,1.00057655 L26.2286548,1.00057655 C21.0740389,0.943600484 16.949435,5.1167526 17.0004685,10.3062842 L17.0004685,23 Z" id="Fill-11" fill="#F9DC6A"></path>
                    <path d="M15.389923,56 C15.1568022,56 14.9758269,55.7968143 15.002638,55.5653327 L16.1287068,45.8225345 C16.6439128,41.3635864 20.4186063,38 24.9067493,38 L36.0932521,38 C40.5813951,38 44.3560886,41.3635864 44.8712946,45.8225345 L45.9973634,55.5653327 C46.0241746,55.7968143 45.8430856,56 45.6099648,56 L15.389923,56 Z" id="Fill-13" fill="#C2D9FC"></path>
                    <path d="M26,32 L26,40.6891934 C26,43.0700452 27.790918,45 30,45 C32.2091938,45 34,43.0699248 34,40.6891934 L34,32 L26,32 Z" id="Fill-15" fill="#FFCCAA"></path>
                    <path d="M46,23.0581998 C46,24.4713465 44.8558395,25.6168928 43.4444022,25.6168928 L40.9273639,25.6168928 C40.7778312,28.508679 39.5097295,31.1059782 37.5460655,32.979067 C35.5825163,34.8510068 32.9255851,36 30,36 C24.148715,36 19.3703244,31.402878 19.0726361,25.6168928 L16.5555978,25.6168928 C15.1441605,25.6168928 14,24.4713465 14,23.0581998 L14,21.8476205 C14,20.4344737 15.1441605,19.2889274 16.5555978,19.2889274 L19.056914,19.2889274 L19.056914,14.7147853 L28.2437079,14.7147853 C32.6141256,14.7147853 36.245831,11.5512623 36.9776576,7.38581707 C37.0413496,7.0242289 37.4719303,6.87497467 37.7439123,7.12120393 C39.7090682,8.90087955 40.9432008,11.4743946 40.9432008,14.3369964 L40.9432008,19.2889274 L43.4444022,19.2889274 C44.8558395,19.2889274 46,20.4344737 46,21.8476205 L46,23.0581998 Z" id="Fill-17" fill="#FFCCAA"></path>
                    <path d="M56,47 C56,52.5227769 51.5228907,57 46,57 C40.4772231,57 36,52.5227769 36,47 C36,41.4772231 40.4772231,37 46,37 C51.5228907,37 56,41.4772231 56,47 Z" id="Fill-19" fill="#4DBBA6"></path>
                    <path d="M15.4384983,32.0511088 C14.9782301,31.9069647 14.4539391,32.0781416 14.2672661,32.4335491 C13.8915223,33.1490854 13.0015586,33.6114206 11.9999747,33.6114206 C11.3469189,33.6114206 10.7318692,33.4146921 10.2689634,33.0580811 C10.0354123,32.8777389 9.85521354,32.668142 9.73328263,32.43466 C9.547329,32.0789748 9.02339775,31.9071498 8.56288976,32.0507385 C8.10238177,32.1942346 7.87974097,32.598801 8.0655747,32.9543936 C8.2785042,33.36183 8.5920237,33.7269581 8.99810039,34.0407054 C9.8013817,34.6593125 10.8674679,35 11.9999747,35 C13.7373403,35 15.2815587,34.1975328 15.933895,32.9555046 C16.1204481,32.6001897 15.8986466,32.195253 15.4384983,32.0511088 Z" id="Fill-21" fill="#003D74"></path>
                    <path d="M9,28.8184199 C9,28.3664339 8.55226667,28 8,28 C7.44773333,28 7,28.3664339 7,28.8184199 L7,29.1816892 C7,29.6336753 7.44773333,30 8,30 C8.55226667,30 9,29.6336753 9,29.1816892 L9,28.8184199 Z" id="Fill-23" fill="#003D74"></path>
                    <path d="M17,29.1817339 L17,28.8183753 C17,28.3664139 16.5522667,28 16,28 C15.4477333,28 15,28.3664139 15,28.8183753 L15,29.1817339 C15,29.6335861 15.4477333,30 16,30 C16.5522667,30 17,29.6335861 17,29.1817339 Z" id="Fill-25" fill="#003D74"></path>
                    <path d="M33.3306064,25.4793055 C32.7785895,26.6853831 31.4712601,27.4647688 30.0000235,27.4647688 C29.0407223,27.4647688 28.1374429,27.1333636 27.4573266,26.532167 C27.1142653,26.2280889 26.8492879,25.8742693 26.6699026,25.4805336 C26.4907484,25.0874121 25.9858591,24.8972481 25.542305,25.0560934 C25.0986354,25.2146316 24.8840199,25.661998 25.0632897,26.0551195 C25.3303462,26.6413731 25.7235384,27.1670363 26.2329326,27.6183943 C27.240863,28.5093401 28.5788023,29 30.0000235,29 C32.180138,29 34.1176839,27.8444826 34.9362953,26.0563477 C35.1160271,25.6635332 34.9024512,25.2158598 34.4591282,25.0565028 C34.0159206,24.8971458 33.5105693,25.0863886 33.3306064,25.4793055 Z" id="Fill-27" fill="#003D74"></path>
                    <path d="M26,19.1476079 C26,18.5138223 25.5522667,18 25,18 C24.4477333,18 24,18.5138223 24,19.1476079 L24,19.8523921 C24,20.4861777 24.4477333,21 25,21 C25.5522667,21 26,20.4861777 26,19.8523921 L26,19.1476079 Z" id="Fill-29" fill="#003D74"></path>
                    <path d="M35,19.1476079 L35,19.8523921 C35,20.4861777 35.4476,21 36,21 C36.5522667,21 37,20.4861777 37,19.8523921 L37,19.1476079 C37,18.5138223 36.5522667,18 36,18 C35.4476,18 35,18.5138223 35,19.1476079 Z" id="Fill-31" fill="#003D74"></path>
                    <g id="Group-35">
                        <mask id="mask-6" fill="white">
                            <use xlink:href="#path-5"></use>
                        </mask>
                        <g id="Clip-34"></g>
                        <path d="M21.4654052,55.6847125 L21.4654052,48.8155641 C21.4654052,48.3464664 21.0841183,47.9659547 20.6138116,47.9659547 C20.1435048,47.9659547 19.7622179,48.3464664 19.7622179,48.8155641 L19.7622179,55.6847125 L15.6858096,55.6847125 L16.7526861,46.4863883 C17.2174291,42.4695484 20.6250526,39.4402945 24.679206,39.4402945 L25.3548036,39.4402945 L25.3548036,40.0010367 C25.3548036,42.7050602 27.5598633,44.904982 30.2700884,44.904982 C31.5842677,44.904982 32.8185108,44.3948766 33.7454988,43.4683492 C34.6733952,42.5412555 35.1844649,41.309775 35.1844649,40.0010367 L35.1844649,39.4402945 L35.8600625,39.4402945 C36.6699849,39.4402945 37.4579928,39.5589 38.2152299,39.7925992 C36.3892996,41.7277828 35.2686024,44.3324586 35.2686024,47.1936031 C35.2686024,50.6341812 36.8886741,53.7043297 39.4075745,55.6847125 L21.4654052,55.6847125 Z M15.0607398,46.2909781 L14.1944988,53.7599508 L6.16544701,53.7599508 L6.16544701,49.0315914 C6.16544701,48.5622672 5.78416016,48.181982 5.31385339,48.181982 C4.84354661,48.181982 4.46225976,48.5622672 4.46225976,49.0315914 L4.46225976,53.7599508 L2.01761833,53.7599508 L2.75816414,47.375193 C3.07983944,44.591193 5.44204661,42.4917516 8.25253267,42.4917516 L8.55706255,42.4917516 C8.85580159,44.2800094 10.4167159,45.6477672 12.2924928,45.6477672 C13.3035048,45.6477672 14.254451,45.254568 14.9702438,44.5403297 C15.5363833,43.9756227 15.9004112,43.2637633 16.0282637,42.4918648 L16.332453,42.4918648 C16.3342697,42.4918648 16.3360865,42.4919781 16.3380167,42.4919781 C15.6678693,43.6245641 15.2206124,44.9095133 15.0607398,46.2909781 Z M14.377194,40.3876656 L14.377194,41.8689312 C14.377194,42.4236695 14.1600944,42.9457828 13.7658633,43.3390953 C13.3717458,43.7322945 12.8485267,43.948775 12.2924928,43.948775 C11.142955,43.948775 10.2077916,43.0157906 10.2077916,41.8689312 L10.2077916,40.3866461 C10.8763494,40.5510172 11.574202,40.6398297 12.2924928,40.6398297 C13.002949,40.6398297 13.7019371,40.5537359 14.377194,40.3876656 Z M5.32884143,32.3478687 C5.305451,31.896443 4.93154462,31.5422125 4.47838327,31.5422125 L2.67868207,31.5422125 C2.14081554,31.5422125 1.70332351,31.1050602 1.70332351,30.5678805 L1.70332351,29.7059234 C1.70332351,29.1687437 2.14092908,28.7315914 2.67868207,28.7315914 L4.46702869,28.7315914 C4.93733546,28.7315914 5.31862231,28.351193 5.31862231,27.881982 L5.31862231,25.0014664 L6.71750677,25.0014664 C7.68798287,25.0014664 8.57125578,24.4301891 8.96787131,23.5453492 L9.42069203,22.5327281 L11.9338016,24.483318 C12.3636861,24.8174977 12.901212,25.0015797 13.4472538,25.0015797 L14.069939,25.0015797 C14.6617398,25.9821422 15.7390625,26.6397398 16.9676283,26.6397398 L18.6768335,26.6397398 C18.8484012,28.0591539 19.2745386,29.3964391 19.9065347,30.6073023 C19.6959072,32.0583219 19.2832817,33.3044156 18.9225466,34.1876695 C18.8991562,34.2292437 18.8782637,34.2726305 18.8616861,34.3190758 C18.8395446,34.3809273 18.8136562,34.4416461 18.789698,34.5029312 C18.5719171,35.0038609 18.3887677,35.3500484 18.3044032,35.5027516 C17.9758016,36.0602086 17.5711243,36.5743922 17.1009311,37.0215133 C16.4541741,37.6360641 15.7073833,38.1130914 14.8995048,38.4378687 C14.8980287,38.4386617 14.896439,38.4392281 14.8949629,38.4399078 C14.0769789,38.7680836 13.196204,38.9404977 12.2926064,38.9404977 C11.3741343,38.9404977 10.4960845,38.7627594 9.69115817,38.4402477 C9.68230159,38.4365094 9.67310438,38.4335641 9.66402072,38.4300523 C7.22857649,37.4421266 5.47236335,35.1203141 5.32884143,32.3478687 Z M5.31839522,19.2568609 C5.31839522,18.5546305 5.89146096,17.9834664 6.59578566,17.9834664 L8.92688127,17.9834664 C9.39718805,17.9834664 9.7784749,17.6031812 9.7784749,17.133857 L9.7784749,16.3613922 C9.7784749,16.033443 10.0458753,15.8799469 10.3745904,15.8799469 L15.4638275,15.8799469 L15.4638275,19.0549937 C14.3527817,19.6081461 13.5874829,20.7533062 13.5874829,22.0738258 L13.5874829,23.267357 C13.5874829,23.2791383 13.5882777,23.2905797 13.5883912,23.3022477 L13.4472538,23.3022477 C13.2785247,23.3022477 13.1126343,23.245607 12.9800127,23.1424078 L10.2116522,20.9935758 C9.85704861,20.7194352 9.40411434,20.6242789 8.96900677,20.7332555 C8.53401275,20.8418922 8.17940916,21.1386891 7.99591912,21.5477477 L7.41263426,22.852068 C7.29000478,23.1255289 7.01715418,23.3021344 6.71727968,23.3021344 L5.31839522,23.3021344 L5.31839522,19.2568609 Z M21.4923155,2.72856016 L21.4923155,2.72844687 C22.7191781,2.05431016 24.0985327,1.6994 25.5137677,1.6994 L32.5944849,1.6994 C34.1515386,1.6994 35.5965227,2.60179844 36.2766622,3.99991562 L36.4310845,4.31597031 C36.5738116,4.60789609 36.870961,4.79311094 37.1963833,4.79311094 L39.2255606,4.79311094 C41.5120327,4.79311094 43.3722538,6.64899766 43.3722538,8.93025547 L43.3722538,18.7016695 L41.9486163,18.7016695 L41.9486163,14.6691969 C41.9486163,11.7238844 40.6925725,8.90125547 38.5026143,6.9248375 C38.1488056,6.60549766 37.6493175,6.50263828 37.199449,6.65692734 C36.7488992,6.81110312 36.4175725,7.19875156 36.3346841,7.66864219 C35.6681701,11.4484977 32.386696,14.191943 28.5319291,14.191943 L19.4424729,14.191943 L18.5930367,14.2029312 L18.5930367,15.90215 L18.5908793,15.8911617 L18.5908793,18.7016695 L17.1670147,18.7016695 L17.1670147,10.026818 C17.1670147,8.50137266 17.575212,7.03845859 18.3514112,5.75067734 L18.3902438,5.77242734 C18.3989869,5.75690781 19.2915705,4.20223594 21.4923155,2.72856016 Z M18.2757896,38.2516344 C18.8325048,37.7222711 19.3170048,37.1182555 19.7149829,36.4630367 L19.7158912,36.4636031 C19.7220227,36.4534078 19.7415526,36.420443 19.7718693,36.3669742 C20.0020267,35.9768336 20.2020944,35.5697008 20.3679849,35.1494273 C20.6494649,34.4999859 20.9730705,33.6358766 21.236951,32.6146461 C22.3467478,33.9632594 23.7527857,35.0572164 25.3548036,35.7985289 L25.3548036,37.7410758 L24.679206,37.7410758 C21.8629291,37.7410758 19.305196,38.947068 17.5259331,40.8917672 C17.1328375,40.8266305 16.7333833,40.7927594 16.332453,40.7927594 L16.0803813,40.7927594 L16.0803813,39.7711891 C16.8773594,39.3846734 17.6184729,38.8761539 18.2757896,38.2516344 Z M33.4812777,36.4300719 L33.4812777,40.0010367 C33.4812777,40.8565367 33.1469988,41.6615133 32.54021,42.2679078 C31.9350108,42.8726031 31.1288355,43.2057633 30.2700884,43.2057633 C28.4990008,43.2057633 27.0579908,41.7679977 27.0579908,40.0010367 L27.0579908,36.4306383 C28.0793355,36.7212047 29.1568853,36.8765133 30.2697478,36.8765133 C31.369212,36.8765133 32.4480108,36.7238102 33.4812777,36.4300719 Z M45.248712,22.0738258 L45.248712,23.267357 C45.248712,24.1900328 44.4964709,24.9405211 43.5718673,24.9405211 L41.0813534,24.9405211 C40.628192,24.9405211 40.2543992,25.2946383 40.2310088,25.7460641 C40.0987279,28.2947789 39.0039191,30.6697203 37.148694,32.4331695 C36.2280645,33.3078141 35.1653892,33.987275 34.0157378,34.4516148 C34.0052916,34.4559195 33.9950725,34.4603375 33.9847398,34.4648687 C32.8169211,34.9321539 31.5596283,35.1772945 30.2696343,35.1772945 C28.9547737,35.1772945 27.6978215,34.9228648 26.5458992,34.4607906 C26.5320466,34.4547867 26.5177398,34.4495758 26.5035466,34.4442516 C23.022459,33.0298219 20.5130964,29.7098883 20.3083733,25.7461773 C20.2849829,25.2946383 19.91119,24.9404078 19.4579151,24.9404078 L16.9676283,24.9404078 C16.0429112,24.9404078 15.2906701,24.1899195 15.2906701,23.267357 L15.2906701,22.0738258 C15.2906701,21.1512633 16.0429112,20.400775 16.9676283,20.400775 L19.4424729,20.400775 C19.9127797,20.400775 20.2940665,20.0203766 20.2940665,19.5511656 L20.2940665,15.8910484 L28.5319291,15.8910484 C32.970208,15.8910484 36.78319,12.8963453 37.8592637,8.67299375 C39.3832757,10.2875914 40.2454291,12.4361969 40.2454291,14.6690836 L40.2454291,19.5511656 C40.2454291,20.0203766 40.6266024,20.400775 41.0970227,20.400775 L43.5718673,20.400775 C44.4964709,20.400775 45.248712,21.1512633 45.248712,22.0738258 Z M55.1806781,47.1704937 C55.1806781,52.1657437 51.1072219,56.2297086 46.100192,56.2297086 C41.0933892,56.2297086 37.0199331,52.1657437 37.0199331,47.1704937 C37.0199331,42.1752437 41.0933892,38.1112789 46.100192,38.1112789 C51.1072219,38.1112789 55.1806781,42.1752437 55.1806781,47.1704937 Z M52.8017797,38.7030602 C52.7330845,38.649025 52.658712,38.6073375 52.5812737,38.5774312 C51.6869869,37.9045406 50.6848315,37.3672477 49.6058056,36.996025 C49.5431283,36.955357 49.4746602,36.9215992 49.4001741,36.8978102 C48.3368175,36.5588727 47.226453,36.387025 46.1003056,36.387025 C43.688706,36.387025 41.4587797,37.1778414 39.656694,38.5125211 C38.4565147,38.0004898 37.1819629,37.7410758 35.8601761,37.7410758 L35.1845785,37.7410758 L35.1845785,35.7981891 C36.3279849,35.2687125 37.3882757,34.5520953 38.3235526,33.6636305 C40.2990227,31.7859937 41.5378076,29.3163492 41.8624351,26.6397398 L43.5719809,26.6397398 C45.4358355,26.6397398 46.9520127,25.126982 46.9520127,23.267357 L46.9520127,22.0738258 C46.9520127,20.753193 46.1867139,19.6079195 45.0756681,19.0548805 L45.0756681,8.93025547 C45.0756681,5.71204844 42.4513972,3.09389219 39.2257876,3.09389219 L37.7260745,3.09389219 C36.7325486,1.20855234 34.738457,0.00018125 32.5944849,0.00018125 L25.5137677,0.00018125 C23.5960924,0.00018125 21.731443,0.540872656 20.1215904,1.56402891 C20.02871,1.62293516 19.9518394,1.69736094 19.8907518,1.78118906 C18.9015406,2.52544687 18.1843853,3.26494687 17.7011343,3.84154844 C17.5931522,3.89920859 17.4957299,3.98031797 17.4182916,4.08510312 C17.3617458,4.16168125 17.306449,4.23882578 17.2521741,4.31653672 C16.0811761,5.99740391 15.4638275,7.96555234 15.4638275,10.026818 L15.4638275,14.1807281 L10.3745904,14.1807281 C9.13262629,14.1807281 8.11741315,15.0549195 8.07653665,16.2842477 L6.5958992,16.2842477 C4.95243705,16.2842477 3.61532151,17.6176812 3.61532151,19.2568609 L3.61532151,23.5808062 L3.61532151,24.1517437 L3.61532151,27.0323727 L2.67856853,27.0323727 C1.20156454,27.0323727 2.27091623e-05,28.2316812 2.27091623e-05,29.7059234 L2.27091623e-05,30.5678805 C2.27091623e-05,32.0420094 1.20167809,33.2414312 2.67856853,33.2414312 L3.70706653,33.2414312 C4.12854861,36.1370133 5.97673386,38.5502437 8.50460438,39.7743609 L8.50460438,40.7926461 L8.25253267,40.7926461 C4.57648685,40.7926461 1.48713227,43.5389234 1.06621793,47.1804625 L0.252094422,54.1991422 C0.21496494,54.5187086 0.316701992,54.8399742 0.531303586,55.080357 C0.746245817,55.3210797 1.05497689,55.4591695 1.37846892,55.4591695 L13.9973833,55.4591695 L13.9341382,56.0050719 C13.8945108,56.3557906 14.0069211,56.7076422 14.2424151,56.9706812 C14.4775685,57.2332672 14.8147996,57.3837047 15.1674729,57.3837047 L42.4949988,57.3837047 C43.6234171,57.7823414 44.8367677,57.9999547 46.100192,57.9999547 C52.0730426,57.9999547 56.9321223,53.1523102 56.9321223,47.1933766 C56.9321223,43.862568 55.4266183,40.7677242 52.8017797,38.7030602 Z" id="Fill-33" fill="#003D74" mask="url(#mask-6)"></path>
                    </g>
                    <g id="Fill-38" transform="translate(43.000000, 41.000000)" fill="#003D74">
                        <path d="M2.04209081,2.01683172 C0.890536998,2.40014734 0.0632008028,3.43226282 0.0632008028,4.64282251 C0.0632008028,6.17899439 1.39481811,7.42858875 3.03153582,7.42858875 C3.57715144,7.42858875 4.02085165,7.8451202 4.02085165,8.35705627 C4.02085165,8.86911356 3.57715144,9.28564501 3.03153582,9.28564501 C2.60889038,9.28564501 2.1524023,9.03628378 1.74680735,8.58338462 C1.39507645,8.1906134 0.770796068,8.14006229 0.352671593,8.47003861 C-0.0655820522,8.80013615 -0.119446095,9.38589866 0.232026471,9.7783062 C0.761108291,10.3689177 1.38293443,10.7803577 2.04221998,10.9877749 L2.04221998,12.0714113 C2.04221998,12.5841959 2.48514517,13 3.03153582,13 C3.57818481,13 4.02098082,12.5841959 4.02098082,12.0714113 L4.02098082,10.9831683 C5.17253463,10.5998527 6,9.56773718 6,8.35705627 C6,6.82100561 4.6683827,5.57141125 3.03153582,5.57141125 C2.48604936,5.57141125 2.04221998,5.15475857 2.04221998,4.64282251 C2.04221998,4.13076521 2.48604936,3.71423376 3.03153582,3.71423376 C3.38210419,3.71423376 3.75217729,3.88213133 4.1017123,4.1996214 C4.49439021,4.55626737 5.12099566,4.54656931 5.50075653,4.17816446 C5.88077575,3.80951715 5.87057129,3.2216938 5.47789338,2.86504784 C4.975679,2.40899681 4.47320627,2.15114978 4.02085165,2.01028553 L4.02085165,0.928467521 C4.02085165,0.415804099 3.57805564,0 3.03153582,0 C2.485016,0 2.04209081,0.415804099 2.04209081,0.928467521 L2.04209081,2.01683172 Z" id="Fill-36"></path>
                    </g>
                </g>
            </g>
        </g>
    </g>
</svg>