<?xml version="1.0" encoding="UTF-8"?>
<svg width="50px" height="52px" viewBox="0 0 50 52" version="1.1" xmlns="http://www.w3.org/2000/svg" xmlns:xlink="http://www.w3.org/1999/xlink">
    <!-- Generator: sketchtool 52.5 (67469) - http://www.bohemiancoding.com/sketch -->
    <title>F0FE0329-E086-4B6A-883A-14C00CAADCE5</title>
    <desc>Created with sketchtool.</desc>
    <g id="Symbols" stroke="none" stroke-width="1" fill="none" fill-rule="evenodd">
        <g id="FAQs-" transform="translate(-497.000000, -95.000000)" fill="#003D74">
            <g id="Fill-2" transform="translate(497.000000, 95.000000)">
                <path d="M34.2299197,38.0143975 L29.4799675,33.5635754 L27.8846154,35.0581085 L33.5258888,40.3447484 C33.7374366,40.5440547 34.0251415,40.6545455 34.3235649,40.6545455 C34.3444376,40.6545455 34.3653103,40.6534881 34.386183,40.6524308 C34.7054791,40.6360422 35.0044666,40.4922456 35.2047318,40.2580475 L44.2307692,29.6852963 L42.4678713,28.3636364 L34.2299197,38.0143975 Z M48.0769231,43.3615587 C48.0769231,44.5610319 47.3411276,45.5374738 46.0882867,45.5374738 L39.2701049,45.5374738 C38.9127185,45.5374738 38.5752185,45.6990355 38.361014,45.9737448 L35.861014,49.1636364 L33.361014,45.9737448 C33.1468094,45.6990355 32.8093094,45.5374738 32.4519231,45.5374738 L25.6337413,45.5374738 C24.3803322,45.5374738 23.0769231,44.5610319 23.0769231,43.3615587 L23.0769231,24.8668242 C23.0769231,23.666807 24.3803322,22.6909091 25.6337413,22.6909091 L46.0882867,22.6909091 C47.3411276,22.6909091 48.0769231,23.666807 48.0769231,24.8668242 L48.0769231,43.3615587 Z M45.839497,20.8 L25.8690828,20.8 C23.4221524,20.8 21.1538462,22.7301298 21.1538462,25.1035225 L21.1538462,43.3929551 C21.1538462,45.7663477 23.4221524,47.6964775 25.8690828,47.6964775 L31.9711538,47.6964775 L34.966716,51.5691098 C35.1758506,51.8402317 35.5053624,52 35.8542899,52 C36.2032175,52 36.5327293,51.8402317 36.7418639,51.5691098 L39.737426,47.6964775 L45.839497,47.6964775 C48.2869822,47.6964775 50,45.7663477 50,43.3929551 L50,25.1035225 C50,22.7301298 48.2869822,20.8 45.839497,20.8 Z M15.3846154,24.5818182 L17.3076923,24.5818182 L17.3076923,22.6909091 L15.3846154,22.6909091 L15.3846154,24.5818182 Z M16.3450002,7.56363636 C13.7326381,7.56363636 10.9328134,9.23748485 10.5769231,12.9784121 L12.8662729,13.1775091 C13.1742882,9.93349697 15.7889576,9.76969697 16.3138526,9.76969697 C17.1254211,9.76969697 19.7389368,9.97265455 19.7389368,12.5962121 C19.7389368,13.9794121 18.8944903,14.6528121 17.6347423,15.6345091 C16.4834341,16.5312727 14.9075954,17.6475394 14.9075954,19.6969697 L14.9075954,20.8 L17.2148263,20.8 L17.2148263,19.6969697 C17.2148263,18.742297 17.9842878,18.2067758 19.090605,17.3442061 C20.3751557,16.3437576 22.1153846,15.0973333 22.1153846,12.5962121 C22.1153846,9.58604242 19.795464,7.56363636 16.3450002,7.56363636 Z M16.8269231,30.0024242 C8.78533654,30.0024242 2.24358974,23.7538836 2.24358974,16.0727273 C2.24358974,8.39103515 8.78533654,2.1430303 16.8269231,2.1430303 C24.8685096,2.1430303 31.4102564,8.39103515 31.4102564,16.0727273 C31.4102564,16.6642036 31.9122596,17.1442424 32.5320513,17.1442424 C33.1518429,17.1442424 33.6538462,16.6642036 33.6538462,16.0727273 C33.6538462,7.21022545 26.1052885,0 16.8269231,0 C7.54855769,0 0,7.21022545 0,16.0727273 C0,24.9352291 7.54855769,32.1454545 16.8269231,32.1454545 C17.4461538,32.1454545 17.9487179,31.6659515 17.9487179,31.0739394 C17.9487179,30.4819273 17.4461538,30.0024242 16.8269231,30.0024242 Z" id="Fill-1"></path>
            </g>
        </g>
    </g>
</svg>