<?xml version="1.0" encoding="UTF-8"?>
<svg width="55px" height="51px" viewBox="0 0 55 51" version="1.1" xmlns="http://www.w3.org/2000/svg" xmlns:xlink="http://www.w3.org/1999/xlink">
    <!-- Generator: sketchtool 52.5 (67469) - http://www.bohemiancoding.com/sketch -->
    <title>D058483F-F187-41C7-930B-2526168BD3A8</title>
    <desc>Created with sketchtool.</desc>
    <defs>
        <polygon id="path-1" points="0.0706110058 0.0917391785 10.2033103 0.0917391785 10.2033103 10.3149859 0.0706110058 10.3149859"></polygon>
        <polygon id="path-3" points="0.0706110058 0.102211014 10.2033103 0.102211014 10.2033103 10.3243448 0.0706110058 10.3243448"></polygon>
        <polygon id="path-5" points="1.32902326e-05 0.0796449459 46.9954719 0.0796449459 46.9954719 41.9479204 1.32902326e-05 41.9479204"></polygon>
    </defs>
    <g id="design-desk" stroke="none" stroke-width="1" fill="none" fill-rule="evenodd">
        <g id="Spred-design-" transform="translate(-185.000000, -1305.000000)">
            <g id="Group-25" transform="translate(185.000000, 1305.000000)">
                <g id="Group-24">
                    <path d="M34.9662963,34.5414097 C33.1974992,34.5414097 31.7584329,35.9937903 31.7584329,37.7782929 C31.7584329,39.5621252 33.1974992,41.0139694 34.9662963,41.0139694 C36.7350934,41.0139694 38.1741597,39.5621252 38.1741597,37.7782929 C38.1741597,35.9937903 36.7350934,34.5414097 34.9662963,34.5414097 M34.9662963,42.8891118 C32.1726894,42.8891118 29.8999267,40.5965709 29.8999267,37.7782929 C29.8999267,34.9598809 32.1726894,32.6664014 34.9662963,32.6664014 C37.7599032,32.6664014 40.0326659,34.9598809 40.0326659,37.7782929 C40.0326659,40.5965709 37.7599032,42.8891118 34.9662963,42.8891118" id="Fill-1" fill="#003D74"></path>
                    <g id="Group-5" transform="translate(44.123572, 24.859682)">
                        <mask id="mask-2" fill="white">
                            <use xlink:href="#path-1"></use>
                        </mask>
                        <g id="Clip-4"></g>
                        <path d="M5.13698058,1.96674747 C3.36818352,1.96674747 1.92911713,3.41912803 1.92911713,5.2036307 C1.92911713,6.98732888 3.36818352,8.43970944 5.13698058,8.43970944 C6.90577763,8.43970944 8.34484402,6.98732888 8.34484402,5.2036307 C8.34484402,3.41912803 6.90577763,1.96674747 5.13698058,1.96674747 M5.13698058,10.3149859 C2.34337368,10.3149859 0.0706110058,8.02190868 0.0706110058,5.2036307 C0.0706110058,2.38521864 2.34337368,0.0917391785 5.13698058,0.0917391785 C7.93058747,0.0917391785 10.2033501,2.38521864 10.2033501,5.2036307 C10.2033501,8.02190868 7.93058747,10.3149859 5.13698058,10.3149859" id="Fill-3" fill="#003D74" mask="url(#mask-2)"></path>
                    </g>
                    <g id="Group-8" transform="translate(44.123572, 40.279158)">
                        <mask id="mask-4" fill="white">
                            <use xlink:href="#path-3"></use>
                        </mask>
                        <g id="Clip-7"></g>
                        <path d="M5.13698058,1.9772193 C3.36818352,1.9772193 1.92911713,3.42906354 1.92911713,5.21356621 C1.92911713,6.99793479 3.36818352,8.44937678 5.13698058,8.44937678 C6.90577763,8.44937678 8.34484402,6.99793479 8.34484402,5.21356621 C8.34484402,3.42906354 6.90577763,1.9772193 5.13698058,1.9772193 M5.13698058,10.3243851 C2.34337368,10.3243851 0.0706110058,8.03184418 0.0706110058,5.21356621 C0.0706110058,2.39502006 2.34337368,0.102211014 5.13698058,0.102211014 C7.93058747,0.102211014 10.2033501,2.39502006 10.2033501,5.21356621 C10.2033501,8.03184418 7.93058747,10.3243851 5.13698058,10.3243851" id="Fill-6" fill="#003D74" mask="url(#mask-4)"></path>
                    </g>
                    <path d="M38.6662705,36.8077106 C38.3293631,36.8077106 38.0044169,36.6222747 37.8397509,36.2996724 C37.6046467,35.8397698 37.7836661,35.2740761 38.2395211,35.0368844 L45.1136281,31.4595659 C45.5698818,31.2223742 46.1305967,31.4029832 46.3653022,31.8628858 C46.6009381,32.3233248 46.4217857,32.8884821 45.9660636,33.1262102 L39.091425,36.7035286 C38.9549343,36.77419 38.8100708,36.8077106 38.6662705,36.8077106" id="Fill-9" fill="#003D74"></path>
                    <path d="M45.5387694,44.5588265 C45.403209,44.5588265 45.2661867,44.5287921 45.136474,44.4656392 L38.1060739,41.0470744 C37.6441054,40.8223523 37.4499351,40.2618878 37.6725465,39.7958174 C37.8947592,39.3290766 38.4508225,39.1331822 38.9129239,39.3579043 L45.9431912,42.7764692 C46.4052925,43.0011913 46.5993299,43.5616557 46.3767185,44.0277261 C46.216837,44.3634685 45.8849799,44.5588265 45.5387694,44.5588265" id="Fill-11" fill="#003D74"></path>
                    <g id="Group-15" transform="translate(0.000000, 0.054437)">
                        <path d="M32.4167512,41.9479204 L6.23911299,41.9479204 C2.79880337,41.9479204 1.32902326e-05,39.1242791 1.32902326e-05,35.6534221 L1.32902326e-05,6.37411643 C1.32902326e-05,2.9032594 2.79880337,0.0796181295 6.23911299,0.0796181295 L40.755309,0.0796181295 C44.1962831,0.0796181295 46.9954719,2.9032594 46.9954719,6.37411643 L46.9954719,27.3569395 C46.9954719,27.8744975 46.5792218,28.2945777 46.0662188,28.2945777 C45.5522855,28.2945777 45.1369658,27.8744975 45.1369658,27.3569395 L45.1369658,6.37411643 C45.1369658,3.93703471 43.1714733,1.95462642 40.755309,1.95462642 L6.23911299,1.95462642 C3.82401192,1.95462642 1.85851942,3.93703471 1.85851942,6.37411643 L1.85851942,35.6534221 C1.85851942,38.0899675 3.82401192,40.0729121 6.23911299,40.0729121 L32.4167512,40.0729121 C32.9301529,40.0729121 33.3460043,40.4928582 33.3460043,41.0104162 C33.3460043,41.5283765 32.9301529,41.9479204 32.4167512,41.9479204" id="Fill-13" fill="#003D74"></path>
                        <mask id="mask-6" fill="white">
                            <use xlink:href="#path-5"></use>
                        </mask>
                        <g id="Clip-14"></g>
                    </g>
                    <path d="M46.0662321,12.9032723 L0.929279644,12.9032723 C0.416409568,12.9032723 2.65804652e-05,12.4842648 2.65804652e-05,11.9657682 C2.65804652e-05,11.4483442 0.416409568,11.028264 0.929279644,11.028264 L46.0662321,11.028264 C46.5791022,11.028264 46.9954852,11.4483442 46.9954852,11.9657682 C46.9954852,12.4842648 46.5791022,12.9032723 46.0662321,12.9032723" id="Fill-16" fill="#003D74"></path>
                    <path d="M14.9922646,5.81745993 C14.5846531,5.81745993 14.2539922,6.15159327 14.2539922,6.56268991 C14.2539922,6.97392064 14.5846531,7.30805398 14.9922646,7.30805398 C15.3992115,7.30805398 15.7309357,6.97392064 15.7309357,6.56268991 C15.7309357,6.15159327 15.3992115,5.81745993 14.9922646,5.81745993 M14.9922646,9.18306227 C13.5598433,9.18306227 12.395486,8.0072937 12.395486,6.56268991 C12.395486,5.11768388 13.5598433,3.94231756 14.9922646,3.94231756 C16.4245529,3.94231756 17.5895747,5.11768388 17.5895747,6.56268991 C17.5895747,8.0072937 16.4245529,9.18306227 14.9922646,9.18306227" id="Fill-18" fill="#003D74"></path>
                    <path d="M7.49937763,5.7938212 C7.0917662,5.7938212 6.76110521,6.12795455 6.76110521,6.53905119 C6.76110521,6.95028191 7.0917662,7.28441525 7.49937763,7.28441525 C7.90632455,7.28441525 8.23804876,6.95028191 8.23804876,6.53905119 C8.23804876,6.12795455 7.90632455,5.7938212 7.49937763,5.7938212 M7.49937763,9.15942354 C6.06695636,9.15942354 4.90206747,7.98365497 4.90206747,6.53905119 C4.90206747,5.09350883 6.06695636,3.91881291 7.49937763,3.91881291 C8.931666,3.91881291 10.0966878,5.09404515 10.0966878,6.53905119 C10.0966878,7.98365497 8.931666,9.15942354 7.49937763,9.15942354" id="Fill-20" fill="#003D74"></path>
                    <path d="M22.4855369,5.84089753 C22.0780584,5.84089753 21.7468658,6.17516496 21.7468658,6.5862616 C21.7468658,6.99695599 22.0780584,7.33162566 22.4855369,7.33162566 C22.8926168,7.33162566 23.224341,6.99695599 23.224341,6.5862616 C23.224341,6.17516496 22.8926168,5.84089753 22.4855369,5.84089753 M22.4855369,9.20663395 C21.0532486,9.20663395 19.8882268,8.0307313 19.8882268,6.5862616 C19.8882268,5.14125557 21.0532486,3.96588924 22.4855369,3.96588924 C23.9174266,3.96588924 25.0828471,5.14125557 25.0828471,6.5862616 C25.0828471,8.0307313 23.9174266,9.20663395 22.4855369,9.20663395" id="Fill-22" fill="#003D74"></path>
                </g>
            </g>
        </g>
    </g>
</svg>