<?xml version="1.0" encoding="UTF-8"?>
<svg width="26px" height="21px" viewBox="0 0 26 21" version="1.1" xmlns="http://www.w3.org/2000/svg" xmlns:xlink="http://www.w3.org/1999/xlink">
    <!-- Generator: sketchtool 52.5 (67469) - http://www.bohemiancoding.com/sketch -->
    <title>AE96AB52-6B31-47A3-99EB-8D6696CA7117</title>
    <desc>Created with sketchtool.</desc>
    <g id="design-desck" stroke="none" stroke-width="1" fill="none" fill-rule="evenodd">
        <g id="Spred-design-" transform="translate(-1265.000000, -1501.000000)" fill="#67CEBB">
            <g id="Group-17" transform="translate(186.000000, 1235.000000)">
                <path d="M1098.4575,275.853933 C1097.505,275.853933 1096.72875,275.077647 1096.72875,274.113894 C1096.72875,273.155173 1097.505,272.373854 1098.4575,272.373854 C1099.41,272.373854 1100.18625,273.155173 1100.18625,274.113894 C1100.18625,275.077647 1099.41,275.853933 1098.4575,275.853933 M1091.9975,275.853933 C1091.04625,275.853933 1090.27,275.077647 1090.27,274.113894 C1090.27,273.155173 1091.04625,272.373854 1091.9975,272.373854 C1092.955,272.373854 1093.72625,273.155173 1093.72625,274.113894 C1093.72625,275.077647 1092.955,275.853933 1091.9975,275.853933 M1085.54125,275.853933 C1084.585,275.853933 1083.815,275.077647 1083.815,274.113894 C1083.815,273.155173 1084.585,272.373854 1085.54125,272.373854 C1086.495,272.373854 1087.27125,273.155173 1087.27125,274.113894 C1087.27125,275.077647 1086.495,275.853933 1085.54125,275.853933 M1101.76375,266 L1082.6225,266 C1080.9375,266 1079,267.503505 1079,268.957941 L1079,280.631178 C1079,281.967348 1080.64,282.936133 1082.2175,283.083338 L1081.19125,287 L1087.75875,283.112276 L1101.76375,283.112276 C1103.4425,283.112276 1105,282.080582 1105,280.631178 L1105,268.957941 C1105,267.503505 1103.4425,266 1101.76375,266" id="Fill-1"></path>
            </g>
        </g>
    </g>
</svg>